G04*
G04 #@! TF.GenerationSoftware,Altium Limited,Altium Designer,18.1.9 (240)*
G04*
G04 Layer_Color=128*
%FSLAX44Y44*%
%MOMM*%
G71*
G01*
G75*
%ADD118C,0.0508*%
D118*
X807000Y456000D02*
X817000D01*
X812000Y451000D02*
Y461000D01*
X832400Y430600D02*
X842400D01*
X837400Y425600D02*
Y435600D01*
X832400Y456000D02*
X842400D01*
X837400Y451000D02*
Y461000D01*
X857800Y430600D02*
X867800D01*
X862800Y425600D02*
Y435600D01*
X857800Y456000D02*
X867800D01*
X862800Y451000D02*
Y461000D01*
X807000Y430600D02*
X817000D01*
X812000Y425600D02*
Y435600D01*
X197500Y479000D02*
X207500D01*
X202500Y474000D02*
Y484000D01*
X146500Y497000D02*
X156500D01*
X151500Y492000D02*
Y502000D01*
X30681Y506332D02*
X50681D01*
X40681Y496332D02*
Y516332D01*
X30681Y553332D02*
X50681D01*
X40681Y543332D02*
Y563332D01*
X95000Y882720D02*
X107000D01*
X101000Y876720D02*
Y888720D01*
X119000Y882720D02*
X131000D01*
X125000Y876720D02*
Y888720D01*
X71000Y882720D02*
X83000D01*
X77000Y876720D02*
Y888720D01*
X1230000Y72599D02*
X1242000D01*
X1236000Y66599D02*
Y78599D01*
X1206000Y72599D02*
X1218000D01*
X1212000Y66599D02*
Y78599D01*
X586550Y882720D02*
X598550D01*
X592550Y876720D02*
Y888720D01*
X610550Y882720D02*
X622550D01*
X616550Y876720D02*
Y888720D01*
X810550Y882720D02*
X822550D01*
X816550Y876720D02*
Y888720D01*
X834550Y882720D02*
X846550D01*
X840550Y876720D02*
Y888720D01*
X645000Y150480D02*
X655000D01*
X650000Y145480D02*
Y155480D01*
X620000Y130000D02*
X630000D01*
X625000Y125000D02*
Y135000D01*
X620000Y150000D02*
X630000D01*
X625000Y145000D02*
Y155000D01*
X686200Y102900D02*
X709200D01*
X697700Y91400D02*
Y114400D01*
X645000Y130000D02*
X655000D01*
X650000Y125000D02*
Y135000D01*
X565800Y102900D02*
X588800D01*
X577300Y91400D02*
Y114400D01*
X1263000Y94000D02*
X1273000D01*
X1268000Y89000D02*
Y99000D01*
X1263000Y68600D02*
X1273000D01*
X1268000Y63600D02*
Y73600D01*
X1174000Y94000D02*
X1184000D01*
X1179000Y89000D02*
Y99000D01*
X1174000Y68600D02*
X1184000D01*
X1179000Y63600D02*
Y73600D01*
X983000Y221000D02*
X995000D01*
X989000Y215000D02*
Y227000D01*
X959000Y221000D02*
X971000D01*
X965000Y215000D02*
Y227000D01*
X886000Y221000D02*
X898000D01*
X892000Y215000D02*
Y227000D01*
X862000Y221000D02*
X874000D01*
X868000Y215000D02*
Y227000D01*
X787000Y221000D02*
X799000D01*
X793000Y215000D02*
Y227000D01*
X763000Y221000D02*
X775000D01*
X769000Y215000D02*
Y227000D01*
X983000Y72599D02*
X995000D01*
X989000Y66599D02*
Y78599D01*
X959000Y72599D02*
X971000D01*
X965000Y66599D02*
Y78599D01*
X886000Y72599D02*
X898000D01*
X892000Y66599D02*
Y78599D01*
X862000Y72599D02*
X874000D01*
X868000Y66599D02*
Y78599D01*
X787000Y72599D02*
X799000D01*
X793000Y66599D02*
Y78599D01*
X763000Y72599D02*
X775000D01*
X769000Y66599D02*
Y78599D01*
X1020000Y245401D02*
X1030000D01*
X1025000Y240401D02*
Y250401D01*
X1020000Y220001D02*
X1030000D01*
X1025000Y215001D02*
Y225001D01*
X923000Y245401D02*
X933000D01*
X928000Y240401D02*
Y250401D01*
X923000Y220001D02*
X933000D01*
X928000Y215001D02*
Y225001D01*
X824000Y245401D02*
X834000D01*
X829000Y240401D02*
Y250401D01*
X824000Y220001D02*
X834000D01*
X829000Y215001D02*
Y225001D01*
X1020000Y97999D02*
X1030000D01*
X1025000Y92999D02*
Y102999D01*
X1020000Y72599D02*
X1030000D01*
X1025000Y67599D02*
Y77599D01*
X923000Y97999D02*
X933000D01*
X928000Y92999D02*
Y102999D01*
X923000Y72599D02*
X933000D01*
X928000Y67599D02*
Y77599D01*
X824000Y97999D02*
X834000D01*
X829000Y92999D02*
Y102999D01*
X824000Y72599D02*
X834000D01*
X829000Y67599D02*
Y77599D01*
X507550Y858720D02*
X519550D01*
X513550Y852720D02*
Y864720D01*
X507550Y834720D02*
X519550D01*
X513550Y828720D02*
Y840720D01*
X507550Y882720D02*
X519550D01*
X513550Y876720D02*
Y888720D01*
X697550Y857320D02*
X707550D01*
X702550Y852320D02*
Y862320D01*
X697550Y882720D02*
X707550D01*
X702550Y877720D02*
Y887720D01*
X731550Y858720D02*
X743550D01*
X737550Y852720D02*
Y864720D01*
X731550Y834720D02*
X743550D01*
X737550Y828720D02*
Y840720D01*
X731550Y882720D02*
X743550D01*
X737550Y876720D02*
Y888720D01*
X1245000Y592841D02*
X1255000D01*
X1250000Y587841D02*
Y597841D01*
X1270400Y592841D02*
X1280400D01*
X1275400Y587841D02*
Y597841D01*
X1246000Y420681D02*
X1256000D01*
X1251000Y415681D02*
Y425681D01*
X1271400Y420681D02*
X1281400D01*
X1276400Y415681D02*
Y425681D01*
X1245000Y503001D02*
X1255000D01*
X1250000Y498001D02*
Y508001D01*
X1270400Y503001D02*
X1280400D01*
X1275400Y498001D02*
Y508001D01*
X154000Y91500D02*
X164000D01*
X159000Y86500D02*
Y96500D01*
X136000Y40500D02*
X146000D01*
X141000Y35500D02*
Y45500D01*
X35000Y50000D02*
X55000D01*
X45000Y40000D02*
Y60000D01*
X82000Y50000D02*
X102000D01*
X92000Y40000D02*
Y60000D01*
X236000Y857320D02*
X246000D01*
X241000Y852320D02*
Y862320D01*
X236000Y882720D02*
X246000D01*
X241000Y877720D02*
Y887720D01*
X274000Y882720D02*
X286000D01*
X280000Y876720D02*
Y888720D01*
X298000Y882720D02*
X310000D01*
X304000Y876720D02*
Y888720D01*
X329000Y882720D02*
X341000D01*
X335000Y876720D02*
Y888720D01*
X353000Y882720D02*
X365000D01*
X359000Y876720D02*
Y888720D01*
X921000Y856600D02*
X931000D01*
X926000Y851600D02*
Y861600D01*
X921000Y882000D02*
X931000D01*
X926000Y877000D02*
Y887000D01*
X999000Y882000D02*
X1011000D01*
X1005000Y876000D02*
Y888000D01*
X1023000Y882000D02*
X1035000D01*
X1029000Y876000D02*
Y888000D01*
X1118000Y856600D02*
X1128000D01*
X1123000Y851600D02*
Y861600D01*
X1118000Y882000D02*
X1128000D01*
X1123000Y877000D02*
Y887000D01*
X1194000Y882000D02*
X1206000D01*
X1200000Y876000D02*
Y888000D01*
X1218000Y882000D02*
X1230000D01*
X1224000Y876000D02*
Y888000D01*
X34000Y857320D02*
X44000D01*
X39000Y852320D02*
Y862320D01*
X34000Y882720D02*
X44000D01*
X39000Y877720D02*
Y887720D01*
X100400Y794020D02*
X110400D01*
X105400Y789020D02*
Y799020D01*
X75000Y768620D02*
X85000D01*
X80000Y763620D02*
Y773620D01*
X100400Y768620D02*
X110400D01*
X105400Y763620D02*
Y773620D01*
X75000Y743220D02*
X85000D01*
X80000Y738220D02*
Y748220D01*
X100400Y743220D02*
X110400D01*
X105400Y738220D02*
Y748220D01*
X75000Y794020D02*
X85000D01*
X80000Y789020D02*
Y799020D01*
X173000Y882720D02*
X185000D01*
X179000Y876720D02*
Y888720D01*
X197000Y882720D02*
X209000D01*
X203000Y876720D02*
Y888720D01*
X149000Y882720D02*
X161000D01*
X155000Y876720D02*
Y888720D01*
X200315Y651500D02*
X235315D01*
X217815Y634000D02*
Y669000D01*
X1050315Y651500D02*
X1085315D01*
X1067815Y634000D02*
Y669000D01*
X207500Y130000D02*
X242500D01*
X225000Y112500D02*
Y147500D01*
X1057500Y130000D02*
X1092500D01*
X1075000Y112500D02*
Y147500D01*
X1141000Y72599D02*
X1153000D01*
X1147000Y66599D02*
Y78599D01*
X1117000Y72599D02*
X1129000D01*
X1123000Y66599D02*
Y78599D01*
X473550Y857320D02*
X483550D01*
X478550Y852320D02*
Y862320D01*
X473550Y882720D02*
X483550D01*
X478550Y877720D02*
Y887720D01*
X279500Y57000D02*
X294500D01*
X287000Y49500D02*
Y64500D01*
X209650Y57000D02*
X224650D01*
X217150Y49500D02*
Y64500D01*
X1019250Y385500D02*
X1022250D01*
X1020750Y384000D02*
Y387000D01*
X1043750Y394750D02*
X1046750D01*
X1045250Y393250D02*
Y396250D01*
X1022500Y397240D02*
X1025500D01*
X1024000Y395740D02*
Y398740D01*
X1008000Y398000D02*
X1011000D01*
X1009500Y396500D02*
Y399500D01*
X1278200Y860400D02*
X1281200D01*
X1279700Y858900D02*
Y861900D01*
X1265500Y835000D02*
X1268500D01*
X1267000Y833500D02*
Y836500D01*
X1278200Y809600D02*
X1281200D01*
X1279700Y808100D02*
Y811100D01*
X1278200Y708000D02*
X1281200D01*
X1279700Y706500D02*
Y709500D01*
X1265500Y682600D02*
X1268500D01*
X1267000Y681100D02*
Y684100D01*
X1278200Y657200D02*
X1281200D01*
X1279700Y655700D02*
Y658700D01*
X1265500Y631800D02*
X1268500D01*
X1267000Y630300D02*
Y633300D01*
X1278200Y606400D02*
X1281200D01*
X1279700Y604900D02*
Y607900D01*
X1265500Y581000D02*
X1268500D01*
X1267000Y579500D02*
Y582500D01*
X1278200Y555600D02*
X1281200D01*
X1279700Y554100D02*
Y557100D01*
X1265500Y530200D02*
X1268500D01*
X1267000Y528700D02*
Y531700D01*
X1265500Y479400D02*
X1268500D01*
X1267000Y477900D02*
Y480900D01*
X1278200Y454000D02*
X1281200D01*
X1279700Y452500D02*
Y455500D01*
X1265500Y428600D02*
X1268500D01*
X1267000Y427100D02*
Y430100D01*
X1278200Y403200D02*
X1281200D01*
X1279700Y401700D02*
Y404700D01*
X1265500Y377800D02*
X1268500D01*
X1267000Y376300D02*
Y379300D01*
X1278200Y352400D02*
X1281200D01*
X1279700Y350900D02*
Y353900D01*
X1265500Y327000D02*
X1268500D01*
X1267000Y325500D02*
Y328500D01*
X1278200Y301600D02*
X1281200D01*
X1279700Y300100D02*
Y303100D01*
X1265500Y276200D02*
X1268500D01*
X1267000Y274700D02*
Y277700D01*
X1252800Y860400D02*
X1255800D01*
X1254300Y858900D02*
Y861900D01*
X1240100Y835000D02*
X1243100D01*
X1241600Y833500D02*
Y836500D01*
X1252800Y708000D02*
X1255800D01*
X1254300Y706500D02*
Y709500D01*
X1240100Y682600D02*
X1243100D01*
X1241600Y681100D02*
Y684100D01*
X1252800Y657200D02*
X1255800D01*
X1254300Y655700D02*
Y658700D01*
X1240100Y631800D02*
X1243100D01*
X1241600Y630300D02*
Y633300D01*
X1252800Y555600D02*
X1255800D01*
X1254300Y554100D02*
Y557100D01*
X1240100Y530200D02*
X1243100D01*
X1241600Y528700D02*
Y531700D01*
X1240100Y479400D02*
X1243100D01*
X1241600Y477900D02*
Y480900D01*
X1252800Y454000D02*
X1255800D01*
X1254300Y452500D02*
Y455500D01*
X1252800Y403200D02*
X1255800D01*
X1254300Y401700D02*
Y404700D01*
X1240100Y377800D02*
X1243100D01*
X1241600Y376300D02*
Y379300D01*
X1252800Y352400D02*
X1255800D01*
X1254300Y350900D02*
Y353900D01*
X1240100Y327000D02*
X1243100D01*
X1241600Y325500D02*
Y328500D01*
X1252800Y301600D02*
X1255800D01*
X1254300Y300100D02*
Y303100D01*
X1240100Y276200D02*
X1243100D01*
X1241600Y274700D02*
Y277700D01*
X1252800Y250800D02*
X1255800D01*
X1254300Y249300D02*
Y252300D01*
X1252800Y98400D02*
X1255800D01*
X1254300Y96900D02*
Y99900D01*
X1227400Y708000D02*
X1230400D01*
X1228900Y706500D02*
Y709500D01*
X1214700Y682600D02*
X1217700D01*
X1216200Y681100D02*
Y684100D01*
X1227400Y657200D02*
X1230400D01*
X1228900Y655700D02*
Y658700D01*
X1214700Y631800D02*
X1217700D01*
X1216200Y630300D02*
Y633300D01*
X1227400Y606400D02*
X1230400D01*
X1228900Y604900D02*
Y607900D01*
X1227400Y555600D02*
X1230400D01*
X1228900Y554100D02*
Y557100D01*
X1214700Y530200D02*
X1217700D01*
X1216200Y528700D02*
Y531700D01*
X1214700Y479400D02*
X1217700D01*
X1216200Y477900D02*
Y480900D01*
X1227400Y454000D02*
X1230400D01*
X1228900Y452500D02*
Y455500D01*
X1227400Y403200D02*
X1230400D01*
X1228900Y401700D02*
Y404700D01*
X1214700Y377800D02*
X1217700D01*
X1216200Y376300D02*
Y379300D01*
X1227400Y352400D02*
X1230400D01*
X1228900Y350900D02*
Y353900D01*
X1214700Y327000D02*
X1217700D01*
X1216200Y325500D02*
Y328500D01*
X1227400Y301600D02*
X1230400D01*
X1228900Y300100D02*
Y303100D01*
X1214700Y276200D02*
X1217700D01*
X1216200Y274700D02*
Y277700D01*
X1189300Y682600D02*
X1192300D01*
X1190800Y681100D02*
Y684100D01*
X1202000Y657200D02*
X1205000D01*
X1203500Y655700D02*
Y658700D01*
X1189300Y631800D02*
X1192300D01*
X1190800Y630300D02*
Y633300D01*
X1189300Y581000D02*
X1192300D01*
X1190800Y579500D02*
Y582500D01*
X1202000Y555600D02*
X1205000D01*
X1203500Y554100D02*
Y557100D01*
X1189300Y530200D02*
X1192300D01*
X1190800Y528700D02*
Y531700D01*
X1189300Y479400D02*
X1192300D01*
X1190800Y477900D02*
Y480900D01*
X1202000Y454000D02*
X1205000D01*
X1203500Y452500D02*
Y455500D01*
X1202000Y403200D02*
X1205000D01*
X1203500Y401700D02*
Y404700D01*
X1189300Y377800D02*
X1192300D01*
X1190800Y376300D02*
Y379300D01*
X1202000Y352400D02*
X1205000D01*
X1203500Y350900D02*
Y353900D01*
X1189300Y327000D02*
X1192300D01*
X1190800Y325500D02*
Y328500D01*
X1202000Y301600D02*
X1205000D01*
X1203500Y300100D02*
Y303100D01*
X1189300Y276200D02*
X1192300D01*
X1190800Y274700D02*
Y277700D01*
X1202000Y98400D02*
X1205000D01*
X1203500Y96900D02*
Y99900D01*
X1176600Y860400D02*
X1179600D01*
X1178100Y858900D02*
Y861900D01*
X1163900Y682600D02*
X1166900D01*
X1165400Y681100D02*
Y684100D01*
X1176600Y657200D02*
X1179600D01*
X1178100Y655700D02*
Y658700D01*
X1163900Y631800D02*
X1166900D01*
X1165400Y630300D02*
Y633300D01*
X1176600Y606400D02*
X1179600D01*
X1178100Y604900D02*
Y607900D01*
X1176600Y555600D02*
X1179600D01*
X1178100Y554100D02*
Y557100D01*
X1163900Y530200D02*
X1166900D01*
X1165400Y528700D02*
Y531700D01*
X1163900Y479400D02*
X1166900D01*
X1165400Y477900D02*
Y480900D01*
X1176600Y454000D02*
X1179600D01*
X1178100Y452500D02*
Y455500D01*
X1176600Y403200D02*
X1179600D01*
X1178100Y401700D02*
Y404700D01*
X1163900Y377800D02*
X1166900D01*
X1165400Y376300D02*
Y379300D01*
X1176600Y352400D02*
X1179600D01*
X1178100Y350900D02*
Y353900D01*
X1163900Y327000D02*
X1166900D01*
X1165400Y325500D02*
Y328500D01*
X1176600Y301600D02*
X1179600D01*
X1178100Y300100D02*
Y303100D01*
X1163900Y276200D02*
X1166900D01*
X1165400Y274700D02*
Y277700D01*
X1163900Y225400D02*
X1166900D01*
X1165400Y223900D02*
Y226900D01*
X1163900Y73000D02*
X1166900D01*
X1165400Y71500D02*
Y74500D01*
X1151200Y860400D02*
X1154200D01*
X1152700Y858900D02*
Y861900D01*
X1138500Y835000D02*
X1141500D01*
X1140000Y833500D02*
Y836500D01*
X1138500Y682600D02*
X1141500D01*
X1140000Y681100D02*
Y684100D01*
X1151200Y657200D02*
X1154200D01*
X1152700Y655700D02*
Y658700D01*
X1138500Y631800D02*
X1141500D01*
X1140000Y630300D02*
Y633300D01*
X1151200Y555600D02*
X1154200D01*
X1152700Y554100D02*
Y557100D01*
X1138500Y530200D02*
X1141500D01*
X1140000Y528700D02*
Y531700D01*
X1138500Y479400D02*
X1141500D01*
X1140000Y477900D02*
Y480900D01*
X1151200Y454000D02*
X1154200D01*
X1152700Y452500D02*
Y455500D01*
X1151200Y403200D02*
X1154200D01*
X1152700Y401700D02*
Y404700D01*
X1138500Y377800D02*
X1141500D01*
X1140000Y376300D02*
Y379300D01*
X1151200Y352400D02*
X1154200D01*
X1152700Y350900D02*
Y353900D01*
X1138500Y327000D02*
X1141500D01*
X1140000Y325500D02*
Y328500D01*
X1151200Y301600D02*
X1154200D01*
X1152700Y300100D02*
Y303100D01*
X1151200Y98400D02*
X1154200D01*
X1152700Y96900D02*
Y99900D01*
X1113100Y733400D02*
X1116100D01*
X1114600Y731900D02*
Y734900D01*
X1113100Y682600D02*
X1116100D01*
X1114600Y681100D02*
Y684100D01*
X1125800Y657200D02*
X1128800D01*
X1127300Y655700D02*
Y658700D01*
X1113100Y631800D02*
X1116100D01*
X1114600Y630300D02*
Y633300D01*
X1125800Y555600D02*
X1128800D01*
X1127300Y554100D02*
Y557100D01*
X1113100Y479400D02*
X1116100D01*
X1114600Y477900D02*
Y480900D01*
X1125800Y454000D02*
X1128800D01*
X1127300Y452500D02*
Y455500D01*
X1125800Y403200D02*
X1128800D01*
X1127300Y401700D02*
Y404700D01*
X1113100Y377800D02*
X1116100D01*
X1114600Y376300D02*
Y379300D01*
X1125800Y352400D02*
X1128800D01*
X1127300Y350900D02*
Y353900D01*
X1113100Y327000D02*
X1116100D01*
X1114600Y325500D02*
Y328500D01*
X1125800Y301600D02*
X1128800D01*
X1127300Y300100D02*
Y303100D01*
X1113100Y225400D02*
X1116100D01*
X1114600Y223900D02*
Y226900D01*
X1100400Y860400D02*
X1103400D01*
X1101900Y858900D02*
Y861900D01*
X1087700Y835000D02*
X1090700D01*
X1089200Y833500D02*
Y836500D01*
X1087700Y784200D02*
X1090700D01*
X1089200Y782700D02*
Y785700D01*
X1087700Y733400D02*
X1090700D01*
X1089200Y731900D02*
Y734900D01*
X1100400Y606400D02*
X1103400D01*
X1101900Y604900D02*
Y607900D01*
X1100400Y454000D02*
X1103400D01*
X1101900Y452500D02*
Y455500D01*
X1100400Y403200D02*
X1103400D01*
X1101900Y401700D02*
Y404700D01*
X1100400Y352400D02*
X1103400D01*
X1101900Y350900D02*
Y353900D01*
X1100400Y250800D02*
X1103400D01*
X1101900Y249300D02*
Y252300D01*
X1087700Y174600D02*
X1090700D01*
X1089200Y173100D02*
Y176100D01*
X1087700Y73000D02*
X1090700D01*
X1089200Y71500D02*
Y74500D01*
X1062300Y885800D02*
X1065300D01*
X1063800Y884300D02*
Y887300D01*
X1075000Y860400D02*
X1078000D01*
X1076500Y858900D02*
Y861900D01*
X1062300Y835000D02*
X1065300D01*
X1063800Y833500D02*
Y836500D01*
X1075000Y606400D02*
X1078000D01*
X1076500Y604900D02*
Y607900D01*
X1062300Y174600D02*
X1065300D01*
X1063800Y173100D02*
Y176100D01*
X1062300Y73000D02*
X1065300D01*
X1063800Y71500D02*
Y74500D01*
X1049600Y860400D02*
X1052600D01*
X1051100Y858900D02*
Y861900D01*
X1036900Y835000D02*
X1039900D01*
X1038400Y833500D02*
Y836500D01*
X1036900Y682600D02*
X1039900D01*
X1038400Y681100D02*
Y684100D01*
X1049600Y606400D02*
X1052600D01*
X1051100Y604900D02*
Y607900D01*
X1036900Y428600D02*
X1039900D01*
X1038400Y427100D02*
Y430100D01*
X1036900Y225400D02*
X1039900D01*
X1038400Y223900D02*
Y226900D01*
X1011500Y835000D02*
X1014500D01*
X1013000Y833500D02*
Y836500D01*
X1011500Y530200D02*
X1014500D01*
X1013000Y528700D02*
Y531700D01*
X1024200Y504800D02*
X1027200D01*
X1025700Y503300D02*
Y506300D01*
X1024200Y454000D02*
X1027200D01*
X1025700Y452500D02*
Y455500D01*
X1011500Y428600D02*
X1014500D01*
X1013000Y427100D02*
Y430100D01*
X1011500Y225400D02*
X1014500D01*
X1013000Y223900D02*
Y226900D01*
X1024200Y200000D02*
X1027200D01*
X1025700Y198500D02*
Y201500D01*
X1011500Y123800D02*
X1014500D01*
X1013000Y122300D02*
Y125300D01*
X986100Y835000D02*
X989100D01*
X987600Y833500D02*
Y836500D01*
X998800Y708000D02*
X1001800D01*
X1000300Y706500D02*
Y709500D01*
X986100Y682600D02*
X989100D01*
X987600Y681100D02*
Y684100D01*
X986100Y581000D02*
X989100D01*
X987600Y579500D02*
Y582500D01*
X986100Y530200D02*
X989100D01*
X987600Y528700D02*
Y531700D01*
X998800Y504800D02*
X1001800D01*
X1000300Y503300D02*
Y506300D01*
X998800Y454000D02*
X1001800D01*
X1000300Y452500D02*
Y455500D01*
X986100Y428600D02*
X989100D01*
X987600Y427100D02*
Y430100D01*
X998800Y250800D02*
X1001800D01*
X1000300Y249300D02*
Y252300D01*
X998800Y200000D02*
X1001800D01*
X1000300Y198500D02*
Y201500D01*
X973400Y860400D02*
X976400D01*
X974900Y858900D02*
Y861900D01*
X960700Y835000D02*
X963700D01*
X962200Y833500D02*
Y836500D01*
X973400Y708000D02*
X976400D01*
X974900Y706500D02*
Y709500D01*
X973400Y606400D02*
X976400D01*
X974900Y604900D02*
Y607900D01*
X960700Y581000D02*
X963700D01*
X962200Y579500D02*
Y582500D01*
X973400Y504800D02*
X976400D01*
X974900Y503300D02*
Y506300D01*
X973400Y454000D02*
X976400D01*
X974900Y452500D02*
Y455500D01*
X960700Y428600D02*
X963700D01*
X962200Y427100D02*
Y430100D01*
X973400Y301600D02*
X976400D01*
X974900Y300100D02*
Y303100D01*
X973400Y250800D02*
X976400D01*
X974900Y249300D02*
Y252300D01*
X973400Y200000D02*
X976400D01*
X974900Y198500D02*
Y201500D01*
X973400Y149200D02*
X976400D01*
X974900Y147700D02*
Y150700D01*
X973400Y98400D02*
X976400D01*
X974900Y96900D02*
Y99900D01*
X948000Y860400D02*
X951000D01*
X949500Y858900D02*
Y861900D01*
X935300Y835000D02*
X938300D01*
X936800Y833500D02*
Y836500D01*
X935300Y784200D02*
X938300D01*
X936800Y782700D02*
Y785700D01*
X935300Y733400D02*
X938300D01*
X936800Y731900D02*
Y734900D01*
X948000Y708000D02*
X951000D01*
X949500Y706500D02*
Y709500D01*
X948000Y606400D02*
X951000D01*
X949500Y604900D02*
Y607900D01*
X935300Y581000D02*
X938300D01*
X936800Y579500D02*
Y582500D01*
X948000Y504800D02*
X951000D01*
X949500Y503300D02*
Y506300D01*
X948000Y454000D02*
X951000D01*
X949500Y452500D02*
Y455500D01*
X948000Y98400D02*
X951000D01*
X949500Y96900D02*
Y99900D01*
X909900Y885800D02*
X912900D01*
X911400Y884300D02*
Y887300D01*
X909900Y835000D02*
X912900D01*
X911400Y833500D02*
Y836500D01*
X909900Y784200D02*
X912900D01*
X911400Y782700D02*
Y785700D01*
X909900Y733400D02*
X912900D01*
X911400Y731900D02*
Y734900D01*
X922600Y606400D02*
X925600D01*
X924100Y604900D02*
Y607900D01*
X909900Y581000D02*
X912900D01*
X911400Y579500D02*
Y582500D01*
X909900Y225400D02*
X912900D01*
X911400Y223900D02*
Y226900D01*
X922600Y200000D02*
X925600D01*
X924100Y198500D02*
Y201500D01*
X909900Y123800D02*
X912900D01*
X911400Y122300D02*
Y125300D01*
X909900Y73000D02*
X912900D01*
X911400Y71500D02*
Y74500D01*
X897200Y860400D02*
X900200D01*
X898700Y858900D02*
Y861900D01*
X884500Y835000D02*
X887500D01*
X886000Y833500D02*
Y836500D01*
X897200Y708000D02*
X900200D01*
X898700Y706500D02*
Y709500D01*
X897200Y606400D02*
X900200D01*
X898700Y604900D02*
Y607900D01*
X884500Y581000D02*
X887500D01*
X886000Y579500D02*
Y582500D01*
X897200Y250800D02*
X900200D01*
X898700Y249300D02*
Y252300D01*
X897200Y200000D02*
X900200D01*
X898700Y198500D02*
Y201500D01*
X897200Y149200D02*
X900200D01*
X898700Y147700D02*
Y150700D01*
X871800Y860400D02*
X874800D01*
X873300Y858900D02*
Y861900D01*
X859100Y835000D02*
X862100D01*
X860600Y833500D02*
Y836500D01*
X871800Y606400D02*
X874800D01*
X873300Y604900D02*
Y607900D01*
X871800Y504800D02*
X874800D01*
X873300Y503300D02*
Y506300D01*
X859100Y479400D02*
X862100D01*
X860600Y477900D02*
Y480900D01*
X871800Y149200D02*
X874800D01*
X873300Y147700D02*
Y150700D01*
X871800Y98400D02*
X874800D01*
X873300Y96900D02*
Y99900D01*
X846400Y606400D02*
X849400D01*
X847900Y604900D02*
Y607900D01*
X846400Y98400D02*
X849400D01*
X847900Y96900D02*
Y99900D01*
X821000Y606400D02*
X824000D01*
X822500Y604900D02*
Y607900D01*
X808300Y225400D02*
X811300D01*
X809800Y223900D02*
Y226900D01*
X821000Y200000D02*
X824000D01*
X822500Y198500D02*
Y201500D01*
X808300Y123800D02*
X811300D01*
X809800Y122300D02*
Y125300D01*
X808300Y73000D02*
X811300D01*
X809800Y71500D02*
Y74500D01*
X795600Y860400D02*
X798600D01*
X797100Y858900D02*
Y861900D01*
X782900Y835000D02*
X785900D01*
X784400Y833500D02*
Y836500D01*
X795600Y606400D02*
X798600D01*
X797100Y604900D02*
Y607900D01*
X782900Y479400D02*
X785900D01*
X784400Y477900D02*
Y480900D01*
X795600Y454000D02*
X798600D01*
X797100Y452500D02*
Y455500D01*
X795600Y250800D02*
X798600D01*
X797100Y249300D02*
Y252300D01*
X795600Y200000D02*
X798600D01*
X797100Y198500D02*
Y201500D01*
X795600Y149200D02*
X798600D01*
X797100Y147700D02*
Y150700D01*
X770200Y860400D02*
X773200D01*
X771700Y858900D02*
Y861900D01*
X757500Y835000D02*
X760500D01*
X759000Y833500D02*
Y836500D01*
X770200Y606400D02*
X773200D01*
X771700Y604900D02*
Y607900D01*
X757500Y276200D02*
X760500D01*
X759000Y274700D02*
Y277700D01*
X770200Y200000D02*
X773200D01*
X771700Y198500D02*
Y201500D01*
X757500Y174600D02*
X760500D01*
X759000Y173100D02*
Y176100D01*
X770200Y149200D02*
X773200D01*
X771700Y147700D02*
Y150700D01*
X770200Y98400D02*
X773200D01*
X771700Y96900D02*
Y99900D01*
X744800Y809600D02*
X747800D01*
X746300Y808100D02*
Y811100D01*
X744800Y606400D02*
X747800D01*
X746300Y604900D02*
Y607900D01*
X732100Y377800D02*
X735100D01*
X733600Y376300D02*
Y379300D01*
X744800Y352400D02*
X747800D01*
X746300Y350900D02*
Y353900D01*
X732100Y327000D02*
X735100D01*
X733600Y325500D02*
Y328500D01*
X744800Y301600D02*
X747800D01*
X746300Y300100D02*
Y303100D01*
X732100Y276200D02*
X735100D01*
X733600Y274700D02*
Y277700D01*
X744800Y250800D02*
X747800D01*
X746300Y249300D02*
Y252300D01*
X732100Y225400D02*
X735100D01*
X733600Y223900D02*
Y226900D01*
X744800Y200000D02*
X747800D01*
X746300Y198500D02*
Y201500D01*
X732100Y174600D02*
X735100D01*
X733600Y173100D02*
Y176100D01*
X744800Y149200D02*
X747800D01*
X746300Y147700D02*
Y150700D01*
X732100Y123800D02*
X735100D01*
X733600Y122300D02*
Y125300D01*
X744800Y98400D02*
X747800D01*
X746300Y96900D02*
Y99900D01*
X732100Y73000D02*
X735100D01*
X733600Y71500D02*
Y74500D01*
X732100Y22200D02*
X735100D01*
X733600Y20700D02*
Y23700D01*
X719400Y860400D02*
X722400D01*
X720900Y858900D02*
Y861900D01*
X706700Y733400D02*
X709700D01*
X708200Y731900D02*
Y734900D01*
X719400Y606400D02*
X722400D01*
X720900Y604900D02*
Y607900D01*
X719400Y403200D02*
X722400D01*
X720900Y401700D02*
Y404700D01*
X706700Y377800D02*
X709700D01*
X708200Y376300D02*
Y379300D01*
X719400Y352400D02*
X722400D01*
X720900Y350900D02*
Y353900D01*
X706700Y327000D02*
X709700D01*
X708200Y325500D02*
Y328500D01*
X719400Y301600D02*
X722400D01*
X720900Y300100D02*
Y303100D01*
X706700Y276200D02*
X709700D01*
X708200Y274700D02*
Y277700D01*
X719400Y250800D02*
X722400D01*
X720900Y249300D02*
Y252300D01*
X706700Y225400D02*
X709700D01*
X708200Y223900D02*
Y226900D01*
X719400Y200000D02*
X722400D01*
X720900Y198500D02*
Y201500D01*
X706700Y174600D02*
X709700D01*
X708200Y173100D02*
Y176100D01*
X719400Y149200D02*
X722400D01*
X720900Y147700D02*
Y150700D01*
X706700Y123800D02*
X709700D01*
X708200Y122300D02*
Y125300D01*
X719400Y98400D02*
X722400D01*
X720900Y96900D02*
Y99900D01*
X706700Y73000D02*
X709700D01*
X708200Y71500D02*
Y74500D01*
X719400Y47600D02*
X722400D01*
X720900Y46100D02*
Y49100D01*
X706700Y22200D02*
X709700D01*
X708200Y20700D02*
Y23700D01*
X681300Y885800D02*
X684300D01*
X682800Y884300D02*
Y887300D01*
X681300Y784200D02*
X684300D01*
X682800Y782700D02*
Y785700D01*
X681300Y733400D02*
X684300D01*
X682800Y731900D02*
Y734900D01*
X694000Y708000D02*
X697000D01*
X695500Y706500D02*
Y709500D01*
X694000Y403200D02*
X697000D01*
X695500Y401700D02*
Y404700D01*
X681300Y377800D02*
X684300D01*
X682800Y376300D02*
Y379300D01*
X694000Y352400D02*
X697000D01*
X695500Y350900D02*
Y353900D01*
X681300Y327000D02*
X684300D01*
X682800Y325500D02*
Y328500D01*
X694000Y301600D02*
X697000D01*
X695500Y300100D02*
Y303100D01*
X681300Y276200D02*
X684300D01*
X682800Y274700D02*
Y277700D01*
X694000Y250800D02*
X697000D01*
X695500Y249300D02*
Y252300D01*
X681300Y225400D02*
X684300D01*
X682800Y223900D02*
Y226900D01*
X694000Y200000D02*
X697000D01*
X695500Y198500D02*
Y201500D01*
X694000Y149200D02*
X697000D01*
X695500Y147700D02*
Y150700D01*
X681300Y73000D02*
X684300D01*
X682800Y71500D02*
Y74500D01*
X694000Y47600D02*
X697000D01*
X695500Y46100D02*
Y49100D01*
X681300Y22200D02*
X684300D01*
X682800Y20700D02*
Y23700D01*
X668600Y860400D02*
X671600D01*
X670100Y858900D02*
Y861900D01*
X655900Y835000D02*
X658900D01*
X657400Y833500D02*
Y836500D01*
X668600Y809600D02*
X671600D01*
X670100Y808100D02*
Y811100D01*
X668600Y708000D02*
X671600D01*
X670100Y706500D02*
Y709500D01*
X668600Y555600D02*
X671600D01*
X670100Y554100D02*
Y557100D01*
X655900Y530200D02*
X658900D01*
X657400Y528700D02*
Y531700D01*
X668600Y98400D02*
X671600D01*
X670100Y96900D02*
Y99900D01*
X655900Y73000D02*
X658900D01*
X657400Y71500D02*
Y74500D01*
X668600Y47600D02*
X671600D01*
X670100Y46100D02*
Y49100D01*
X655900Y22200D02*
X658900D01*
X657400Y20700D02*
Y23700D01*
X643200Y860400D02*
X646200D01*
X644700Y858900D02*
Y861900D01*
X630500Y835000D02*
X633500D01*
X632000Y833500D02*
Y836500D01*
X630500Y733400D02*
X633500D01*
X632000Y731900D02*
Y734900D01*
X630500Y530200D02*
X633500D01*
X632000Y528700D02*
Y531700D01*
X643200Y98400D02*
X646200D01*
X644700Y96900D02*
Y99900D01*
X630500Y73000D02*
X633500D01*
X632000Y71500D02*
Y74500D01*
X643200Y47600D02*
X646200D01*
X644700Y46100D02*
Y49100D01*
X630500Y22200D02*
X633500D01*
X632000Y20700D02*
Y23700D01*
X605100Y835000D02*
X608100D01*
X606600Y833500D02*
Y836500D01*
X617800Y555600D02*
X620800D01*
X619300Y554100D02*
Y557100D01*
X617800Y504800D02*
X620800D01*
X619300Y503300D02*
Y506300D01*
X605100Y377800D02*
X608100D01*
X606600Y376300D02*
Y379300D01*
X605100Y327000D02*
X608100D01*
X606600Y325500D02*
Y328500D01*
X605100Y276200D02*
X608100D01*
X606600Y274700D02*
Y277700D01*
X605100Y225400D02*
X608100D01*
X606600Y223900D02*
Y226900D01*
X617800Y98400D02*
X620800D01*
X619300Y96900D02*
Y99900D01*
X605100Y73000D02*
X608100D01*
X606600Y71500D02*
Y74500D01*
X617800Y47600D02*
X620800D01*
X619300Y46100D02*
Y49100D01*
X605100Y22200D02*
X608100D01*
X606600Y20700D02*
Y23700D01*
X579700Y835000D02*
X582700D01*
X581200Y833500D02*
Y836500D01*
X592400Y403200D02*
X595400D01*
X593900Y401700D02*
Y404700D01*
X579700Y377800D02*
X582700D01*
X581200Y376300D02*
Y379300D01*
X592400Y352400D02*
X595400D01*
X593900Y350900D02*
Y353900D01*
X579700Y327000D02*
X582700D01*
X581200Y325500D02*
Y328500D01*
X592400Y301600D02*
X595400D01*
X593900Y300100D02*
Y303100D01*
X579700Y276200D02*
X582700D01*
X581200Y274700D02*
Y277700D01*
X592400Y250800D02*
X595400D01*
X593900Y249300D02*
Y252300D01*
X579700Y225400D02*
X582700D01*
X581200Y223900D02*
Y226900D01*
X579700Y73000D02*
X582700D01*
X581200Y71500D02*
Y74500D01*
X592400Y47600D02*
X595400D01*
X593900Y46100D02*
Y49100D01*
X579700Y22200D02*
X582700D01*
X581200Y20700D02*
Y23700D01*
X554300Y885800D02*
X557300D01*
X555800Y884300D02*
Y887300D01*
X567000Y860400D02*
X570000D01*
X568500Y858900D02*
Y861900D01*
X554300Y835000D02*
X557300D01*
X555800Y833500D02*
Y836500D01*
X567000Y454000D02*
X570000D01*
X568500Y452500D02*
Y455500D01*
X567000Y403200D02*
X570000D01*
X568500Y401700D02*
Y404700D01*
X554300Y377800D02*
X557300D01*
X555800Y376300D02*
Y379300D01*
X567000Y352400D02*
X570000D01*
X568500Y350900D02*
Y353900D01*
X554300Y327000D02*
X557300D01*
X555800Y325500D02*
Y328500D01*
X567000Y301600D02*
X570000D01*
X568500Y300100D02*
Y303100D01*
X554300Y276200D02*
X557300D01*
X555800Y274700D02*
Y277700D01*
X567000Y250800D02*
X570000D01*
X568500Y249300D02*
Y252300D01*
X554300Y225400D02*
X557300D01*
X555800Y223900D02*
Y226900D01*
X567000Y200000D02*
X570000D01*
X568500Y198500D02*
Y201500D01*
X554300Y174600D02*
X557300D01*
X555800Y173100D02*
Y176100D01*
X567000Y149200D02*
X570000D01*
X568500Y147700D02*
Y150700D01*
X554300Y123800D02*
X557300D01*
X555800Y122300D02*
Y125300D01*
X554300Y73000D02*
X557300D01*
X555800Y71500D02*
Y74500D01*
X567000Y47600D02*
X570000D01*
X568500Y46100D02*
Y49100D01*
X554300Y22200D02*
X557300D01*
X555800Y20700D02*
Y23700D01*
X541600Y860400D02*
X544600D01*
X543100Y858900D02*
Y861900D01*
X528900Y835000D02*
X531900D01*
X530400Y833500D02*
Y836500D01*
X541600Y403200D02*
X544600D01*
X543100Y401700D02*
Y404700D01*
X528900Y377800D02*
X531900D01*
X530400Y376300D02*
Y379300D01*
X541600Y352400D02*
X544600D01*
X543100Y350900D02*
Y353900D01*
X528900Y327000D02*
X531900D01*
X530400Y325500D02*
Y328500D01*
X541600Y301600D02*
X544600D01*
X543100Y300100D02*
Y303100D01*
X528900Y276200D02*
X531900D01*
X530400Y274700D02*
Y277700D01*
X541600Y250800D02*
X544600D01*
X543100Y249300D02*
Y252300D01*
X528900Y225400D02*
X531900D01*
X530400Y223900D02*
Y226900D01*
X541600Y200000D02*
X544600D01*
X543100Y198500D02*
Y201500D01*
X528900Y174600D02*
X531900D01*
X530400Y173100D02*
Y176100D01*
X541600Y149200D02*
X544600D01*
X543100Y147700D02*
Y150700D01*
X528900Y123800D02*
X531900D01*
X530400Y122300D02*
Y125300D01*
X541600Y98400D02*
X544600D01*
X543100Y96900D02*
Y99900D01*
X528900Y73000D02*
X531900D01*
X530400Y71500D02*
Y74500D01*
X541600Y47600D02*
X544600D01*
X543100Y46100D02*
Y49100D01*
X528900Y22200D02*
X531900D01*
X530400Y20700D02*
Y23700D01*
X516200Y809600D02*
X519200D01*
X517700Y808100D02*
Y811100D01*
X516200Y504800D02*
X519200D01*
X517700Y503300D02*
Y506300D01*
X516200Y454000D02*
X519200D01*
X517700Y452500D02*
Y455500D01*
X503500Y428600D02*
X506500D01*
X505000Y427100D02*
Y430100D01*
X516200Y403200D02*
X519200D01*
X517700Y401700D02*
Y404700D01*
X503500Y377800D02*
X506500D01*
X505000Y376300D02*
Y379300D01*
X516200Y352400D02*
X519200D01*
X517700Y350900D02*
Y353900D01*
X503500Y327000D02*
X506500D01*
X505000Y325500D02*
Y328500D01*
X516200Y301600D02*
X519200D01*
X517700Y300100D02*
Y303100D01*
X503500Y276200D02*
X506500D01*
X505000Y274700D02*
Y277700D01*
X516200Y250800D02*
X519200D01*
X517700Y249300D02*
Y252300D01*
X503500Y225400D02*
X506500D01*
X505000Y223900D02*
Y226900D01*
X516200Y200000D02*
X519200D01*
X517700Y198500D02*
Y201500D01*
X503500Y174600D02*
X506500D01*
X505000Y173100D02*
Y176100D01*
X516200Y149200D02*
X519200D01*
X517700Y147700D02*
Y150700D01*
X503500Y123800D02*
X506500D01*
X505000Y122300D02*
Y125300D01*
X516200Y98400D02*
X519200D01*
X517700Y96900D02*
Y99900D01*
X503500Y73000D02*
X506500D01*
X505000Y71500D02*
Y74500D01*
X516200Y47600D02*
X519200D01*
X517700Y46100D02*
Y49100D01*
X503500Y22200D02*
X506500D01*
X505000Y20700D02*
Y23700D01*
X490800Y860400D02*
X493800D01*
X492300Y858900D02*
Y861900D01*
X478100Y733400D02*
X481100D01*
X479600Y731900D02*
Y734900D01*
X490800Y708000D02*
X493800D01*
X492300Y706500D02*
Y709500D01*
X478100Y682600D02*
X481100D01*
X479600Y681100D02*
Y684100D01*
X490800Y657200D02*
X493800D01*
X492300Y655700D02*
Y658700D01*
X478100Y530200D02*
X481100D01*
X479600Y528700D02*
Y531700D01*
X490800Y504800D02*
X493800D01*
X492300Y503300D02*
Y506300D01*
X478100Y479400D02*
X481100D01*
X479600Y477900D02*
Y480900D01*
X490800Y454000D02*
X493800D01*
X492300Y452500D02*
Y455500D01*
X478100Y428600D02*
X481100D01*
X479600Y427100D02*
Y430100D01*
X490800Y403200D02*
X493800D01*
X492300Y401700D02*
Y404700D01*
X478100Y377800D02*
X481100D01*
X479600Y376300D02*
Y379300D01*
X490800Y352400D02*
X493800D01*
X492300Y350900D02*
Y353900D01*
X478100Y327000D02*
X481100D01*
X479600Y325500D02*
Y328500D01*
X490800Y301600D02*
X493800D01*
X492300Y300100D02*
Y303100D01*
X478100Y276200D02*
X481100D01*
X479600Y274700D02*
Y277700D01*
X490800Y250800D02*
X493800D01*
X492300Y249300D02*
Y252300D01*
X478100Y225400D02*
X481100D01*
X479600Y223900D02*
Y226900D01*
X490800Y200000D02*
X493800D01*
X492300Y198500D02*
Y201500D01*
X478100Y174600D02*
X481100D01*
X479600Y173100D02*
Y176100D01*
X490800Y149200D02*
X493800D01*
X492300Y147700D02*
Y150700D01*
X478100Y123800D02*
X481100D01*
X479600Y122300D02*
Y125300D01*
X490800Y98400D02*
X493800D01*
X492300Y96900D02*
Y99900D01*
X478100Y73000D02*
X481100D01*
X479600Y71500D02*
Y74500D01*
X490800Y47600D02*
X493800D01*
X492300Y46100D02*
Y49100D01*
X478100Y22200D02*
X481100D01*
X479600Y20700D02*
Y23700D01*
X452700Y885800D02*
X455700D01*
X454200Y884300D02*
Y887300D01*
X452700Y784200D02*
X455700D01*
X454200Y782700D02*
Y785700D01*
X452700Y733400D02*
X455700D01*
X454200Y731900D02*
Y734900D01*
X465400Y708000D02*
X468400D01*
X466900Y706500D02*
Y709500D01*
X452700Y581000D02*
X455700D01*
X454200Y579500D02*
Y582500D01*
X465400Y555600D02*
X468400D01*
X466900Y554100D02*
Y557100D01*
X452700Y530200D02*
X455700D01*
X454200Y528700D02*
Y531700D01*
X465400Y504800D02*
X468400D01*
X466900Y503300D02*
Y506300D01*
X452700Y479400D02*
X455700D01*
X454200Y477900D02*
Y480900D01*
X465400Y454000D02*
X468400D01*
X466900Y452500D02*
Y455500D01*
X452700Y428600D02*
X455700D01*
X454200Y427100D02*
Y430100D01*
X465400Y403200D02*
X468400D01*
X466900Y401700D02*
Y404700D01*
X452700Y377800D02*
X455700D01*
X454200Y376300D02*
Y379300D01*
X465400Y352400D02*
X468400D01*
X466900Y350900D02*
Y353900D01*
X452700Y327000D02*
X455700D01*
X454200Y325500D02*
Y328500D01*
X465400Y301600D02*
X468400D01*
X466900Y300100D02*
Y303100D01*
X452700Y276200D02*
X455700D01*
X454200Y274700D02*
Y277700D01*
X465400Y250800D02*
X468400D01*
X466900Y249300D02*
Y252300D01*
X452700Y225400D02*
X455700D01*
X454200Y223900D02*
Y226900D01*
X465400Y200000D02*
X468400D01*
X466900Y198500D02*
Y201500D01*
X452700Y174600D02*
X455700D01*
X454200Y173100D02*
Y176100D01*
X465400Y149200D02*
X468400D01*
X466900Y147700D02*
Y150700D01*
X452700Y123800D02*
X455700D01*
X454200Y122300D02*
Y125300D01*
X465400Y98400D02*
X468400D01*
X466900Y96900D02*
Y99900D01*
X452700Y73000D02*
X455700D01*
X454200Y71500D02*
Y74500D01*
X465400Y47600D02*
X468400D01*
X466900Y46100D02*
Y49100D01*
X452700Y22200D02*
X455700D01*
X454200Y20700D02*
Y23700D01*
X427300Y835000D02*
X430300D01*
X428800Y833500D02*
Y836500D01*
X440000Y809600D02*
X443000D01*
X441500Y808100D02*
Y811100D01*
X427300Y784200D02*
X430300D01*
X428800Y782700D02*
Y785700D01*
X440000Y758800D02*
X443000D01*
X441500Y757300D02*
Y760300D01*
X427300Y733400D02*
X430300D01*
X428800Y731900D02*
Y734900D01*
X440000Y708000D02*
X443000D01*
X441500Y706500D02*
Y709500D01*
X427300Y581000D02*
X430300D01*
X428800Y579500D02*
Y582500D01*
X440000Y555600D02*
X443000D01*
X441500Y554100D02*
Y557100D01*
X427300Y530200D02*
X430300D01*
X428800Y528700D02*
Y531700D01*
X440000Y504800D02*
X443000D01*
X441500Y503300D02*
Y506300D01*
X427300Y479400D02*
X430300D01*
X428800Y477900D02*
Y480900D01*
X440000Y454000D02*
X443000D01*
X441500Y452500D02*
Y455500D01*
X427300Y428600D02*
X430300D01*
X428800Y427100D02*
Y430100D01*
X440000Y403200D02*
X443000D01*
X441500Y401700D02*
Y404700D01*
X427300Y377800D02*
X430300D01*
X428800Y376300D02*
Y379300D01*
X440000Y352400D02*
X443000D01*
X441500Y350900D02*
Y353900D01*
X427300Y327000D02*
X430300D01*
X428800Y325500D02*
Y328500D01*
X440000Y301600D02*
X443000D01*
X441500Y300100D02*
Y303100D01*
X427300Y276200D02*
X430300D01*
X428800Y274700D02*
Y277700D01*
X440000Y250800D02*
X443000D01*
X441500Y249300D02*
Y252300D01*
X427300Y225400D02*
X430300D01*
X428800Y223900D02*
Y226900D01*
X440000Y200000D02*
X443000D01*
X441500Y198500D02*
Y201500D01*
X427300Y174600D02*
X430300D01*
X428800Y173100D02*
Y176100D01*
X440000Y149200D02*
X443000D01*
X441500Y147700D02*
Y150700D01*
X427300Y123800D02*
X430300D01*
X428800Y122300D02*
Y125300D01*
X440000Y98400D02*
X443000D01*
X441500Y96900D02*
Y99900D01*
X427300Y73000D02*
X430300D01*
X428800Y71500D02*
Y74500D01*
X440000Y47600D02*
X443000D01*
X441500Y46100D02*
Y49100D01*
X427300Y22200D02*
X430300D01*
X428800Y20700D02*
Y23700D01*
X414600Y860400D02*
X417600D01*
X416100Y858900D02*
Y861900D01*
X401900Y835000D02*
X404900D01*
X403400Y833500D02*
Y836500D01*
X414600Y809600D02*
X417600D01*
X416100Y808100D02*
Y811100D01*
X401900Y581000D02*
X404900D01*
X403400Y579500D02*
Y582500D01*
X414600Y555600D02*
X417600D01*
X416100Y554100D02*
Y557100D01*
X401900Y530200D02*
X404900D01*
X403400Y528700D02*
Y531700D01*
X414600Y504800D02*
X417600D01*
X416100Y503300D02*
Y506300D01*
X401900Y479400D02*
X404900D01*
X403400Y477900D02*
Y480900D01*
X414600Y454000D02*
X417600D01*
X416100Y452500D02*
Y455500D01*
X401900Y428600D02*
X404900D01*
X403400Y427100D02*
Y430100D01*
X414600Y403200D02*
X417600D01*
X416100Y401700D02*
Y404700D01*
X401900Y377800D02*
X404900D01*
X403400Y376300D02*
Y379300D01*
X414600Y352400D02*
X417600D01*
X416100Y350900D02*
Y353900D01*
X401900Y327000D02*
X404900D01*
X403400Y325500D02*
Y328500D01*
X414600Y301600D02*
X417600D01*
X416100Y300100D02*
Y303100D01*
X401900Y276200D02*
X404900D01*
X403400Y274700D02*
Y277700D01*
X414600Y250800D02*
X417600D01*
X416100Y249300D02*
Y252300D01*
X401900Y225400D02*
X404900D01*
X403400Y223900D02*
Y226900D01*
X414600Y200000D02*
X417600D01*
X416100Y198500D02*
Y201500D01*
X401900Y174600D02*
X404900D01*
X403400Y173100D02*
Y176100D01*
X414600Y149200D02*
X417600D01*
X416100Y147700D02*
Y150700D01*
X401900Y123800D02*
X404900D01*
X403400Y122300D02*
Y125300D01*
X414600Y98400D02*
X417600D01*
X416100Y96900D02*
Y99900D01*
X401900Y73000D02*
X404900D01*
X403400Y71500D02*
Y74500D01*
X414600Y47600D02*
X417600D01*
X416100Y46100D02*
Y49100D01*
X401900Y22200D02*
X404900D01*
X403400Y20700D02*
Y23700D01*
X376500Y835000D02*
X379500D01*
X378000Y833500D02*
Y836500D01*
X376500Y581000D02*
X379500D01*
X378000Y579500D02*
Y582500D01*
X389200Y555600D02*
X392200D01*
X390700Y554100D02*
Y557100D01*
X376500Y530200D02*
X379500D01*
X378000Y528700D02*
Y531700D01*
X389200Y504800D02*
X392200D01*
X390700Y503300D02*
Y506300D01*
X376500Y479400D02*
X379500D01*
X378000Y477900D02*
Y480900D01*
X389200Y454000D02*
X392200D01*
X390700Y452500D02*
Y455500D01*
X376500Y428600D02*
X379500D01*
X378000Y427100D02*
Y430100D01*
X389200Y403200D02*
X392200D01*
X390700Y401700D02*
Y404700D01*
X376500Y377800D02*
X379500D01*
X378000Y376300D02*
Y379300D01*
X389200Y352400D02*
X392200D01*
X390700Y350900D02*
Y353900D01*
X376500Y327000D02*
X379500D01*
X378000Y325500D02*
Y328500D01*
X389200Y301600D02*
X392200D01*
X390700Y300100D02*
Y303100D01*
X376500Y276200D02*
X379500D01*
X378000Y274700D02*
Y277700D01*
X389200Y250800D02*
X392200D01*
X390700Y249300D02*
Y252300D01*
X376500Y225400D02*
X379500D01*
X378000Y223900D02*
Y226900D01*
X389200Y200000D02*
X392200D01*
X390700Y198500D02*
Y201500D01*
X376500Y174600D02*
X379500D01*
X378000Y173100D02*
Y176100D01*
X389200Y149200D02*
X392200D01*
X390700Y147700D02*
Y150700D01*
X376500Y123800D02*
X379500D01*
X378000Y122300D02*
Y125300D01*
X389200Y98400D02*
X392200D01*
X390700Y96900D02*
Y99900D01*
X376500Y73000D02*
X379500D01*
X378000Y71500D02*
Y74500D01*
X389200Y47600D02*
X392200D01*
X390700Y46100D02*
Y49100D01*
X376500Y22200D02*
X379500D01*
X378000Y20700D02*
Y23700D01*
X351100Y581000D02*
X354100D01*
X352600Y579500D02*
Y582500D01*
X363800Y555600D02*
X366800D01*
X365300Y554100D02*
Y557100D01*
X351100Y530200D02*
X354100D01*
X352600Y528700D02*
Y531700D01*
X363800Y504800D02*
X366800D01*
X365300Y503300D02*
Y506300D01*
X351100Y479400D02*
X354100D01*
X352600Y477900D02*
Y480900D01*
X363800Y454000D02*
X366800D01*
X365300Y452500D02*
Y455500D01*
X351100Y428600D02*
X354100D01*
X352600Y427100D02*
Y430100D01*
X363800Y403200D02*
X366800D01*
X365300Y401700D02*
Y404700D01*
X351100Y377800D02*
X354100D01*
X352600Y376300D02*
Y379300D01*
X363800Y352400D02*
X366800D01*
X365300Y350900D02*
Y353900D01*
X351100Y327000D02*
X354100D01*
X352600Y325500D02*
Y328500D01*
X351100Y225400D02*
X354100D01*
X352600Y223900D02*
Y226900D01*
X363800Y200000D02*
X366800D01*
X365300Y198500D02*
Y201500D01*
X351100Y174600D02*
X354100D01*
X352600Y173100D02*
Y176100D01*
X363800Y149200D02*
X366800D01*
X365300Y147700D02*
Y150700D01*
X351100Y123800D02*
X354100D01*
X352600Y122300D02*
Y125300D01*
X363800Y98400D02*
X366800D01*
X365300Y96900D02*
Y99900D01*
X351100Y73000D02*
X354100D01*
X352600Y71500D02*
Y74500D01*
X363800Y47600D02*
X366800D01*
X365300Y46100D02*
Y49100D01*
X351100Y22200D02*
X354100D01*
X352600Y20700D02*
Y23700D01*
X338400Y860400D02*
X341400D01*
X339900Y858900D02*
Y861900D01*
X325700Y835000D02*
X328700D01*
X327200Y833500D02*
Y836500D01*
X338400Y555600D02*
X341400D01*
X339900Y554100D02*
Y557100D01*
X325700Y530200D02*
X328700D01*
X327200Y528700D02*
Y531700D01*
X338400Y504800D02*
X341400D01*
X339900Y503300D02*
Y506300D01*
X325700Y479400D02*
X328700D01*
X327200Y477900D02*
Y480900D01*
X338400Y454000D02*
X341400D01*
X339900Y452500D02*
Y455500D01*
X338400Y403200D02*
X341400D01*
X339900Y401700D02*
Y404700D01*
X325700Y377800D02*
X328700D01*
X327200Y376300D02*
Y379300D01*
X338400Y352400D02*
X341400D01*
X339900Y350900D02*
Y353900D01*
X325700Y327000D02*
X328700D01*
X327200Y325500D02*
Y328500D01*
X325700Y225400D02*
X328700D01*
X327200Y223900D02*
Y226900D01*
X338400Y200000D02*
X341400D01*
X339900Y198500D02*
Y201500D01*
X325700Y174600D02*
X328700D01*
X327200Y173100D02*
Y176100D01*
X338400Y149200D02*
X341400D01*
X339900Y147700D02*
Y150700D01*
X325700Y123800D02*
X328700D01*
X327200Y122300D02*
Y125300D01*
X338400Y98400D02*
X341400D01*
X339900Y96900D02*
Y99900D01*
X325700Y73000D02*
X328700D01*
X327200Y71500D02*
Y74500D01*
X338400Y47600D02*
X341400D01*
X339900Y46100D02*
Y49100D01*
X325700Y22200D02*
X328700D01*
X327200Y20700D02*
Y23700D01*
X300300Y835000D02*
X303300D01*
X301800Y833500D02*
Y836500D01*
X300300Y530200D02*
X303300D01*
X301800Y528700D02*
Y531700D01*
X313000Y504800D02*
X316000D01*
X314500Y503300D02*
Y506300D01*
X300300Y479400D02*
X303300D01*
X301800Y477900D02*
Y480900D01*
X313000Y454000D02*
X316000D01*
X314500Y452500D02*
Y455500D01*
X300300Y428600D02*
X303300D01*
X301800Y427100D02*
Y430100D01*
X300300Y377800D02*
X303300D01*
X301800Y376300D02*
Y379300D01*
X313000Y352400D02*
X316000D01*
X314500Y350900D02*
Y353900D01*
X300300Y327000D02*
X303300D01*
X301800Y325500D02*
Y328500D01*
X300300Y225400D02*
X303300D01*
X301800Y223900D02*
Y226900D01*
X313000Y200000D02*
X316000D01*
X314500Y198500D02*
Y201500D01*
X300300Y174600D02*
X303300D01*
X301800Y173100D02*
Y176100D01*
X313000Y149200D02*
X316000D01*
X314500Y147700D02*
Y150700D01*
X300300Y123800D02*
X303300D01*
X301800Y122300D02*
Y125300D01*
X313000Y98400D02*
X316000D01*
X314500Y96900D02*
Y99900D01*
X313000Y47600D02*
X316000D01*
X314500Y46100D02*
Y49100D01*
X300300Y22200D02*
X303300D01*
X301800Y20700D02*
Y23700D01*
X274900Y835000D02*
X277900D01*
X276400Y833500D02*
Y836500D01*
X274900Y733400D02*
X277900D01*
X276400Y731900D02*
Y734900D01*
X274900Y682600D02*
X277900D01*
X276400Y681100D02*
Y684100D01*
X274900Y631800D02*
X277900D01*
X276400Y630300D02*
Y633300D01*
X287600Y606400D02*
X290600D01*
X289100Y604900D02*
Y607900D01*
X287600Y504800D02*
X290600D01*
X289100Y503300D02*
Y506300D01*
X274900Y479400D02*
X277900D01*
X276400Y477900D02*
Y480900D01*
X287600Y454000D02*
X290600D01*
X289100Y452500D02*
Y455500D01*
X274900Y225400D02*
X277900D01*
X276400Y223900D02*
Y226900D01*
X287600Y98400D02*
X290600D01*
X289100Y96900D02*
Y99900D01*
X274900Y22200D02*
X277900D01*
X276400Y20700D02*
Y23700D01*
X262200Y860400D02*
X265200D01*
X263700Y858900D02*
Y861900D01*
X249500Y835000D02*
X252500D01*
X251000Y833500D02*
Y836500D01*
X249500Y733400D02*
X252500D01*
X251000Y731900D02*
Y734900D01*
X262200Y606400D02*
X265200D01*
X263700Y604900D02*
Y607900D01*
X249500Y581000D02*
X252500D01*
X251000Y579500D02*
Y582500D01*
X249500Y479400D02*
X252500D01*
X251000Y477900D02*
Y480900D01*
X262200Y454000D02*
X265200D01*
X263700Y452500D02*
Y455500D01*
X249500Y225400D02*
X252500D01*
X251000Y223900D02*
Y226900D01*
X249500Y174600D02*
X252500D01*
X251000Y173100D02*
Y176100D01*
X262200Y47600D02*
X265200D01*
X263700Y46100D02*
Y49100D01*
X249500Y22200D02*
X252500D01*
X251000Y20700D02*
Y23700D01*
X224100Y885800D02*
X227100D01*
X225600Y884300D02*
Y887300D01*
X236800Y606400D02*
X239800D01*
X238300Y604900D02*
Y607900D01*
X224100Y581000D02*
X227100D01*
X225600Y579500D02*
Y582500D01*
X236800Y555600D02*
X239800D01*
X238300Y554100D02*
Y557100D01*
X236800Y454000D02*
X239800D01*
X238300Y452500D02*
Y455500D01*
X224100Y225400D02*
X227100D01*
X225600Y223900D02*
Y226900D01*
X236800Y200000D02*
X239800D01*
X238300Y198500D02*
Y201500D01*
X224100Y174600D02*
X227100D01*
X225600Y173100D02*
Y176100D01*
X236800Y47600D02*
X239800D01*
X238300Y46100D02*
Y49100D01*
X224100Y22200D02*
X227100D01*
X225600Y20700D02*
Y23700D01*
X211400Y606400D02*
X214400D01*
X212900Y604900D02*
Y607900D01*
X198700Y581000D02*
X201700D01*
X200200Y579500D02*
Y582500D01*
X211400Y555600D02*
X214400D01*
X212900Y554100D02*
Y557100D01*
X198700Y530200D02*
X201700D01*
X200200Y528700D02*
Y531700D01*
X211400Y250800D02*
X214400D01*
X212900Y249300D02*
Y252300D01*
X198700Y22200D02*
X201700D01*
X200200Y20700D02*
Y23700D01*
X186000Y809600D02*
X189000D01*
X187500Y808100D02*
Y811100D01*
X173300Y631800D02*
X176300D01*
X174800Y630300D02*
Y633300D01*
X186000Y606400D02*
X189000D01*
X187500Y604900D02*
Y607900D01*
X173300Y581000D02*
X176300D01*
X174800Y579500D02*
Y582500D01*
X186000Y555600D02*
X189000D01*
X187500Y554100D02*
Y557100D01*
X173300Y530200D02*
X176300D01*
X174800Y528700D02*
Y531700D01*
X186000Y504800D02*
X189000D01*
X187500Y503300D02*
Y506300D01*
X173300Y377800D02*
X176300D01*
X174800Y376300D02*
Y379300D01*
X173300Y276200D02*
X176300D01*
X174800Y274700D02*
Y277700D01*
X173300Y123800D02*
X176300D01*
X174800Y122300D02*
Y125300D01*
X186000Y98400D02*
X189000D01*
X187500Y96900D02*
Y99900D01*
X173300Y22200D02*
X176300D01*
X174800Y20700D02*
Y23700D01*
X160600Y657200D02*
X163600D01*
X162100Y655700D02*
Y658700D01*
X147900Y631800D02*
X150900D01*
X149400Y630300D02*
Y633300D01*
X160600Y606400D02*
X163600D01*
X162100Y604900D02*
Y607900D01*
X147900Y581000D02*
X150900D01*
X149400Y579500D02*
Y582500D01*
X160600Y555600D02*
X163600D01*
X162100Y554100D02*
Y557100D01*
X147900Y530200D02*
X150900D01*
X149400Y528700D02*
Y531700D01*
X147900Y377800D02*
X150900D01*
X149400Y376300D02*
Y379300D01*
X160600Y149200D02*
X163600D01*
X162100Y147700D02*
Y150700D01*
X147900Y123800D02*
X150900D01*
X149400Y122300D02*
Y125300D01*
X147900Y73000D02*
X150900D01*
X149400Y71500D02*
Y74500D01*
X160600Y47600D02*
X163600D01*
X162100Y46100D02*
Y49100D01*
X147900Y22200D02*
X150900D01*
X149400Y20700D02*
Y23700D01*
X135200Y657200D02*
X138200D01*
X136700Y655700D02*
Y658700D01*
X122500Y631800D02*
X125500D01*
X124000Y630300D02*
Y633300D01*
X135200Y606400D02*
X138200D01*
X136700Y604900D02*
Y607900D01*
X122500Y581000D02*
X125500D01*
X124000Y579500D02*
Y582500D01*
X135200Y555600D02*
X138200D01*
X136700Y554100D02*
Y557100D01*
X122500Y530200D02*
X125500D01*
X124000Y528700D02*
Y531700D01*
X122500Y479400D02*
X125500D01*
X124000Y477900D02*
Y480900D01*
X135200Y454000D02*
X138200D01*
X136700Y452500D02*
Y455500D01*
X122500Y377800D02*
X125500D01*
X124000Y376300D02*
Y379300D01*
X135200Y352400D02*
X138200D01*
X136700Y350900D02*
Y353900D01*
X122500Y327000D02*
X125500D01*
X124000Y325500D02*
Y328500D01*
X122500Y276200D02*
X125500D01*
X124000Y274700D02*
Y277700D01*
X122500Y225400D02*
X125500D01*
X124000Y223900D02*
Y226900D01*
X122500Y174600D02*
X125500D01*
X124000Y173100D02*
Y176100D01*
X135200Y149200D02*
X138200D01*
X136700Y147700D02*
Y150700D01*
X122500Y123800D02*
X125500D01*
X124000Y122300D02*
Y125300D01*
X135200Y98400D02*
X138200D01*
X136700Y96900D02*
Y99900D01*
X122500Y73000D02*
X125500D01*
X124000Y71500D02*
Y74500D01*
X122500Y22200D02*
X125500D01*
X124000Y20700D02*
Y23700D01*
X109800Y860400D02*
X112800D01*
X111300Y858900D02*
Y861900D01*
X109800Y708000D02*
X112800D01*
X111300Y706500D02*
Y709500D01*
X97100Y682600D02*
X100100D01*
X98600Y681100D02*
Y684100D01*
X109800Y657200D02*
X112800D01*
X111300Y655700D02*
Y658700D01*
X97100Y631800D02*
X100100D01*
X98600Y630300D02*
Y633300D01*
X109800Y606400D02*
X112800D01*
X111300Y604900D02*
Y607900D01*
X97100Y581000D02*
X100100D01*
X98600Y579500D02*
Y582500D01*
X109800Y555600D02*
X112800D01*
X111300Y554100D02*
Y557100D01*
X97100Y530200D02*
X100100D01*
X98600Y528700D02*
Y531700D01*
X97100Y479400D02*
X100100D01*
X98600Y477900D02*
Y480900D01*
X109800Y454000D02*
X112800D01*
X111300Y452500D02*
Y455500D01*
X97100Y377800D02*
X100100D01*
X98600Y376300D02*
Y379300D01*
X109800Y352400D02*
X112800D01*
X111300Y350900D02*
Y353900D01*
X109800Y301600D02*
X112800D01*
X111300Y300100D02*
Y303100D01*
X109800Y250800D02*
X112800D01*
X111300Y249300D02*
Y252300D01*
X97100Y225400D02*
X100100D01*
X98600Y223900D02*
Y226900D01*
X109800Y200000D02*
X112800D01*
X111300Y198500D02*
Y201500D01*
X109800Y149200D02*
X112800D01*
X111300Y147700D02*
Y150700D01*
X97100Y123800D02*
X100100D01*
X98600Y122300D02*
Y125300D01*
X109800Y98400D02*
X112800D01*
X111300Y96900D02*
Y99900D01*
X97100Y22200D02*
X100100D01*
X98600Y20700D02*
Y23700D01*
X84400Y708000D02*
X87400D01*
X85900Y706500D02*
Y709500D01*
X71700Y682600D02*
X74700D01*
X73200Y681100D02*
Y684100D01*
X84400Y657200D02*
X87400D01*
X85900Y655700D02*
Y658700D01*
X71700Y631800D02*
X74700D01*
X73200Y630300D02*
Y633300D01*
X84400Y606400D02*
X87400D01*
X85900Y604900D02*
Y607900D01*
X71700Y581000D02*
X74700D01*
X73200Y579500D02*
Y582500D01*
X84400Y555600D02*
X87400D01*
X85900Y554100D02*
Y557100D01*
X71700Y530200D02*
X74700D01*
X73200Y528700D02*
Y531700D01*
X71700Y479400D02*
X74700D01*
X73200Y477900D02*
Y480900D01*
X84400Y454000D02*
X87400D01*
X85900Y452500D02*
Y455500D01*
X71700Y377800D02*
X74700D01*
X73200Y376300D02*
Y379300D01*
X84400Y250800D02*
X87400D01*
X85900Y249300D02*
Y252300D01*
X71700Y225400D02*
X74700D01*
X73200Y223900D02*
Y226900D01*
X84400Y149200D02*
X87400D01*
X85900Y147700D02*
Y150700D01*
X71700Y123800D02*
X74700D01*
X73200Y122300D02*
Y125300D01*
X84400Y98400D02*
X87400D01*
X85900Y96900D02*
Y99900D01*
X71700Y22200D02*
X74700D01*
X73200Y20700D02*
Y23700D01*
X59000Y860400D02*
X62000D01*
X60500Y858900D02*
Y861900D01*
X59000Y758800D02*
X62000D01*
X60500Y757300D02*
Y760300D01*
X46300Y682600D02*
X49300D01*
X47800Y681100D02*
Y684100D01*
X59000Y657200D02*
X62000D01*
X60500Y655700D02*
Y658700D01*
X46300Y631800D02*
X49300D01*
X47800Y630300D02*
Y633300D01*
X59000Y606400D02*
X62000D01*
X60500Y604900D02*
Y607900D01*
X46300Y479400D02*
X49300D01*
X47800Y477900D02*
Y480900D01*
X59000Y454000D02*
X62000D01*
X60500Y452500D02*
Y455500D01*
X46300Y428600D02*
X49300D01*
X47800Y427100D02*
Y430100D01*
X59000Y403200D02*
X62000D01*
X60500Y401700D02*
Y404700D01*
X46300Y377800D02*
X49300D01*
X47800Y376300D02*
Y379300D01*
X59000Y250800D02*
X62000D01*
X60500Y249300D02*
Y252300D01*
X46300Y225400D02*
X49300D01*
X47800Y223900D02*
Y226900D01*
X59000Y149200D02*
X62000D01*
X60500Y147700D02*
Y150700D01*
X46300Y123800D02*
X49300D01*
X47800Y122300D02*
Y125300D01*
X59000Y98400D02*
X62000D01*
X60500Y96900D02*
Y99900D01*
X20900Y682600D02*
X23900D01*
X22400Y681100D02*
Y684100D01*
X33600Y657200D02*
X36600D01*
X35100Y655700D02*
Y658700D01*
X20900Y631800D02*
X23900D01*
X22400Y630300D02*
Y633300D01*
X33600Y606400D02*
X36600D01*
X35100Y604900D02*
Y607900D01*
X20900Y581000D02*
X23900D01*
X22400Y579500D02*
Y582500D01*
X20900Y479400D02*
X23900D01*
X22400Y477900D02*
Y480900D01*
X33600Y454000D02*
X36600D01*
X35100Y452500D02*
Y455500D01*
X20900Y428600D02*
X23900D01*
X22400Y427100D02*
Y430100D01*
X33600Y403200D02*
X36600D01*
X35100Y401700D02*
Y404700D01*
X20900Y377800D02*
X23900D01*
X22400Y376300D02*
Y379300D01*
X20900Y225400D02*
X23900D01*
X22400Y223900D02*
Y226900D01*
X33600Y200000D02*
X36600D01*
X35100Y198500D02*
Y201500D01*
X20900Y174600D02*
X23900D01*
X22400Y173100D02*
Y176100D01*
X33600Y149200D02*
X36600D01*
X35100Y147700D02*
Y150700D01*
X20900Y123800D02*
X23900D01*
X22400Y122300D02*
Y125300D01*
X33600Y98400D02*
X36600D01*
X35100Y96900D02*
Y99900D01*
X20900Y73000D02*
X23900D01*
X22400Y71500D02*
Y74500D01*
X20900Y22200D02*
X23900D01*
X22400Y20700D02*
Y23700D01*
X317000Y432250D02*
X320000D01*
X318500Y430750D02*
Y433750D01*
X336750Y414500D02*
X339750D01*
X338250Y413000D02*
Y416000D01*
X1046750Y406750D02*
X1049750D01*
X1048250Y405250D02*
Y408250D01*
X1122500Y137250D02*
X1125500D01*
X1124000Y135750D02*
Y138750D01*
X1185558Y121000D02*
X1188558D01*
X1187058Y119500D02*
Y122500D01*
X1234750Y212250D02*
X1237750D01*
X1236250Y210750D02*
Y213750D01*
X1205250Y253250D02*
X1208250D01*
X1206750Y251750D02*
Y254750D01*
X1146500Y212250D02*
X1149500D01*
X1148000Y210750D02*
Y213750D01*
X1271562Y121000D02*
X1274562D01*
X1273062Y119500D02*
Y122500D01*
X581250Y686460D02*
X584250D01*
X582750Y684960D02*
Y687960D01*
X842390Y176000D02*
X845390D01*
X843890Y174500D02*
Y177500D01*
X842390Y153160D02*
X845390D01*
X843890Y151660D02*
Y154660D01*
X942250Y153160D02*
X945250D01*
X943750Y151660D02*
Y154660D01*
X1036250Y153160D02*
X1039250D01*
X1037750Y151660D02*
Y154660D01*
X1036250Y176000D02*
X1039250D01*
X1037750Y174500D02*
Y177500D01*
X1278750Y765500D02*
X1281750D01*
X1280250Y764000D02*
Y767000D01*
X1194808Y733286D02*
X1197808D01*
X1196308Y731786D02*
Y734786D01*
X1217500Y738000D02*
X1220500D01*
X1219000Y736500D02*
Y739500D01*
X1188000Y757000D02*
X1191000D01*
X1189500Y755500D02*
Y758500D01*
X1081500Y765750D02*
X1084500D01*
X1083000Y764250D02*
Y767250D01*
X996299Y733036D02*
X999299D01*
X997799Y731536D02*
Y734536D01*
X868250Y751250D02*
X871250D01*
X869750Y749750D02*
Y752750D01*
X868250Y763000D02*
X871250D01*
X869750Y761500D02*
Y764500D01*
X690890Y748500D02*
X693890D01*
X692390Y747000D02*
Y750000D01*
X568000Y735750D02*
X571000D01*
X569500Y734250D02*
Y737250D01*
X466890Y748500D02*
X469890D01*
X468390Y747000D02*
Y750000D01*
X615750Y772500D02*
X618750D01*
X617250Y771000D02*
Y774000D01*
X644750Y750750D02*
X647750D01*
X646250Y749250D02*
Y752250D01*
X644750Y763000D02*
X647750D01*
X646250Y761500D02*
Y764500D01*
X397250Y730250D02*
X400250D01*
X398750Y728750D02*
Y731750D01*
X397250Y723600D02*
X400250D01*
X398750Y722100D02*
Y725100D01*
X340500Y666750D02*
X343500D01*
X342000Y665250D02*
Y668250D01*
X293000Y667000D02*
X296000D01*
X294500Y665500D02*
Y668500D01*
X317000Y667000D02*
X320000D01*
X318500Y665500D02*
Y668500D01*
X693500Y491124D02*
X696500D01*
X695000Y489624D02*
Y492624D01*
X586750Y464000D02*
X589750D01*
X588250Y462500D02*
Y465500D01*
X580000Y464000D02*
X583000D01*
X581500Y462500D02*
Y465500D01*
X579500Y565750D02*
X582500D01*
X581000Y564250D02*
Y567250D01*
X593250Y565750D02*
X596250D01*
X594750Y564250D02*
Y567250D01*
X174750Y479375D02*
X177750D01*
X176250Y477875D02*
Y480875D01*
X183625Y479375D02*
X186625D01*
X185125Y477875D02*
Y480875D01*
X165875Y479375D02*
X168875D01*
X167375Y477875D02*
Y480875D01*
X201375Y435000D02*
X204375D01*
X202875Y433500D02*
Y436500D01*
X201375Y443875D02*
X204375D01*
X202875Y442375D02*
Y445375D01*
X201375Y452750D02*
X204375D01*
X202875Y451250D02*
Y454250D01*
X201375Y461625D02*
X204375D01*
X202875Y460125D02*
Y463125D01*
X165875Y470500D02*
X168875D01*
X167375Y469000D02*
Y472000D01*
X157000Y470500D02*
X160000D01*
X158500Y469000D02*
Y472000D01*
X165875Y461625D02*
X168875D01*
X167375Y460125D02*
Y463125D01*
X157000Y461625D02*
X160000D01*
X158500Y460125D02*
Y463125D01*
X165875Y452750D02*
X168875D01*
X167375Y451250D02*
Y454250D01*
X157000Y452750D02*
X160000D01*
X158500Y451250D02*
Y454250D01*
X165875Y443875D02*
X168875D01*
X167375Y442375D02*
Y445375D01*
X157000Y443875D02*
X160000D01*
X158500Y442375D02*
Y445375D01*
X165875Y435000D02*
X168875D01*
X167375Y433500D02*
Y436500D01*
X157000Y435000D02*
X160000D01*
X158500Y433500D02*
Y436500D01*
X183625Y470500D02*
X186625D01*
X185125Y469000D02*
Y472000D01*
X174750Y470500D02*
X177750D01*
X176250Y469000D02*
Y472000D01*
X183625Y461625D02*
X186625D01*
X185125Y460125D02*
Y463125D01*
X192500Y461625D02*
X195500D01*
X194000Y460125D02*
Y463125D01*
X174750Y461625D02*
X177750D01*
X176250Y460125D02*
Y463125D01*
X183625Y452750D02*
X186625D01*
X185125Y451250D02*
Y454250D01*
X192500Y452750D02*
X195500D01*
X194000Y451250D02*
Y454250D01*
X174750Y452750D02*
X177750D01*
X176250Y451250D02*
Y454250D01*
X174750Y443875D02*
X177750D01*
X176250Y442375D02*
Y445375D01*
X192500Y443875D02*
X195500D01*
X194000Y442375D02*
Y445375D01*
X183625Y443875D02*
X186625D01*
X185125Y442375D02*
Y445375D01*
X192500Y435000D02*
X195500D01*
X194000Y433500D02*
Y436500D01*
X174750Y435000D02*
X177750D01*
X176250Y433500D02*
Y436500D01*
X183625Y435000D02*
X186625D01*
X185125Y433500D02*
Y436500D01*
X1143500Y272000D02*
X1146500D01*
X1145000Y270500D02*
Y273500D01*
X1162500Y253000D02*
X1165500D01*
X1164000Y251500D02*
Y254500D01*
X1110500Y269000D02*
X1113500D01*
X1112000Y267500D02*
Y270500D01*
X724500Y639000D02*
X727500D01*
X726000Y637500D02*
Y640500D01*
X362663Y663250D02*
X365663D01*
X364163Y661750D02*
Y664750D01*
X498000Y681500D02*
X501000D01*
X499500Y680000D02*
Y683000D01*
X522499Y729998D02*
X525499D01*
X523999Y728499D02*
Y731498D01*
X461500Y810000D02*
X464500D01*
X463000Y808500D02*
Y811500D01*
X447500Y874400D02*
X450500D01*
X449000Y872900D02*
Y875900D01*
X431500Y890000D02*
X434500D01*
X433000Y888500D02*
Y891500D01*
X431500Y858750D02*
X434500D01*
X433000Y857250D02*
Y860250D01*
X416250Y874400D02*
X419250D01*
X417750Y872900D02*
Y875900D01*
X91750Y263313D02*
X94750D01*
X93250Y261813D02*
Y264813D01*
X70550Y263313D02*
X73550D01*
X72050Y261813D02*
Y264813D01*
X59950Y263313D02*
X62950D01*
X61450Y261813D02*
Y264813D01*
X49350Y263313D02*
X52350D01*
X50850Y261813D02*
Y264813D01*
X81150Y263313D02*
X84150D01*
X82650Y261813D02*
Y264813D01*
X38750Y263313D02*
X41750D01*
X40250Y261813D02*
Y264813D01*
X9000Y271458D02*
X12000D01*
X10500Y269958D02*
Y272959D01*
X38750Y251250D02*
X41750D01*
X40250Y249750D02*
Y252750D01*
X28050Y251250D02*
X31050D01*
X29550Y249750D02*
Y252750D01*
X17350Y251250D02*
X20350D01*
X18850Y249750D02*
Y252750D01*
X9000Y251500D02*
X12000D01*
X10500Y250000D02*
Y253000D01*
X9000Y261479D02*
X12000D01*
X10500Y259979D02*
Y262979D01*
X9000Y361271D02*
X12000D01*
X10500Y359771D02*
Y362771D01*
X9000Y281438D02*
X12000D01*
X10500Y279938D02*
Y282938D01*
X9000Y291417D02*
X12000D01*
X10500Y289917D02*
Y292917D01*
X9000Y301396D02*
X12000D01*
X10500Y299896D02*
Y302896D01*
X9000Y311375D02*
X12000D01*
X10500Y309875D02*
Y312875D01*
X9000Y321354D02*
X12000D01*
X10500Y319854D02*
Y322854D01*
X9000Y331333D02*
X12000D01*
X10500Y329833D02*
Y332833D01*
X9000Y341250D02*
X12000D01*
X10500Y339750D02*
Y342750D01*
X9000Y351292D02*
X12000D01*
X10500Y349792D02*
Y352792D01*
X9000Y371250D02*
X12000D01*
X10500Y369750D02*
Y372750D01*
X38750Y371000D02*
X41750D01*
X40250Y369500D02*
Y372500D01*
X17250Y371000D02*
X20250D01*
X18750Y369500D02*
Y372500D01*
X28000Y371000D02*
X31000D01*
X29500Y369500D02*
Y372500D01*
X81150Y358937D02*
X84150D01*
X82650Y357437D02*
Y360437D01*
X38750Y358937D02*
X41750D01*
X40250Y357437D02*
Y360437D01*
X49635Y358937D02*
X52635D01*
X51135Y357437D02*
Y360437D01*
X59950Y358937D02*
X62950D01*
X61450Y357437D02*
Y360437D01*
X70550Y358937D02*
X73550D01*
X72050Y357437D02*
Y360437D01*
X91750Y358937D02*
X94750D01*
X93250Y357437D02*
Y360437D01*
X91750Y339812D02*
X94750D01*
X93250Y338312D02*
Y341312D01*
X91750Y330250D02*
X94750D01*
X93250Y328750D02*
Y331750D01*
X91750Y320687D02*
X94750D01*
X93250Y319187D02*
Y322187D01*
X91750Y311000D02*
X94750D01*
X93250Y309500D02*
Y312500D01*
X91750Y301562D02*
X94750D01*
X93250Y300063D02*
Y303062D01*
X91750Y292000D02*
X94750D01*
X93250Y290500D02*
Y293500D01*
X91750Y282438D02*
X94750D01*
X93250Y280938D02*
Y283938D01*
X91750Y272875D02*
X94750D01*
X93250Y271375D02*
Y274375D01*
X91750Y349375D02*
X94750D01*
X93250Y347875D02*
Y350875D01*
X77622Y434750D02*
X80622D01*
X79122Y433250D02*
Y436250D01*
X103122Y434750D02*
X106122D01*
X104622Y433250D02*
Y436250D01*
X78122Y397750D02*
X81122D01*
X79622Y396250D02*
Y399250D01*
X102122Y397750D02*
X105122D01*
X103622Y396250D02*
Y399250D01*
X63372Y409750D02*
X66372D01*
X64872Y408250D02*
Y411250D01*
X63372Y423250D02*
X66372D01*
X64872Y421750D02*
Y424750D01*
X119358Y408750D02*
X122358D01*
X120858Y407250D02*
Y410250D01*
X119358Y422250D02*
X122358D01*
X120858Y420750D02*
Y423750D01*
X236000Y438000D02*
X239000D01*
X237500Y436500D02*
Y439500D01*
X318000Y397750D02*
X321000D01*
X319500Y396250D02*
Y399250D01*
X299750Y413500D02*
X302750D01*
X301250Y412000D02*
Y415000D01*
X138500Y306500D02*
X141500D01*
X140000Y305000D02*
Y308000D01*
X139250Y314750D02*
X142250D01*
X140750Y313250D02*
Y316250D01*
X172500Y305750D02*
X175500D01*
X174000Y304250D02*
Y307250D01*
X172750Y316500D02*
X175750D01*
X174250Y315000D02*
Y318000D01*
X139000Y345000D02*
X142000D01*
X140500Y343500D02*
Y346500D01*
X148500Y356250D02*
X151500D01*
X150000Y354750D02*
Y357750D01*
X162000Y356250D02*
X165000D01*
X163500Y354750D02*
Y357750D01*
X171500Y345000D02*
X174500D01*
X173000Y343500D02*
Y346500D01*
X357750Y322194D02*
X360750D01*
X359250Y320694D02*
Y323694D01*
X373472Y306472D02*
X376472D01*
X374972Y304972D02*
Y307972D01*
X357750Y290750D02*
X360750D01*
X359250Y289250D02*
Y292250D01*
X342000Y306522D02*
X345000D01*
X343500Y305022D02*
Y308022D01*
X96236Y193250D02*
X99236D01*
X97736Y191750D02*
Y194750D01*
X96236Y179750D02*
X99236D01*
X97736Y178250D02*
Y181250D01*
X40250Y194250D02*
X43250D01*
X41750Y192750D02*
Y195750D01*
X40250Y180750D02*
X43250D01*
X41750Y179250D02*
Y182250D01*
X79000Y168750D02*
X82000D01*
X80500Y167250D02*
Y170250D01*
X55000Y168750D02*
X58000D01*
X56500Y167250D02*
Y170250D01*
X80000Y205750D02*
X83000D01*
X81500Y204250D02*
Y207250D01*
X54500Y205750D02*
X57500D01*
X56000Y204250D02*
Y207250D01*
X301250Y43000D02*
X304250D01*
X302750Y41500D02*
Y44500D01*
X270750Y42750D02*
X273750D01*
X272250Y41250D02*
Y44250D01*
X301250Y71250D02*
X304250D01*
X302750Y69750D02*
Y72750D01*
X270000Y71250D02*
X273000D01*
X271500Y69750D02*
Y72750D01*
X305250Y57000D02*
X308250D01*
X306750Y55500D02*
Y58500D01*
X265750Y57000D02*
X268750D01*
X267250Y55500D02*
Y58500D01*
X285500Y36750D02*
X288500D01*
X287000Y35250D02*
Y38250D01*
X285500Y77500D02*
X288500D01*
X287000Y76000D02*
Y79000D01*
X64000Y33750D02*
X67000D01*
X65500Y32250D02*
Y35250D01*
X56500Y27250D02*
X59500D01*
X58000Y25750D02*
Y28750D01*
X45500Y24000D02*
X48500D01*
X47000Y22500D02*
Y25500D01*
X30500Y27250D02*
X33500D01*
X32000Y25750D02*
Y28750D01*
X21500Y35750D02*
X24500D01*
X23000Y34250D02*
Y37250D01*
X62750Y69250D02*
X65750D01*
X64250Y67750D02*
Y70750D01*
X49500Y75250D02*
X52500D01*
X51000Y73750D02*
Y76750D01*
X31500Y73500D02*
X34500D01*
X33000Y72000D02*
Y75000D01*
X18250Y51000D02*
X21250D01*
X19750Y49500D02*
Y52500D01*
X21750Y65000D02*
X24750D01*
X23250Y63500D02*
Y66500D01*
X639500Y470750D02*
X642500D01*
X641000Y469250D02*
Y472250D01*
X662500Y506250D02*
X665500D01*
X664000Y504750D02*
Y507750D01*
X695750Y581210D02*
X698750D01*
X697250Y579710D02*
Y582710D01*
X695750Y573250D02*
X698750D01*
X697250Y571750D02*
Y574750D01*
X529750Y444500D02*
X532750D01*
X531250Y443000D02*
Y446000D01*
X528750Y491124D02*
X531750D01*
X530250Y489624D02*
Y492624D01*
X1156000Y225111D02*
X1159000D01*
X1157500Y223611D02*
Y226611D01*
X1165750Y176750D02*
X1168750D01*
X1167250Y175250D02*
Y178250D01*
X1167000Y201500D02*
X1170000D01*
X1168500Y200000D02*
Y203000D01*
X1244500Y225250D02*
X1247500D01*
X1246000Y223750D02*
Y226750D01*
X1208000Y177250D02*
X1211000D01*
X1209500Y175750D02*
Y178750D01*
X1210500Y137250D02*
X1213500D01*
X1212000Y135750D02*
Y138750D01*
X1254250Y201222D02*
X1257250D01*
X1255750Y199722D02*
Y202722D01*
X1253000Y177250D02*
X1256000D01*
X1254500Y175750D02*
Y178750D01*
X963500Y310500D02*
X966500D01*
X965000Y309000D02*
Y312000D01*
X959750Y334250D02*
X962750D01*
X961250Y332750D02*
Y335750D01*
X959500Y356250D02*
X962500D01*
X961000Y354750D02*
Y357750D01*
X860750Y310750D02*
X863750D01*
X862250Y309250D02*
Y312250D01*
X861750Y324000D02*
X864750D01*
X863250Y322500D02*
Y325500D01*
X862250Y346000D02*
X865250D01*
X863750Y344500D02*
Y347500D01*
X758750Y303250D02*
X761750D01*
X760250Y301750D02*
Y304750D01*
X762750Y324000D02*
X765750D01*
X764250Y322500D02*
Y325500D01*
X762750Y346000D02*
X765750D01*
X764250Y344500D02*
Y347500D01*
X762500Y368000D02*
X765500D01*
X764000Y366500D02*
Y369500D01*
X954000Y130250D02*
X957000D01*
X955500Y128750D02*
Y131750D01*
X856250Y130000D02*
X859250D01*
X857750Y128500D02*
Y131500D01*
X757500Y130000D02*
X760500D01*
X759000Y128500D02*
Y131500D01*
X579500Y129250D02*
X582500D01*
X581000Y127750D02*
Y130750D01*
X579500Y149750D02*
X582500D01*
X581000Y148250D02*
Y151250D01*
X685000Y141250D02*
X688000D01*
X686500Y139750D02*
Y142750D01*
X679500Y167250D02*
X682500D01*
X681000Y165750D02*
Y168750D01*
X23750Y699500D02*
X26750D01*
X25250Y698000D02*
Y701000D01*
X213750Y705750D02*
X216750D01*
X215250Y704250D02*
Y707250D01*
X184750Y701000D02*
X187750D01*
X186250Y699500D02*
Y702500D01*
X145500Y702000D02*
X148500D01*
X147000Y700500D02*
Y703500D01*
X133500Y736000D02*
X136500D01*
X135000Y734500D02*
Y737500D01*
X133250Y773500D02*
X136250D01*
X134750Y772000D02*
Y775000D01*
X184750Y773500D02*
X187750D01*
X186250Y772000D02*
Y775000D01*
X184500Y737250D02*
X187500D01*
X186000Y735750D02*
Y738750D01*
X198750Y741750D02*
X201750D01*
X200250Y740250D02*
Y743250D01*
X198500Y778750D02*
X201500D01*
X200000Y777250D02*
Y780250D01*
X248500Y760250D02*
X251500D01*
X250000Y758750D02*
Y761750D01*
X262500Y759500D02*
X265500D01*
X264000Y758000D02*
Y761000D01*
X280500Y759000D02*
X283500D01*
X282000Y757500D02*
Y760500D01*
X283750Y736300D02*
X286750D01*
X285250Y734800D02*
Y737800D01*
X408500Y667500D02*
X411500D01*
X410000Y666000D02*
Y669000D01*
X433550Y667500D02*
X436550D01*
X435050Y666000D02*
Y669000D01*
X534000Y783500D02*
X537000D01*
X535500Y782000D02*
Y785000D01*
X591750Y810500D02*
X594750D01*
X593250Y809000D02*
Y812000D01*
X617500Y736250D02*
X620500D01*
X619000Y734750D02*
Y737750D01*
X619500Y727500D02*
X622500D01*
X621000Y726000D02*
Y729000D01*
X669750Y740000D02*
X672750D01*
X671250Y738500D02*
Y741500D01*
X789000Y735000D02*
X792000D01*
X790500Y733500D02*
Y736500D01*
X758500Y782500D02*
X761500D01*
X760000Y781000D02*
Y784000D01*
X824000Y820750D02*
X827000D01*
X825500Y819250D02*
Y822250D01*
X834750Y771500D02*
X837750D01*
X836250Y770000D02*
Y773000D01*
X842000Y731000D02*
X845000D01*
X843500Y729500D02*
Y732500D01*
X849250Y736250D02*
X852250D01*
X850750Y734750D02*
Y737750D01*
X882500Y731250D02*
X885500D01*
X884000Y729750D02*
Y732750D01*
X895000Y800500D02*
X898000D01*
X896500Y799000D02*
Y802000D01*
X947500Y783250D02*
X950500D01*
X949000Y781750D02*
Y784750D01*
X991000Y754750D02*
X994000D01*
X992500Y753250D02*
Y756250D01*
X1082750Y752500D02*
X1085750D01*
X1084250Y751000D02*
Y754000D01*
X992750Y792000D02*
X995750D01*
X994250Y790500D02*
Y793500D01*
X1083000Y800250D02*
X1086000D01*
X1084500Y798750D02*
Y801750D01*
X1271000Y725500D02*
X1274000D01*
X1272500Y724000D02*
Y727000D01*
X1279250Y743500D02*
X1282250D01*
X1280750Y742000D02*
Y745000D01*
X1279000Y750750D02*
X1282000D01*
X1280500Y749250D02*
Y752250D01*
X1181000Y754250D02*
X1184000D01*
X1182500Y752750D02*
Y755750D01*
X1142250Y783250D02*
X1145250D01*
X1143750Y781750D02*
Y784750D01*
X1204250Y811750D02*
X1207250D01*
X1205750Y810250D02*
Y813250D01*
X1222250Y812000D02*
X1225250D01*
X1223750Y810500D02*
Y813500D01*
X1266800Y809000D02*
X1269800D01*
X1268300Y807500D02*
Y810500D01*
X1278750Y882000D02*
X1281750D01*
X1280250Y880500D02*
Y883500D01*
X1140750Y881500D02*
X1143750D01*
X1142250Y880000D02*
Y883000D01*
X1084250Y882000D02*
X1087250D01*
X1085750Y880500D02*
Y883500D01*
X945750Y881500D02*
X948750D01*
X947250Y880000D02*
Y883000D01*
X895500Y882750D02*
X898500D01*
X897000Y881250D02*
Y884250D01*
X757750Y882720D02*
X760750D01*
X759250Y881220D02*
Y884220D01*
X658500Y810250D02*
X661500D01*
X660000Y808750D02*
Y811750D01*
X685000Y809750D02*
X688000D01*
X686500Y808250D02*
Y811250D01*
X677250Y834500D02*
X680250D01*
X678750Y833000D02*
Y836000D01*
X671750Y882750D02*
X674750D01*
X673250Y881250D02*
Y884250D01*
X533250Y882250D02*
X536250D01*
X534750Y880750D02*
Y883750D01*
X455000Y834250D02*
X458000D01*
X456500Y832750D02*
Y835750D01*
X296500Y811500D02*
X299500D01*
X298000Y810000D02*
Y813000D01*
X275250Y810500D02*
X278250D01*
X276750Y809000D02*
Y812000D01*
X262500Y829250D02*
X265500D01*
X264000Y827750D02*
Y830750D01*
X81750Y865500D02*
X84750D01*
X83250Y864000D02*
Y867000D01*
X61500Y844500D02*
X64500D01*
X63000Y843000D02*
Y846000D01*
X952547Y387269D02*
X955547D01*
X954047Y385769D02*
Y388769D01*
X952500Y374000D02*
X955500D01*
X954000Y372500D02*
Y375500D01*
X1035819Y340000D02*
X1038819D01*
X1037319Y338500D02*
Y341500D01*
X959500Y368000D02*
X962500D01*
X961000Y366500D02*
Y369500D01*
X887000Y379000D02*
X890000D01*
X888500Y377500D02*
Y380500D01*
X813026Y368000D02*
X816026D01*
X814526Y366500D02*
Y369500D01*
X860000Y363250D02*
X863000D01*
X861500Y361750D02*
Y364750D01*
X882500Y406500D02*
X885500D01*
X884000Y405000D02*
Y408000D01*
X676500Y596000D02*
X679500D01*
X678000Y594500D02*
Y597500D01*
X1128500Y715000D02*
X1131500D01*
X1130000Y713500D02*
Y716500D01*
X947500Y724000D02*
X950500D01*
X949000Y722500D02*
Y725500D01*
X705500Y615000D02*
X708500D01*
X707000Y613500D02*
Y616500D01*
X887500Y569000D02*
X890500D01*
X889000Y567500D02*
Y570500D01*
X895500Y561000D02*
X898500D01*
X897000Y559500D02*
Y562500D01*
X938819Y340000D02*
X941819D01*
X940319Y338500D02*
Y341500D01*
X853500Y561000D02*
X856500D01*
X855000Y559500D02*
Y562500D01*
X846500Y569000D02*
X849500D01*
X848000Y567500D02*
Y570500D01*
X801500Y522000D02*
X804500D01*
X803000Y520500D02*
Y523500D01*
X735500Y554000D02*
X738500D01*
X737000Y552500D02*
Y555500D01*
X729500Y525000D02*
X732500D01*
X731000Y523500D02*
Y526500D01*
X667500Y204000D02*
X670500D01*
X669000Y202500D02*
Y205500D01*
X615500Y434000D02*
X618500D01*
X617000Y432500D02*
Y435500D01*
X663500Y427000D02*
X666500D01*
X665000Y425500D02*
Y428500D01*
X663500Y417652D02*
X666500D01*
X665000Y416152D02*
Y419152D01*
X663500Y408304D02*
X666500D01*
X665000Y406804D02*
Y409804D01*
X663500Y398957D02*
X666500D01*
X665000Y397457D02*
Y400457D01*
X663500Y389609D02*
X666500D01*
X665000Y388109D02*
Y391109D01*
X663500Y380261D02*
X666500D01*
X665000Y378761D02*
Y381761D01*
X663500Y370913D02*
X666500D01*
X665000Y369413D02*
Y372413D01*
X663500Y361565D02*
X666500D01*
X665000Y360065D02*
Y363065D01*
X663500Y352217D02*
X666500D01*
X665000Y350718D02*
Y353717D01*
X663500Y342870D02*
X666500D01*
X665000Y341370D02*
Y344370D01*
X663500Y333522D02*
X666500D01*
X665000Y332022D02*
Y335022D01*
X663500Y324174D02*
X666500D01*
X665000Y322674D02*
Y325674D01*
X663500Y314826D02*
X666500D01*
X665000Y313326D02*
Y316326D01*
X663500Y305478D02*
X666500D01*
X665000Y303979D02*
Y306978D01*
X663500Y296131D02*
X666500D01*
X665000Y294631D02*
Y297631D01*
X663500Y286783D02*
X666500D01*
X665000Y285283D02*
Y288283D01*
X663500Y277435D02*
X666500D01*
X665000Y275935D02*
Y278935D01*
X663500Y268087D02*
X666500D01*
X665000Y266587D02*
Y269587D01*
X663500Y258739D02*
X666500D01*
X665000Y257239D02*
Y260239D01*
X663500Y249392D02*
X666500D01*
X665000Y247892D02*
Y250892D01*
X663500Y240044D02*
X666500D01*
X665000Y238544D02*
Y241544D01*
X663500Y230696D02*
X666500D01*
X665000Y229196D02*
Y232196D01*
X663500Y221348D02*
X666500D01*
X665000Y219848D02*
Y222848D01*
X663500Y212000D02*
X666500D01*
X665000Y210500D02*
Y213500D01*
X613500Y185000D02*
X616500D01*
X615000Y183500D02*
Y186500D01*
X609500Y159000D02*
X612500D01*
X611000Y157500D02*
Y160500D01*
X601500Y164000D02*
X604500D01*
X603000Y162500D02*
Y165500D01*
X591500Y164000D02*
X594500D01*
X593000Y162500D02*
Y165500D01*
X586500Y175000D02*
X589500D01*
X588000Y173500D02*
Y176500D01*
X587500Y186000D02*
X590500D01*
X589000Y184500D02*
Y187500D01*
X587500Y197000D02*
X590500D01*
X589000Y195500D02*
Y198500D01*
X637500Y182000D02*
X640500D01*
X639000Y180500D02*
Y183500D01*
X637500Y194000D02*
X640500D01*
X639000Y192500D02*
Y195500D01*
X638500Y203000D02*
X641500D01*
X640000Y201500D02*
Y204500D01*
X593500Y204000D02*
X596500D01*
X595000Y202500D02*
Y205500D01*
X601500Y207000D02*
X604500D01*
X603000Y205500D02*
Y208500D01*
X609500Y214000D02*
X612500D01*
X611000Y212500D02*
Y215500D01*
X615500Y406277D02*
X618500D01*
X617000Y404776D02*
Y407776D01*
X615500Y397035D02*
X618500D01*
X617000Y395535D02*
Y398535D01*
X615500Y387794D02*
X618500D01*
X617000Y386294D02*
Y389294D01*
X615500Y369312D02*
X618500D01*
X617000Y367812D02*
Y370812D01*
X615500Y360071D02*
X618500D01*
X617000Y358571D02*
Y361571D01*
X615500Y350830D02*
X618500D01*
X617000Y349330D02*
Y352330D01*
X615500Y341589D02*
X618500D01*
X617000Y340089D02*
Y343089D01*
X615500Y332348D02*
X618500D01*
X617000Y330848D02*
Y333848D01*
X615500Y323107D02*
X618500D01*
X617000Y321607D02*
Y324607D01*
X615500Y313866D02*
X618500D01*
X617000Y312366D02*
Y315366D01*
X615500Y304625D02*
X618500D01*
X617000Y303125D02*
Y306125D01*
X615500Y295384D02*
X618500D01*
X617000Y293884D02*
Y296884D01*
X615500Y286143D02*
X618500D01*
X617000Y284643D02*
Y287642D01*
X615500Y276901D02*
X618500D01*
X617000Y275401D02*
Y278401D01*
X615500Y267660D02*
X618500D01*
X617000Y266160D02*
Y269160D01*
X615500Y258419D02*
X618500D01*
X617000Y256919D02*
Y259919D01*
X615500Y249178D02*
X618500D01*
X617000Y247678D02*
Y250678D01*
X615500Y239937D02*
X618500D01*
X617000Y238437D02*
Y241437D01*
X615500Y230696D02*
X618500D01*
X617000Y229196D02*
Y232196D01*
X615500Y221348D02*
X618500D01*
X617000Y219848D02*
Y222848D01*
X641500Y212000D02*
X644500D01*
X643000Y210500D02*
Y213500D01*
X641500Y221250D02*
X644500D01*
X643000Y219750D02*
Y222750D01*
X641500Y230501D02*
X644500D01*
X643000Y229001D02*
Y232001D01*
X641500Y239751D02*
X644500D01*
X643000Y238251D02*
Y241251D01*
X641500Y249002D02*
X644500D01*
X643000Y247502D02*
Y250501D01*
X641500Y258252D02*
X644500D01*
X643000Y256752D02*
Y259752D01*
X641500Y267502D02*
X644500D01*
X643000Y266002D02*
Y269002D01*
X641500Y276753D02*
X644500D01*
X643000Y275253D02*
Y278253D01*
X641500Y286003D02*
X644500D01*
X643000Y284503D02*
Y287503D01*
X641500Y295253D02*
X644500D01*
X643000Y293753D02*
Y296753D01*
X641500Y304504D02*
X644500D01*
X643000Y303004D02*
Y306004D01*
X641500Y313754D02*
X644500D01*
X643000Y312254D02*
Y315254D01*
X641500Y323004D02*
X644500D01*
X643000Y321505D02*
Y324505D01*
X641500Y332255D02*
X644500D01*
X643000Y330755D02*
Y333755D01*
X641500Y341505D02*
X644500D01*
X643000Y340005D02*
Y343005D01*
X641500Y350756D02*
X644500D01*
X643000Y349256D02*
Y352256D01*
X641500Y360006D02*
X644500D01*
X643000Y358506D02*
Y361506D01*
X641500Y369256D02*
X644500D01*
X643000Y367756D02*
Y370756D01*
X641500Y378507D02*
X644500D01*
X643000Y377007D02*
Y380007D01*
X641500Y387757D02*
X644500D01*
X643000Y386257D02*
Y389257D01*
X641500Y397007D02*
X644500D01*
X643000Y395508D02*
Y398507D01*
X641500Y406258D02*
X644500D01*
X643000Y404758D02*
Y407758D01*
X641500Y415508D02*
X644500D01*
X643000Y414008D02*
Y417008D01*
X641500Y424759D02*
X644500D01*
X643000Y423259D02*
Y426259D01*
X569500Y483000D02*
X572500D01*
X571000Y481500D02*
Y484500D01*
X728500Y498998D02*
X731500D01*
X730000Y497498D02*
Y500498D01*
X801500Y515000D02*
X804500D01*
X803000Y513500D02*
Y516500D01*
X569500Y538876D02*
X572500D01*
X571000Y537376D02*
Y540376D01*
X530500Y555000D02*
X533500D01*
X532000Y553500D02*
Y556500D01*
X569500Y547004D02*
X572500D01*
X571000Y545504D02*
Y548504D01*
X498500Y568000D02*
X501500D01*
X500000Y566500D02*
Y569500D01*
X530500Y577230D02*
X533500D01*
X532000Y575730D02*
Y578730D01*
X839819Y340000D02*
X842819D01*
X841319Y338500D02*
Y341500D01*
X746500Y729000D02*
X749500D01*
X748000Y727500D02*
Y730500D01*
X973498Y732999D02*
X976498D01*
X974998Y731498D02*
Y734499D01*
X657374Y471000D02*
X660374D01*
X658874Y469500D02*
Y472500D01*
X648500Y471000D02*
X651500D01*
X650000Y469500D02*
Y472500D01*
X156750Y832000D02*
X159750D01*
X158250Y830500D02*
Y833500D01*
X19750Y536500D02*
X22750D01*
X21250Y535000D02*
Y538000D01*
X12250Y552250D02*
X15250D01*
X13750Y550750D02*
Y553750D01*
X17500Y568000D02*
X20500D01*
X19000Y566500D02*
Y569500D01*
X28000Y576500D02*
X31000D01*
X29500Y575000D02*
Y578000D01*
X43000Y579000D02*
X46000D01*
X44500Y577500D02*
Y580500D01*
X55000Y573500D02*
X58000D01*
X56500Y572000D02*
Y575000D01*
X62000Y564750D02*
X65000D01*
X63500Y563250D02*
Y566250D01*
X65250Y554000D02*
X68250D01*
X66750Y552500D02*
Y555500D01*
X60250Y537250D02*
X63250D01*
X61750Y535750D02*
Y538750D01*
X422250Y753250D02*
X425250D01*
X423750Y751750D02*
Y754750D01*
X384000Y770000D02*
X387000D01*
X385500Y768500D02*
Y771500D01*
X1169500Y735000D02*
X1172500D01*
X1171000Y733500D02*
Y736500D01*
X58250Y700000D02*
X61250D01*
X59750Y698500D02*
Y701500D01*
X615500Y415518D02*
X618500D01*
X617000Y414018D02*
Y417018D01*
X615500Y424759D02*
X618500D01*
X617000Y423259D02*
Y426259D01*
X615500Y378553D02*
X618500D01*
X617000Y377053D02*
Y380053D01*
X472250Y632750D02*
X475250D01*
X473750Y631250D02*
Y634250D01*
X727750Y475122D02*
X730750D01*
X729250Y473622D02*
Y476622D01*
X691750Y478000D02*
X694750D01*
X693250Y476500D02*
Y479500D01*
X942250Y176000D02*
X945250D01*
X943750Y174500D02*
Y177500D01*
X1119750D02*
X1122750D01*
X1121250Y176000D02*
Y179000D01*
X1279250Y163750D02*
X1282250D01*
X1280750Y162250D02*
Y165250D01*
X1193250Y163750D02*
X1196250D01*
X1194750Y162250D02*
Y165250D01*
X816250Y339750D02*
X819250D01*
X817750Y338250D02*
Y341250D01*
X915750Y340000D02*
X918750D01*
X917250Y338500D02*
Y341500D01*
X1012500Y339750D02*
X1015500D01*
X1014000Y338250D02*
Y341250D01*
X772750Y431000D02*
X775750D01*
X774250Y429500D02*
Y432500D01*
X1125500Y498320D02*
X1128500D01*
X1127000Y496820D02*
Y499820D01*
X1125500Y588160D02*
X1128500D01*
X1127000Y586660D02*
Y589660D01*
X1126500Y416000D02*
X1129500D01*
X1128000Y414500D02*
Y417500D01*
X335500Y710500D02*
X338500D01*
X337000Y709000D02*
Y712000D01*
X396250Y660250D02*
X399250D01*
X397750Y658750D02*
Y661750D01*
X417750Y639250D02*
X420750D01*
X419250Y637750D02*
Y640750D01*
X624000Y637000D02*
X627000D01*
X625500Y635500D02*
Y638500D01*
X664502Y596000D02*
X667502D01*
X666002Y594500D02*
Y597500D01*
X624750Y623750D02*
X627750D01*
X626250Y622250D02*
Y625250D01*
X624624Y596000D02*
X627624D01*
X626124Y594500D02*
Y597500D01*
X613500Y598000D02*
X616500D01*
X615000Y596500D02*
Y599500D01*
X615030Y632781D02*
X618030D01*
X616530Y631281D02*
Y634281D01*
X547527Y633781D02*
X550527D01*
X549027Y632281D02*
Y635281D01*
X595750Y684750D02*
X598750D01*
X597250Y683250D02*
Y686250D01*
X560250Y654750D02*
X563250D01*
X561750Y653250D02*
Y656250D01*
X718750Y701000D02*
X721750D01*
X720250Y699500D02*
Y702500D01*
X711851Y708963D02*
X714851D01*
X713351Y707463D02*
Y710463D01*
X933250Y471000D02*
X936250D01*
X934750Y469500D02*
Y472500D01*
M02*
