G04*
G04 #@! TF.GenerationSoftware,Altium Limited,Altium Designer,18.1.9 (240)*
G04*
G04 Layer_Color=128*
%FSLAX44Y44*%
%MOMM*%
G71*
G01*
G75*
%ADD28R,0.8000X1.3500*%
%ADD30R,0.8500X0.6000*%
%ADD32R,1.3500X0.8000*%
%ADD34R,1.0160X1.0160*%
%ADD35R,0.6000X0.8500*%
%ADD48R,1.0160X1.0160*%
%ADD114R,0.7500X0.9000*%
%ADD118R,0.5500X1.0000*%
D28*
X33811Y700000D02*
D03*
X50811D02*
D03*
X593500Y726000D02*
D03*
X610500D02*
D03*
X817250Y726000D02*
D03*
X834250D02*
D03*
X1044500Y726000D02*
D03*
X1061500D02*
D03*
X1179500Y809000D02*
D03*
X1196500D02*
D03*
X1243250Y724968D02*
D03*
X1260250D02*
D03*
X1178000Y121000D02*
D03*
X1195000D02*
D03*
X1264000D02*
D03*
X1281000D02*
D03*
X810000Y98000D02*
D03*
X793000D02*
D03*
X908500D02*
D03*
X891500D02*
D03*
X1006000D02*
D03*
X989000D02*
D03*
D30*
X311000Y853000D02*
D03*
X287000D02*
D03*
D32*
X39000Y819500D02*
D03*
Y802500D02*
D03*
X63000Y818000D02*
D03*
Y835000D02*
D03*
X122000Y818000D02*
D03*
Y835000D02*
D03*
X146000D02*
D03*
Y818000D02*
D03*
X264000Y767860D02*
D03*
Y784860D02*
D03*
X241000Y819500D02*
D03*
Y802500D02*
D03*
X310000D02*
D03*
Y819500D02*
D03*
X841000Y744500D02*
D03*
Y761500D02*
D03*
X1047250Y762500D02*
D03*
Y745500D02*
D03*
X1071000D02*
D03*
Y762500D02*
D03*
X1269000Y744000D02*
D03*
Y761000D02*
D03*
X1246000D02*
D03*
Y744000D02*
D03*
X1204000Y790000D02*
D03*
Y773000D02*
D03*
X1180000D02*
D03*
Y790000D02*
D03*
X1160000Y743500D02*
D03*
Y726500D02*
D03*
X1182000Y743000D02*
D03*
Y726000D02*
D03*
X643000Y497500D02*
D03*
Y480500D02*
D03*
X664000D02*
D03*
Y497500D02*
D03*
X829000Y284500D02*
D03*
Y301500D02*
D03*
X1025000Y288500D02*
D03*
Y305500D02*
D03*
X928000Y286500D02*
D03*
Y303500D02*
D03*
X673500Y106520D02*
D03*
Y89520D02*
D03*
X963000Y743000D02*
D03*
Y726000D02*
D03*
X926000Y819500D02*
D03*
Y802500D02*
D03*
X1006000Y790000D02*
D03*
Y773000D02*
D03*
X986000Y743000D02*
D03*
Y726000D02*
D03*
X1123000Y819500D02*
D03*
Y802500D02*
D03*
X369000Y784860D02*
D03*
Y767860D02*
D03*
X264000Y819500D02*
D03*
Y802500D02*
D03*
X287000D02*
D03*
Y819500D02*
D03*
X735730Y743000D02*
D03*
Y726000D02*
D03*
X536815Y743000D02*
D03*
Y726000D02*
D03*
X702550Y819500D02*
D03*
Y802500D02*
D03*
X760815Y743000D02*
D03*
Y726000D02*
D03*
X820000Y761500D02*
D03*
Y744500D02*
D03*
X478550Y819500D02*
D03*
Y802500D02*
D03*
X511730Y743000D02*
D03*
Y726000D02*
D03*
X619000Y744500D02*
D03*
Y761500D02*
D03*
X781000Y790000D02*
D03*
Y773000D02*
D03*
X557000Y790000D02*
D03*
Y773000D02*
D03*
X596250Y761500D02*
D03*
Y744500D02*
D03*
X308250Y727750D02*
D03*
Y744750D02*
D03*
D34*
X27951Y722000D02*
D03*
Y742320D02*
D03*
X50811Y732160D02*
D03*
X1226000Y782000D02*
D03*
Y802320D02*
D03*
X1248860Y792160D02*
D03*
D35*
X101000Y831000D02*
D03*
Y855000D02*
D03*
X241000Y784860D02*
D03*
Y760860D02*
D03*
X83000Y855000D02*
D03*
Y831000D02*
D03*
D48*
X49160Y761140D02*
D03*
X28840D02*
D03*
X39000Y784000D02*
D03*
X326840Y784860D02*
D03*
X347160D02*
D03*
X337000Y762000D02*
D03*
X287000Y784860D02*
D03*
X307320D02*
D03*
X297160Y762000D02*
D03*
X488710Y761140D02*
D03*
X468390D02*
D03*
X478550Y784000D02*
D03*
X712710Y761140D02*
D03*
X692390D02*
D03*
X702550Y784000D02*
D03*
X936160Y761140D02*
D03*
X915840D02*
D03*
X926000Y784000D02*
D03*
X1133160Y761140D02*
D03*
X1112840D02*
D03*
X1123000Y784000D02*
D03*
X1035160Y328000D02*
D03*
X1014840D02*
D03*
X1025000Y350860D02*
D03*
X839160Y328000D02*
D03*
X818840D02*
D03*
X829000Y350860D02*
D03*
X938160Y328000D02*
D03*
X917840D02*
D03*
X928000Y350860D02*
D03*
D114*
X589000Y109520D02*
D03*
X603000D02*
D03*
X589000Y89520D02*
D03*
X603000D02*
D03*
D118*
X576000Y753000D02*
D03*
X557000Y726000D02*
D03*
X566500D02*
D03*
X576000D02*
D03*
X557000Y753000D02*
D03*
X800000Y753000D02*
D03*
X781000Y726000D02*
D03*
X790500D02*
D03*
X800000D02*
D03*
X781000Y753000D02*
D03*
X1025000D02*
D03*
X1006000Y726000D02*
D03*
X1015500D02*
D03*
X1025000D02*
D03*
X1006000Y753000D02*
D03*
X1223000Y751968D02*
D03*
X1204000Y724968D02*
D03*
X1213500D02*
D03*
X1223000D02*
D03*
X1204000Y751968D02*
D03*
M02*
