G04*
G04 #@! TF.GenerationSoftware,Altium Limited,Altium Designer,18.1.9 (240)*
G04*
G04 Layer_Color=128*
%FSLAX44Y44*%
%MOMM*%
G71*
G01*
G75*
%ADD118C,0.0508*%
D118*
X807000Y456000D02*
X817000D01*
X812000Y451000D02*
Y461000D01*
X832400Y430600D02*
X842400D01*
X837400Y425600D02*
Y435600D01*
X832400Y456000D02*
X842400D01*
X837400Y451000D02*
Y461000D01*
X857800Y430600D02*
X867800D01*
X862800Y425600D02*
Y435600D01*
X857800Y456000D02*
X867800D01*
X862800Y451000D02*
Y461000D01*
X807000Y430600D02*
X817000D01*
X812000Y425600D02*
Y435600D01*
X197500Y479000D02*
X207500D01*
X202500Y474000D02*
Y484000D01*
X146500Y497000D02*
X156500D01*
X151500Y492000D02*
Y502000D01*
X30681Y506332D02*
X50681D01*
X40681Y496332D02*
Y516332D01*
X30681Y553332D02*
X50681D01*
X40681Y543332D02*
Y563332D01*
X95000Y882720D02*
X107000D01*
X101000Y876720D02*
Y888720D01*
X119000Y882720D02*
X131000D01*
X125000Y876720D02*
Y888720D01*
X71000Y882720D02*
X83000D01*
X77000Y876720D02*
Y888720D01*
X1230000Y72599D02*
X1242000D01*
X1236000Y66599D02*
Y78599D01*
X1206000Y72599D02*
X1218000D01*
X1212000Y66599D02*
Y78599D01*
X586550Y882720D02*
X598550D01*
X592550Y876720D02*
Y888720D01*
X610550Y882720D02*
X622550D01*
X616550Y876720D02*
Y888720D01*
X810550Y882720D02*
X822550D01*
X816550Y876720D02*
Y888720D01*
X834550Y882720D02*
X846550D01*
X840550Y876720D02*
Y888720D01*
X645250Y150480D02*
X654750D01*
X650000Y145730D02*
Y155230D01*
X620250Y130000D02*
X629750D01*
X625000Y125250D02*
Y134750D01*
X620250Y150000D02*
X629750D01*
X625000Y145250D02*
Y154750D01*
X686200Y102900D02*
X709200D01*
X697700Y91400D02*
Y114400D01*
X645250Y130000D02*
X654750D01*
X650000Y125250D02*
Y134750D01*
X565800Y102900D02*
X588800D01*
X577300Y91400D02*
Y114400D01*
X1263000Y94000D02*
X1273000D01*
X1268000Y89000D02*
Y99000D01*
X1263000Y68600D02*
X1273000D01*
X1268000Y63600D02*
Y73600D01*
X1174000Y94000D02*
X1184000D01*
X1179000Y89000D02*
Y99000D01*
X1174000Y68600D02*
X1184000D01*
X1179000Y63600D02*
Y73600D01*
X983000Y221000D02*
X995000D01*
X989000Y215000D02*
Y227000D01*
X959000Y221000D02*
X971000D01*
X965000Y215000D02*
Y227000D01*
X886000Y221000D02*
X898000D01*
X892000Y215000D02*
Y227000D01*
X862000Y221000D02*
X874000D01*
X868000Y215000D02*
Y227000D01*
X787000Y221000D02*
X799000D01*
X793000Y215000D02*
Y227000D01*
X763000Y221000D02*
X775000D01*
X769000Y215000D02*
Y227000D01*
X983000Y72599D02*
X995000D01*
X989000Y66599D02*
Y78599D01*
X959000Y72599D02*
X971000D01*
X965000Y66599D02*
Y78599D01*
X886000Y72599D02*
X898000D01*
X892000Y66599D02*
Y78599D01*
X862000Y72599D02*
X874000D01*
X868000Y66599D02*
Y78599D01*
X787000Y72599D02*
X799000D01*
X793000Y66599D02*
Y78599D01*
X763000Y72599D02*
X775000D01*
X769000Y66599D02*
Y78599D01*
X1020000Y245401D02*
X1030000D01*
X1025000Y240401D02*
Y250401D01*
X1020000Y220001D02*
X1030000D01*
X1025000Y215001D02*
Y225001D01*
X923000Y245401D02*
X933000D01*
X928000Y240401D02*
Y250401D01*
X923000Y220001D02*
X933000D01*
X928000Y215001D02*
Y225001D01*
X824000Y245401D02*
X834000D01*
X829000Y240401D02*
Y250401D01*
X824000Y220001D02*
X834000D01*
X829000Y215001D02*
Y225001D01*
X1020000Y97999D02*
X1030000D01*
X1025000Y92999D02*
Y102999D01*
X1020000Y72599D02*
X1030000D01*
X1025000Y67599D02*
Y77599D01*
X923000Y97999D02*
X933000D01*
X928000Y92999D02*
Y102999D01*
X923000Y72599D02*
X933000D01*
X928000Y67599D02*
Y77599D01*
X824000Y97999D02*
X834000D01*
X829000Y92999D02*
Y102999D01*
X824000Y72599D02*
X834000D01*
X829000Y67599D02*
Y77599D01*
X507550Y858720D02*
X519550D01*
X513550Y852720D02*
Y864720D01*
X507550Y834720D02*
X519550D01*
X513550Y828720D02*
Y840720D01*
X507550Y882720D02*
X519550D01*
X513550Y876720D02*
Y888720D01*
X697550Y857320D02*
X707550D01*
X702550Y852320D02*
Y862320D01*
X697550Y882720D02*
X707550D01*
X702550Y877720D02*
Y887720D01*
X731550Y858720D02*
X743550D01*
X737550Y852720D02*
Y864720D01*
X731550Y834720D02*
X743550D01*
X737550Y828720D02*
Y840720D01*
X731550Y882720D02*
X743550D01*
X737550Y876720D02*
Y888720D01*
X1245000Y592841D02*
X1255000D01*
X1250000Y587841D02*
Y597841D01*
X1270400Y592841D02*
X1280400D01*
X1275400Y587841D02*
Y597841D01*
X1246000Y420681D02*
X1256000D01*
X1251000Y415681D02*
Y425681D01*
X1271400Y420681D02*
X1281400D01*
X1276400Y415681D02*
Y425681D01*
X1245000Y503001D02*
X1255000D01*
X1250000Y498001D02*
Y508001D01*
X1270400Y503001D02*
X1280400D01*
X1275400Y498001D02*
Y508001D01*
X154000Y91500D02*
X164000D01*
X159000Y86500D02*
Y96500D01*
X136000Y40500D02*
X146000D01*
X141000Y35500D02*
Y45500D01*
X35000Y50000D02*
X55000D01*
X45000Y40000D02*
Y60000D01*
X82000Y50000D02*
X102000D01*
X92000Y40000D02*
Y60000D01*
X236000Y857320D02*
X246000D01*
X241000Y852320D02*
Y862320D01*
X236000Y882720D02*
X246000D01*
X241000Y877720D02*
Y887720D01*
X274000Y882720D02*
X286000D01*
X280000Y876720D02*
Y888720D01*
X298000Y882720D02*
X310000D01*
X304000Y876720D02*
Y888720D01*
X329000Y882720D02*
X341000D01*
X335000Y876720D02*
Y888720D01*
X353000Y882720D02*
X365000D01*
X359000Y876720D02*
Y888720D01*
X921000Y856600D02*
X931000D01*
X926000Y851600D02*
Y861600D01*
X921000Y882000D02*
X931000D01*
X926000Y877000D02*
Y887000D01*
X999000Y882000D02*
X1011000D01*
X1005000Y876000D02*
Y888000D01*
X1023000Y882000D02*
X1035000D01*
X1029000Y876000D02*
Y888000D01*
X1118000Y856600D02*
X1128000D01*
X1123000Y851600D02*
Y861600D01*
X1118000Y882000D02*
X1128000D01*
X1123000Y877000D02*
Y887000D01*
X1194000Y882000D02*
X1206000D01*
X1200000Y876000D02*
Y888000D01*
X1218000Y882000D02*
X1230000D01*
X1224000Y876000D02*
Y888000D01*
X34000Y857320D02*
X44000D01*
X39000Y852320D02*
Y862320D01*
X34000Y882720D02*
X44000D01*
X39000Y877720D02*
Y887720D01*
X100400Y794020D02*
X110400D01*
X105400Y789020D02*
Y799020D01*
X75000Y768620D02*
X85000D01*
X80000Y763620D02*
Y773620D01*
X100400Y768620D02*
X110400D01*
X105400Y763620D02*
Y773620D01*
X75000Y743220D02*
X85000D01*
X80000Y738220D02*
Y748220D01*
X100400Y743220D02*
X110400D01*
X105400Y738220D02*
Y748220D01*
X75000Y794020D02*
X85000D01*
X80000Y789020D02*
Y799020D01*
X173000Y882720D02*
X185000D01*
X179000Y876720D02*
Y888720D01*
X197000Y882720D02*
X209000D01*
X203000Y876720D02*
Y888720D01*
X149000Y882720D02*
X161000D01*
X155000Y876720D02*
Y888720D01*
X200315Y651500D02*
X235315D01*
X217815Y634000D02*
Y669000D01*
X1050315Y651500D02*
X1085315D01*
X1067815Y634000D02*
Y669000D01*
X207500Y130000D02*
X242500D01*
X225000Y112500D02*
Y147500D01*
X1057500Y130000D02*
X1092500D01*
X1075000Y112500D02*
Y147500D01*
X1141000Y72599D02*
X1153000D01*
X1147000Y66599D02*
Y78599D01*
X1117000Y72599D02*
X1129000D01*
X1123000Y66599D02*
Y78599D01*
X473550Y857320D02*
X483550D01*
X478550Y852320D02*
Y862320D01*
X473550Y882720D02*
X483550D01*
X478550Y877720D02*
Y887720D01*
X279500Y57000D02*
X294500D01*
X287000Y49500D02*
Y64500D01*
X209650Y57000D02*
X224650D01*
X217150Y49500D02*
Y64500D01*
X1122500Y137250D02*
X1125500D01*
X1124000Y135750D02*
Y138750D01*
X1185558Y121000D02*
X1188558D01*
X1187058Y119500D02*
Y122500D01*
X1234750Y212250D02*
X1237750D01*
X1236250Y210750D02*
Y213750D01*
X1205250Y253250D02*
X1208250D01*
X1206750Y251750D02*
Y254750D01*
X1146500Y212250D02*
X1149500D01*
X1148000Y210750D02*
Y213750D01*
X1271562Y121000D02*
X1274562D01*
X1273062Y119500D02*
Y122500D01*
X581250Y686460D02*
X584250D01*
X582750Y684960D02*
Y687960D01*
X659158Y557500D02*
X662158D01*
X660658Y556000D02*
Y559000D01*
X618750Y528000D02*
X621750D01*
X620250Y526500D02*
Y529500D01*
X640750Y540750D02*
X643750D01*
X642250Y539250D02*
Y542250D01*
X667250Y550750D02*
X670250D01*
X668750Y549250D02*
Y552250D01*
X842390Y176000D02*
X845390D01*
X843890Y174500D02*
Y177500D01*
X842390Y153160D02*
X845390D01*
X843890Y151660D02*
Y154660D01*
X942250Y153160D02*
X945250D01*
X943750Y151660D02*
Y154660D01*
X1036250Y153160D02*
X1039250D01*
X1037750Y151660D02*
Y154660D01*
X1036250Y176000D02*
X1039250D01*
X1037750Y174500D02*
Y177500D01*
X1278750Y765500D02*
X1281750D01*
X1280250Y764000D02*
Y767000D01*
X1194808Y733286D02*
X1197808D01*
X1196308Y731786D02*
Y734786D01*
X1217500Y738000D02*
X1220500D01*
X1219000Y736500D02*
Y739500D01*
X1188000Y757000D02*
X1191000D01*
X1189500Y755500D02*
Y758500D01*
X1081500Y765750D02*
X1084500D01*
X1083000Y764250D02*
Y767250D01*
X996299Y733036D02*
X999299D01*
X997799Y731536D02*
Y734536D01*
X868250Y751250D02*
X871250D01*
X869750Y749750D02*
Y752750D01*
X868250Y763000D02*
X871250D01*
X869750Y761500D02*
Y764500D01*
X690890Y748500D02*
X693890D01*
X692390Y747000D02*
Y750000D01*
X568000Y735750D02*
X571000D01*
X569500Y734250D02*
Y737250D01*
X466890Y748500D02*
X469890D01*
X468390Y747000D02*
Y750000D01*
X615750Y772500D02*
X618750D01*
X617250Y771000D02*
Y774000D01*
X644750Y750750D02*
X647750D01*
X646250Y749250D02*
Y752250D01*
X644750Y763000D02*
X647750D01*
X646250Y761500D02*
Y764500D01*
X397250Y730250D02*
X400250D01*
X398750Y728750D02*
Y731750D01*
X397250Y723600D02*
X400250D01*
X398750Y722100D02*
Y725100D01*
X340500Y666750D02*
X343500D01*
X342000Y665250D02*
Y668250D01*
X293000Y667000D02*
X296000D01*
X294500Y665500D02*
Y668500D01*
X317000Y667000D02*
X320000D01*
X318500Y665500D02*
Y668500D01*
X693500Y491124D02*
X696500D01*
X695000Y489624D02*
Y492624D01*
X586750Y464000D02*
X589750D01*
X588250Y462500D02*
Y465500D01*
X580000Y464000D02*
X583000D01*
X581500Y462500D02*
Y465500D01*
X579500Y565750D02*
X582500D01*
X581000Y564250D02*
Y567250D01*
X593250Y565750D02*
X596250D01*
X594750Y564250D02*
Y567250D01*
X174750Y479375D02*
X177750D01*
X176250Y477875D02*
Y480875D01*
X183625Y479375D02*
X186625D01*
X185125Y477875D02*
Y480875D01*
X165875Y479375D02*
X168875D01*
X167375Y477875D02*
Y480875D01*
X201375Y435000D02*
X204375D01*
X202875Y433500D02*
Y436500D01*
X201375Y443875D02*
X204375D01*
X202875Y442375D02*
Y445375D01*
X201375Y452750D02*
X204375D01*
X202875Y451250D02*
Y454250D01*
X201375Y461625D02*
X204375D01*
X202875Y460125D02*
Y463125D01*
X165875Y470500D02*
X168875D01*
X167375Y469000D02*
Y472000D01*
X157000Y470500D02*
X160000D01*
X158500Y469000D02*
Y472000D01*
X165875Y461625D02*
X168875D01*
X167375Y460125D02*
Y463125D01*
X157000Y461625D02*
X160000D01*
X158500Y460125D02*
Y463125D01*
X165875Y452750D02*
X168875D01*
X167375Y451250D02*
Y454250D01*
X157000Y452750D02*
X160000D01*
X158500Y451250D02*
Y454250D01*
X165875Y443875D02*
X168875D01*
X167375Y442375D02*
Y445375D01*
X157000Y443875D02*
X160000D01*
X158500Y442375D02*
Y445375D01*
X165875Y435000D02*
X168875D01*
X167375Y433500D02*
Y436500D01*
X157000Y435000D02*
X160000D01*
X158500Y433500D02*
Y436500D01*
X183625Y470500D02*
X186625D01*
X185125Y469000D02*
Y472000D01*
X174750Y470500D02*
X177750D01*
X176250Y469000D02*
Y472000D01*
X183625Y461625D02*
X186625D01*
X185125Y460125D02*
Y463125D01*
X192500Y461625D02*
X195500D01*
X194000Y460125D02*
Y463125D01*
X174750Y461625D02*
X177750D01*
X176250Y460125D02*
Y463125D01*
X183625Y452750D02*
X186625D01*
X185125Y451250D02*
Y454250D01*
X192500Y452750D02*
X195500D01*
X194000Y451250D02*
Y454250D01*
X174750Y452750D02*
X177750D01*
X176250Y451250D02*
Y454250D01*
X174750Y443875D02*
X177750D01*
X176250Y442375D02*
Y445375D01*
X192500Y443875D02*
X195500D01*
X194000Y442375D02*
Y445375D01*
X183625Y443875D02*
X186625D01*
X185125Y442375D02*
Y445375D01*
X192500Y435000D02*
X195500D01*
X194000Y433500D02*
Y436500D01*
X174750Y435000D02*
X177750D01*
X176250Y433500D02*
Y436500D01*
X183625Y435000D02*
X186625D01*
X185125Y433500D02*
Y436500D01*
X1143500Y272000D02*
X1146500D01*
X1145000Y270500D02*
Y273500D01*
X1162500Y253000D02*
X1165500D01*
X1164000Y251500D02*
Y254500D01*
X1110500Y269000D02*
X1113500D01*
X1112000Y267500D02*
Y270500D01*
X724500Y639000D02*
X727500D01*
X726000Y637500D02*
Y640500D01*
X362663Y663250D02*
X365663D01*
X364163Y661750D02*
Y664750D01*
X498000Y681500D02*
X501000D01*
X499500Y680000D02*
Y683000D01*
X522499Y729998D02*
X525499D01*
X523999Y728499D02*
Y731498D01*
X461500Y810000D02*
X464500D01*
X463000Y808500D02*
Y811500D01*
X447500Y874400D02*
X450500D01*
X449000Y872900D02*
Y875900D01*
X431500Y890000D02*
X434500D01*
X433000Y888500D02*
Y891500D01*
X431500Y858750D02*
X434500D01*
X433000Y857250D02*
Y860250D01*
X416250Y874400D02*
X419250D01*
X417750Y872900D02*
Y875900D01*
X91750Y263313D02*
X94750D01*
X93250Y261813D02*
Y264813D01*
X70550Y263313D02*
X73550D01*
X72050Y261813D02*
Y264813D01*
X59950Y263313D02*
X62950D01*
X61450Y261813D02*
Y264813D01*
X49350Y263313D02*
X52350D01*
X50850Y261813D02*
Y264813D01*
X81150Y263313D02*
X84150D01*
X82650Y261813D02*
Y264813D01*
X38750Y263313D02*
X41750D01*
X40250Y261813D02*
Y264813D01*
X9000Y271458D02*
X12000D01*
X10500Y269958D02*
Y272959D01*
X38750Y251250D02*
X41750D01*
X40250Y249750D02*
Y252750D01*
X28050Y251250D02*
X31050D01*
X29550Y249750D02*
Y252750D01*
X17350Y251250D02*
X20350D01*
X18850Y249750D02*
Y252750D01*
X9000Y251500D02*
X12000D01*
X10500Y250000D02*
Y253000D01*
X9000Y261479D02*
X12000D01*
X10500Y259979D02*
Y262979D01*
X9000Y361271D02*
X12000D01*
X10500Y359771D02*
Y362771D01*
X9000Y281438D02*
X12000D01*
X10500Y279938D02*
Y282938D01*
X9000Y291417D02*
X12000D01*
X10500Y289917D02*
Y292917D01*
X9000Y301396D02*
X12000D01*
X10500Y299896D02*
Y302896D01*
X9000Y311375D02*
X12000D01*
X10500Y309875D02*
Y312875D01*
X9000Y321354D02*
X12000D01*
X10500Y319854D02*
Y322854D01*
X9000Y331333D02*
X12000D01*
X10500Y329833D02*
Y332833D01*
X9000Y341250D02*
X12000D01*
X10500Y339750D02*
Y342750D01*
X9000Y351292D02*
X12000D01*
X10500Y349792D02*
Y352792D01*
X9000Y371250D02*
X12000D01*
X10500Y369750D02*
Y372750D01*
X38750Y371000D02*
X41750D01*
X40250Y369500D02*
Y372500D01*
X17250Y371000D02*
X20250D01*
X18750Y369500D02*
Y372500D01*
X28000Y371000D02*
X31000D01*
X29500Y369500D02*
Y372500D01*
X81150Y358937D02*
X84150D01*
X82650Y357437D02*
Y360437D01*
X38750Y358937D02*
X41750D01*
X40250Y357437D02*
Y360437D01*
X49635Y358937D02*
X52635D01*
X51135Y357437D02*
Y360437D01*
X59950Y358937D02*
X62950D01*
X61450Y357437D02*
Y360437D01*
X70550Y358937D02*
X73550D01*
X72050Y357437D02*
Y360437D01*
X91750Y358937D02*
X94750D01*
X93250Y357437D02*
Y360437D01*
X91750Y339812D02*
X94750D01*
X93250Y338312D02*
Y341312D01*
X91750Y330250D02*
X94750D01*
X93250Y328750D02*
Y331750D01*
X91750Y320687D02*
X94750D01*
X93250Y319187D02*
Y322187D01*
X91750Y311000D02*
X94750D01*
X93250Y309500D02*
Y312500D01*
X91750Y301562D02*
X94750D01*
X93250Y300063D02*
Y303062D01*
X91750Y292000D02*
X94750D01*
X93250Y290500D02*
Y293500D01*
X91750Y282438D02*
X94750D01*
X93250Y280938D02*
Y283938D01*
X91750Y272875D02*
X94750D01*
X93250Y271375D02*
Y274375D01*
X91750Y349375D02*
X94750D01*
X93250Y347875D02*
Y350875D01*
X77622Y434750D02*
X80622D01*
X79122Y433250D02*
Y436250D01*
X103122Y434750D02*
X106122D01*
X104622Y433250D02*
Y436250D01*
X78122Y397750D02*
X81122D01*
X79622Y396250D02*
Y399250D01*
X102122Y397750D02*
X105122D01*
X103622Y396250D02*
Y399250D01*
X63372Y409750D02*
X66372D01*
X64872Y408250D02*
Y411250D01*
X63372Y423250D02*
X66372D01*
X64872Y421750D02*
Y424750D01*
X119358Y408750D02*
X122358D01*
X120858Y407250D02*
Y410250D01*
X119358Y422250D02*
X122358D01*
X120858Y420750D02*
Y423750D01*
X236000Y438000D02*
X239000D01*
X237500Y436500D02*
Y439500D01*
X288778Y414250D02*
X291778D01*
X290278Y412750D02*
Y415750D01*
X304500Y398000D02*
X307500D01*
X306000Y396500D02*
Y399500D01*
X321000Y414000D02*
X324000D01*
X322500Y412500D02*
Y415500D01*
X304750Y430500D02*
X307750D01*
X306250Y429000D02*
Y432000D01*
X138500Y306500D02*
X141500D01*
X140000Y305000D02*
Y308000D01*
X139250Y314750D02*
X142250D01*
X140750Y313250D02*
Y316250D01*
X172500Y305750D02*
X175500D01*
X174000Y304250D02*
Y307250D01*
X172750Y316500D02*
X175750D01*
X174250Y315000D02*
Y318000D01*
X139000Y345000D02*
X142000D01*
X140500Y343500D02*
Y346500D01*
X148500Y356250D02*
X151500D01*
X150000Y354750D02*
Y357750D01*
X162000Y356250D02*
X165000D01*
X163500Y354750D02*
Y357750D01*
X171500Y345000D02*
X174500D01*
X173000Y343500D02*
Y346500D01*
X337500Y321972D02*
X340500D01*
X339000Y320472D02*
Y323472D01*
X353222Y306250D02*
X356222D01*
X354722Y304750D02*
Y307750D01*
X337500Y290528D02*
X340500D01*
X339000Y289028D02*
Y292028D01*
X321750Y306300D02*
X324750D01*
X323250Y304800D02*
Y307800D01*
X96236Y193250D02*
X99236D01*
X97736Y191750D02*
Y194750D01*
X96236Y179750D02*
X99236D01*
X97736Y178250D02*
Y181250D01*
X40250Y194250D02*
X43250D01*
X41750Y192750D02*
Y195750D01*
X40250Y180750D02*
X43250D01*
X41750Y179250D02*
Y182250D01*
X79000Y168750D02*
X82000D01*
X80500Y167250D02*
Y170250D01*
X55000Y168750D02*
X58000D01*
X56500Y167250D02*
Y170250D01*
X80000Y205750D02*
X83000D01*
X81500Y204250D02*
Y207250D01*
X54500Y205750D02*
X57500D01*
X56000Y204250D02*
Y207250D01*
X301250Y43000D02*
X304250D01*
X302750Y41500D02*
Y44500D01*
X270750Y42750D02*
X273750D01*
X272250Y41250D02*
Y44250D01*
X301250Y71250D02*
X304250D01*
X302750Y69750D02*
Y72750D01*
X270000Y71250D02*
X273000D01*
X271500Y69750D02*
Y72750D01*
X305250Y57000D02*
X308250D01*
X306750Y55500D02*
Y58500D01*
X265750Y57000D02*
X268750D01*
X267250Y55500D02*
Y58500D01*
X285500Y36750D02*
X288500D01*
X287000Y35250D02*
Y38250D01*
X285500Y77500D02*
X288500D01*
X287000Y76000D02*
Y79000D01*
X64000Y33750D02*
X67000D01*
X65500Y32250D02*
Y35250D01*
X56500Y27250D02*
X59500D01*
X58000Y25750D02*
Y28750D01*
X45500Y24000D02*
X48500D01*
X47000Y22500D02*
Y25500D01*
X30500Y27250D02*
X33500D01*
X32000Y25750D02*
Y28750D01*
X21500Y35750D02*
X24500D01*
X23000Y34250D02*
Y37250D01*
X62750Y69250D02*
X65750D01*
X64250Y67750D02*
Y70750D01*
X49500Y75250D02*
X52500D01*
X51000Y73750D02*
Y76750D01*
X31500Y73500D02*
X34500D01*
X33000Y72000D02*
Y75000D01*
X18250Y51000D02*
X21250D01*
X19750Y49500D02*
Y52500D01*
X21750Y65000D02*
X24750D01*
X23250Y63500D02*
Y66500D01*
X639500Y470750D02*
X642500D01*
X641000Y469250D02*
Y472250D01*
X662500Y506250D02*
X665500D01*
X664000Y504750D02*
Y507750D01*
X695750Y581210D02*
X698750D01*
X697250Y579710D02*
Y582710D01*
X695750Y573250D02*
X698750D01*
X697250Y571750D02*
Y574750D01*
X529750Y444500D02*
X532750D01*
X531250Y443000D02*
Y446000D01*
X528750Y491124D02*
X531750D01*
X530250Y489624D02*
Y492624D01*
X1156000Y225111D02*
X1159000D01*
X1157500Y223611D02*
Y226611D01*
X1165750Y176750D02*
X1168750D01*
X1167250Y175250D02*
Y178250D01*
X1167000Y201500D02*
X1170000D01*
X1168500Y200000D02*
Y203000D01*
X1244500Y225250D02*
X1247500D01*
X1246000Y223750D02*
Y226750D01*
X1208000Y177250D02*
X1211000D01*
X1209500Y175750D02*
Y178750D01*
X1210500Y137250D02*
X1213500D01*
X1212000Y135750D02*
Y138750D01*
X1254250Y201222D02*
X1257250D01*
X1255750Y199722D02*
Y202722D01*
X1253000Y177250D02*
X1256000D01*
X1254500Y175750D02*
Y178750D01*
X963500Y310500D02*
X966500D01*
X965000Y309000D02*
Y312000D01*
X959750Y334250D02*
X962750D01*
X961250Y332750D02*
Y335750D01*
X959500Y356250D02*
X962500D01*
X961000Y354750D02*
Y357750D01*
X860750Y310750D02*
X863750D01*
X862250Y309250D02*
Y312250D01*
X861750Y324000D02*
X864750D01*
X863250Y322500D02*
Y325500D01*
X862250Y346000D02*
X865250D01*
X863750Y344500D02*
Y347500D01*
X758750Y303250D02*
X761750D01*
X760250Y301750D02*
Y304750D01*
X762750Y324000D02*
X765750D01*
X764250Y322500D02*
Y325500D01*
X762750Y346000D02*
X765750D01*
X764250Y344500D02*
Y347500D01*
X762500Y368000D02*
X765500D01*
X764000Y366500D02*
Y369500D01*
X954000Y130250D02*
X957000D01*
X955500Y128750D02*
Y131750D01*
X856250Y130000D02*
X859250D01*
X857750Y128500D02*
Y131500D01*
X757500Y130000D02*
X760500D01*
X759000Y128500D02*
Y131500D01*
X579500Y129250D02*
X582500D01*
X581000Y127750D02*
Y130750D01*
X579500Y149750D02*
X582500D01*
X581000Y148250D02*
Y151250D01*
X685000Y141250D02*
X688000D01*
X686500Y139750D02*
Y142750D01*
X679500Y167250D02*
X682500D01*
X681000Y165750D02*
Y168750D01*
X23750Y699500D02*
X26750D01*
X25250Y698000D02*
Y701000D01*
X213750Y705750D02*
X216750D01*
X215250Y704250D02*
Y707250D01*
X184750Y701000D02*
X187750D01*
X186250Y699500D02*
Y702500D01*
X145500Y702000D02*
X148500D01*
X147000Y700500D02*
Y703500D01*
X133500Y736000D02*
X136500D01*
X135000Y734500D02*
Y737500D01*
X133250Y773500D02*
X136250D01*
X134750Y772000D02*
Y775000D01*
X184750Y773500D02*
X187750D01*
X186250Y772000D02*
Y775000D01*
X184500Y737250D02*
X187500D01*
X186000Y735750D02*
Y738750D01*
X198750Y741750D02*
X201750D01*
X200250Y740250D02*
Y743250D01*
X198500Y778750D02*
X201500D01*
X200000Y777250D02*
Y780250D01*
X248500Y760250D02*
X251500D01*
X250000Y758750D02*
Y761750D01*
X262500Y759500D02*
X265500D01*
X264000Y758000D02*
Y761000D01*
X280500Y759000D02*
X283500D01*
X282000Y757500D02*
Y760500D01*
X283750Y736300D02*
X286750D01*
X285250Y734800D02*
Y737800D01*
X408500Y667500D02*
X411500D01*
X410000Y666000D02*
Y669000D01*
X433550Y667500D02*
X436550D01*
X435050Y666000D02*
Y669000D01*
X534000Y783500D02*
X537000D01*
X535500Y782000D02*
Y785000D01*
X591750Y810500D02*
X594750D01*
X593250Y809000D02*
Y812000D01*
X617500Y736250D02*
X620500D01*
X619000Y734750D02*
Y737750D01*
X619500Y727500D02*
X622500D01*
X621000Y726000D02*
Y729000D01*
X669750Y740000D02*
X672750D01*
X671250Y738500D02*
Y741500D01*
X789000Y735000D02*
X792000D01*
X790500Y733500D02*
Y736500D01*
X758500Y782500D02*
X761500D01*
X760000Y781000D02*
Y784000D01*
X824000Y820750D02*
X827000D01*
X825500Y819250D02*
Y822250D01*
X834750Y771500D02*
X837750D01*
X836250Y770000D02*
Y773000D01*
X842000Y731000D02*
X845000D01*
X843500Y729500D02*
Y732500D01*
X849250Y736250D02*
X852250D01*
X850750Y734750D02*
Y737750D01*
X882500Y731250D02*
X885500D01*
X884000Y729750D02*
Y732750D01*
X895000Y800500D02*
X898000D01*
X896500Y799000D02*
Y802000D01*
X947500Y783250D02*
X950500D01*
X949000Y781750D02*
Y784750D01*
X991000Y754750D02*
X994000D01*
X992500Y753250D02*
Y756250D01*
X1082750Y752500D02*
X1085750D01*
X1084250Y751000D02*
Y754000D01*
X992750Y792000D02*
X995750D01*
X994250Y790500D02*
Y793500D01*
X1083000Y800250D02*
X1086000D01*
X1084500Y798750D02*
Y801750D01*
X1271000Y725500D02*
X1274000D01*
X1272500Y724000D02*
Y727000D01*
X1279250Y743500D02*
X1282250D01*
X1280750Y742000D02*
Y745000D01*
X1279000Y750750D02*
X1282000D01*
X1280500Y749250D02*
Y752250D01*
X1181000Y754250D02*
X1184000D01*
X1182500Y752750D02*
Y755750D01*
X1142250Y783250D02*
X1145250D01*
X1143750Y781750D02*
Y784750D01*
X1204250Y811750D02*
X1207250D01*
X1205750Y810250D02*
Y813250D01*
X1222250Y812000D02*
X1225250D01*
X1223750Y810500D02*
Y813500D01*
X1266800Y809000D02*
X1269800D01*
X1268300Y807500D02*
Y810500D01*
X1278750Y882000D02*
X1281750D01*
X1280250Y880500D02*
Y883500D01*
X1140750Y881500D02*
X1143750D01*
X1142250Y880000D02*
Y883000D01*
X1084250Y882000D02*
X1087250D01*
X1085750Y880500D02*
Y883500D01*
X945750Y881500D02*
X948750D01*
X947250Y880000D02*
Y883000D01*
X895500Y882750D02*
X898500D01*
X897000Y881250D02*
Y884250D01*
X757750Y882720D02*
X760750D01*
X759250Y881220D02*
Y884220D01*
X658500Y810250D02*
X661500D01*
X660000Y808750D02*
Y811750D01*
X685000Y809750D02*
X688000D01*
X686500Y808250D02*
Y811250D01*
X677250Y834500D02*
X680250D01*
X678750Y833000D02*
Y836000D01*
X671750Y882750D02*
X674750D01*
X673250Y881250D02*
Y884250D01*
X533250Y882250D02*
X536250D01*
X534750Y880750D02*
Y883750D01*
X455000Y834250D02*
X458000D01*
X456500Y832750D02*
Y835750D01*
X296500Y811500D02*
X299500D01*
X298000Y810000D02*
Y813000D01*
X275250Y810500D02*
X278250D01*
X276750Y809000D02*
Y812000D01*
X262500Y829250D02*
X265500D01*
X264000Y827750D02*
Y830750D01*
X81750Y865500D02*
X84750D01*
X83250Y864000D02*
Y867000D01*
X61500Y844500D02*
X64500D01*
X63000Y843000D02*
Y846000D01*
X952547Y387269D02*
X955547D01*
X954047Y385769D02*
Y388769D01*
X952500Y374000D02*
X955500D01*
X954000Y372500D02*
Y375500D01*
X1035819Y340000D02*
X1038819D01*
X1037319Y338500D02*
Y341500D01*
X959500Y368000D02*
X962500D01*
X961000Y366500D02*
Y369500D01*
X887000Y379000D02*
X890000D01*
X888500Y377500D02*
Y380500D01*
X813026Y368000D02*
X816026D01*
X814526Y366500D02*
Y369500D01*
X860000Y363250D02*
X863000D01*
X861500Y361750D02*
Y364750D01*
X882500Y406500D02*
X885500D01*
X884000Y405000D02*
Y408000D01*
X676500Y596000D02*
X679500D01*
X678000Y594500D02*
Y597500D01*
X1128500Y715000D02*
X1131500D01*
X1130000Y713500D02*
Y716500D01*
X947500Y724000D02*
X950500D01*
X949000Y722500D02*
Y725500D01*
X705500Y615000D02*
X708500D01*
X707000Y613500D02*
Y616500D01*
X887500Y569000D02*
X890500D01*
X889000Y567500D02*
Y570500D01*
X895500Y561000D02*
X898500D01*
X897000Y559500D02*
Y562500D01*
X938819Y340000D02*
X941819D01*
X940319Y338500D02*
Y341500D01*
X853500Y561000D02*
X856500D01*
X855000Y559500D02*
Y562500D01*
X846500Y569000D02*
X849500D01*
X848000Y567500D02*
Y570500D01*
X801500Y522000D02*
X804500D01*
X803000Y520500D02*
Y523500D01*
X735500Y554000D02*
X738500D01*
X737000Y552500D02*
Y555500D01*
X729500Y525000D02*
X732500D01*
X731000Y523500D02*
Y526500D01*
X667500Y204000D02*
X670500D01*
X669000Y202500D02*
Y205500D01*
X615500Y434000D02*
X618500D01*
X617000Y432500D02*
Y435500D01*
X663500Y427000D02*
X666500D01*
X665000Y425500D02*
Y428500D01*
X663500Y417652D02*
X666500D01*
X665000Y416152D02*
Y419152D01*
X663500Y408304D02*
X666500D01*
X665000Y406804D02*
Y409804D01*
X663500Y398957D02*
X666500D01*
X665000Y397457D02*
Y400457D01*
X663500Y389609D02*
X666500D01*
X665000Y388109D02*
Y391109D01*
X663500Y380261D02*
X666500D01*
X665000Y378761D02*
Y381761D01*
X663500Y370913D02*
X666500D01*
X665000Y369413D02*
Y372413D01*
X663500Y361565D02*
X666500D01*
X665000Y360065D02*
Y363065D01*
X663500Y352217D02*
X666500D01*
X665000Y350718D02*
Y353717D01*
X663500Y342870D02*
X666500D01*
X665000Y341370D02*
Y344370D01*
X663500Y333522D02*
X666500D01*
X665000Y332022D02*
Y335022D01*
X663500Y324174D02*
X666500D01*
X665000Y322674D02*
Y325674D01*
X663500Y314826D02*
X666500D01*
X665000Y313326D02*
Y316326D01*
X663500Y305478D02*
X666500D01*
X665000Y303979D02*
Y306978D01*
X663500Y296131D02*
X666500D01*
X665000Y294631D02*
Y297631D01*
X663500Y286783D02*
X666500D01*
X665000Y285283D02*
Y288283D01*
X663500Y277435D02*
X666500D01*
X665000Y275935D02*
Y278935D01*
X663500Y268087D02*
X666500D01*
X665000Y266587D02*
Y269587D01*
X663500Y258739D02*
X666500D01*
X665000Y257239D02*
Y260239D01*
X663500Y249392D02*
X666500D01*
X665000Y247892D02*
Y250892D01*
X663500Y240044D02*
X666500D01*
X665000Y238544D02*
Y241544D01*
X663500Y230696D02*
X666500D01*
X665000Y229196D02*
Y232196D01*
X663500Y221348D02*
X666500D01*
X665000Y219848D02*
Y222848D01*
X663500Y212000D02*
X666500D01*
X665000Y210500D02*
Y213500D01*
X613500Y185000D02*
X616500D01*
X615000Y183500D02*
Y186500D01*
X609500Y159000D02*
X612500D01*
X611000Y157500D02*
Y160500D01*
X601500Y164000D02*
X604500D01*
X603000Y162500D02*
Y165500D01*
X591500Y164000D02*
X594500D01*
X593000Y162500D02*
Y165500D01*
X586500Y175000D02*
X589500D01*
X588000Y173500D02*
Y176500D01*
X587500Y186000D02*
X590500D01*
X589000Y184500D02*
Y187500D01*
X587500Y197000D02*
X590500D01*
X589000Y195500D02*
Y198500D01*
X637500Y182000D02*
X640500D01*
X639000Y180500D02*
Y183500D01*
X637500Y194000D02*
X640500D01*
X639000Y192500D02*
Y195500D01*
X638500Y203000D02*
X641500D01*
X640000Y201500D02*
Y204500D01*
X593500Y204000D02*
X596500D01*
X595000Y202500D02*
Y205500D01*
X601500Y207000D02*
X604500D01*
X603000Y205500D02*
Y208500D01*
X609500Y214000D02*
X612500D01*
X611000Y212500D02*
Y215500D01*
X615500Y406277D02*
X618500D01*
X617000Y404776D02*
Y407776D01*
X615500Y397035D02*
X618500D01*
X617000Y395535D02*
Y398535D01*
X615500Y387794D02*
X618500D01*
X617000Y386294D02*
Y389294D01*
X615500Y369312D02*
X618500D01*
X617000Y367812D02*
Y370812D01*
X615500Y360071D02*
X618500D01*
X617000Y358571D02*
Y361571D01*
X615500Y350830D02*
X618500D01*
X617000Y349330D02*
Y352330D01*
X615500Y341589D02*
X618500D01*
X617000Y340089D02*
Y343089D01*
X615500Y332348D02*
X618500D01*
X617000Y330848D02*
Y333848D01*
X615500Y323107D02*
X618500D01*
X617000Y321607D02*
Y324607D01*
X615500Y313866D02*
X618500D01*
X617000Y312366D02*
Y315366D01*
X615500Y304625D02*
X618500D01*
X617000Y303125D02*
Y306125D01*
X615500Y295384D02*
X618500D01*
X617000Y293884D02*
Y296884D01*
X615500Y286143D02*
X618500D01*
X617000Y284643D02*
Y287642D01*
X615500Y276901D02*
X618500D01*
X617000Y275401D02*
Y278401D01*
X615500Y267660D02*
X618500D01*
X617000Y266160D02*
Y269160D01*
X615500Y258419D02*
X618500D01*
X617000Y256919D02*
Y259919D01*
X615500Y249178D02*
X618500D01*
X617000Y247678D02*
Y250678D01*
X615500Y239937D02*
X618500D01*
X617000Y238437D02*
Y241437D01*
X615500Y230696D02*
X618500D01*
X617000Y229196D02*
Y232196D01*
X615500Y221348D02*
X618500D01*
X617000Y219848D02*
Y222848D01*
X641500Y212000D02*
X644500D01*
X643000Y210500D02*
Y213500D01*
X641500Y221250D02*
X644500D01*
X643000Y219750D02*
Y222750D01*
X641500Y230501D02*
X644500D01*
X643000Y229001D02*
Y232001D01*
X641500Y239751D02*
X644500D01*
X643000Y238251D02*
Y241251D01*
X641500Y249002D02*
X644500D01*
X643000Y247502D02*
Y250501D01*
X641500Y258252D02*
X644500D01*
X643000Y256752D02*
Y259752D01*
X641500Y267502D02*
X644500D01*
X643000Y266002D02*
Y269002D01*
X641500Y276753D02*
X644500D01*
X643000Y275253D02*
Y278253D01*
X641500Y286003D02*
X644500D01*
X643000Y284503D02*
Y287503D01*
X641500Y295253D02*
X644500D01*
X643000Y293753D02*
Y296753D01*
X641500Y304504D02*
X644500D01*
X643000Y303004D02*
Y306004D01*
X641500Y313754D02*
X644500D01*
X643000Y312254D02*
Y315254D01*
X641500Y323004D02*
X644500D01*
X643000Y321505D02*
Y324505D01*
X641500Y332255D02*
X644500D01*
X643000Y330755D02*
Y333755D01*
X641500Y341505D02*
X644500D01*
X643000Y340005D02*
Y343005D01*
X641500Y350756D02*
X644500D01*
X643000Y349256D02*
Y352256D01*
X641500Y360006D02*
X644500D01*
X643000Y358506D02*
Y361506D01*
X641500Y369256D02*
X644500D01*
X643000Y367756D02*
Y370756D01*
X641500Y378507D02*
X644500D01*
X643000Y377007D02*
Y380007D01*
X641500Y387757D02*
X644500D01*
X643000Y386257D02*
Y389257D01*
X641500Y397007D02*
X644500D01*
X643000Y395508D02*
Y398507D01*
X641500Y406258D02*
X644500D01*
X643000Y404758D02*
Y407758D01*
X641500Y415508D02*
X644500D01*
X643000Y414008D02*
Y417008D01*
X641500Y424759D02*
X644500D01*
X643000Y423259D02*
Y426259D01*
X569500Y483000D02*
X572500D01*
X571000Y481500D02*
Y484500D01*
X728500Y498998D02*
X731500D01*
X730000Y497498D02*
Y500498D01*
X801500Y515000D02*
X804500D01*
X803000Y513500D02*
Y516500D01*
X569500Y538876D02*
X572500D01*
X571000Y537376D02*
Y540376D01*
X530500Y555000D02*
X533500D01*
X532000Y553500D02*
Y556500D01*
X569500Y547004D02*
X572500D01*
X571000Y545504D02*
Y548504D01*
X498500Y568000D02*
X501500D01*
X500000Y566500D02*
Y569500D01*
X530500Y577230D02*
X533500D01*
X532000Y575730D02*
Y578730D01*
X839819Y340000D02*
X842819D01*
X841319Y338500D02*
Y341500D01*
X746500Y729000D02*
X749500D01*
X748000Y727500D02*
Y730500D01*
X973498Y732999D02*
X976498D01*
X974998Y731498D02*
Y734499D01*
X657374Y471000D02*
X660374D01*
X658874Y469500D02*
Y472500D01*
X648500Y471000D02*
X651500D01*
X650000Y469500D02*
Y472500D01*
X156750Y832000D02*
X159750D01*
X158250Y830500D02*
Y833500D01*
X19750Y536500D02*
X22750D01*
X21250Y535000D02*
Y538000D01*
X12250Y552250D02*
X15250D01*
X13750Y550750D02*
Y553750D01*
X17500Y568000D02*
X20500D01*
X19000Y566500D02*
Y569500D01*
X28000Y576500D02*
X31000D01*
X29500Y575000D02*
Y578000D01*
X43000Y579000D02*
X46000D01*
X44500Y577500D02*
Y580500D01*
X55000Y573500D02*
X58000D01*
X56500Y572000D02*
Y575000D01*
X62000Y564750D02*
X65000D01*
X63500Y563250D02*
Y566250D01*
X65250Y554000D02*
X68250D01*
X66750Y552500D02*
Y555500D01*
X60250Y537250D02*
X63250D01*
X61750Y535750D02*
Y538750D01*
X422250Y753250D02*
X425250D01*
X423750Y751750D02*
Y754750D01*
X384000Y770000D02*
X387000D01*
X385500Y768500D02*
Y771500D01*
X1169500Y735000D02*
X1172500D01*
X1171000Y733500D02*
Y736500D01*
X58250Y700000D02*
X61250D01*
X59750Y698500D02*
Y701500D01*
X615500Y415518D02*
X618500D01*
X617000Y414018D02*
Y417018D01*
X615500Y424759D02*
X618500D01*
X617000Y423259D02*
Y426259D01*
X615500Y378553D02*
X618500D01*
X617000Y377053D02*
Y380053D01*
X472250Y632750D02*
X475250D01*
X473750Y631250D02*
Y634250D01*
X727750Y475122D02*
X730750D01*
X729250Y473622D02*
Y476622D01*
X691750Y478000D02*
X694750D01*
X693250Y476500D02*
Y479500D01*
X942250Y176000D02*
X945250D01*
X943750Y174500D02*
Y177500D01*
X1119750D02*
X1122750D01*
X1121250Y176000D02*
Y179000D01*
X1279250Y163750D02*
X1282250D01*
X1280750Y162250D02*
Y165250D01*
X1193250Y163750D02*
X1196250D01*
X1194750Y162250D02*
Y165250D01*
X816250Y339750D02*
X819250D01*
X817750Y338250D02*
Y341250D01*
X915750Y340000D02*
X918750D01*
X917250Y338500D02*
Y341500D01*
X1012500Y339750D02*
X1015500D01*
X1014000Y338250D02*
Y341250D01*
X772750Y431000D02*
X775750D01*
X774250Y429500D02*
Y432500D01*
X1125500Y498320D02*
X1128500D01*
X1127000Y496820D02*
Y499820D01*
X1125500Y588160D02*
X1128500D01*
X1127000Y586660D02*
Y589660D01*
X1126500Y416000D02*
X1129500D01*
X1128000Y414500D02*
Y417500D01*
X994250Y406750D02*
X997250D01*
X995750Y405250D02*
Y408250D01*
X335500Y710500D02*
X338500D01*
X337000Y709000D02*
Y712000D01*
X396250Y660250D02*
X399250D01*
X397750Y658750D02*
Y661750D01*
X417750Y639250D02*
X420750D01*
X419250Y637750D02*
Y640750D01*
X624000Y637000D02*
X627000D01*
X625500Y635500D02*
Y638500D01*
X664502Y596000D02*
X667502D01*
X666002Y594500D02*
Y597500D01*
X624750Y623750D02*
X627750D01*
X626250Y622250D02*
Y625250D01*
X624624Y596000D02*
X627624D01*
X626124Y594500D02*
Y597500D01*
X613500Y598000D02*
X616500D01*
X615000Y596500D02*
Y599500D01*
X615030Y632781D02*
X618030D01*
X616530Y631281D02*
Y634281D01*
X547527Y633781D02*
X550527D01*
X549027Y632281D02*
Y635281D01*
X595750Y684750D02*
X598750D01*
X597250Y683250D02*
Y686250D01*
X560250Y654750D02*
X563250D01*
X561750Y653250D02*
Y656250D01*
X718750Y701000D02*
X721750D01*
X720250Y699500D02*
Y702500D01*
X711851Y708963D02*
X714851D01*
X713351Y707463D02*
Y710463D01*
X106000Y13250D02*
X109000D01*
X107500Y11750D02*
Y14750D01*
X91000Y103250D02*
X94000D01*
X92500Y101750D02*
Y104750D01*
X106000Y133250D02*
X109000D01*
X107500Y131750D02*
Y134750D01*
X91000Y163250D02*
X94000D01*
X92500Y161750D02*
Y164750D01*
X106000Y193250D02*
X109000D01*
X107500Y191750D02*
Y194750D01*
X91000Y223250D02*
X94000D01*
X92500Y221750D02*
Y224750D01*
X106000Y253250D02*
X109000D01*
X107500Y251750D02*
Y254750D01*
X106000Y313250D02*
X109000D01*
X107500Y311750D02*
Y314750D01*
X106000Y373250D02*
X109000D01*
X107500Y371750D02*
Y374750D01*
X91000Y463250D02*
X94000D01*
X92500Y461750D02*
Y464750D01*
X91000Y523250D02*
X94000D01*
X92500Y521750D02*
Y524750D01*
X106000Y553250D02*
X109000D01*
X107500Y551750D02*
Y554750D01*
X91000Y583250D02*
X94000D01*
X92500Y581750D02*
Y584750D01*
X106000Y613250D02*
X109000D01*
X107500Y611750D02*
Y614750D01*
X91000Y643250D02*
X94000D01*
X92500Y641750D02*
Y644750D01*
X106000Y673250D02*
X109000D01*
X107500Y671750D02*
Y674750D01*
X91000Y763250D02*
X94000D01*
X92500Y761750D02*
Y764750D01*
X136000Y13250D02*
X139000D01*
X137500Y11750D02*
Y14750D01*
X136000Y73250D02*
X139000D01*
X137500Y71750D02*
Y74750D01*
X121000Y103250D02*
X124000D01*
X122500Y101750D02*
Y104750D01*
X136000Y133250D02*
X139000D01*
X137500Y131750D02*
Y134750D01*
X121000Y163250D02*
X124000D01*
X122500Y161750D02*
Y164750D01*
X121000Y223250D02*
X124000D01*
X122500Y221750D02*
Y224750D01*
X121000Y283250D02*
X124000D01*
X122500Y281750D02*
Y284750D01*
X121000Y343250D02*
X124000D01*
X122500Y341750D02*
Y344750D01*
X136000Y373250D02*
X139000D01*
X137500Y371750D02*
Y374750D01*
X136000Y433250D02*
X139000D01*
X137500Y431750D02*
Y434750D01*
X121000Y463250D02*
X124000D01*
X122500Y461750D02*
Y464750D01*
X121000Y523250D02*
X124000D01*
X122500Y521750D02*
Y524750D01*
X136000Y553250D02*
X139000D01*
X137500Y551750D02*
Y554750D01*
X121000Y583250D02*
X124000D01*
X122500Y581750D02*
Y584750D01*
X136000Y613250D02*
X139000D01*
X137500Y611750D02*
Y614750D01*
X121000Y643250D02*
X124000D01*
X122500Y641750D02*
Y644750D01*
X136000Y673250D02*
X139000D01*
X137500Y671750D02*
Y674750D01*
X121000Y703250D02*
X124000D01*
X122500Y701750D02*
Y704750D01*
X166000Y13250D02*
X169000D01*
X167500Y11750D02*
Y14750D01*
X166000Y133250D02*
X169000D01*
X167500Y131750D02*
Y134750D01*
X151000Y163250D02*
X154000D01*
X152500Y161750D02*
Y164750D01*
X166000Y373250D02*
X169000D01*
X167500Y371750D02*
Y374750D01*
X151000Y523250D02*
X154000D01*
X152500Y521750D02*
Y524750D01*
X166000Y553250D02*
X169000D01*
X167500Y551750D02*
Y554750D01*
X151000Y583250D02*
X154000D01*
X152500Y581750D02*
Y584750D01*
X166000Y613250D02*
X169000D01*
X167500Y611750D02*
Y614750D01*
X151000Y643250D02*
X154000D01*
X152500Y641750D02*
Y644750D01*
X166000Y673250D02*
X169000D01*
X167500Y671750D02*
Y674750D01*
X196000Y13250D02*
X199000D01*
X197500Y11750D02*
Y14750D01*
X181000Y103250D02*
X184000D01*
X182500Y101750D02*
Y104750D01*
X181000Y163250D02*
X184000D01*
X182500Y161750D02*
Y164750D01*
X196000Y253250D02*
X199000D01*
X197500Y251750D02*
Y254750D01*
X196000Y313250D02*
X199000D01*
X197500Y311750D02*
Y314750D01*
X181000Y523250D02*
X184000D01*
X182500Y521750D02*
Y524750D01*
X196000Y553250D02*
X199000D01*
X197500Y551750D02*
Y554750D01*
X181000Y583250D02*
X184000D01*
X182500Y581750D02*
Y584750D01*
X196000Y613250D02*
X199000D01*
X197500Y611750D02*
Y614750D01*
X226000Y13250D02*
X229000D01*
X227500Y11750D02*
Y14750D01*
X226000Y193250D02*
X229000D01*
X227500Y191750D02*
Y194750D01*
X226000Y313250D02*
X229000D01*
X227500Y311750D02*
Y314750D01*
X226000Y553250D02*
X229000D01*
X227500Y551750D02*
Y554750D01*
X211000Y583250D02*
X214000D01*
X212500Y581750D02*
Y584750D01*
X256000Y13250D02*
X259000D01*
X257500Y11750D02*
Y14750D01*
X241000Y43250D02*
X244000D01*
X242500Y41750D02*
Y44750D01*
X256000Y193250D02*
X259000D01*
X257500Y191750D02*
Y194750D01*
X241000Y223250D02*
X244000D01*
X242500Y221750D02*
Y224750D01*
X256000Y313250D02*
X259000D01*
X257500Y311750D02*
Y314750D01*
X256000Y433250D02*
X259000D01*
X257500Y431750D02*
Y434750D01*
X241000Y463250D02*
X244000D01*
X242500Y461750D02*
Y464750D01*
X256000Y493250D02*
X259000D01*
X257500Y491750D02*
Y494750D01*
X241000Y583250D02*
X244000D01*
X242500Y581750D02*
Y584750D01*
X256000Y613250D02*
X259000D01*
X257500Y611750D02*
Y614750D01*
X256000Y733250D02*
X259000D01*
X257500Y731750D02*
Y734750D01*
X256000Y853250D02*
X259000D01*
X257500Y851750D02*
Y854750D01*
X286000Y13250D02*
X289000D01*
X287500Y11750D02*
Y14750D01*
X271000Y223250D02*
X274000D01*
X272500Y221750D02*
Y224750D01*
X286000Y313250D02*
X289000D01*
X287500Y311750D02*
Y314750D01*
X286000Y373250D02*
X289000D01*
X287500Y371750D02*
Y374750D01*
X286000Y433250D02*
X289000D01*
X287500Y431750D02*
Y434750D01*
X271000Y463250D02*
X274000D01*
X272500Y461750D02*
Y464750D01*
X286000Y493250D02*
X289000D01*
X287500Y491750D02*
Y494750D01*
X286000Y613250D02*
X289000D01*
X287500Y611750D02*
Y614750D01*
X271000Y643250D02*
X274000D01*
X272500Y641750D02*
Y644750D01*
X316000Y13250D02*
X319000D01*
X317500Y11750D02*
Y14750D01*
X316000Y73250D02*
X319000D01*
X317500Y71750D02*
Y74750D01*
X301000Y103250D02*
X304000D01*
X302500Y101750D02*
Y104750D01*
X316000Y133250D02*
X319000D01*
X317500Y131750D02*
Y134750D01*
X301000Y163250D02*
X304000D01*
X302500Y161750D02*
Y164750D01*
X316000Y193250D02*
X319000D01*
X317500Y191750D02*
Y194750D01*
X301000Y223250D02*
X304000D01*
X302500Y221750D02*
Y224750D01*
X316000Y313250D02*
X319000D01*
X317500Y311750D02*
Y314750D01*
X301000Y343250D02*
X304000D01*
X302500Y341750D02*
Y344750D01*
X316000Y373250D02*
X319000D01*
X317500Y371750D02*
Y374750D01*
X316000Y433250D02*
X319000D01*
X317500Y431750D02*
Y434750D01*
X301000Y463250D02*
X304000D01*
X302500Y461750D02*
Y464750D01*
X316000Y493250D02*
X319000D01*
X317500Y491750D02*
Y494750D01*
X301000Y523250D02*
X304000D01*
X302500Y521750D02*
Y524750D01*
X316000Y553250D02*
X319000D01*
X317500Y551750D02*
Y554750D01*
X301000Y703250D02*
X304000D01*
X302500Y701750D02*
Y704750D01*
X346000Y13250D02*
X349000D01*
X347500Y11750D02*
Y14750D01*
X331000Y43250D02*
X334000D01*
X332500Y41750D02*
Y44750D01*
X346000Y73250D02*
X349000D01*
X347500Y71750D02*
Y74750D01*
X331000Y103250D02*
X334000D01*
X332500Y101750D02*
Y104750D01*
X346000Y133250D02*
X349000D01*
X347500Y131750D02*
Y134750D01*
X331000Y163250D02*
X334000D01*
X332500Y161750D02*
Y164750D01*
X346000Y193250D02*
X349000D01*
X347500Y191750D02*
Y194750D01*
X331000Y223250D02*
X334000D01*
X332500Y221750D02*
Y224750D01*
X331000Y283250D02*
X334000D01*
X332500Y281750D02*
Y284750D01*
X331000Y343250D02*
X334000D01*
X332500Y341750D02*
Y344750D01*
X346000Y373250D02*
X349000D01*
X347500Y371750D02*
Y374750D01*
X331000Y403250D02*
X334000D01*
X332500Y401750D02*
Y404750D01*
X346000Y433250D02*
X349000D01*
X347500Y431750D02*
Y434750D01*
X331000Y463250D02*
X334000D01*
X332500Y461750D02*
Y464750D01*
X346000Y493250D02*
X349000D01*
X347500Y491750D02*
Y494750D01*
X331000Y523250D02*
X334000D01*
X332500Y521750D02*
Y524750D01*
X346000Y553250D02*
X349000D01*
X347500Y551750D02*
Y554750D01*
X331000Y823250D02*
X334000D01*
X332500Y821750D02*
Y824750D01*
X346000Y853250D02*
X349000D01*
X347500Y851750D02*
Y854750D01*
X376000Y13250D02*
X379000D01*
X377500Y11750D02*
Y14750D01*
X361000Y43250D02*
X364000D01*
X362500Y41750D02*
Y44750D01*
X376000Y73250D02*
X379000D01*
X377500Y71750D02*
Y74750D01*
X361000Y103250D02*
X364000D01*
X362500Y101750D02*
Y104750D01*
X376000Y133250D02*
X379000D01*
X377500Y131750D02*
Y134750D01*
X361000Y163250D02*
X364000D01*
X362500Y161750D02*
Y164750D01*
X376000Y193250D02*
X379000D01*
X377500Y191750D02*
Y194750D01*
X361000Y223250D02*
X364000D01*
X362500Y221750D02*
Y224750D01*
X376000Y253250D02*
X379000D01*
X377500Y251750D02*
Y254750D01*
X361000Y283250D02*
X364000D01*
X362500Y281750D02*
Y284750D01*
X376000Y313250D02*
X379000D01*
X377500Y311750D02*
Y314750D01*
X361000Y343250D02*
X364000D01*
X362500Y341750D02*
Y344750D01*
X376000Y373250D02*
X379000D01*
X377500Y371750D02*
Y374750D01*
X361000Y403250D02*
X364000D01*
X362500Y401750D02*
Y404750D01*
X376000Y433250D02*
X379000D01*
X377500Y431750D02*
Y434750D01*
X361000Y463250D02*
X364000D01*
X362500Y461750D02*
Y464750D01*
X376000Y493250D02*
X379000D01*
X377500Y491750D02*
Y494750D01*
X361000Y523250D02*
X364000D01*
X362500Y521750D02*
Y524750D01*
X376000Y553250D02*
X379000D01*
X377500Y551750D02*
Y554750D01*
X361000Y583250D02*
X364000D01*
X362500Y581750D02*
Y584750D01*
X376000Y673250D02*
X379000D01*
X377500Y671750D02*
Y674750D01*
X376000Y853250D02*
X379000D01*
X377500Y851750D02*
Y854750D01*
X406000Y13250D02*
X409000D01*
X407500Y11750D02*
Y14750D01*
X391000Y43250D02*
X394000D01*
X392500Y41750D02*
Y44750D01*
X406000Y73250D02*
X409000D01*
X407500Y71750D02*
Y74750D01*
X391000Y103250D02*
X394000D01*
X392500Y101750D02*
Y104750D01*
X406000Y133250D02*
X409000D01*
X407500Y131750D02*
Y134750D01*
X391000Y163250D02*
X394000D01*
X392500Y161750D02*
Y164750D01*
X406000Y193250D02*
X409000D01*
X407500Y191750D02*
Y194750D01*
X391000Y223250D02*
X394000D01*
X392500Y221750D02*
Y224750D01*
X406000Y253250D02*
X409000D01*
X407500Y251750D02*
Y254750D01*
X391000Y283250D02*
X394000D01*
X392500Y281750D02*
Y284750D01*
X406000Y313250D02*
X409000D01*
X407500Y311750D02*
Y314750D01*
X391000Y343250D02*
X394000D01*
X392500Y341750D02*
Y344750D01*
X406000Y373250D02*
X409000D01*
X407500Y371750D02*
Y374750D01*
X391000Y403250D02*
X394000D01*
X392500Y401750D02*
Y404750D01*
X406000Y433250D02*
X409000D01*
X407500Y431750D02*
Y434750D01*
X391000Y463250D02*
X394000D01*
X392500Y461750D02*
Y464750D01*
X406000Y493250D02*
X409000D01*
X407500Y491750D02*
Y494750D01*
X391000Y523250D02*
X394000D01*
X392500Y521750D02*
Y524750D01*
X406000Y553250D02*
X409000D01*
X407500Y551750D02*
Y554750D01*
X391000Y583250D02*
X394000D01*
X392500Y581750D02*
Y584750D01*
X406000Y793250D02*
X409000D01*
X407500Y791750D02*
Y794750D01*
X391000Y823250D02*
X394000D01*
X392500Y821750D02*
Y824750D01*
X406000Y853250D02*
X409000D01*
X407500Y851750D02*
Y854750D01*
X436000Y13250D02*
X439000D01*
X437500Y11750D02*
Y14750D01*
X421000Y43250D02*
X424000D01*
X422500Y41750D02*
Y44750D01*
X436000Y73250D02*
X439000D01*
X437500Y71750D02*
Y74750D01*
X421000Y103250D02*
X424000D01*
X422500Y101750D02*
Y104750D01*
X436000Y133250D02*
X439000D01*
X437500Y131750D02*
Y134750D01*
X421000Y163250D02*
X424000D01*
X422500Y161750D02*
Y164750D01*
X436000Y193250D02*
X439000D01*
X437500Y191750D02*
Y194750D01*
X421000Y223250D02*
X424000D01*
X422500Y221750D02*
Y224750D01*
X436000Y253250D02*
X439000D01*
X437500Y251750D02*
Y254750D01*
X421000Y283250D02*
X424000D01*
X422500Y281750D02*
Y284750D01*
X436000Y313250D02*
X439000D01*
X437500Y311750D02*
Y314750D01*
X421000Y343250D02*
X424000D01*
X422500Y341750D02*
Y344750D01*
X436000Y373250D02*
X439000D01*
X437500Y371750D02*
Y374750D01*
X421000Y403250D02*
X424000D01*
X422500Y401750D02*
Y404750D01*
X436000Y433250D02*
X439000D01*
X437500Y431750D02*
Y434750D01*
X421000Y463250D02*
X424000D01*
X422500Y461750D02*
Y464750D01*
X436000Y493250D02*
X439000D01*
X437500Y491750D02*
Y494750D01*
X421000Y523250D02*
X424000D01*
X422500Y521750D02*
Y524750D01*
X436000Y553250D02*
X439000D01*
X437500Y551750D02*
Y554750D01*
X421000Y583250D02*
X424000D01*
X422500Y581750D02*
Y584750D01*
X436000Y733250D02*
X439000D01*
X437500Y731750D02*
Y734750D01*
X421000Y763250D02*
X424000D01*
X422500Y761750D02*
Y764750D01*
X436000Y793250D02*
X439000D01*
X437500Y791750D02*
Y794750D01*
X421000Y823250D02*
X424000D01*
X422500Y821750D02*
Y824750D01*
X466000Y13250D02*
X469000D01*
X467500Y11750D02*
Y14750D01*
X451000Y43250D02*
X454000D01*
X452500Y41750D02*
Y44750D01*
X466000Y73250D02*
X469000D01*
X467500Y71750D02*
Y74750D01*
X451000Y103250D02*
X454000D01*
X452500Y101750D02*
Y104750D01*
X466000Y133250D02*
X469000D01*
X467500Y131750D02*
Y134750D01*
X451000Y163250D02*
X454000D01*
X452500Y161750D02*
Y164750D01*
X466000Y193250D02*
X469000D01*
X467500Y191750D02*
Y194750D01*
X451000Y223250D02*
X454000D01*
X452500Y221750D02*
Y224750D01*
X466000Y253250D02*
X469000D01*
X467500Y251750D02*
Y254750D01*
X451000Y283250D02*
X454000D01*
X452500Y281750D02*
Y284750D01*
X466000Y313250D02*
X469000D01*
X467500Y311750D02*
Y314750D01*
X451000Y343250D02*
X454000D01*
X452500Y341750D02*
Y344750D01*
X466000Y373250D02*
X469000D01*
X467500Y371750D02*
Y374750D01*
X451000Y403250D02*
X454000D01*
X452500Y401750D02*
Y404750D01*
X466000Y433250D02*
X469000D01*
X467500Y431750D02*
Y434750D01*
X451000Y463250D02*
X454000D01*
X452500Y461750D02*
Y464750D01*
X466000Y493250D02*
X469000D01*
X467500Y491750D02*
Y494750D01*
X451000Y523250D02*
X454000D01*
X452500Y521750D02*
Y524750D01*
X466000Y553250D02*
X469000D01*
X467500Y551750D02*
Y554750D01*
X451000Y583250D02*
X454000D01*
X452500Y581750D02*
Y584750D01*
X466000Y673250D02*
X469000D01*
X467500Y671750D02*
Y674750D01*
X451000Y703250D02*
X454000D01*
X452500Y701750D02*
Y704750D01*
X466000Y733250D02*
X469000D01*
X467500Y731750D02*
Y734750D01*
X451000Y763250D02*
X454000D01*
X452500Y761750D02*
Y764750D01*
X466000Y793250D02*
X469000D01*
X467500Y791750D02*
Y794750D01*
X451000Y823250D02*
X454000D01*
X452500Y821750D02*
Y824750D01*
X496000Y13250D02*
X499000D01*
X497500Y11750D02*
Y14750D01*
X481000Y43250D02*
X484000D01*
X482500Y41750D02*
Y44750D01*
X496000Y73250D02*
X499000D01*
X497500Y71750D02*
Y74750D01*
X481000Y103250D02*
X484000D01*
X482500Y101750D02*
Y104750D01*
X496000Y133250D02*
X499000D01*
X497500Y131750D02*
Y134750D01*
X481000Y163250D02*
X484000D01*
X482500Y161750D02*
Y164750D01*
X496000Y193250D02*
X499000D01*
X497500Y191750D02*
Y194750D01*
X481000Y223250D02*
X484000D01*
X482500Y221750D02*
Y224750D01*
X496000Y253250D02*
X499000D01*
X497500Y251750D02*
Y254750D01*
X481000Y283250D02*
X484000D01*
X482500Y281750D02*
Y284750D01*
X496000Y313250D02*
X499000D01*
X497500Y311750D02*
Y314750D01*
X481000Y343250D02*
X484000D01*
X482500Y341750D02*
Y344750D01*
X496000Y373250D02*
X499000D01*
X497500Y371750D02*
Y374750D01*
X481000Y403250D02*
X484000D01*
X482500Y401750D02*
Y404750D01*
X496000Y433250D02*
X499000D01*
X497500Y431750D02*
Y434750D01*
X481000Y463250D02*
X484000D01*
X482500Y461750D02*
Y464750D01*
X496000Y493250D02*
X499000D01*
X497500Y491750D02*
Y494750D01*
X481000Y523250D02*
X484000D01*
X482500Y521750D02*
Y524750D01*
X496000Y673250D02*
X499000D01*
X497500Y671750D02*
Y674750D01*
X481000Y703250D02*
X484000D01*
X482500Y701750D02*
Y704750D01*
X496000Y853250D02*
X499000D01*
X497500Y851750D02*
Y854750D01*
X526000Y13250D02*
X529000D01*
X527500Y11750D02*
Y14750D01*
X511000Y43250D02*
X514000D01*
X512500Y41750D02*
Y44750D01*
X526000Y73250D02*
X529000D01*
X527500Y71750D02*
Y74750D01*
X511000Y103250D02*
X514000D01*
X512500Y101750D02*
Y104750D01*
X526000Y133250D02*
X529000D01*
X527500Y131750D02*
Y134750D01*
X511000Y163250D02*
X514000D01*
X512500Y161750D02*
Y164750D01*
X526000Y193250D02*
X529000D01*
X527500Y191750D02*
Y194750D01*
X511000Y223250D02*
X514000D01*
X512500Y221750D02*
Y224750D01*
X526000Y253250D02*
X529000D01*
X527500Y251750D02*
Y254750D01*
X511000Y283250D02*
X514000D01*
X512500Y281750D02*
Y284750D01*
X526000Y313250D02*
X529000D01*
X527500Y311750D02*
Y314750D01*
X511000Y343250D02*
X514000D01*
X512500Y341750D02*
Y344750D01*
X526000Y373250D02*
X529000D01*
X527500Y371750D02*
Y374750D01*
X511000Y403250D02*
X514000D01*
X512500Y401750D02*
Y404750D01*
X526000Y793250D02*
X529000D01*
X527500Y791750D02*
Y794750D01*
X526000Y853250D02*
X529000D01*
X527500Y851750D02*
Y854750D01*
X556000Y13250D02*
X559000D01*
X557500Y11750D02*
Y14750D01*
X541000Y43250D02*
X544000D01*
X542500Y41750D02*
Y44750D01*
X556000Y73250D02*
X559000D01*
X557500Y71750D02*
Y74750D01*
X541000Y103250D02*
X544000D01*
X542500Y101750D02*
Y104750D01*
X556000Y133250D02*
X559000D01*
X557500Y131750D02*
Y134750D01*
X541000Y163250D02*
X544000D01*
X542500Y161750D02*
Y164750D01*
X556000Y193250D02*
X559000D01*
X557500Y191750D02*
Y194750D01*
X541000Y223250D02*
X544000D01*
X542500Y221750D02*
Y224750D01*
X556000Y253250D02*
X559000D01*
X557500Y251750D02*
Y254750D01*
X541000Y283250D02*
X544000D01*
X542500Y281750D02*
Y284750D01*
X556000Y313250D02*
X559000D01*
X557500Y311750D02*
Y314750D01*
X541000Y343250D02*
X544000D01*
X542500Y341750D02*
Y344750D01*
X556000Y373250D02*
X559000D01*
X557500Y371750D02*
Y374750D01*
X541000Y403250D02*
X544000D01*
X542500Y401750D02*
Y404750D01*
X556000Y433250D02*
X559000D01*
X557500Y431750D02*
Y434750D01*
X541000Y643250D02*
X544000D01*
X542500Y641750D02*
Y644750D01*
X541000Y823250D02*
X544000D01*
X542500Y821750D02*
Y824750D01*
X556000Y853250D02*
X559000D01*
X557500Y851750D02*
Y854750D01*
X586000Y13250D02*
X589000D01*
X587500Y11750D02*
Y14750D01*
X571000Y43250D02*
X574000D01*
X572500Y41750D02*
Y44750D01*
X586000Y73250D02*
X589000D01*
X587500Y71750D02*
Y74750D01*
X571000Y163250D02*
X574000D01*
X572500Y161750D02*
Y164750D01*
X571000Y223250D02*
X574000D01*
X572500Y221750D02*
Y224750D01*
X586000Y253250D02*
X589000D01*
X587500Y251750D02*
Y254750D01*
X571000Y283250D02*
X574000D01*
X572500Y281750D02*
Y284750D01*
X586000Y313250D02*
X589000D01*
X587500Y311750D02*
Y314750D01*
X571000Y343250D02*
X574000D01*
X572500Y341750D02*
Y344750D01*
X586000Y373250D02*
X589000D01*
X587500Y371750D02*
Y374750D01*
X571000Y403250D02*
X574000D01*
X572500Y401750D02*
Y404750D01*
X586000Y433250D02*
X589000D01*
X587500Y431750D02*
Y434750D01*
X571000Y823250D02*
X574000D01*
X572500Y821750D02*
Y824750D01*
X616000Y13250D02*
X619000D01*
X617500Y11750D02*
Y14750D01*
X601000Y43250D02*
X604000D01*
X602500Y41750D02*
Y44750D01*
X616000Y73250D02*
X619000D01*
X617500Y71750D02*
Y74750D01*
X601000Y103250D02*
X604000D01*
X602500Y101750D02*
Y104750D01*
X601000Y223250D02*
X604000D01*
X602500Y221750D02*
Y224750D01*
X601000Y283250D02*
X604000D01*
X602500Y281750D02*
Y284750D01*
X601000Y343250D02*
X604000D01*
X602500Y341750D02*
Y344750D01*
X601000Y403250D02*
X604000D01*
X602500Y401750D02*
Y404750D01*
X616000Y493250D02*
X619000D01*
X617500Y491750D02*
Y494750D01*
X616000Y553250D02*
X619000D01*
X617500Y551750D02*
Y554750D01*
X601000Y823250D02*
X604000D01*
X602500Y821750D02*
Y824750D01*
X646000Y13250D02*
X649000D01*
X647500Y11750D02*
Y14750D01*
X631000Y43250D02*
X634000D01*
X632500Y41750D02*
Y44750D01*
X646000Y73250D02*
X649000D01*
X647500Y71750D02*
Y74750D01*
X631000Y103250D02*
X634000D01*
X632500Y101750D02*
Y104750D01*
X631000Y523250D02*
X634000D01*
X632500Y521750D02*
Y524750D01*
X631000Y823250D02*
X634000D01*
X632500Y821750D02*
Y824750D01*
X646000Y853250D02*
X649000D01*
X647500Y851750D02*
Y854750D01*
X676000Y13250D02*
X679000D01*
X677500Y11750D02*
Y14750D01*
X661000Y43250D02*
X664000D01*
X662500Y41750D02*
Y44750D01*
X676000Y73250D02*
X679000D01*
X677500Y71750D02*
Y74750D01*
X661000Y103250D02*
X664000D01*
X662500Y101750D02*
Y104750D01*
X676000Y253250D02*
X679000D01*
X677500Y251750D02*
Y254750D01*
X676000Y313250D02*
X679000D01*
X677500Y311750D02*
Y314750D01*
X676000Y373250D02*
X679000D01*
X677500Y371750D02*
Y374750D01*
X661000Y523250D02*
X664000D01*
X662500Y521750D02*
Y524750D01*
X661000Y703250D02*
X664000D01*
X662500Y701750D02*
Y704750D01*
X676000Y733250D02*
X679000D01*
X677500Y731750D02*
Y734750D01*
X676000Y793250D02*
X679000D01*
X677500Y791750D02*
Y794750D01*
X661000Y823250D02*
X664000D01*
X662500Y821750D02*
Y824750D01*
X676000Y853250D02*
X679000D01*
X677500Y851750D02*
Y854750D01*
X706000Y13250D02*
X709000D01*
X707500Y11750D02*
Y14750D01*
X691000Y43250D02*
X694000D01*
X692500Y41750D02*
Y44750D01*
X706000Y73250D02*
X709000D01*
X707500Y71750D02*
Y74750D01*
X706000Y133250D02*
X709000D01*
X707500Y131750D02*
Y134750D01*
X691000Y163250D02*
X694000D01*
X692500Y161750D02*
Y164750D01*
X706000Y193250D02*
X709000D01*
X707500Y191750D02*
Y194750D01*
X691000Y223250D02*
X694000D01*
X692500Y221750D02*
Y224750D01*
X706000Y253250D02*
X709000D01*
X707500Y251750D02*
Y254750D01*
X691000Y283250D02*
X694000D01*
X692500Y281750D02*
Y284750D01*
X706000Y313250D02*
X709000D01*
X707500Y311750D02*
Y314750D01*
X691000Y343250D02*
X694000D01*
X692500Y341750D02*
Y344750D01*
X706000Y373250D02*
X709000D01*
X707500Y371750D02*
Y374750D01*
X691000Y403250D02*
X694000D01*
X692500Y401750D02*
Y404750D01*
X691000Y703250D02*
X694000D01*
X692500Y701750D02*
Y704750D01*
X706000Y733250D02*
X709000D01*
X707500Y731750D02*
Y734750D01*
X736000Y13250D02*
X739000D01*
X737500Y11750D02*
Y14750D01*
X721000Y43250D02*
X724000D01*
X722500Y41750D02*
Y44750D01*
X736000Y73250D02*
X739000D01*
X737500Y71750D02*
Y74750D01*
X721000Y103250D02*
X724000D01*
X722500Y101750D02*
Y104750D01*
X736000Y133250D02*
X739000D01*
X737500Y131750D02*
Y134750D01*
X721000Y163250D02*
X724000D01*
X722500Y161750D02*
Y164750D01*
X736000Y193250D02*
X739000D01*
X737500Y191750D02*
Y194750D01*
X721000Y223250D02*
X724000D01*
X722500Y221750D02*
Y224750D01*
X736000Y253250D02*
X739000D01*
X737500Y251750D02*
Y254750D01*
X721000Y283250D02*
X724000D01*
X722500Y281750D02*
Y284750D01*
X736000Y313250D02*
X739000D01*
X737500Y311750D02*
Y314750D01*
X721000Y343250D02*
X724000D01*
X722500Y341750D02*
Y344750D01*
X736000Y373250D02*
X739000D01*
X737500Y371750D02*
Y374750D01*
X721000Y403250D02*
X724000D01*
X722500Y401750D02*
Y404750D01*
X736000Y793250D02*
X739000D01*
X737500Y791750D02*
Y794750D01*
X721000Y823250D02*
X724000D01*
X722500Y821750D02*
Y824750D01*
X751000Y103250D02*
X754000D01*
X752500Y101750D02*
Y104750D01*
X751000Y163250D02*
X754000D01*
X752500Y161750D02*
Y164750D01*
X766000Y193250D02*
X769000D01*
X767500Y191750D02*
Y194750D01*
X751000Y223250D02*
X754000D01*
X752500Y221750D02*
Y224750D01*
X751000Y283250D02*
X754000D01*
X752500Y281750D02*
Y284750D01*
X751000Y343250D02*
X754000D01*
X752500Y341750D02*
Y344750D01*
X751000Y823250D02*
X754000D01*
X752500Y821750D02*
Y824750D01*
X766000Y853250D02*
X769000D01*
X767500Y851750D02*
Y854750D01*
X781000Y103250D02*
X784000D01*
X782500Y101750D02*
Y104750D01*
X781000Y163250D02*
X784000D01*
X782500Y161750D02*
Y164750D01*
X796000Y253250D02*
X799000D01*
X797500Y251750D02*
Y254750D01*
X781000Y283250D02*
X784000D01*
X782500Y281750D02*
Y284750D01*
X781000Y463250D02*
X784000D01*
X782500Y461750D02*
Y464750D01*
X781000Y823250D02*
X784000D01*
X782500Y821750D02*
Y824750D01*
X796000Y853250D02*
X799000D01*
X797500Y851750D02*
Y854750D01*
X811000Y223250D02*
X814000D01*
X812500Y221750D02*
Y224750D01*
X826000Y853250D02*
X829000D01*
X827500Y851750D02*
Y854750D01*
X841000Y223250D02*
X844000D01*
X842500Y221750D02*
Y224750D01*
X856000Y493250D02*
X859000D01*
X857500Y491750D02*
Y494750D01*
X856000Y853250D02*
X859000D01*
X857500Y851750D02*
Y854750D01*
X871000Y103250D02*
X874000D01*
X872500Y101750D02*
Y104750D01*
X886000Y193250D02*
X889000D01*
X887500Y191750D02*
Y194750D01*
X886000Y253250D02*
X889000D01*
X887500Y251750D02*
Y254750D01*
X871000Y823250D02*
X874000D01*
X872500Y821750D02*
Y824750D01*
X886000Y853250D02*
X889000D01*
X887500Y851750D02*
Y854750D01*
X916000Y193250D02*
X919000D01*
X917500Y191750D02*
Y194750D01*
X901000Y343250D02*
X904000D01*
X902500Y341750D02*
Y344750D01*
X916000Y553250D02*
X919000D01*
X917500Y551750D02*
Y554750D01*
X901000Y583250D02*
X904000D01*
X902500Y581750D02*
Y584750D01*
X901000Y643250D02*
X904000D01*
X902500Y641750D02*
Y644750D01*
X901000Y703250D02*
X904000D01*
X902500Y701750D02*
Y704750D01*
X916000Y733250D02*
X919000D01*
X917500Y731750D02*
Y734750D01*
X901000Y823250D02*
X904000D01*
X902500Y821750D02*
Y824750D01*
X946000Y73250D02*
X949000D01*
X947500Y71750D02*
Y74750D01*
X946000Y133250D02*
X949000D01*
X947500Y131750D02*
Y134750D01*
X946000Y493250D02*
X949000D01*
X947500Y491750D02*
Y494750D01*
X946000Y553250D02*
X949000D01*
X947500Y551750D02*
Y554750D01*
X931000Y583250D02*
X934000D01*
X932500Y581750D02*
Y584750D01*
X931000Y643250D02*
X934000D01*
X932500Y641750D02*
Y644750D01*
X946000Y793250D02*
X949000D01*
X947500Y791750D02*
Y794750D01*
X946000Y853250D02*
X949000D01*
X947500Y851750D02*
Y854750D01*
X961000Y103250D02*
X964000D01*
X962500Y101750D02*
Y104750D01*
X976000Y133250D02*
X979000D01*
X977500Y131750D02*
Y134750D01*
X976000Y193250D02*
X979000D01*
X977500Y191750D02*
Y194750D01*
X976000Y253250D02*
X979000D01*
X977500Y251750D02*
Y254750D01*
X976000Y433250D02*
X979000D01*
X977500Y431750D02*
Y434750D01*
X976000Y493250D02*
X979000D01*
X977500Y491750D02*
Y494750D01*
X961000Y523250D02*
X964000D01*
X962500Y521750D02*
Y524750D01*
X976000Y553250D02*
X979000D01*
X977500Y551750D02*
Y554750D01*
X961000Y583250D02*
X964000D01*
X962500Y581750D02*
Y584750D01*
X961000Y703250D02*
X964000D01*
X962500Y701750D02*
Y704750D01*
X961000Y823250D02*
X964000D01*
X962500Y821750D02*
Y824750D01*
X976000Y853250D02*
X979000D01*
X977500Y851750D02*
Y854750D01*
X1006000Y73250D02*
X1009000D01*
X1007500Y71750D02*
Y74750D01*
X1006000Y193250D02*
X1009000D01*
X1007500Y191750D02*
Y194750D01*
X1006000Y253250D02*
X1009000D01*
X1007500Y251750D02*
Y254750D01*
X1006000Y433250D02*
X1009000D01*
X1007500Y431750D02*
Y434750D01*
X991000Y463250D02*
X994000D01*
X992500Y461750D02*
Y464750D01*
X1006000Y493250D02*
X1009000D01*
X1007500Y491750D02*
Y494750D01*
X991000Y523250D02*
X994000D01*
X992500Y521750D02*
Y524750D01*
X1006000Y553250D02*
X1009000D01*
X1007500Y551750D02*
Y554750D01*
X991000Y583250D02*
X994000D01*
X992500Y581750D02*
Y584750D01*
X991000Y703250D02*
X994000D01*
X992500Y701750D02*
Y704750D01*
X991000Y763250D02*
X994000D01*
X992500Y761750D02*
Y764750D01*
X991000Y823250D02*
X994000D01*
X992500Y821750D02*
Y824750D01*
X1036000Y433250D02*
X1039000D01*
X1037500Y431750D02*
Y434750D01*
X1021000Y463250D02*
X1024000D01*
X1022500Y461750D02*
Y464750D01*
X1036000Y493250D02*
X1039000D01*
X1037500Y491750D02*
Y494750D01*
X1021000Y523250D02*
X1024000D01*
X1022500Y521750D02*
Y524750D01*
X1021000Y643250D02*
X1024000D01*
X1022500Y641750D02*
Y644750D01*
X1036000Y853250D02*
X1039000D01*
X1037500Y851750D02*
Y854750D01*
X1066000Y73250D02*
X1069000D01*
X1067500Y71750D02*
Y74750D01*
X1051000Y823250D02*
X1054000D01*
X1052500Y821750D02*
Y824750D01*
X1066000Y853250D02*
X1069000D01*
X1067500Y851750D02*
Y854750D01*
X1096000Y73250D02*
X1099000D01*
X1097500Y71750D02*
Y74750D01*
X1081000Y583250D02*
X1084000D01*
X1082500Y581750D02*
Y584750D01*
X1096000Y613250D02*
X1099000D01*
X1097500Y611750D02*
Y614750D01*
X1096000Y733250D02*
X1099000D01*
X1097500Y731750D02*
Y734750D01*
X1096000Y793250D02*
X1099000D01*
X1097500Y791750D02*
Y794750D01*
X1081000Y823250D02*
X1084000D01*
X1082500Y821750D02*
Y824750D01*
X1096000Y853250D02*
X1099000D01*
X1097500Y851750D02*
Y854750D01*
X1111000Y103250D02*
X1114000D01*
X1112500Y101750D02*
Y104750D01*
X1111000Y163250D02*
X1114000D01*
X1112500Y161750D02*
Y164750D01*
X1111000Y223250D02*
X1114000D01*
X1112500Y221750D02*
Y224750D01*
X1126000Y313250D02*
X1129000D01*
X1127500Y311750D02*
Y314750D01*
X1111000Y343250D02*
X1114000D01*
X1112500Y341750D02*
Y344750D01*
X1126000Y373250D02*
X1129000D01*
X1127500Y371750D02*
Y374750D01*
X1111000Y403250D02*
X1114000D01*
X1112500Y401750D02*
Y404750D01*
X1111000Y463250D02*
X1114000D01*
X1112500Y461750D02*
Y464750D01*
X1111000Y523250D02*
X1114000D01*
X1112500Y521750D02*
Y524750D01*
X1126000Y553250D02*
X1129000D01*
X1127500Y551750D02*
Y554750D01*
X1111000Y643250D02*
X1114000D01*
X1112500Y641750D02*
Y644750D01*
X1126000Y673250D02*
X1129000D01*
X1127500Y671750D02*
Y674750D01*
X1126000Y733250D02*
X1129000D01*
X1127500Y731750D02*
Y734750D01*
X1141000Y283250D02*
X1144000D01*
X1142500Y281750D02*
Y284750D01*
X1156000Y313250D02*
X1159000D01*
X1157500Y311750D02*
Y314750D01*
X1141000Y343250D02*
X1144000D01*
X1142500Y341750D02*
Y344750D01*
X1156000Y373250D02*
X1159000D01*
X1157500Y371750D02*
Y374750D01*
X1141000Y403250D02*
X1144000D01*
X1142500Y401750D02*
Y404750D01*
X1141000Y463250D02*
X1144000D01*
X1142500Y461750D02*
Y464750D01*
X1156000Y553250D02*
X1159000D01*
X1157500Y551750D02*
Y554750D01*
X1141000Y643250D02*
X1144000D01*
X1142500Y641750D02*
Y644750D01*
X1156000Y673250D02*
X1159000D01*
X1157500Y671750D02*
Y674750D01*
X1141000Y703250D02*
X1144000D01*
X1142500Y701750D02*
Y704750D01*
X1156000Y853250D02*
X1159000D01*
X1157500Y851750D02*
Y854750D01*
X1171000Y163250D02*
X1174000D01*
X1172500Y161750D02*
Y164750D01*
X1171000Y283250D02*
X1174000D01*
X1172500Y281750D02*
Y284750D01*
X1186000Y313250D02*
X1189000D01*
X1187500Y311750D02*
Y314750D01*
X1171000Y343250D02*
X1174000D01*
X1172500Y341750D02*
Y344750D01*
X1186000Y373250D02*
X1189000D01*
X1187500Y371750D02*
Y374750D01*
X1171000Y463250D02*
X1174000D01*
X1172500Y461750D02*
Y464750D01*
X1186000Y493250D02*
X1189000D01*
X1187500Y491750D02*
Y494750D01*
X1186000Y553250D02*
X1189000D01*
X1187500Y551750D02*
Y554750D01*
X1186000Y613250D02*
X1189000D01*
X1187500Y611750D02*
Y614750D01*
X1171000Y643250D02*
X1174000D01*
X1172500Y641750D02*
Y644750D01*
X1186000Y673250D02*
X1189000D01*
X1187500Y671750D02*
Y674750D01*
X1171000Y703250D02*
X1174000D01*
X1172500Y701750D02*
Y704750D01*
X1186000Y853250D02*
X1189000D01*
X1187500Y851750D02*
Y854750D01*
X1201000Y103250D02*
X1204000D01*
X1202500Y101750D02*
Y104750D01*
X1201000Y283250D02*
X1204000D01*
X1202500Y281750D02*
Y284750D01*
X1216000Y313250D02*
X1219000D01*
X1217500Y311750D02*
Y314750D01*
X1201000Y343250D02*
X1204000D01*
X1202500Y341750D02*
Y344750D01*
X1216000Y373250D02*
X1219000D01*
X1217500Y371750D02*
Y374750D01*
X1201000Y403250D02*
X1204000D01*
X1202500Y401750D02*
Y404750D01*
X1201000Y463250D02*
X1204000D01*
X1202500Y461750D02*
Y464750D01*
X1201000Y523250D02*
X1204000D01*
X1202500Y521750D02*
Y524750D01*
X1216000Y553250D02*
X1219000D01*
X1217500Y551750D02*
Y554750D01*
X1201000Y643250D02*
X1204000D01*
X1202500Y641750D02*
Y644750D01*
X1216000Y673250D02*
X1219000D01*
X1217500Y671750D02*
Y674750D01*
X1201000Y703250D02*
X1204000D01*
X1202500Y701750D02*
Y704750D01*
X1231000Y103250D02*
X1234000D01*
X1232500Y101750D02*
Y104750D01*
X1246000Y193250D02*
X1249000D01*
X1247500Y191750D02*
Y194750D01*
X1231000Y283250D02*
X1234000D01*
X1232500Y281750D02*
Y284750D01*
X1246000Y313250D02*
X1249000D01*
X1247500Y311750D02*
Y314750D01*
X1231000Y343250D02*
X1234000D01*
X1232500Y341750D02*
Y344750D01*
X1246000Y373250D02*
X1249000D01*
X1247500Y371750D02*
Y374750D01*
X1231000Y403250D02*
X1234000D01*
X1232500Y401750D02*
Y404750D01*
X1231000Y463250D02*
X1234000D01*
X1232500Y461750D02*
Y464750D01*
X1231000Y523250D02*
X1234000D01*
X1232500Y521750D02*
Y524750D01*
X1246000Y553250D02*
X1249000D01*
X1247500Y551750D02*
Y554750D01*
X1246000Y613250D02*
X1249000D01*
X1247500Y611750D02*
Y614750D01*
X1231000Y643250D02*
X1234000D01*
X1232500Y641750D02*
Y644750D01*
X1246000Y673250D02*
X1249000D01*
X1247500Y671750D02*
Y674750D01*
X1231000Y703250D02*
X1234000D01*
X1232500Y701750D02*
Y704750D01*
X1246000Y853250D02*
X1249000D01*
X1247500Y851750D02*
Y854750D01*
X1261000Y283250D02*
X1264000D01*
X1262500Y281750D02*
Y284750D01*
X1276000Y313250D02*
X1279000D01*
X1277500Y311750D02*
Y314750D01*
X1261000Y343250D02*
X1264000D01*
X1262500Y341750D02*
Y344750D01*
X1276000Y373250D02*
X1279000D01*
X1277500Y371750D02*
Y374750D01*
X1261000Y403250D02*
X1264000D01*
X1262500Y401750D02*
Y404750D01*
X1261000Y463250D02*
X1264000D01*
X1262500Y461750D02*
Y464750D01*
X1261000Y523250D02*
X1264000D01*
X1262500Y521750D02*
Y524750D01*
X1276000Y553250D02*
X1279000D01*
X1277500Y551750D02*
Y554750D01*
X1276000Y613250D02*
X1279000D01*
X1277500Y611750D02*
Y614750D01*
X1261000Y643250D02*
X1264000D01*
X1262500Y641750D02*
Y644750D01*
X1276000Y673250D02*
X1279000D01*
X1277500Y671750D02*
Y674750D01*
X1261000Y703250D02*
X1264000D01*
X1262500Y701750D02*
Y704750D01*
X1276000Y733250D02*
X1279000D01*
X1277500Y731750D02*
Y734750D01*
X1261000Y823250D02*
X1264000D01*
X1262500Y821750D02*
Y824750D01*
X1276000Y853250D02*
X1279000D01*
X1277500Y851750D02*
Y854750D01*
X739750Y649750D02*
X742750D01*
X741250Y648250D02*
Y651250D01*
X761100Y649750D02*
X764100D01*
X762600Y648250D02*
Y651250D01*
X782450Y649750D02*
X785450D01*
X783950Y648250D02*
Y651250D01*
X803800Y649750D02*
X806800D01*
X805300Y648250D02*
Y651250D01*
X825150Y649750D02*
X828150D01*
X826650Y648250D02*
Y651250D01*
X846500Y649750D02*
X849500D01*
X848000Y648250D02*
Y651250D01*
X835477Y605750D02*
X838477D01*
X836977Y604250D02*
Y607250D01*
X814182Y605750D02*
X817182D01*
X815682Y604250D02*
Y607250D01*
X792886Y605750D02*
X795886D01*
X794386Y604250D02*
Y607250D01*
X771591Y605750D02*
X774591D01*
X773091Y604250D02*
Y607250D01*
X750295Y605750D02*
X753295D01*
X751795Y604250D02*
Y607250D01*
X729000Y605750D02*
X732000D01*
X730500Y604250D02*
Y607250D01*
X963250Y605750D02*
X966250D01*
X964750Y604250D02*
Y607250D01*
X941954Y605750D02*
X944954D01*
X943454Y604250D02*
Y607250D01*
X920659Y605750D02*
X923659D01*
X922159Y604250D02*
Y607250D01*
X899363Y605750D02*
X902364D01*
X900863Y604250D02*
Y607250D01*
X878068Y605750D02*
X881068D01*
X879568Y604250D02*
Y607250D01*
X856773Y605750D02*
X859773D01*
X858273Y604250D02*
Y607250D01*
X256433Y907250D02*
X259433D01*
X257933Y905750D02*
Y908750D01*
X278380Y907250D02*
X281380D01*
X279880Y905750D02*
Y908750D01*
X300327Y907250D02*
X303327D01*
X301827Y905750D02*
Y908750D01*
X322274Y907250D02*
X325274D01*
X323774Y905750D02*
Y908750D01*
X344221Y907250D02*
X347221D01*
X345721Y905750D02*
Y908750D01*
X366168Y907250D02*
X369168D01*
X367668Y905750D02*
Y908750D01*
X124750Y907250D02*
X127750D01*
X126250Y905750D02*
Y908750D01*
X146697Y907250D02*
X149697D01*
X148197Y905750D02*
Y908750D01*
X168644Y907250D02*
X171644D01*
X170144Y905750D02*
Y908750D01*
X190591Y907250D02*
X193591D01*
X192091Y905750D02*
Y908750D01*
X212538Y907250D02*
X215538D01*
X214038Y905750D02*
Y908750D01*
X234485Y907250D02*
X237486D01*
X235986Y905750D02*
Y908750D01*
X519798Y907250D02*
X522798D01*
X521298Y905750D02*
Y908750D01*
X541745Y907250D02*
X544745D01*
X543245Y905750D02*
Y908750D01*
X563692Y907250D02*
X566692D01*
X565192Y905750D02*
Y908750D01*
X585639Y907250D02*
X588639D01*
X587139Y905750D02*
Y908750D01*
X607586Y907250D02*
X610586D01*
X609086Y905750D02*
Y908750D01*
X629533Y907250D02*
X632533D01*
X631033Y905750D02*
Y908750D01*
X388115Y907250D02*
X391115D01*
X389615Y905750D02*
Y908750D01*
X410062Y907250D02*
X413062D01*
X411562Y905750D02*
Y908750D01*
X432009Y907250D02*
X435009D01*
X433509Y905750D02*
Y908750D01*
X453956Y907250D02*
X456956D01*
X455457Y905750D02*
Y908750D01*
X475904Y907250D02*
X478904D01*
X477404Y905750D02*
Y908750D01*
X497851Y907250D02*
X500851D01*
X499351Y905750D02*
Y908750D01*
X783163Y907250D02*
X786163D01*
X784663Y905750D02*
Y908750D01*
X805110Y907250D02*
X808110D01*
X806610Y905750D02*
Y908750D01*
X827057Y907250D02*
X830057D01*
X828557Y905750D02*
Y908750D01*
X849004Y907250D02*
X852004D01*
X850504Y905750D02*
Y908750D01*
X870951Y907250D02*
X873951D01*
X872451Y905750D02*
Y908750D01*
X892898Y907250D02*
X895898D01*
X894398Y905750D02*
Y908750D01*
X651480Y907250D02*
X654480D01*
X652980Y905750D02*
Y908750D01*
X673428Y907250D02*
X676428D01*
X674928Y905750D02*
Y908750D01*
X695375Y907250D02*
X698374D01*
X696875Y905750D02*
Y908750D01*
X717322Y907250D02*
X720322D01*
X718822Y905750D02*
Y908750D01*
X739269Y907250D02*
X742269D01*
X740769Y905750D02*
Y908750D01*
X761216Y907250D02*
X764216D01*
X762716Y905750D02*
Y908750D01*
X1046528Y907250D02*
X1049528D01*
X1048028Y905750D02*
Y908750D01*
X1068475Y907250D02*
X1071475D01*
X1069975Y905750D02*
Y908750D01*
X1090422Y907250D02*
X1093422D01*
X1091922Y905750D02*
Y908750D01*
X1112369Y907250D02*
X1115369D01*
X1113869Y905750D02*
Y908750D01*
X1134316Y907250D02*
X1137317D01*
X1135816Y905750D02*
Y908750D01*
X1156264Y907250D02*
X1159264D01*
X1157764Y905750D02*
Y908750D01*
X914846Y907250D02*
X917846D01*
X916346Y905750D02*
Y908750D01*
X936793Y907250D02*
X939793D01*
X938293Y905750D02*
Y908750D01*
X958740Y907250D02*
X961740D01*
X960240Y905750D02*
Y908750D01*
X980687Y907250D02*
X983687D01*
X982187Y905750D02*
Y908750D01*
X1002634Y907250D02*
X1005634D01*
X1004134Y905750D02*
Y908750D01*
X1024581Y907250D02*
X1027581D01*
X1026081Y905750D02*
Y908750D01*
X1178211Y907250D02*
X1181211D01*
X1179711Y905750D02*
Y908750D01*
X1200158Y907250D02*
X1203158D01*
X1201658Y905750D02*
Y908750D01*
X1222105Y907250D02*
X1225105D01*
X1223605Y905750D02*
Y908750D01*
X1244052Y907250D02*
X1247052D01*
X1245552Y905750D02*
Y908750D01*
X1265999Y907250D02*
X1268999D01*
X1267499Y905750D02*
Y908750D01*
X87500Y612000D02*
X90500D01*
X89000Y610500D02*
Y613500D01*
X57500Y672000D02*
X60500D01*
X59000Y670500D02*
Y673500D01*
X72500Y642000D02*
X75500D01*
X74000Y640500D02*
Y643500D01*
X57500Y612000D02*
X60500D01*
X59000Y610500D02*
Y613500D01*
X27500Y672000D02*
X30500D01*
X29000Y670500D02*
Y673500D01*
X42500Y642000D02*
X45500D01*
X44000Y640500D02*
Y643500D01*
X27500Y612000D02*
X30500D01*
X29000Y610500D02*
Y613500D01*
X12500Y642000D02*
X15500D01*
X14000Y640500D02*
Y643500D01*
X48250Y474250D02*
X51250D01*
X49750Y472750D02*
Y475750D01*
X48250Y414250D02*
X51250D01*
X49750Y412750D02*
Y415750D01*
X18250Y474250D02*
X21250D01*
X19750Y472750D02*
Y475750D01*
X33250Y444250D02*
X36250D01*
X34750Y442750D02*
Y445750D01*
X18250Y414250D02*
X21250D01*
X19750Y412750D02*
Y415750D01*
X33250Y384250D02*
X36250D01*
X34750Y382750D02*
Y385750D01*
X16000Y138250D02*
X19000D01*
X17500Y136750D02*
Y139750D01*
X16000Y168250D02*
X19000D01*
X17500Y166750D02*
Y169750D01*
X16000Y198250D02*
X19000D01*
X17500Y196750D02*
Y199750D01*
X16000Y228250D02*
X19000D01*
X17500Y226750D02*
Y229750D01*
X855029Y53000D02*
X858029D01*
X856529Y51500D02*
Y54500D01*
X825603Y53000D02*
X828603D01*
X827103Y51500D02*
Y54500D01*
X796177Y53000D02*
X799176D01*
X797676Y51500D02*
Y54500D01*
X766750Y53000D02*
X769750D01*
X768250Y51500D02*
Y54500D01*
X972735Y53000D02*
X975735D01*
X974235Y51500D02*
Y54500D01*
X943309Y53000D02*
X946309D01*
X944809Y51500D02*
Y54500D01*
X913882Y53000D02*
X916882D01*
X915382Y51500D02*
Y54500D01*
X884456Y53000D02*
X887456D01*
X885956Y51500D02*
Y54500D01*
X1090441Y53000D02*
X1093441D01*
X1091941Y51500D02*
Y54500D01*
X1061015Y53000D02*
X1064015D01*
X1062515Y51500D02*
Y54500D01*
X1031588Y53000D02*
X1034588D01*
X1033088Y51500D02*
Y54500D01*
X1002162Y53000D02*
X1005162D01*
X1003662Y51500D02*
Y54500D01*
X1208147Y53000D02*
X1211147D01*
X1209647Y51500D02*
Y54500D01*
X1178720Y53000D02*
X1181720D01*
X1180220Y51500D02*
Y54500D01*
X1149294Y53000D02*
X1152294D01*
X1150794Y51500D02*
Y54500D01*
X1119867Y53000D02*
X1122868D01*
X1121367Y51500D02*
Y54500D01*
X1237573Y53000D02*
X1240573D01*
X1239073Y51500D02*
Y54500D01*
X1267000Y53000D02*
X1270000D01*
X1268500Y51500D02*
Y54500D01*
X1046000Y305500D02*
X1049000D01*
X1047500Y304000D02*
Y307000D01*
X1046000Y291750D02*
X1049000D01*
X1047500Y290250D02*
Y293250D01*
X1046250Y279500D02*
X1049250D01*
X1047750Y278000D02*
Y281000D01*
X1045750Y261500D02*
X1048750D01*
X1047250Y260000D02*
Y263000D01*
X1046500Y244750D02*
X1049500D01*
X1048000Y243250D02*
Y246250D01*
X1045500Y225750D02*
X1048500D01*
X1047000Y224250D02*
Y227250D01*
X1035750Y203500D02*
X1038750D01*
X1037250Y202000D02*
Y205000D01*
X1102500Y254500D02*
X1105500D01*
X1104000Y253000D02*
Y256000D01*
X1103250Y205750D02*
X1106250D01*
X1104750Y204250D02*
Y207250D01*
X1103250Y314000D02*
X1106250D01*
X1104750Y312500D02*
Y315500D01*
X1117750Y298250D02*
X1120750D01*
X1119250Y296750D02*
Y299750D01*
X1099750Y393000D02*
X1102750D01*
X1101250Y391500D02*
Y394500D01*
X1102500Y359000D02*
X1105500D01*
X1104000Y357500D02*
Y360500D01*
X1048500Y394750D02*
X1051500D01*
X1050000Y393250D02*
Y396250D01*
X1046750Y381250D02*
X1049750D01*
X1048250Y379750D02*
Y382750D01*
X1008500Y396500D02*
X1011500D01*
X1010000Y395000D02*
Y398000D01*
X900250Y386750D02*
X903250D01*
X901750Y385250D02*
Y388250D01*
X918000Y390500D02*
X921000D01*
X919500Y389000D02*
Y392000D01*
X902250Y414500D02*
X905250D01*
X903750Y413000D02*
Y416000D01*
X998750Y341500D02*
X1001750D01*
X1000250Y340000D02*
Y343000D01*
X1071000Y599250D02*
X1074000D01*
X1072500Y597750D02*
Y600750D01*
X985750Y675500D02*
X988750D01*
X987250Y674000D02*
Y677000D01*
X1096250Y688750D02*
X1099250D01*
X1097750Y687250D02*
Y690250D01*
X254500Y700000D02*
X257500D01*
X256000Y698500D02*
Y701500D01*
X274000Y681500D02*
X277000D01*
X275500Y680000D02*
Y683000D01*
X234750Y732750D02*
X237750D01*
X236250Y731250D02*
Y734250D01*
X190000Y822750D02*
X193000D01*
X191500Y821250D02*
Y824250D01*
X91250Y781000D02*
X94250D01*
X92750Y779500D02*
Y782500D01*
X65500Y717750D02*
X68500D01*
X67000Y716250D02*
Y719250D01*
X107500Y722250D02*
X110500D01*
X109000Y720750D02*
Y723750D01*
X1075750Y726000D02*
X1078750D01*
X1077250Y724500D02*
Y727500D01*
X933250Y471000D02*
X936250D01*
X934750Y469500D02*
Y472500D01*
M02*
