G04 Layer_Color=255*
%FSLAX44Y44*%
%MOMM*%
G71*
G01*
G75*
%ADD12R,2.1000X1.3000*%
%ADD13R,1.9050X0.6604*%
%ADD14R,0.8000X1.3500*%
%ADD15R,1.0500X0.6000*%
%ADD16R,0.8500X0.6000*%
%ADD17R,1.4000X1.2000*%
%ADD18R,1.3500X0.8000*%
%ADD19R,0.7500X1.6500*%
%ADD20R,1.0160X1.0160*%
%ADD21R,0.6000X0.8500*%
%ADD22R,0.4800X2.5400*%
%ADD23R,2.5400X0.4800*%
%ADD24R,0.6604X1.9050*%
%ADD25R,2.2000X2.1500*%
%ADD26R,1.6000X0.4000*%
%ADD27R,2.1600X1.0700*%
%ADD28R,6.9900X8.3300*%
%ADD29R,2.2000X3.1500*%
%ADD30R,5.4000X2.9000*%
%ADD31R,4.4500X1.8000*%
%ADD32R,4.3942X2.4892*%
%ADD33R,2.0320X2.0320*%
%ADD34R,1.0160X1.0160*%
%ADD45C,3.0480*%
%ADD46C,1.6000*%
%ADD47C,3.5000*%
%ADD48C,1.6002*%
%ADD49R,1.6002X1.6002*%
%ADD50C,1.8000*%
%ADD51R,1.8000X1.8000*%
%ADD52R,4.0000X4.0000*%
%ADD53C,4.0000*%
%ADD54C,2.0000*%
%ADD55R,1.6002X1.6002*%
%ADD56R,1.8000X1.8000*%
%ADD57R,4.0000X4.0000*%
D12*
X1038750Y526000D02*
D03*
X947750D02*
D03*
Y480000D02*
D03*
X1038750D02*
D03*
D13*
X333683Y749000D02*
D03*
Y761700D02*
D03*
X384483Y723600D02*
D03*
Y736300D02*
D03*
X333683Y723600D02*
D03*
Y736300D02*
D03*
X384483Y749000D02*
D03*
Y761700D02*
D03*
D14*
X832000Y483000D02*
D03*
X815000D02*
D03*
X1131000Y154000D02*
D03*
X1148000D02*
D03*
X1131000Y225111D02*
D03*
X1148000D02*
D03*
Y177000D02*
D03*
X1131000D02*
D03*
Y249000D02*
D03*
X1148000D02*
D03*
X1177250Y177000D02*
D03*
X1194250D02*
D03*
X1195000Y201222D02*
D03*
X1178000D02*
D03*
X1195000Y225111D02*
D03*
X1178000D02*
D03*
X1195000Y249000D02*
D03*
X1178000D02*
D03*
X1219000Y154000D02*
D03*
X1236000D02*
D03*
X1219000Y225111D02*
D03*
X1236000D02*
D03*
Y177250D02*
D03*
X1219000D02*
D03*
Y249000D02*
D03*
X1236000D02*
D03*
X1263750Y177250D02*
D03*
X1280750D02*
D03*
X1281000Y201222D02*
D03*
X1264000D02*
D03*
X1281000Y225111D02*
D03*
X1264000D02*
D03*
X1281000Y249000D02*
D03*
X1264000D02*
D03*
X763500Y519350D02*
D03*
X746500D02*
D03*
Y491124D02*
D03*
X763500D02*
D03*
Y468000D02*
D03*
X746500D02*
D03*
X772500Y368000D02*
D03*
X789500D02*
D03*
X772500Y346000D02*
D03*
X789500D02*
D03*
X772500Y324000D02*
D03*
X789500D02*
D03*
X822659Y285000D02*
D03*
X839659D02*
D03*
Y307000D02*
D03*
X822659D02*
D03*
X871500Y324000D02*
D03*
X888500D02*
D03*
X871500Y346000D02*
D03*
X888500D02*
D03*
X921659Y285000D02*
D03*
X938659D02*
D03*
Y307000D02*
D03*
X921659D02*
D03*
X968500Y368000D02*
D03*
X985500D02*
D03*
X968500Y346000D02*
D03*
X985500D02*
D03*
X1035659Y285000D02*
D03*
X1018659D02*
D03*
X1035659Y307000D02*
D03*
X1018659D02*
D03*
X968500Y324000D02*
D03*
X985500D02*
D03*
X556000Y491124D02*
D03*
X539000D02*
D03*
X540500Y577230D02*
D03*
X557500D02*
D03*
Y555000D02*
D03*
X540500D02*
D03*
X311500Y715000D02*
D03*
X294500D02*
D03*
Y736300D02*
D03*
X311500D02*
D03*
X294500Y758000D02*
D03*
X311500D02*
D03*
X507500Y706000D02*
D03*
X524500D02*
D03*
X733000D02*
D03*
X750000D02*
D03*
X410000Y712000D02*
D03*
X427000D02*
D03*
X472050Y810000D02*
D03*
X489050D02*
D03*
X696050D02*
D03*
X713050D02*
D03*
X1032000Y726000D02*
D03*
X1015000D02*
D03*
X1050250D02*
D03*
X1067250D02*
D03*
X1226500D02*
D03*
X1209500D02*
D03*
X1246250D02*
D03*
X1263250D02*
D03*
X835527Y176000D02*
D03*
X818527D02*
D03*
X935387D02*
D03*
X918387D02*
D03*
X1029387D02*
D03*
X1012387D02*
D03*
X789500D02*
D03*
X772500D02*
D03*
X888500D02*
D03*
X871500D02*
D03*
X985500D02*
D03*
X968500D02*
D03*
X871500Y368000D02*
D03*
X888500D02*
D03*
X1148000Y201222D02*
D03*
X1131000D02*
D03*
X1236250D02*
D03*
X1219250D02*
D03*
D15*
X1281000Y154000D02*
D03*
X1254000Y135000D02*
D03*
Y144500D02*
D03*
Y154000D02*
D03*
X1281000Y135000D02*
D03*
X1195000Y154000D02*
D03*
X1168000Y135000D02*
D03*
Y144500D02*
D03*
Y154000D02*
D03*
X1195000Y135000D02*
D03*
D16*
X1148000Y130000D02*
D03*
X1124000D02*
D03*
X1236000D02*
D03*
X1212000D02*
D03*
X793000Y303000D02*
D03*
X769000D02*
D03*
Y284000D02*
D03*
X793000D02*
D03*
X892000Y303000D02*
D03*
X868000D02*
D03*
Y284000D02*
D03*
X892000D02*
D03*
X965000D02*
D03*
X989000D02*
D03*
Y303000D02*
D03*
X965000D02*
D03*
X640750Y882720D02*
D03*
X664750D02*
D03*
X567550D02*
D03*
X543550D02*
D03*
X465050Y834720D02*
D03*
X489050D02*
D03*
X689050D02*
D03*
X713050D02*
D03*
X1248000Y882000D02*
D03*
X1272000D02*
D03*
X1175000D02*
D03*
X1151000D02*
D03*
X1053200Y882000D02*
D03*
X1077200D02*
D03*
X980000D02*
D03*
X956000D02*
D03*
X791550Y882720D02*
D03*
X767550D02*
D03*
X864750D02*
D03*
X888750D02*
D03*
X793000Y130000D02*
D03*
X769000D02*
D03*
X892000D02*
D03*
X868000D02*
D03*
X989000D02*
D03*
X965000D02*
D03*
D17*
X815000Y502350D02*
D03*
X837000D02*
D03*
Y519350D02*
D03*
X815000D02*
D03*
D18*
X787000D02*
D03*
Y502350D02*
D03*
X774500Y405000D02*
D03*
Y422000D02*
D03*
X555000Y453000D02*
D03*
Y470000D02*
D03*
X531230D02*
D03*
Y453000D02*
D03*
X186000Y726500D02*
D03*
Y709500D02*
D03*
Y762500D02*
D03*
Y745500D02*
D03*
X160500Y762500D02*
D03*
Y745500D02*
D03*
X135000Y709500D02*
D03*
Y726500D02*
D03*
X160500D02*
D03*
Y709500D02*
D03*
X135000Y745500D02*
D03*
Y762500D02*
D03*
X186000Y798690D02*
D03*
Y781690D02*
D03*
X160500Y798690D02*
D03*
Y781690D02*
D03*
X135000D02*
D03*
Y798690D02*
D03*
X342000Y693000D02*
D03*
Y676000D02*
D03*
X318250D02*
D03*
Y693000D02*
D03*
X294500D02*
D03*
Y676000D02*
D03*
X751000Y740000D02*
D03*
Y757000D02*
D03*
X410000Y693000D02*
D03*
Y676000D02*
D03*
X435050D02*
D03*
Y693000D02*
D03*
X785900Y680500D02*
D03*
Y663500D02*
D03*
X760815Y680500D02*
D03*
Y663500D02*
D03*
X735730Y680500D02*
D03*
Y663500D02*
D03*
X511730Y681500D02*
D03*
Y664500D02*
D03*
X536815Y681500D02*
D03*
Y664500D02*
D03*
X561900Y681500D02*
D03*
Y664500D02*
D03*
X660000Y757000D02*
D03*
Y740000D02*
D03*
X884000Y757000D02*
D03*
Y740000D02*
D03*
X548250Y783500D02*
D03*
Y800500D02*
D03*
X570610Y783500D02*
D03*
Y800500D02*
D03*
X592970D02*
D03*
Y783500D02*
D03*
X615330Y800500D02*
D03*
Y783500D02*
D03*
X637690D02*
D03*
Y800500D02*
D03*
X660050D02*
D03*
Y783500D02*
D03*
X772250D02*
D03*
Y800500D02*
D03*
X794610Y783500D02*
D03*
Y800500D02*
D03*
X816970D02*
D03*
Y783500D02*
D03*
X839330Y800500D02*
D03*
Y783500D02*
D03*
X861690D02*
D03*
Y800500D02*
D03*
X884050D02*
D03*
Y783500D02*
D03*
X986000Y743000D02*
D03*
Y726000D02*
D03*
X960700Y783500D02*
D03*
Y800500D02*
D03*
X983060Y783500D02*
D03*
Y800500D02*
D03*
X1005420D02*
D03*
Y783500D02*
D03*
X1027780D02*
D03*
Y800500D02*
D03*
X1050140Y783500D02*
D03*
Y800500D02*
D03*
X1072500D02*
D03*
Y783500D02*
D03*
Y765500D02*
D03*
Y748500D02*
D03*
X1268000Y765500D02*
D03*
Y748500D02*
D03*
X1182000Y743000D02*
D03*
Y726000D02*
D03*
X1268300Y800500D02*
D03*
Y783500D02*
D03*
X1245780D02*
D03*
Y800500D02*
D03*
X1223260D02*
D03*
Y783500D02*
D03*
X1200740Y800500D02*
D03*
Y783500D02*
D03*
X412000Y736300D02*
D03*
Y753300D02*
D03*
X333683Y783220D02*
D03*
Y800220D02*
D03*
X276950D02*
D03*
Y783220D02*
D03*
X305317Y800220D02*
D03*
Y783220D02*
D03*
X362050Y800220D02*
D03*
Y783220D02*
D03*
X858000Y502350D02*
D03*
Y519350D02*
D03*
X657874Y141500D02*
D03*
Y158500D02*
D03*
X602000Y141500D02*
D03*
Y158500D02*
D03*
X681000D02*
D03*
Y141500D02*
D03*
X1212000Y513660D02*
D03*
Y496660D02*
D03*
X1213000Y431340D02*
D03*
Y414340D02*
D03*
X1212000Y603500D02*
D03*
Y586500D02*
D03*
X1138000Y498320D02*
D03*
Y515320D02*
D03*
X1139000Y416000D02*
D03*
Y433000D02*
D03*
X1138000Y588160D02*
D03*
Y605160D02*
D03*
X526000Y740000D02*
D03*
Y757000D02*
D03*
X625000Y141500D02*
D03*
Y158500D02*
D03*
X225750Y438000D02*
D03*
Y421000D02*
D03*
X1155700Y783500D02*
D03*
Y800500D02*
D03*
X1178220Y783500D02*
D03*
Y800500D02*
D03*
D19*
X746500Y444000D02*
D03*
X774500D02*
D03*
D20*
X1027860Y132840D02*
D03*
Y153160D02*
D03*
X1005000Y143000D02*
D03*
X933860Y132840D02*
D03*
Y153160D02*
D03*
X911000Y143000D02*
D03*
X834000Y132840D02*
D03*
Y153160D02*
D03*
X811140Y143000D02*
D03*
X364163Y693160D02*
D03*
Y672840D02*
D03*
X387023Y683000D02*
D03*
X502860Y738340D02*
D03*
Y758660D02*
D03*
X480000Y748500D02*
D03*
X728000Y738340D02*
D03*
Y758660D02*
D03*
X705140Y748500D02*
D03*
X1164000Y515320D02*
D03*
Y495000D02*
D03*
X1186860Y505160D02*
D03*
X1165000Y433000D02*
D03*
Y412680D02*
D03*
X1187860Y422840D02*
D03*
X1164000Y605160D02*
D03*
Y584840D02*
D03*
X1186860Y595000D02*
D03*
D21*
X208000Y730000D02*
D03*
Y706000D02*
D03*
Y766000D02*
D03*
Y742000D02*
D03*
X208000Y802190D02*
D03*
Y778190D02*
D03*
D22*
X610122Y577230D02*
D03*
X617996D02*
D03*
X626124D02*
D03*
X633998D02*
D03*
X642126D02*
D03*
X650000D02*
D03*
X657874D02*
D03*
X666002D02*
D03*
X673876D02*
D03*
X682004D02*
D03*
X689878D02*
D03*
Y452770D02*
D03*
X682004D02*
D03*
X673876D02*
D03*
X666002D02*
D03*
X657874D02*
D03*
X650000D02*
D03*
X642126D02*
D03*
X633998D02*
D03*
X626124D02*
D03*
X617996D02*
D03*
X610122D02*
D03*
D23*
X712230Y554878D02*
D03*
Y547004D02*
D03*
Y538876D02*
D03*
Y531002D02*
D03*
Y522874D02*
D03*
Y515000D02*
D03*
Y507126D02*
D03*
Y498998D02*
D03*
Y491124D02*
D03*
Y482996D02*
D03*
Y475122D02*
D03*
X587770D02*
D03*
Y482996D02*
D03*
Y491124D02*
D03*
Y498998D02*
D03*
Y507126D02*
D03*
Y515000D02*
D03*
Y522874D02*
D03*
Y531002D02*
D03*
Y538876D02*
D03*
Y547004D02*
D03*
Y554878D02*
D03*
D24*
X600000Y756750D02*
D03*
X625400Y705950D02*
D03*
X638100D02*
D03*
X549200Y756750D02*
D03*
X612700Y705950D02*
D03*
X600000D02*
D03*
X587300D02*
D03*
X561900D02*
D03*
X549200D02*
D03*
X587300Y756750D02*
D03*
X612700D02*
D03*
X625400D02*
D03*
X638100D02*
D03*
X574600D02*
D03*
X561900D02*
D03*
X574600Y705950D02*
D03*
X824000Y757000D02*
D03*
X849400Y706200D02*
D03*
X862100D02*
D03*
X773200Y757000D02*
D03*
X836700Y706200D02*
D03*
X824000D02*
D03*
X811300D02*
D03*
X785900D02*
D03*
X773200D02*
D03*
X811300Y757000D02*
D03*
X836700D02*
D03*
X849400D02*
D03*
X862100D02*
D03*
X798600D02*
D03*
X785900D02*
D03*
X798600Y706200D02*
D03*
D25*
X433000Y874400D02*
D03*
X389000D02*
D03*
X275000Y414340D02*
D03*
X319000D02*
D03*
D26*
X1007750Y763750D02*
D03*
Y757250D02*
D03*
Y750750D02*
D03*
Y744250D02*
D03*
X1050250Y763750D02*
D03*
Y757250D02*
D03*
Y750750D02*
D03*
Y744250D02*
D03*
X1203750Y763750D02*
D03*
Y757250D02*
D03*
Y750750D02*
D03*
Y744250D02*
D03*
X1246250Y763750D02*
D03*
Y757250D02*
D03*
Y750750D02*
D03*
Y744250D02*
D03*
D27*
X156865Y277000D02*
D03*
Y294000D02*
D03*
Y311000D02*
D03*
Y328000D02*
D03*
Y345000D02*
D03*
D28*
X51135Y311000D02*
D03*
D29*
X205000Y201000D02*
D03*
X275000D02*
D03*
D30*
X259250Y366250D02*
D03*
Y269250D02*
D03*
D31*
X92865Y416000D02*
D03*
X156865D02*
D03*
D32*
X69743Y187000D02*
D03*
X156865D02*
D03*
D33*
X359472Y265660D02*
D03*
Y306300D02*
D03*
D34*
X820999Y328000D02*
D03*
X841319D02*
D03*
X831159Y350860D02*
D03*
X919999Y328000D02*
D03*
X940319D02*
D03*
X930159Y350860D02*
D03*
X1016999Y328000D02*
D03*
X1037319D02*
D03*
X1027159Y350860D02*
D03*
D45*
X343000Y131150D02*
D03*
Y201000D02*
D03*
D46*
X650000Y110000D02*
D03*
X625000Y89520D02*
D03*
Y109520D02*
D03*
X650000Y89520D02*
D03*
D47*
X697700Y62420D02*
D03*
X577300D02*
D03*
D48*
X478550Y882720D02*
D03*
X80000Y794020D02*
D03*
Y743220D02*
D03*
X105400Y768620D02*
D03*
X80000D02*
D03*
X105400Y794020D02*
D03*
X39000Y882720D02*
D03*
X1123000Y882000D02*
D03*
X926000D02*
D03*
X241000Y882720D02*
D03*
X1275400Y503001D02*
D03*
X1276400Y420681D02*
D03*
X1275400Y592841D02*
D03*
X702550Y882720D02*
D03*
X829000Y72599D02*
D03*
X928000D02*
D03*
X1025000D02*
D03*
X829000Y220001D02*
D03*
X928000D02*
D03*
X1025000D02*
D03*
X1179000Y68600D02*
D03*
X1268000D02*
D03*
X812000Y430600D02*
D03*
X862800D02*
D03*
X837400Y456000D02*
D03*
Y430600D02*
D03*
X812000Y456000D02*
D03*
D49*
X478550Y857320D02*
D03*
X105400Y743220D02*
D03*
X39000Y857320D02*
D03*
X1123000Y856600D02*
D03*
X926000D02*
D03*
X241000Y857320D02*
D03*
X702550D02*
D03*
X829000Y97999D02*
D03*
X928000D02*
D03*
X1025000D02*
D03*
X829000Y245401D02*
D03*
X928000D02*
D03*
X1025000D02*
D03*
X1179000Y94000D02*
D03*
X1268000D02*
D03*
D50*
X1123000Y72599D02*
D03*
X155000Y882720D02*
D03*
X179000D02*
D03*
X1224000Y882000D02*
D03*
X1029000D02*
D03*
X359000Y882720D02*
D03*
X304000D02*
D03*
X737550D02*
D03*
Y858720D02*
D03*
X513550Y882720D02*
D03*
Y858720D02*
D03*
X769000Y72599D02*
D03*
X868000D02*
D03*
X965000D02*
D03*
X769000Y221000D02*
D03*
X868000D02*
D03*
X965000D02*
D03*
X840550Y882720D02*
D03*
X616550D02*
D03*
X1212000Y72599D02*
D03*
X77000Y882720D02*
D03*
X101000D02*
D03*
D51*
X1147000Y72599D02*
D03*
X203000Y882720D02*
D03*
X1200000Y882000D02*
D03*
X1005000D02*
D03*
X335000Y882720D02*
D03*
X280000D02*
D03*
X793000Y72599D02*
D03*
X892000D02*
D03*
X989000D02*
D03*
X793000Y221000D02*
D03*
X892000D02*
D03*
X989000D02*
D03*
X816550Y882720D02*
D03*
X592550D02*
D03*
X1236000Y72599D02*
D03*
X125000Y882720D02*
D03*
D52*
X474500Y48750D02*
D03*
D53*
X427500D02*
D03*
X40681Y544000D02*
D03*
D54*
X474500Y157500D02*
D03*
X423500Y175500D02*
D03*
X151500Y497000D02*
D03*
X202500Y479000D02*
D03*
D55*
X1250000Y503001D02*
D03*
X1251000Y420681D02*
D03*
X1250000Y592841D02*
D03*
X862800Y456000D02*
D03*
D56*
X737550Y834720D02*
D03*
X513550D02*
D03*
D57*
X40681Y497000D02*
D03*
M02*
