G04 Layer_Color=16711935*
%FSLAX44Y44*%
%MOMM*%
G71*
G01*
G75*
%ADD79R,0.9524X1.5024*%
%ADD81R,1.0024X0.7524*%
%ADD83R,1.5024X0.9524*%
%ADD85R,1.1684X1.1684*%
%ADD86R,0.7524X1.0024*%
%ADD99R,1.1684X1.1684*%
%ADD101C,3.2004*%
%ADD102C,1.7524*%
%ADD103C,3.6524*%
%ADD104C,1.7526*%
%ADD105R,1.7526X1.7526*%
%ADD106C,1.9524*%
%ADD107R,1.9524X1.9524*%
%ADD108R,4.1524X4.1524*%
%ADD109C,4.1524*%
%ADD110C,2.1524*%
%ADD111R,1.7526X1.7526*%
%ADD112R,1.9524X1.9524*%
%ADD113R,4.1524X4.1524*%
%ADD114C,0.7524*%
%ADD115R,0.7400X1.1900*%
%ADD116R,0.9024X1.0524*%
D79*
X33811Y700000D02*
D03*
X50811D02*
D03*
X593500Y726000D02*
D03*
X610500D02*
D03*
X817250Y726000D02*
D03*
X834250D02*
D03*
X1044500Y726000D02*
D03*
X1061500D02*
D03*
X1179500Y809000D02*
D03*
X1196500D02*
D03*
X1243250Y724968D02*
D03*
X1260250D02*
D03*
X1178000Y121000D02*
D03*
X1195000D02*
D03*
X1264000D02*
D03*
X1281000D02*
D03*
X810000Y98000D02*
D03*
X793000D02*
D03*
X908500D02*
D03*
X891500D02*
D03*
X1006000D02*
D03*
X989000D02*
D03*
D81*
X311000Y853000D02*
D03*
X287000D02*
D03*
D83*
X39000Y819500D02*
D03*
Y802500D02*
D03*
X63000Y818000D02*
D03*
Y835000D02*
D03*
X122000Y818000D02*
D03*
Y835000D02*
D03*
X146000D02*
D03*
Y818000D02*
D03*
X264000Y767860D02*
D03*
Y784860D02*
D03*
X241000Y819500D02*
D03*
Y802500D02*
D03*
X310000D02*
D03*
Y819500D02*
D03*
X841000Y744500D02*
D03*
Y761500D02*
D03*
X1047250Y762500D02*
D03*
Y745500D02*
D03*
X1071000D02*
D03*
Y762500D02*
D03*
X1269000Y744000D02*
D03*
Y761000D02*
D03*
X1246000D02*
D03*
Y744000D02*
D03*
X1204000Y790000D02*
D03*
Y773000D02*
D03*
X1180000D02*
D03*
Y790000D02*
D03*
X1160000Y743500D02*
D03*
Y726500D02*
D03*
X1182000Y743000D02*
D03*
Y726000D02*
D03*
X643000Y497500D02*
D03*
Y480500D02*
D03*
X664000D02*
D03*
Y497500D02*
D03*
X829000Y284500D02*
D03*
Y301500D02*
D03*
X1025000Y288500D02*
D03*
Y305500D02*
D03*
X928000Y286500D02*
D03*
Y303500D02*
D03*
X673500Y106520D02*
D03*
Y89520D02*
D03*
X963000Y743000D02*
D03*
Y726000D02*
D03*
X926000Y819500D02*
D03*
Y802500D02*
D03*
X1006000Y790000D02*
D03*
Y773000D02*
D03*
X986000Y743000D02*
D03*
Y726000D02*
D03*
X1123000Y819500D02*
D03*
Y802500D02*
D03*
X369000Y784860D02*
D03*
Y767860D02*
D03*
X264000Y819500D02*
D03*
Y802500D02*
D03*
X287000D02*
D03*
Y819500D02*
D03*
X735730Y743000D02*
D03*
Y726000D02*
D03*
X536815Y743000D02*
D03*
Y726000D02*
D03*
X702550Y819500D02*
D03*
Y802500D02*
D03*
X760815Y743000D02*
D03*
Y726000D02*
D03*
X820000Y761500D02*
D03*
Y744500D02*
D03*
X478550Y819500D02*
D03*
Y802500D02*
D03*
X511730Y743000D02*
D03*
Y726000D02*
D03*
X619000Y744500D02*
D03*
Y761500D02*
D03*
X781000Y790000D02*
D03*
Y773000D02*
D03*
X557000Y790000D02*
D03*
Y773000D02*
D03*
X596250Y761500D02*
D03*
Y744500D02*
D03*
X308250Y727750D02*
D03*
Y744750D02*
D03*
D85*
X27951Y722000D02*
D03*
Y742320D02*
D03*
X50811Y732160D02*
D03*
X1226000Y782000D02*
D03*
Y802320D02*
D03*
X1248860Y792160D02*
D03*
D86*
X101000Y831000D02*
D03*
Y855000D02*
D03*
X241000Y784860D02*
D03*
Y760860D02*
D03*
X83000Y855000D02*
D03*
Y831000D02*
D03*
D99*
X49160Y761140D02*
D03*
X28840D02*
D03*
X39000Y784000D02*
D03*
X326840Y784860D02*
D03*
X347160D02*
D03*
X337000Y762000D02*
D03*
X287000Y784860D02*
D03*
X307320D02*
D03*
X297160Y762000D02*
D03*
X488710Y761140D02*
D03*
X468390D02*
D03*
X478550Y784000D02*
D03*
X712710Y761140D02*
D03*
X692390D02*
D03*
X702550Y784000D02*
D03*
X936160Y761140D02*
D03*
X915840D02*
D03*
X926000Y784000D02*
D03*
X1133160Y761140D02*
D03*
X1112840D02*
D03*
X1123000Y784000D02*
D03*
X1035160Y328000D02*
D03*
X1014840D02*
D03*
X1025000Y350860D02*
D03*
X839160Y328000D02*
D03*
X818840D02*
D03*
X829000Y350860D02*
D03*
X938160Y328000D02*
D03*
X917840D02*
D03*
X928000Y350860D02*
D03*
D101*
X343000Y131150D02*
D03*
Y201000D02*
D03*
D102*
X650000Y110000D02*
D03*
X625000Y89520D02*
D03*
Y109520D02*
D03*
X650000Y89520D02*
D03*
D103*
X697700Y62420D02*
D03*
X577300D02*
D03*
D104*
X478550Y882720D02*
D03*
X80000Y794020D02*
D03*
Y743220D02*
D03*
X105400Y768620D02*
D03*
X80000D02*
D03*
X105400Y794020D02*
D03*
X39000Y882720D02*
D03*
X1123000Y882000D02*
D03*
X926000D02*
D03*
X241000Y882720D02*
D03*
X1275400Y503001D02*
D03*
X1276400Y420681D02*
D03*
X1275400Y592841D02*
D03*
X702550Y882720D02*
D03*
X829000Y72599D02*
D03*
X928000D02*
D03*
X1025000D02*
D03*
X829000Y220001D02*
D03*
X928000D02*
D03*
X1025000D02*
D03*
X1179000Y68600D02*
D03*
X1268000D02*
D03*
X812000Y430600D02*
D03*
X862800D02*
D03*
X837400Y456000D02*
D03*
Y430600D02*
D03*
X812000Y456000D02*
D03*
D105*
X478550Y857320D02*
D03*
X105400Y743220D02*
D03*
X39000Y857320D02*
D03*
X1123000Y856600D02*
D03*
X926000D02*
D03*
X241000Y857320D02*
D03*
X702550D02*
D03*
X829000Y97999D02*
D03*
X928000D02*
D03*
X1025000D02*
D03*
X829000Y245401D02*
D03*
X928000D02*
D03*
X1025000D02*
D03*
X1179000Y94000D02*
D03*
X1268000D02*
D03*
D106*
X1123000Y72599D02*
D03*
X155000Y882720D02*
D03*
X179000D02*
D03*
X1224000Y882000D02*
D03*
X1029000D02*
D03*
X359000Y882720D02*
D03*
X304000D02*
D03*
X737550D02*
D03*
Y858720D02*
D03*
X513550Y882720D02*
D03*
Y858720D02*
D03*
X769000Y72599D02*
D03*
X868000D02*
D03*
X965000D02*
D03*
X769000Y221000D02*
D03*
X868000D02*
D03*
X965000D02*
D03*
X840550Y882720D02*
D03*
X616550D02*
D03*
X1212000Y72599D02*
D03*
X77000Y882720D02*
D03*
X101000D02*
D03*
D107*
X1147000Y72599D02*
D03*
X203000Y882720D02*
D03*
X1200000Y882000D02*
D03*
X1005000D02*
D03*
X335000Y882720D02*
D03*
X280000D02*
D03*
X793000Y72599D02*
D03*
X892000D02*
D03*
X989000D02*
D03*
X793000Y221000D02*
D03*
X892000D02*
D03*
X989000D02*
D03*
X816550Y882720D02*
D03*
X592550D02*
D03*
X1236000Y72599D02*
D03*
X125000Y882720D02*
D03*
D108*
X474500Y48750D02*
D03*
D109*
X427500D02*
D03*
X40681Y544000D02*
D03*
D110*
X474500Y157500D02*
D03*
X423500Y175500D02*
D03*
X151500Y497000D02*
D03*
X202500Y479000D02*
D03*
D111*
X1250000Y503001D02*
D03*
X1251000Y420681D02*
D03*
X1250000Y592841D02*
D03*
X862800Y456000D02*
D03*
D112*
X737550Y834720D02*
D03*
X513550D02*
D03*
D113*
X40681Y497000D02*
D03*
D114*
X650000Y471000D02*
D03*
X658874D02*
D03*
D115*
X576000Y753000D02*
D03*
X557000Y726000D02*
D03*
X566500D02*
D03*
X576000D02*
D03*
X557000Y753000D02*
D03*
X800000Y753000D02*
D03*
X781000Y726000D02*
D03*
X790500D02*
D03*
X800000D02*
D03*
X781000Y753000D02*
D03*
X1025000D02*
D03*
X1006000Y726000D02*
D03*
X1015500D02*
D03*
X1025000D02*
D03*
X1006000Y753000D02*
D03*
X1223000Y751968D02*
D03*
X1204000Y724968D02*
D03*
X1213500D02*
D03*
X1223000D02*
D03*
X1204000Y751968D02*
D03*
D116*
X589000Y109520D02*
D03*
X603000D02*
D03*
X589000Y89520D02*
D03*
X603000D02*
D03*
M02*
