G04*
G04 #@! TF.GenerationSoftware,Altium Limited,Altium Designer,18.1.9 (240)*
G04*
G04 Layer_Color=255*
%FSLAX44Y44*%
%MOMM*%
G71*
G01*
G75*
%ADD25R,0.8000X1.3500*%
%ADD26R,2.2000X2.1500*%
%ADD27R,1.3500X0.8000*%
%ADD28R,1.0160X1.0160*%
%ADD29R,0.8500X0.6000*%
%ADD30R,1.0160X1.0160*%
%ADD31R,2.0320X2.0320*%
%ADD32R,4.3942X2.4892*%
%ADD33R,4.4500X1.8000*%
%ADD34R,5.4000X2.9000*%
%ADD35R,2.2000X3.1500*%
%ADD36R,6.9900X8.3300*%
%ADD37R,2.1600X1.0700*%
%ADD38R,1.6000X0.4000*%
%ADD40R,0.4800X2.5400*%
%ADD41R,2.5400X0.4800*%
%ADD42R,0.6000X0.8500*%
%ADD43R,0.7500X1.6500*%
%ADD44R,1.4000X1.2000*%
%ADD46R,1.9050X0.6604*%
%ADD47R,2.1000X1.3000*%
%ADD88R,0.6604X1.9050*%
%ADD89R,1.0500X0.6000*%
%ADD97C,1.6002*%
%ADD98R,1.6002X1.6002*%
%ADD99C,2.0000*%
%ADD100R,4.0000X4.0000*%
%ADD101C,4.0000*%
%ADD102C,1.8000*%
%ADD103R,1.8000X1.8000*%
%ADD104C,1.7000*%
%ADD105C,3.5000*%
%ADD106R,1.6002X1.6002*%
%ADD107R,1.8000X1.8000*%
%ADD108R,4.0000X4.0000*%
%ADD109C,3.0480*%
D25*
X1219250Y201222D02*
D03*
X1236250D02*
D03*
X1131000D02*
D03*
X1148000D02*
D03*
X888500Y368000D02*
D03*
X871500D02*
D03*
X968500Y176000D02*
D03*
X985500D02*
D03*
X871500D02*
D03*
X888500D02*
D03*
X772500D02*
D03*
X789500D02*
D03*
X1012387D02*
D03*
X1029387D02*
D03*
X918387D02*
D03*
X935387D02*
D03*
X818527D02*
D03*
X835527D02*
D03*
X1263250Y726000D02*
D03*
X1246250D02*
D03*
X1209500D02*
D03*
X1226500D02*
D03*
X1067250D02*
D03*
X1050250D02*
D03*
X1015000D02*
D03*
X1032000D02*
D03*
X713050Y810000D02*
D03*
X696050D02*
D03*
X489050D02*
D03*
X472050D02*
D03*
X427000Y712000D02*
D03*
X410000D02*
D03*
X750000Y706000D02*
D03*
X733000D02*
D03*
X524500D02*
D03*
X507500D02*
D03*
X311500Y758000D02*
D03*
X294500D02*
D03*
X311500Y736300D02*
D03*
X294500D02*
D03*
Y715000D02*
D03*
X311500D02*
D03*
X540500Y555000D02*
D03*
X557500D02*
D03*
Y577230D02*
D03*
X540500D02*
D03*
X539000Y491124D02*
D03*
X556000D02*
D03*
X985500Y324000D02*
D03*
X968500D02*
D03*
X1018659Y307000D02*
D03*
X1035659D02*
D03*
X1018659Y285000D02*
D03*
X1035659D02*
D03*
X985500Y346000D02*
D03*
X968500D02*
D03*
X985500Y368000D02*
D03*
X968500D02*
D03*
X921659Y307000D02*
D03*
X938659D02*
D03*
Y285000D02*
D03*
X921659D02*
D03*
X888500Y346000D02*
D03*
X871500D02*
D03*
X888500Y324000D02*
D03*
X871500D02*
D03*
X822659Y307000D02*
D03*
X839659D02*
D03*
Y285000D02*
D03*
X822659D02*
D03*
X789500Y324000D02*
D03*
X772500D02*
D03*
X789500Y346000D02*
D03*
X772500D02*
D03*
X789500Y368000D02*
D03*
X772500D02*
D03*
X746500Y468000D02*
D03*
X763500D02*
D03*
Y491124D02*
D03*
X746500D02*
D03*
Y519350D02*
D03*
X763500D02*
D03*
X1264000Y249000D02*
D03*
X1281000D02*
D03*
X1264000Y225111D02*
D03*
X1281000D02*
D03*
X1264000Y201222D02*
D03*
X1281000D02*
D03*
X1280750Y177250D02*
D03*
X1263750D02*
D03*
X1236000Y249000D02*
D03*
X1219000D02*
D03*
Y177250D02*
D03*
X1236000D02*
D03*
Y225111D02*
D03*
X1219000D02*
D03*
X1236000Y154000D02*
D03*
X1219000D02*
D03*
X1178000Y249000D02*
D03*
X1195000D02*
D03*
X1178000Y225111D02*
D03*
X1195000D02*
D03*
X1178000Y201222D02*
D03*
X1195000D02*
D03*
X1194250Y177000D02*
D03*
X1177250D02*
D03*
X1148000Y249000D02*
D03*
X1131000D02*
D03*
Y177000D02*
D03*
X1148000D02*
D03*
Y225111D02*
D03*
X1131000D02*
D03*
X1148000Y154000D02*
D03*
X1131000D02*
D03*
X815000Y483000D02*
D03*
X832000D02*
D03*
D26*
X306000Y414250D02*
D03*
X262000D02*
D03*
X389000Y874400D02*
D03*
X433000D02*
D03*
D27*
X1178220Y800500D02*
D03*
Y783500D02*
D03*
X1155700Y800500D02*
D03*
Y783500D02*
D03*
X225750Y421000D02*
D03*
Y438000D02*
D03*
X625000Y193500D02*
D03*
Y176500D02*
D03*
X526000Y757000D02*
D03*
Y740000D02*
D03*
X1138000Y605160D02*
D03*
Y588160D02*
D03*
X1139000Y433000D02*
D03*
Y416000D02*
D03*
X1138000Y515320D02*
D03*
Y498320D02*
D03*
X1212000Y586500D02*
D03*
Y603500D02*
D03*
X1213000Y414340D02*
D03*
Y431340D02*
D03*
X1212000Y496660D02*
D03*
Y513660D02*
D03*
X681000Y176500D02*
D03*
Y193500D02*
D03*
X602000D02*
D03*
Y176500D02*
D03*
X657874Y193500D02*
D03*
Y176500D02*
D03*
X858000Y519350D02*
D03*
Y502350D02*
D03*
X362050Y783220D02*
D03*
Y800220D02*
D03*
X305317Y783220D02*
D03*
Y800220D02*
D03*
X276950Y783220D02*
D03*
Y800220D02*
D03*
X333683D02*
D03*
Y783220D02*
D03*
X412000Y753300D02*
D03*
Y736300D02*
D03*
X1200740Y783500D02*
D03*
Y800500D02*
D03*
X1223260Y783500D02*
D03*
Y800500D02*
D03*
X1245780D02*
D03*
Y783500D02*
D03*
X1268300D02*
D03*
Y800500D02*
D03*
X1182000Y726000D02*
D03*
Y743000D02*
D03*
X1268000Y748500D02*
D03*
Y765500D02*
D03*
X1072500Y748500D02*
D03*
Y765500D02*
D03*
Y783500D02*
D03*
Y800500D02*
D03*
X1050140D02*
D03*
Y783500D02*
D03*
X1027780Y800500D02*
D03*
Y783500D02*
D03*
X1005420D02*
D03*
Y800500D02*
D03*
X983060D02*
D03*
Y783500D02*
D03*
X960700Y800500D02*
D03*
Y783500D02*
D03*
X986000Y726000D02*
D03*
Y743000D02*
D03*
X884050Y783500D02*
D03*
Y800500D02*
D03*
X861690D02*
D03*
Y783500D02*
D03*
X839330D02*
D03*
Y800500D02*
D03*
X816970Y783500D02*
D03*
Y800500D02*
D03*
X794610D02*
D03*
Y783500D02*
D03*
X772250Y800500D02*
D03*
Y783500D02*
D03*
X660050D02*
D03*
Y800500D02*
D03*
X637690D02*
D03*
Y783500D02*
D03*
X615330D02*
D03*
Y800500D02*
D03*
X592970Y783500D02*
D03*
Y800500D02*
D03*
X570610D02*
D03*
Y783500D02*
D03*
X548250Y800500D02*
D03*
Y783500D02*
D03*
X884000Y740000D02*
D03*
Y757000D02*
D03*
X660000Y740000D02*
D03*
Y757000D02*
D03*
X561900Y664500D02*
D03*
Y681500D02*
D03*
X536815Y664500D02*
D03*
Y681500D02*
D03*
X511730Y664500D02*
D03*
Y681500D02*
D03*
X735730Y663500D02*
D03*
Y680500D02*
D03*
X760815Y663500D02*
D03*
Y680500D02*
D03*
X785900Y663500D02*
D03*
Y680500D02*
D03*
X435050Y693000D02*
D03*
Y676000D02*
D03*
X410000D02*
D03*
Y693000D02*
D03*
X751000Y757000D02*
D03*
Y740000D02*
D03*
X294500Y676000D02*
D03*
Y693000D02*
D03*
X318250D02*
D03*
Y676000D02*
D03*
X342000D02*
D03*
Y693000D02*
D03*
X135000Y798690D02*
D03*
Y781690D02*
D03*
X160500D02*
D03*
Y798690D02*
D03*
X186000Y781690D02*
D03*
Y798690D02*
D03*
X135000Y762500D02*
D03*
Y745500D02*
D03*
X160500Y709500D02*
D03*
Y726500D02*
D03*
X135000D02*
D03*
Y709500D02*
D03*
X160500Y745500D02*
D03*
Y762500D02*
D03*
X186000Y745500D02*
D03*
Y762500D02*
D03*
Y709500D02*
D03*
Y726500D02*
D03*
X531230Y453000D02*
D03*
Y470000D02*
D03*
X555000D02*
D03*
Y453000D02*
D03*
X774500Y422000D02*
D03*
Y405000D02*
D03*
X787000Y502350D02*
D03*
Y519350D02*
D03*
D28*
X1027159Y350860D02*
D03*
X1037319Y328000D02*
D03*
X1016999D02*
D03*
X930159Y350860D02*
D03*
X940319Y328000D02*
D03*
X919999D02*
D03*
X831159Y350860D02*
D03*
X841319Y328000D02*
D03*
X820999D02*
D03*
D29*
X965000Y130000D02*
D03*
X989000D02*
D03*
X868000D02*
D03*
X892000D02*
D03*
X769000D02*
D03*
X793000D02*
D03*
X888750Y882720D02*
D03*
X864750D02*
D03*
X767550D02*
D03*
X791550D02*
D03*
X956000Y882000D02*
D03*
X980000D02*
D03*
X1077200D02*
D03*
X1053200D02*
D03*
X1151000Y882000D02*
D03*
X1175000D02*
D03*
X1272000D02*
D03*
X1248000D02*
D03*
X713050Y834720D02*
D03*
X689050D02*
D03*
X489050D02*
D03*
X465050D02*
D03*
X543550Y882720D02*
D03*
X567550D02*
D03*
X664750D02*
D03*
X640750D02*
D03*
X965000Y303000D02*
D03*
X989000D02*
D03*
Y284000D02*
D03*
X965000D02*
D03*
X892000D02*
D03*
X868000D02*
D03*
Y303000D02*
D03*
X892000D02*
D03*
X793000Y284000D02*
D03*
X769000D02*
D03*
Y303000D02*
D03*
X793000D02*
D03*
X1212000Y130000D02*
D03*
X1236000D02*
D03*
X1124000D02*
D03*
X1148000D02*
D03*
D30*
X1186860Y595000D02*
D03*
X1164000Y584840D02*
D03*
Y605160D02*
D03*
X1187860Y422840D02*
D03*
X1165000Y412680D02*
D03*
Y433000D02*
D03*
X1186860Y505160D02*
D03*
X1164000Y495000D02*
D03*
Y515320D02*
D03*
X705140Y748500D02*
D03*
X728000Y758660D02*
D03*
Y738340D02*
D03*
X480000Y748500D02*
D03*
X502860Y758660D02*
D03*
Y738340D02*
D03*
X387023Y683000D02*
D03*
X364163Y672840D02*
D03*
Y693160D02*
D03*
X811140Y143000D02*
D03*
X834000Y153160D02*
D03*
Y132840D02*
D03*
X911000Y143000D02*
D03*
X933860Y153160D02*
D03*
Y132840D02*
D03*
X1005000Y143000D02*
D03*
X1027860Y153160D02*
D03*
Y132840D02*
D03*
D31*
X338972Y306300D02*
D03*
Y265660D02*
D03*
D32*
X156865Y187000D02*
D03*
X69743D02*
D03*
D33*
X156865Y416000D02*
D03*
X92865D02*
D03*
D34*
X246000Y270000D02*
D03*
Y367000D02*
D03*
D35*
X275000Y201000D02*
D03*
X205000D02*
D03*
D36*
X51135Y311000D02*
D03*
D37*
X156865Y345000D02*
D03*
Y328000D02*
D03*
Y311000D02*
D03*
Y294000D02*
D03*
Y277000D02*
D03*
D38*
X1246250Y744250D02*
D03*
Y750750D02*
D03*
Y757250D02*
D03*
Y763750D02*
D03*
X1203750Y744250D02*
D03*
Y750750D02*
D03*
Y757250D02*
D03*
Y763750D02*
D03*
X1050250Y744250D02*
D03*
Y750750D02*
D03*
Y757250D02*
D03*
Y763750D02*
D03*
X1007750Y744250D02*
D03*
Y750750D02*
D03*
Y757250D02*
D03*
Y763750D02*
D03*
D40*
X610122Y452770D02*
D03*
X617996D02*
D03*
X626124D02*
D03*
X633998D02*
D03*
X642126D02*
D03*
X650000D02*
D03*
X657874D02*
D03*
X666002D02*
D03*
X673876D02*
D03*
X682004D02*
D03*
X689878D02*
D03*
Y577230D02*
D03*
X682004D02*
D03*
X673876D02*
D03*
X666002D02*
D03*
X657874D02*
D03*
X650000D02*
D03*
X642126D02*
D03*
X633998D02*
D03*
X626124D02*
D03*
X617996D02*
D03*
X610122D02*
D03*
D41*
X587770Y554878D02*
D03*
Y547004D02*
D03*
Y538876D02*
D03*
Y531002D02*
D03*
Y522874D02*
D03*
Y515000D02*
D03*
Y507126D02*
D03*
Y498998D02*
D03*
Y491124D02*
D03*
Y482996D02*
D03*
Y475122D02*
D03*
X712230D02*
D03*
Y482996D02*
D03*
Y491124D02*
D03*
Y498998D02*
D03*
Y507126D02*
D03*
Y515000D02*
D03*
Y522874D02*
D03*
Y531002D02*
D03*
Y538876D02*
D03*
Y547004D02*
D03*
Y554878D02*
D03*
D42*
X208000Y778190D02*
D03*
Y802190D02*
D03*
X208000Y742000D02*
D03*
Y766000D02*
D03*
Y706000D02*
D03*
Y730000D02*
D03*
D43*
X774500Y444000D02*
D03*
X746500D02*
D03*
D44*
X815000Y519350D02*
D03*
X837000D02*
D03*
Y502350D02*
D03*
X815000D02*
D03*
D46*
X384483Y761700D02*
D03*
Y749000D02*
D03*
X333683Y736300D02*
D03*
Y723600D02*
D03*
X384483Y736300D02*
D03*
Y723600D02*
D03*
X333683Y761700D02*
D03*
Y749000D02*
D03*
D47*
X1038750Y480000D02*
D03*
X947750D02*
D03*
Y526000D02*
D03*
X1038750D02*
D03*
D88*
X798600Y706200D02*
D03*
X785900Y757000D02*
D03*
X798600D02*
D03*
X862100D02*
D03*
X849400D02*
D03*
X836700D02*
D03*
X811300D02*
D03*
X773200Y706200D02*
D03*
X785900D02*
D03*
X811300D02*
D03*
X824000D02*
D03*
X836700D02*
D03*
X773200Y757000D02*
D03*
X862100Y706200D02*
D03*
X849400D02*
D03*
X824000Y757000D02*
D03*
X574600Y705950D02*
D03*
X561900Y756750D02*
D03*
X574600D02*
D03*
X638100D02*
D03*
X625400D02*
D03*
X612700D02*
D03*
X587300D02*
D03*
X549200Y705950D02*
D03*
X561900D02*
D03*
X587300D02*
D03*
X600000D02*
D03*
X612700D02*
D03*
X549200Y756750D02*
D03*
X638100Y705950D02*
D03*
X625400D02*
D03*
X600000Y756750D02*
D03*
D89*
X1195000Y135000D02*
D03*
X1168000Y154000D02*
D03*
Y144500D02*
D03*
Y135000D02*
D03*
X1195000Y154000D02*
D03*
X1281000Y135000D02*
D03*
X1254000Y154000D02*
D03*
Y144500D02*
D03*
Y135000D02*
D03*
X1281000Y154000D02*
D03*
D97*
X812000Y456000D02*
D03*
X837400Y430600D02*
D03*
Y456000D02*
D03*
X862800Y430600D02*
D03*
X812000D02*
D03*
X1268000Y68600D02*
D03*
X1179000D02*
D03*
X1025000Y220001D02*
D03*
X928000D02*
D03*
X829000D02*
D03*
X1025000Y72599D02*
D03*
X928000D02*
D03*
X829000D02*
D03*
X702550Y882720D02*
D03*
X1275400Y592841D02*
D03*
X1276400Y420681D02*
D03*
X1275400Y503001D02*
D03*
X241000Y882720D02*
D03*
X926000Y882000D02*
D03*
X1123000D02*
D03*
X39000Y882720D02*
D03*
X105400Y794020D02*
D03*
X80000Y768620D02*
D03*
X105400D02*
D03*
X80000Y743220D02*
D03*
Y794020D02*
D03*
X478550Y882720D02*
D03*
D98*
X862800Y456000D02*
D03*
X1250000Y592841D02*
D03*
X1251000Y420681D02*
D03*
X1250000Y503001D02*
D03*
D99*
X202500Y479000D02*
D03*
X151500Y497000D02*
D03*
X159000Y91500D02*
D03*
X141000Y40500D02*
D03*
D100*
X40681Y506332D02*
D03*
D101*
Y553332D02*
D03*
X45000Y50000D02*
D03*
D102*
X101000Y882720D02*
D03*
X77000D02*
D03*
X1212000Y72599D02*
D03*
X616550Y882720D02*
D03*
X840550D02*
D03*
X965000Y221000D02*
D03*
X868000D02*
D03*
X769000D02*
D03*
X965000Y72599D02*
D03*
X868000D02*
D03*
X769000D02*
D03*
X513550Y858720D02*
D03*
Y882720D02*
D03*
X737550Y858720D02*
D03*
Y882720D02*
D03*
X304000D02*
D03*
X359000D02*
D03*
X1029000Y882000D02*
D03*
X1224000D02*
D03*
X179000Y882720D02*
D03*
X155000D02*
D03*
X1123000Y72599D02*
D03*
D103*
X125000Y882720D02*
D03*
X1236000Y72599D02*
D03*
X592550Y882720D02*
D03*
X816550D02*
D03*
X989000Y221000D02*
D03*
X892000D02*
D03*
X793000D02*
D03*
X989000Y72599D02*
D03*
X892000D02*
D03*
X793000D02*
D03*
X280000Y882720D02*
D03*
X335000D02*
D03*
X1005000Y882000D02*
D03*
X1200000D02*
D03*
X203000Y882720D02*
D03*
X1147000Y72599D02*
D03*
D104*
X650000Y150480D02*
D03*
X625000Y130000D02*
D03*
Y150000D02*
D03*
X650000Y130000D02*
D03*
D105*
X697700Y102900D02*
D03*
X577300D02*
D03*
D106*
X1268000Y94000D02*
D03*
X1179000D02*
D03*
X1025000Y245401D02*
D03*
X928000D02*
D03*
X829000D02*
D03*
X1025000Y97999D02*
D03*
X928000D02*
D03*
X829000D02*
D03*
X702550Y857320D02*
D03*
X241000D02*
D03*
X926000Y856600D02*
D03*
X1123000D02*
D03*
X39000Y857320D02*
D03*
X105400Y743220D02*
D03*
X478550Y857320D02*
D03*
D107*
X513550Y834720D02*
D03*
X737550D02*
D03*
D108*
X92000Y50000D02*
D03*
D109*
X287000Y57000D02*
D03*
X217150D02*
D03*
M02*
