G04*
G04 #@! TF.GenerationSoftware,Altium Limited,Altium Designer,18.1.9 (240)*
G04*
G04 Layer_Color=16711935*
%FSLAX44Y44*%
%MOMM*%
G71*
G01*
G75*
%ADD48R,0.9524X1.5024*%
%ADD50R,1.5024X0.9524*%
%ADD51R,1.1684X1.1684*%
%ADD52R,1.0024X0.7524*%
%ADD53R,1.1684X1.1684*%
%ADD65R,0.7524X1.0024*%
%ADD72C,1.7526*%
%ADD73R,1.7526X1.7526*%
%ADD74C,2.1524*%
%ADD75R,4.1524X4.1524*%
%ADD76C,4.1524*%
%ADD77C,1.9524*%
%ADD78R,1.9524X1.9524*%
%ADD79C,1.8524*%
%ADD80C,3.6524*%
%ADD81R,1.7526X1.7526*%
%ADD82R,1.9524X1.9524*%
%ADD83R,4.1524X4.1524*%
%ADD84C,0.1524*%
%ADD85C,3.2004*%
%ADD86C,0.7524*%
%ADD114R,0.9024X1.0524*%
%ADD115R,0.7400X1.1900*%
D48*
X989000Y98000D02*
D03*
X1006000D02*
D03*
X891500D02*
D03*
X908500D02*
D03*
X793000D02*
D03*
X810000D02*
D03*
X669500Y130000D02*
D03*
X686500D02*
D03*
X1281000Y121000D02*
D03*
X1264000D02*
D03*
X1195000D02*
D03*
X1178000D02*
D03*
X1260250Y724968D02*
D03*
X1243250D02*
D03*
X1196500Y809000D02*
D03*
X1179500D02*
D03*
X1061500Y726000D02*
D03*
X1044500D02*
D03*
X834250Y726000D02*
D03*
X817250D02*
D03*
X610500Y726000D02*
D03*
X593500D02*
D03*
X50811Y700000D02*
D03*
X33811D02*
D03*
D50*
X308250Y744750D02*
D03*
Y727750D02*
D03*
X596250Y744500D02*
D03*
Y761500D02*
D03*
X557000Y773000D02*
D03*
Y790000D02*
D03*
X781000Y773000D02*
D03*
Y790000D02*
D03*
X619000Y761500D02*
D03*
Y744500D02*
D03*
X511730Y726000D02*
D03*
Y743000D02*
D03*
X478550Y802500D02*
D03*
Y819500D02*
D03*
X820000Y744500D02*
D03*
Y761500D02*
D03*
X760815Y726000D02*
D03*
Y743000D02*
D03*
X702550Y802500D02*
D03*
Y819500D02*
D03*
X536815Y726000D02*
D03*
Y743000D02*
D03*
X735730Y726000D02*
D03*
Y743000D02*
D03*
X287000Y819500D02*
D03*
Y802500D02*
D03*
X264000D02*
D03*
Y819500D02*
D03*
X369000Y767860D02*
D03*
Y784860D02*
D03*
X1123000Y802500D02*
D03*
Y819500D02*
D03*
X986000Y726000D02*
D03*
Y743000D02*
D03*
X1006000Y773000D02*
D03*
Y790000D02*
D03*
X926000Y802500D02*
D03*
Y819500D02*
D03*
X963000Y726000D02*
D03*
Y743000D02*
D03*
X928000Y303500D02*
D03*
Y286500D02*
D03*
X1025000Y305500D02*
D03*
Y288500D02*
D03*
X829000Y301500D02*
D03*
Y284500D02*
D03*
X664000Y497500D02*
D03*
Y480500D02*
D03*
X643000D02*
D03*
Y497500D02*
D03*
X1182000Y726000D02*
D03*
Y743000D02*
D03*
X1160000Y726500D02*
D03*
Y743500D02*
D03*
X1180000Y790000D02*
D03*
Y773000D02*
D03*
X1204000D02*
D03*
Y790000D02*
D03*
X1246000Y744000D02*
D03*
Y761000D02*
D03*
X1269000D02*
D03*
Y744000D02*
D03*
X1071000Y762500D02*
D03*
Y745500D02*
D03*
X1047250D02*
D03*
Y762500D02*
D03*
X841000Y761500D02*
D03*
Y744500D02*
D03*
X310000Y819500D02*
D03*
Y802500D02*
D03*
X241000D02*
D03*
Y819500D02*
D03*
X264000Y784860D02*
D03*
Y767860D02*
D03*
X146000Y818000D02*
D03*
Y835000D02*
D03*
X122000D02*
D03*
Y818000D02*
D03*
X63000Y835000D02*
D03*
Y818000D02*
D03*
X39000Y802500D02*
D03*
Y819500D02*
D03*
D51*
X928000Y350860D02*
D03*
X917840Y328000D02*
D03*
X938160D02*
D03*
X829000Y350860D02*
D03*
X818840Y328000D02*
D03*
X839160D02*
D03*
X1025000Y350860D02*
D03*
X1014840Y328000D02*
D03*
X1035160D02*
D03*
X1123000Y784000D02*
D03*
X1112840Y761140D02*
D03*
X1133160D02*
D03*
X926000Y784000D02*
D03*
X915840Y761140D02*
D03*
X936160D02*
D03*
X702550Y784000D02*
D03*
X692390Y761140D02*
D03*
X712710D02*
D03*
X478550Y784000D02*
D03*
X468390Y761140D02*
D03*
X488710D02*
D03*
X297160Y762000D02*
D03*
X307320Y784860D02*
D03*
X287000D02*
D03*
X337000Y762000D02*
D03*
X347160Y784860D02*
D03*
X326840D02*
D03*
X39000Y784000D02*
D03*
X28840Y761140D02*
D03*
X49160D02*
D03*
D52*
X287000Y853000D02*
D03*
X311000D02*
D03*
D53*
X1248860Y792160D02*
D03*
X1226000Y802320D02*
D03*
Y782000D02*
D03*
X50811Y732160D02*
D03*
X27951Y742320D02*
D03*
Y722000D02*
D03*
D65*
X83000Y831000D02*
D03*
Y855000D02*
D03*
X241000Y760860D02*
D03*
Y784860D02*
D03*
X101000Y855000D02*
D03*
Y831000D02*
D03*
D72*
X812000Y456000D02*
D03*
X837400Y430600D02*
D03*
Y456000D02*
D03*
X862800Y430600D02*
D03*
X812000D02*
D03*
X1268000Y68600D02*
D03*
X1179000D02*
D03*
X1025000Y220001D02*
D03*
X928000D02*
D03*
X829000D02*
D03*
X1025000Y72599D02*
D03*
X928000D02*
D03*
X829000D02*
D03*
X702550Y882720D02*
D03*
X1275400Y592841D02*
D03*
X1276400Y420681D02*
D03*
X1275400Y503001D02*
D03*
X241000Y882720D02*
D03*
X926000Y882000D02*
D03*
X1123000D02*
D03*
X39000Y882720D02*
D03*
X105400Y794020D02*
D03*
X80000Y768620D02*
D03*
X105400D02*
D03*
X80000Y743220D02*
D03*
Y794020D02*
D03*
X478550Y882720D02*
D03*
D73*
X862800Y456000D02*
D03*
X1250000Y592841D02*
D03*
X1251000Y420681D02*
D03*
X1250000Y503001D02*
D03*
D74*
X202500Y479000D02*
D03*
X151500Y497000D02*
D03*
X159000Y91500D02*
D03*
X141000Y40500D02*
D03*
D75*
X40681Y506332D02*
D03*
D76*
Y553332D02*
D03*
X45000Y50000D02*
D03*
D77*
X101000Y882720D02*
D03*
X77000D02*
D03*
X1212000Y72599D02*
D03*
X616550Y882720D02*
D03*
X840550D02*
D03*
X965000Y221000D02*
D03*
X868000D02*
D03*
X769000D02*
D03*
X965000Y72599D02*
D03*
X868000D02*
D03*
X769000D02*
D03*
X513550Y858720D02*
D03*
Y882720D02*
D03*
X737550Y858720D02*
D03*
Y882720D02*
D03*
X304000D02*
D03*
X359000D02*
D03*
X1029000Y882000D02*
D03*
X1224000D02*
D03*
X179000Y882720D02*
D03*
X155000D02*
D03*
X1123000Y72599D02*
D03*
D78*
X125000Y882720D02*
D03*
X1236000Y72599D02*
D03*
X592550Y882720D02*
D03*
X816550D02*
D03*
X989000Y221000D02*
D03*
X892000D02*
D03*
X793000D02*
D03*
X989000Y72599D02*
D03*
X892000D02*
D03*
X793000D02*
D03*
X280000Y882720D02*
D03*
X335000D02*
D03*
X1005000Y882000D02*
D03*
X1200000D02*
D03*
X203000Y882720D02*
D03*
X1147000Y72599D02*
D03*
D79*
X650000Y150480D02*
D03*
X625000Y130000D02*
D03*
Y150000D02*
D03*
X650000Y130000D02*
D03*
D80*
X697700Y102900D02*
D03*
X577300D02*
D03*
D81*
X1268000Y94000D02*
D03*
X1179000D02*
D03*
X1025000Y245401D02*
D03*
X928000D02*
D03*
X829000D02*
D03*
X1025000Y97999D02*
D03*
X928000D02*
D03*
X829000D02*
D03*
X702550Y857320D02*
D03*
X241000D02*
D03*
X926000Y856600D02*
D03*
X1123000D02*
D03*
X39000Y857320D02*
D03*
X105400Y743220D02*
D03*
X478550Y857320D02*
D03*
D82*
X513550Y834720D02*
D03*
X737550D02*
D03*
D83*
X92000Y50000D02*
D03*
D84*
X217815Y651500D02*
D03*
X1067815D02*
D03*
X225000Y130000D02*
D03*
X1075000D02*
D03*
D85*
X287000Y57000D02*
D03*
X217150D02*
D03*
D86*
X658874Y471000D02*
D03*
X650000D02*
D03*
D114*
X603000Y130000D02*
D03*
X589000D02*
D03*
X603000Y150000D02*
D03*
X589000D02*
D03*
D115*
X1204000Y751968D02*
D03*
X1223000Y724968D02*
D03*
X1213500D02*
D03*
X1204000D02*
D03*
X1223000Y751968D02*
D03*
X1006000Y753000D02*
D03*
X1025000Y726000D02*
D03*
X1015500D02*
D03*
X1006000D02*
D03*
X1025000Y753000D02*
D03*
X781000D02*
D03*
X800000Y726000D02*
D03*
X790500D02*
D03*
X781000D02*
D03*
X800000Y753000D02*
D03*
X557000Y753000D02*
D03*
X576000Y726000D02*
D03*
X566500D02*
D03*
X557000D02*
D03*
X576000Y753000D02*
D03*
M02*
