G04 Layer_Color=32896*
%FSLAX44Y44*%
%MOMM*%
G71*
G01*
G75*
%ADD11C,0.3810*%
%ADD37C,0.3048*%
%ADD40C,0.5080*%
%ADD62C,0.1524*%
%ADD68C,0.1500*%
D11*
X667190Y318143D02*
Y338456D01*
X657033D01*
X653648Y335070D01*
Y328299D01*
X657033Y324914D01*
X667190D01*
X646877Y331685D02*
Y318143D01*
Y324914D01*
X643491Y328299D01*
X640106Y331685D01*
X636720D01*
X623178Y318143D02*
X616406D01*
X613021Y321528D01*
Y328299D01*
X616406Y331685D01*
X623178D01*
X626563Y328299D01*
Y321528D01*
X623178Y318143D01*
X592707Y338456D02*
Y318143D01*
X602864D01*
X606250Y321528D01*
Y328299D01*
X602864Y331685D01*
X592707D01*
X585936D02*
Y321528D01*
X582551Y318143D01*
X572394D01*
Y331685D01*
X552081D02*
X562237D01*
X565623Y328299D01*
Y321528D01*
X562237Y318143D01*
X552081D01*
X535153D02*
X541924D01*
X545309Y321528D01*
Y328299D01*
X541924Y331685D01*
X535153D01*
X531767Y328299D01*
Y324914D01*
X545309D01*
X511454Y338456D02*
Y318143D01*
X521610D01*
X524996Y321528D01*
Y328299D01*
X521610Y331685D01*
X511454D01*
X484369Y338456D02*
Y318143D01*
X474212D01*
X470827Y321528D01*
Y324914D01*
X474212Y328299D01*
X484369D01*
X474212D01*
X470827Y331685D01*
Y335070D01*
X474212Y338456D01*
X484369D01*
X464056Y331685D02*
Y321528D01*
X460670Y318143D01*
X450513D01*
Y314757D01*
X453899Y311371D01*
X457285D01*
X450513Y318143D02*
Y331685D01*
X443742D02*
X440357D01*
Y328299D01*
X443742D01*
Y331685D01*
Y321528D02*
X440357D01*
Y318143D01*
X443742D01*
Y321528D01*
X653648Y298165D02*
X660419D01*
X657033D01*
Y281237D01*
X660419Y277851D01*
X663804D01*
X667190Y281237D01*
X643491Y277851D02*
X636720D01*
X633334Y281237D01*
Y288008D01*
X636720Y291394D01*
X643491D01*
X646877Y288008D01*
Y281237D01*
X643491Y277851D01*
X623178Y291394D02*
X616406D01*
X613021Y288008D01*
Y277851D01*
X623178D01*
X626563Y281237D01*
X623178Y284622D01*
X613021D01*
X602864Y277851D02*
X596093D01*
X592707Y281237D01*
Y288008D01*
X596093Y291394D01*
X602864D01*
X606250Y288008D01*
Y281237D01*
X602864Y277851D01*
X552081Y294779D02*
X555466Y298165D01*
X562237D01*
X565623Y294779D01*
Y281237D01*
X562237Y277851D01*
X555466D01*
X552081Y281237D01*
Y288008D01*
X558852D01*
X545309Y291394D02*
Y281237D01*
X541924Y277851D01*
X531767D01*
Y291394D01*
X524996Y277851D02*
X518225D01*
X521610D01*
Y291394D01*
X524996D01*
X508068Y277851D02*
Y291394D01*
X504683D01*
X501297Y288008D01*
Y277851D01*
Y288008D01*
X497911Y291394D01*
X494526Y288008D01*
Y277851D01*
X484369Y291394D02*
X477598D01*
X474212Y288008D01*
Y277851D01*
X484369D01*
X487755Y281237D01*
X484369Y284622D01*
X474212D01*
X467441Y291394D02*
Y277851D01*
Y284622D01*
X464056Y288008D01*
X460670Y291394D01*
X457285D01*
X443742D02*
X436971D01*
X433586Y288008D01*
Y277851D01*
X443742D01*
X447128Y281237D01*
X443742Y284622D01*
X433586D01*
X416658Y277851D02*
X423429D01*
X426814Y281237D01*
Y288008D01*
X423429Y291394D01*
X416658D01*
X413272Y288008D01*
Y284622D01*
X426814D01*
X406501Y277851D02*
X396344D01*
X392959Y281237D01*
X396344Y284622D01*
X403116D01*
X406501Y288008D01*
X403116Y291394D01*
X392959D01*
X667190Y237560D02*
X663804D01*
X660419Y240946D01*
Y257873D01*
X643491Y244331D02*
X636720D01*
X633334Y247717D01*
Y254488D01*
X636720Y257873D01*
X643491D01*
X646877Y254488D01*
Y247717D01*
X643491Y244331D01*
X623178Y257873D02*
X616406D01*
X613021Y254488D01*
Y244331D01*
X623178D01*
X626563Y247717D01*
X623178Y251102D01*
X613021D01*
X602864Y244331D02*
X596093D01*
X592707Y247717D01*
Y254488D01*
X596093Y257873D01*
X602864D01*
X606250Y254488D01*
Y247717D01*
X602864Y244331D01*
X579165Y237560D02*
X575780D01*
X572394Y240946D01*
Y257873D01*
X582551D01*
X585936Y254488D01*
Y247717D01*
X582551Y244331D01*
X572394D01*
X565623Y257873D02*
Y247717D01*
X562237Y244331D01*
X552081D01*
Y257873D01*
X545309Y244331D02*
X538538D01*
X541924D01*
Y257873D01*
X545309D01*
X528382Y244331D02*
Y257873D01*
X524996D01*
X521610Y254488D01*
Y244331D01*
Y254488D01*
X518225Y257873D01*
X514839Y254488D01*
Y244331D01*
X504683Y257873D02*
X497911D01*
X494526Y254488D01*
Y244331D01*
X504683D01*
X508068Y247717D01*
X504683Y251102D01*
X494526D01*
X487755Y257873D02*
Y244331D01*
Y251102D01*
X484369Y254488D01*
X480984Y257873D01*
X477598D01*
X464056D02*
X457285D01*
X453899Y254488D01*
Y244331D01*
X464056D01*
X467441Y247717D01*
X464056Y251102D01*
X453899D01*
X436971Y244331D02*
X443742D01*
X447128Y247717D01*
Y254488D01*
X443742Y257873D01*
X436971D01*
X433586Y254488D01*
Y251102D01*
X447128D01*
X426814Y244331D02*
X416658D01*
X413272Y247717D01*
X416658Y251102D01*
X423429D01*
X426814Y254488D01*
X423429Y257873D01*
X413272D01*
X406501Y261259D02*
X403116Y264645D01*
X396344D01*
X392959Y261259D01*
Y257873D01*
X396344Y254488D01*
X399730D01*
X396344D01*
X392959Y251102D01*
Y247717D01*
X396344Y244331D01*
X403116D01*
X406501Y247717D01*
X386188Y244331D02*
X379417D01*
X382802D01*
Y264645D01*
X386188Y261259D01*
X359103Y251102D02*
Y254488D01*
X362489D01*
Y251102D01*
X359103D01*
X355718Y254488D01*
Y261259D01*
X359103Y264645D01*
X365874D01*
X369260Y261259D01*
Y247717D01*
X365874Y244331D01*
X355718D01*
X342175Y237560D02*
X338790D01*
X335404Y240946D01*
Y257873D01*
X345561D01*
X348946Y254488D01*
Y247717D01*
X345561Y244331D01*
X335404D01*
X328633D02*
Y257873D01*
X325247D01*
X321862Y254488D01*
Y244331D01*
Y254488D01*
X318476Y257873D01*
X315091Y254488D01*
Y244331D01*
X304934Y257873D02*
X298163D01*
X294777Y254488D01*
Y244331D01*
X304934D01*
X308320Y247717D01*
X304934Y251102D01*
X294777D01*
X288006Y244331D02*
X281235D01*
X284621D01*
Y257873D01*
X288006D01*
X271078Y244331D02*
X264307D01*
X267693D01*
Y264645D01*
X271078D01*
X254150Y244331D02*
Y247717D01*
X250765D01*
Y244331D01*
X254150D01*
X223680Y257873D02*
X233837D01*
X237223Y254488D01*
Y247717D01*
X233837Y244331D01*
X223680D01*
X213524D02*
X206752D01*
X203367Y247717D01*
Y254488D01*
X206752Y257873D01*
X213524D01*
X216909Y254488D01*
Y247717D01*
X213524Y244331D01*
X196596D02*
Y257873D01*
X193210D01*
X189825Y254488D01*
Y244331D01*
Y254488D01*
X186439Y257873D01*
X183053Y254488D01*
Y244331D01*
X413033Y456123D02*
X419804D01*
X423190Y452738D01*
Y439196D01*
X419804Y435810D01*
X413033D01*
X409648Y439196D01*
Y452738D01*
X413033Y456123D01*
X402877Y449352D02*
Y439196D01*
X399491Y435810D01*
X389334D01*
Y449352D01*
X379178Y452738D02*
Y449352D01*
X382563D01*
X375792D01*
X379178D01*
Y439196D01*
X375792Y435810D01*
X365635D02*
X352093Y449352D01*
X331780Y435810D02*
X345322D01*
X331780Y449352D01*
Y452738D01*
X335165Y456123D01*
X341936D01*
X345322Y452738D01*
X325009D02*
X321623Y456123D01*
X314852D01*
X311466Y452738D01*
Y439196D01*
X314852Y435810D01*
X321623D01*
X325009Y439196D01*
Y452738D01*
X304695Y435810D02*
X297924D01*
X301310D01*
Y456123D01*
X304695Y452738D01*
X287767D02*
X284382Y456123D01*
X277610D01*
X274225Y452738D01*
Y449352D01*
X277610Y445967D01*
X274225Y442581D01*
Y439196D01*
X277610Y435810D01*
X284382D01*
X287767Y439196D01*
Y442581D01*
X284382Y445967D01*
X287767Y449352D01*
Y452738D01*
X284382Y445967D02*
X277610D01*
D37*
X1270750Y792250D02*
X1276750D01*
X1252000Y773500D02*
X1270750Y792250D01*
D40*
X455170Y591046D02*
Y565654D01*
X442474D01*
X438242Y569886D01*
Y574118D01*
X442474Y578350D01*
X455170D01*
X442474D01*
X438242Y582582D01*
Y586814D01*
X442474Y591046D01*
X455170D01*
X429778Y582582D02*
Y565654D01*
Y574118D01*
X425546Y578350D01*
X421314Y582582D01*
X417082D01*
X400154D02*
X391690D01*
X387458Y578350D01*
Y565654D01*
X400154D01*
X404386Y569886D01*
X400154Y574118D01*
X387458D01*
X378995Y565654D02*
Y591046D01*
Y574118D02*
X366299Y582582D01*
X378995Y574118D02*
X366299Y565654D01*
X340907D02*
X349371D01*
X353603Y569886D01*
Y578350D01*
X349371Y582582D01*
X340907D01*
X336675Y578350D01*
Y574118D01*
X353603D01*
X455170Y548384D02*
X438242D01*
X446706D01*
Y522992D01*
X417082D02*
X425546D01*
X429778Y527224D01*
Y535688D01*
X425546Y539920D01*
X417082D01*
X412850Y535688D01*
Y531456D01*
X429778D01*
X404386Y522992D02*
X391690D01*
X387458Y527224D01*
X391690Y531456D01*
X400154D01*
X404386Y535688D01*
X400154Y539920D01*
X387458D01*
X374763Y544152D02*
Y539920D01*
X378995D01*
X370531D01*
X374763D01*
Y527224D01*
X370531Y522992D01*
X357835Y548384D02*
Y522992D01*
X345139D01*
X340907Y527224D01*
Y531456D01*
Y535688D01*
X345139Y539920D01*
X357835D01*
X319747Y522992D02*
X328211D01*
X332443Y527224D01*
Y535688D01*
X328211Y539920D01*
X319747D01*
X315515Y535688D01*
Y531456D01*
X332443D01*
X307051Y522992D02*
Y539920D01*
X294355D01*
X290123Y535688D01*
Y522992D01*
X264732Y539920D02*
X277427D01*
X281659Y535688D01*
Y527224D01*
X277427Y522992D01*
X264732D01*
X256268Y548384D02*
Y522992D01*
Y535688D01*
X252036Y539920D01*
X243572D01*
X239340Y535688D01*
Y522992D01*
X412850Y480330D02*
X429778D01*
X412850Y497258D01*
Y501490D01*
X417082Y505722D01*
X425546D01*
X429778Y501490D01*
X404386Y480330D02*
Y484562D01*
X400154D01*
Y480330D01*
X404386D01*
X383227Y501490D02*
X378995Y505722D01*
X370531D01*
X366299Y501490D01*
Y484562D01*
X370531Y480330D01*
X378995D01*
X383227Y484562D01*
Y501490D01*
D62*
X299300Y721530D02*
X317200D01*
X299300D02*
Y750970D01*
X317200D01*
Y721530D02*
Y750970D01*
X88984Y832500D02*
X90000Y832500D01*
X76000D02*
X77016D01*
X76000Y853500D02*
X76944D01*
X89056D02*
X90000D01*
X76000Y837150D02*
X90000D01*
Y832500D02*
Y853500D01*
X76000Y832500D02*
Y853500D01*
X910728Y320253D02*
X945272D01*
X910728D02*
Y344637D01*
X920380D01*
Y357845D01*
X935620D01*
Y344637D02*
Y357845D01*
Y344637D02*
X945272D01*
Y320253D02*
Y344637D01*
X811728Y320253D02*
X846272D01*
X811728D02*
Y344637D01*
X821380D01*
Y357845D01*
X836620D01*
Y344637D02*
Y357845D01*
Y344637D02*
X846272D01*
Y320253D02*
Y344637D01*
X1007728Y320253D02*
X1042272D01*
X1007728D02*
Y344637D01*
X1017380D01*
Y357845D01*
X1032620D01*
Y344637D02*
Y357845D01*
Y344637D02*
X1042272D01*
Y320253D02*
Y344637D01*
X1012220Y89050D02*
Y106950D01*
X982780Y89050D02*
X1012220D01*
X982780D02*
Y106950D01*
X1012220D01*
X914720Y89050D02*
Y106950D01*
X885280Y89050D02*
X914720D01*
X885280D02*
Y106950D01*
X914720D01*
X816220Y89050D02*
Y106950D01*
X786780Y89050D02*
X816220D01*
X786780D02*
Y106950D01*
X816220D01*
X1218253Y774888D02*
Y809432D01*
X1242637D01*
Y799780D02*
Y809432D01*
Y799780D02*
X1255845D01*
Y784540D02*
Y799780D01*
X1242637Y784540D02*
X1255845D01*
X1242637Y774888D02*
Y784540D01*
X1218253Y774888D02*
X1242637D01*
X587300Y767720D02*
X605200D01*
Y738280D02*
Y767720D01*
X587300Y738280D02*
X605200D01*
X587300D02*
Y767720D01*
X548050Y796220D02*
X565950D01*
Y766780D02*
Y796220D01*
X548050Y766780D02*
X565950D01*
X548050D02*
Y796220D01*
X772050D02*
X789950D01*
Y766780D02*
Y796220D01*
X772050Y766780D02*
X789950D01*
X772050D02*
Y796220D01*
X610050Y738280D02*
X627950D01*
X610050D02*
Y767720D01*
X627950D01*
Y738280D02*
Y767720D01*
X502780Y749220D02*
X520680D01*
Y719780D02*
Y749220D01*
X502780Y719780D02*
X520680D01*
X502780D02*
Y749220D01*
X469600Y825720D02*
X487500D01*
Y796280D02*
Y825720D01*
X469600Y796280D02*
X487500D01*
X469600D02*
Y825720D01*
X811050Y767720D02*
X828950D01*
Y738280D02*
Y767720D01*
X811050Y738280D02*
X828950D01*
X811050D02*
Y767720D01*
X751865Y749220D02*
X769765D01*
Y719780D02*
Y749220D01*
X751865Y719780D02*
X769765D01*
X751865D02*
Y749220D01*
X693600Y825720D02*
X711500D01*
Y796280D02*
Y825720D01*
X693600Y796280D02*
X711500D01*
X693600D02*
Y825720D01*
X527865Y749220D02*
X545765D01*
Y719780D02*
Y749220D01*
X527865Y719780D02*
X545765D01*
X527865D02*
Y749220D01*
X726780D02*
X744680D01*
Y719780D02*
Y749220D01*
X726780Y719780D02*
X744680D01*
X726780D02*
Y749220D01*
X278050Y796280D02*
X295950D01*
X278050D02*
Y825720D01*
X295950D01*
Y796280D02*
Y825720D01*
X255050D02*
X272950D01*
Y796280D02*
Y825720D01*
X255050Y796280D02*
X272950D01*
X255050D02*
Y825720D01*
X360050Y791080D02*
X377950D01*
Y761640D02*
Y791080D01*
X360050Y761640D02*
X377950D01*
X360050D02*
Y791080D01*
X1114050Y825720D02*
X1131950D01*
Y796280D02*
Y825720D01*
X1114050Y796280D02*
X1131950D01*
X1114050D02*
Y825720D01*
X977050Y749220D02*
X994950D01*
Y719780D02*
Y749220D01*
X977050Y719780D02*
X994950D01*
X977050D02*
Y749220D01*
X997050Y796220D02*
X1014950D01*
Y766780D02*
Y796220D01*
X997050Y766780D02*
X1014950D01*
X997050D02*
Y796220D01*
X917050Y825720D02*
X934950D01*
Y796280D02*
Y825720D01*
X917050Y796280D02*
X934950D01*
X917050D02*
Y825720D01*
X954050Y749220D02*
X971950D01*
Y719780D02*
Y749220D01*
X954050Y719780D02*
X971950D01*
X954050D02*
Y749220D01*
X664550Y112740D02*
X682450D01*
Y83300D02*
Y112740D01*
X664550Y83300D02*
X682450D01*
X664550D02*
Y112740D01*
X1257780Y112050D02*
Y129950D01*
X1287220D01*
Y112050D02*
Y129950D01*
X1257780Y112050D02*
X1287220D01*
X1171780D02*
Y129950D01*
X1201220D01*
Y112050D02*
Y129950D01*
X1171780Y112050D02*
X1201220D01*
X919050Y280280D02*
X936950D01*
X919050D02*
Y309720D01*
X936950D01*
Y280280D02*
Y309720D01*
X1016050Y282280D02*
X1033950D01*
X1016050D02*
Y311720D01*
X1033950D01*
Y282280D02*
Y311720D01*
X820050Y278280D02*
X837950D01*
X820050D02*
Y307720D01*
X837950D01*
Y278280D02*
Y307720D01*
X655050Y474280D02*
X672950D01*
X655050D02*
Y503720D01*
X672950D01*
Y474280D02*
Y503720D01*
X634050D02*
X651950D01*
Y474280D02*
Y503720D01*
X634050Y474280D02*
X651950D01*
X634050D02*
Y503720D01*
X583130Y82920D02*
X608870D01*
X583130D02*
Y96120D01*
X608870D01*
Y82920D02*
Y96120D01*
X583130Y102920D02*
X608870D01*
X583130D02*
Y116120D01*
X608870D01*
Y102920D02*
Y116120D01*
X1237030Y716018D02*
Y733918D01*
X1266470D01*
Y716018D02*
Y733918D01*
X1237030Y716018D02*
X1266470D01*
X1173050Y749220D02*
X1190950D01*
Y719780D02*
Y749220D01*
X1173050Y719780D02*
X1190950D01*
X1173050D02*
Y749220D01*
X1151050Y749720D02*
X1168950D01*
Y720280D02*
Y749720D01*
X1151050Y720280D02*
X1168950D01*
X1151050D02*
Y749720D01*
X1171050Y766780D02*
X1188950D01*
X1171050D02*
Y796220D01*
X1188950D01*
Y766780D02*
Y796220D01*
X1195050D02*
X1212950D01*
Y766780D02*
Y796220D01*
X1195050Y766780D02*
X1212950D01*
X1195050D02*
Y796220D01*
X1173280Y800050D02*
Y817950D01*
X1202720D01*
Y800050D02*
Y817950D01*
X1173280Y800050D02*
X1202720D01*
X1237050Y767220D02*
X1254950D01*
Y737780D02*
Y767220D01*
X1237050Y737780D02*
X1254950D01*
X1237050D02*
Y767220D01*
X1260050Y737780D02*
X1277950D01*
X1260050D02*
Y767220D01*
X1277950D01*
Y737780D02*
Y767220D01*
X1105728Y753393D02*
X1140272D01*
X1105728D02*
Y777777D01*
X1115380D01*
Y790985D01*
X1130620D01*
Y777777D02*
Y790985D01*
Y777777D02*
X1140272D01*
Y753393D02*
Y777777D01*
X1062050Y739280D02*
X1079950D01*
X1062050D02*
Y768720D01*
X1079950D01*
Y739280D02*
Y768720D01*
X1038280Y717050D02*
Y734950D01*
X1067720D01*
Y717050D02*
Y734950D01*
X1038280Y717050D02*
X1067720D01*
X1038300Y768720D02*
X1056200D01*
Y739280D02*
Y768720D01*
X1038300Y739280D02*
X1056200D01*
X1038300D02*
Y768720D01*
X908728Y753393D02*
X943272D01*
X908728D02*
Y777777D01*
X918380D01*
Y790985D01*
X933620D01*
Y777777D02*
Y790985D01*
Y777777D02*
X943272D01*
Y753393D02*
Y777777D01*
X832050Y738280D02*
X849950D01*
X832050D02*
Y767720D01*
X849950D01*
Y738280D02*
Y767720D01*
X811030Y717050D02*
Y734950D01*
X840470D01*
Y717050D02*
Y734950D01*
X811030Y717050D02*
X840470D01*
X685278Y753393D02*
X719822D01*
X685278D02*
Y777777D01*
X694930D01*
Y790985D01*
X710170D01*
Y777777D02*
Y790985D01*
Y777777D02*
X719822D01*
Y753393D02*
Y777777D01*
X587280Y717050D02*
Y734950D01*
X616720D01*
Y717050D02*
Y734950D01*
X587280Y717050D02*
X616720D01*
X461278Y753393D02*
X495822D01*
X461278D02*
Y777777D01*
X470930D01*
Y790985D01*
X486170D01*
Y777777D02*
Y790985D01*
Y777777D02*
X495822D01*
Y753393D02*
Y777777D01*
X279888Y792607D02*
X314432D01*
Y768223D02*
Y792607D01*
X304780Y768223D02*
X314432D01*
X304780Y755015D02*
Y768223D01*
X289540Y755015D02*
X304780D01*
X289540D02*
Y768223D01*
X279888D02*
X289540D01*
X279888D02*
Y792607D01*
X319728D02*
X354272D01*
Y768223D02*
Y792607D01*
X344620Y768223D02*
X354272D01*
X344620Y755015D02*
Y768223D01*
X329380Y755015D02*
X344620D01*
X329380D02*
Y768223D01*
X319728D02*
X329380D01*
X319728D02*
Y792607D01*
X301050Y796280D02*
X318950D01*
X301050D02*
Y825720D01*
X318950D01*
Y796280D02*
Y825720D01*
X232050D02*
X249950D01*
Y796280D02*
Y825720D01*
X232050Y796280D02*
X249950D01*
X232050D02*
Y825720D01*
X255050Y761640D02*
X272950D01*
X255050D02*
Y791080D01*
X272950D01*
Y761640D02*
Y791080D01*
X248000Y762360D02*
Y783360D01*
X234000Y762360D02*
Y783360D01*
Y778710D02*
X248000D01*
X234000Y762360D02*
X234944D01*
X247056D02*
X248000D01*
X246984Y783360D02*
X248000D01*
X234000D02*
X235016Y783360D01*
X137050Y841220D02*
X154950D01*
Y811780D02*
Y841220D01*
X137050Y811780D02*
X154950D01*
X137050D02*
Y841220D01*
X113050Y811780D02*
X130950D01*
X113050D02*
Y841220D01*
X130950D01*
Y811780D02*
Y841220D01*
X94000Y832500D02*
Y853500D01*
X108000Y832500D02*
Y853500D01*
X94000Y837150D02*
X108000D01*
X107056Y853500D02*
X108000D01*
X94000D02*
X94944D01*
X94000Y832500D02*
X95016D01*
X106984Y832500D02*
X108000Y832500D01*
X54050Y811780D02*
X71950D01*
X54050D02*
Y841220D01*
X71950D01*
Y811780D02*
Y841220D01*
X30050Y825720D02*
X47950D01*
Y796280D02*
Y825720D01*
X30050Y796280D02*
X47950D01*
X30050D02*
Y825720D01*
X21728Y753393D02*
X56272D01*
X21728D02*
Y777777D01*
X31380D01*
Y790985D01*
X46620D01*
Y777777D02*
Y790985D01*
Y777777D02*
X56272D01*
Y753393D02*
Y777777D01*
X20204Y714888D02*
Y749432D01*
X44588D01*
Y739780D02*
Y749432D01*
Y739780D02*
X57796D01*
Y724540D02*
Y739780D01*
X44588Y724540D02*
X57796D01*
X44588Y714888D02*
Y724540D01*
X20204Y714888D02*
X44588D01*
X27591Y691050D02*
Y708950D01*
X57031D01*
Y691050D02*
Y708950D01*
X27591Y691050D02*
X57031D01*
X288500Y846000D02*
X309500D01*
X288500Y859056D02*
Y860000D01*
X309500D01*
X288500Y846000D02*
Y846944D01*
X304850Y846000D02*
Y860000D01*
X309500Y846000D02*
Y847016D01*
X309500Y858984D02*
X309500Y860000D01*
X320250Y710750D02*
Y718367D01*
X316441D01*
X315172Y717098D01*
Y714559D01*
X316441Y713289D01*
X320250D01*
X317711D02*
X315172Y710750D01*
X312633D02*
X310093D01*
X311363D01*
Y718367D01*
X312633Y717098D01*
X306285Y710750D02*
X303745D01*
X305015D01*
Y718367D01*
X306285Y717098D01*
X294858Y718367D02*
X299937D01*
Y714559D01*
X297397Y715828D01*
X296128D01*
X294858Y714559D01*
Y712020D01*
X296128Y710750D01*
X298667D01*
X299937Y712020D01*
X58383Y873250D02*
Y868172D01*
Y870711D01*
X66000D01*
X58383Y865632D02*
Y860554D01*
X59652D01*
X64730Y865632D01*
X66000D01*
Y860554D01*
Y858015D02*
Y855476D01*
Y856745D01*
X58383D01*
X59652Y858015D01*
X64730Y851667D02*
X66000Y850397D01*
Y847858D01*
X64730Y846589D01*
X59652D01*
X58383Y847858D01*
Y850397D01*
X59652Y851667D01*
X60922D01*
X62191Y850397D01*
Y846589D01*
X847672Y780098D02*
X848941Y781367D01*
X851480D01*
X852750Y780098D01*
Y775020D01*
X851480Y773750D01*
X848941D01*
X847672Y775020D01*
X845133Y773750D02*
X842593D01*
X843863D01*
Y781367D01*
X845133Y780098D01*
X834976Y773750D02*
Y781367D01*
X838784Y777559D01*
X833706D01*
X784010Y809946D02*
X785279Y811216D01*
X787819D01*
X789088Y809946D01*
Y804868D01*
X787819Y803598D01*
X785279D01*
X784010Y804868D01*
X781471Y803598D02*
X778932D01*
X780201D01*
Y811216D01*
X781471Y809946D01*
X775123Y811216D02*
X770044D01*
Y809946D01*
X775123Y804868D01*
Y803598D01*
X622224Y781420D02*
X623493Y782690D01*
X626032D01*
X627302Y781420D01*
Y776342D01*
X626032Y775072D01*
X623493D01*
X622224Y776342D01*
X614606Y775072D02*
X619684D01*
X614606Y780150D01*
Y781420D01*
X615876Y782690D01*
X618415D01*
X619684Y781420D01*
X612067Y775072D02*
X609528D01*
X610797D01*
Y782690D01*
X612067Y781420D01*
X560102Y809946D02*
X561371Y811216D01*
X563910D01*
X565180Y809946D01*
Y804868D01*
X563910Y803598D01*
X561371D01*
X560102Y804868D01*
X552484Y803598D02*
X557563D01*
X552484Y808676D01*
Y809946D01*
X553754Y811216D01*
X556293D01*
X557563Y809946D01*
X549945D02*
X548675Y811216D01*
X546136D01*
X544867Y809946D01*
Y808676D01*
X546136Y807407D01*
X547406D01*
X546136D01*
X544867Y806137D01*
Y804868D01*
X546136Y803598D01*
X548675D01*
X549945Y804868D01*
X621902Y494922D02*
X620633Y496191D01*
Y498730D01*
X621902Y500000D01*
X626980D01*
X628250Y498730D01*
Y496191D01*
X626980Y494922D01*
X621902Y492383D02*
X620633Y491113D01*
Y488574D01*
X621902Y487304D01*
X623172D01*
X624441Y488574D01*
Y489843D01*
Y488574D01*
X625711Y487304D01*
X626980D01*
X628250Y488574D01*
Y491113D01*
X626980Y492383D01*
X628250Y480956D02*
X620633D01*
X624441Y484765D01*
Y479687D01*
X681152Y497672D02*
X679883Y498941D01*
Y501480D01*
X681152Y502750D01*
X686230D01*
X687500Y501480D01*
Y498941D01*
X686230Y497672D01*
X681152Y495132D02*
X679883Y493863D01*
Y491324D01*
X681152Y490054D01*
X682422D01*
X683691Y491324D01*
Y492593D01*
Y491324D01*
X684961Y490054D01*
X686230D01*
X687500Y491324D01*
Y493863D01*
X686230Y495132D01*
X679883Y482437D02*
X681152Y484976D01*
X683691Y487515D01*
X686230D01*
X687500Y486245D01*
Y483706D01*
X686230Y482437D01*
X684961D01*
X683691Y483706D01*
Y487515D01*
X267084Y839372D02*
X268353Y840642D01*
X270892D01*
X272162Y839372D01*
Y834294D01*
X270892Y833024D01*
X268353D01*
X267084Y834294D01*
X260736Y833024D02*
Y840642D01*
X264545Y836833D01*
X259466D01*
X251849Y840642D02*
X254388Y839372D01*
X256927Y836833D01*
Y834294D01*
X255657Y833024D01*
X253118D01*
X251849Y834294D01*
Y835563D01*
X253118Y836833D01*
X256927D01*
X1194672Y829098D02*
X1195941Y830368D01*
X1198480D01*
X1199750Y829098D01*
Y824020D01*
X1198480Y822750D01*
X1195941D01*
X1194672Y824020D01*
X1188324Y822750D02*
Y830368D01*
X1192132Y826559D01*
X1187054D01*
X1184515Y830368D02*
X1179437D01*
Y829098D01*
X1184515Y824020D01*
Y822750D01*
X1284402Y758172D02*
X1283132Y759441D01*
Y761980D01*
X1284402Y763250D01*
X1289480D01*
X1290750Y761980D01*
Y759441D01*
X1289480Y758172D01*
X1283132Y750554D02*
Y755632D01*
X1286941D01*
X1285672Y753093D01*
Y751824D01*
X1286941Y750554D01*
X1289480D01*
X1290750Y751824D01*
Y754363D01*
X1289480Y755632D01*
X1284402Y748015D02*
X1283132Y746745D01*
Y744206D01*
X1284402Y742937D01*
X1289480D01*
X1290750Y744206D01*
Y746745D01*
X1289480Y748015D01*
X1284402D01*
X1208152Y818422D02*
X1206882Y819691D01*
Y822230D01*
X1208152Y823500D01*
X1213230D01*
X1214500Y822230D01*
Y819691D01*
X1213230Y818422D01*
X1206882Y810804D02*
Y815882D01*
X1210691D01*
X1209422Y813343D01*
Y812074D01*
X1210691Y810804D01*
X1213230D01*
X1214500Y812074D01*
Y814613D01*
X1213230Y815882D01*
X1208152Y808265D02*
X1206882Y806995D01*
Y804456D01*
X1208152Y803187D01*
X1209422D01*
X1210691Y804456D01*
Y805726D01*
Y804456D01*
X1211961Y803187D01*
X1213230D01*
X1214500Y804456D01*
Y806995D01*
X1213230Y808265D01*
X1087902Y758422D02*
X1086633Y759691D01*
Y762230D01*
X1087902Y763500D01*
X1092980D01*
X1094250Y762230D01*
Y759691D01*
X1092980Y758422D01*
X1086633Y750804D02*
Y755882D01*
X1090441D01*
X1089172Y753343D01*
Y752074D01*
X1090441Y750804D01*
X1092980D01*
X1094250Y752074D01*
Y754613D01*
X1092980Y755882D01*
X1086633Y748265D02*
Y743187D01*
X1087902D01*
X1092980Y748265D01*
X1094250D01*
X1009142Y810018D02*
X1010411Y811288D01*
X1012951D01*
X1014220Y810018D01*
Y804940D01*
X1012951Y803670D01*
X1010411D01*
X1009142Y804940D01*
X1001524Y811288D02*
X1004063Y810018D01*
X1006603Y807479D01*
Y804940D01*
X1005333Y803670D01*
X1002794D01*
X1001524Y804940D01*
Y806209D01*
X1002794Y807479D01*
X1006603D01*
X998985Y810018D02*
X997716Y811288D01*
X995176D01*
X993907Y810018D01*
Y804940D01*
X995176Y803670D01*
X997716D01*
X998985Y804940D01*
Y810018D01*
X160902Y830172D02*
X159633Y831441D01*
Y833980D01*
X160902Y835250D01*
X165980D01*
X167250Y833980D01*
Y831441D01*
X165980Y830172D01*
X159633Y822554D02*
X160902Y825093D01*
X163441Y827633D01*
X165980D01*
X167250Y826363D01*
Y823824D01*
X165980Y822554D01*
X164711D01*
X163441Y823824D01*
Y827633D01*
X159633Y814937D02*
X160902Y817476D01*
X163441Y820015D01*
X165980D01*
X167250Y818745D01*
Y816206D01*
X165980Y814937D01*
X164711D01*
X163441Y816206D01*
Y820015D01*
X1255194Y824414D02*
Y816796D01*
X1251385D01*
X1250116Y818066D01*
Y823144D01*
X1251385Y824414D01*
X1255194D01*
X1247576Y816796D02*
X1245037D01*
X1246307D01*
Y824414D01*
X1247576Y823144D01*
X1241228D02*
X1239959Y824414D01*
X1237420D01*
X1236150Y823144D01*
Y818066D01*
X1237420Y816796D01*
X1239959D01*
X1241228Y818066D01*
Y823144D01*
X274250Y856868D02*
Y849250D01*
X270441D01*
X269172Y850520D01*
Y855598D01*
X270441Y856868D01*
X274250D01*
X266632Y849250D02*
X264093D01*
X265363D01*
Y856868D01*
X266632Y855598D01*
X260285Y849250D02*
X257745D01*
X259015D01*
Y856868D01*
X260285Y855598D01*
X220882Y781750D02*
X228500D01*
Y777941D01*
X227230Y776672D01*
X222152D01*
X220882Y777941D01*
Y781750D01*
X228500Y774133D02*
Y771593D01*
Y772863D01*
X220882D01*
X222152Y774133D01*
Y767785D02*
X220882Y766515D01*
Y763976D01*
X222152Y762706D01*
X223422D01*
X224691Y763976D01*
Y765245D01*
Y763976D01*
X225961Y762706D01*
X227230D01*
X228500Y763976D01*
Y766515D01*
X227230Y767785D01*
X126750Y866367D02*
Y858750D01*
X122941D01*
X121672Y860020D01*
Y865098D01*
X122941Y866367D01*
X126750D01*
X119132Y858750D02*
X116593D01*
X117863D01*
Y866367D01*
X119132Y865098D01*
X108976Y858750D02*
Y866367D01*
X112785Y862559D01*
X107706D01*
X681618Y127797D02*
Y120180D01*
X676540D01*
X674000Y126528D02*
X672731Y127797D01*
X670192D01*
X668922Y126528D01*
Y125258D01*
X670192Y123989D01*
X671461D01*
X670192D01*
X668922Y122719D01*
Y121450D01*
X670192Y120180D01*
X672731D01*
X674000Y121450D01*
X1036414Y366398D02*
Y371476D01*
X1037683Y372746D01*
X1040222D01*
X1041492Y371476D01*
Y366398D01*
X1040222Y365128D01*
X1037683D01*
X1038953Y367667D02*
X1036414Y365128D01*
X1037683D02*
X1036414Y366398D01*
X1028796Y372746D02*
X1033875D01*
Y368937D01*
X1031335Y370206D01*
X1030066D01*
X1028796Y368937D01*
Y366398D01*
X1030066Y365128D01*
X1032605D01*
X1033875Y366398D01*
X939534Y366549D02*
Y371627D01*
X940803Y372896D01*
X943342D01*
X944612Y371627D01*
Y366549D01*
X943342Y365279D01*
X940803D01*
X942073Y367818D02*
X939534Y365279D01*
X940803D02*
X939534Y366549D01*
X936994Y372896D02*
X931916D01*
Y371627D01*
X936994Y366549D01*
Y365279D01*
X840534Y366549D02*
Y371627D01*
X841803Y372896D01*
X844342D01*
X845612Y371627D01*
Y366549D01*
X844342Y365279D01*
X841803D01*
X843073Y367818D02*
X840534Y365279D01*
X841803D02*
X840534Y366549D01*
X837995D02*
X836725Y365279D01*
X834186D01*
X832916Y366549D01*
Y371627D01*
X834186Y372896D01*
X836725D01*
X837995Y371627D01*
Y370357D01*
X836725Y369088D01*
X832916D01*
X704672Y739520D02*
Y744598D01*
X705941Y745867D01*
X708480D01*
X709750Y744598D01*
Y739520D01*
X708480Y738250D01*
X705941D01*
X707211Y740789D02*
X704672Y738250D01*
X705941D02*
X704672Y739520D01*
X702132Y738250D02*
X699593D01*
X700863D01*
Y745867D01*
X702132Y744598D01*
X695785Y738250D02*
X693245D01*
X694515D01*
Y745867D01*
X695785Y744598D01*
X483922Y744270D02*
Y749348D01*
X485191Y750618D01*
X487730D01*
X489000Y749348D01*
Y744270D01*
X487730Y743000D01*
X485191D01*
X486461Y745539D02*
X483922Y743000D01*
X485191D02*
X483922Y744270D01*
X481382Y743000D02*
X478843D01*
X480113D01*
Y750618D01*
X481382Y749348D01*
X475034D02*
X473765Y750618D01*
X471226D01*
X469956Y749348D01*
Y748078D01*
X471226Y746809D01*
X472495D01*
X471226D01*
X469956Y745539D01*
Y744270D01*
X471226Y743000D01*
X473765D01*
X475034Y744270D01*
X291480Y744922D02*
X286402D01*
X285133Y746191D01*
Y748730D01*
X286402Y750000D01*
X291480D01*
X292750Y748730D01*
Y746191D01*
X290211Y747461D02*
X292750Y744922D01*
Y746191D02*
X291480Y744922D01*
X292750Y742383D02*
Y739843D01*
Y741113D01*
X285133D01*
X286402Y742383D01*
X285133Y736034D02*
Y730956D01*
X286402D01*
X291480Y736034D01*
X292750D01*
X339922Y744520D02*
Y749598D01*
X341191Y750867D01*
X343730D01*
X345000Y749598D01*
Y744520D01*
X343730Y743250D01*
X341191D01*
X342461Y745789D02*
X339922Y743250D01*
X341191D02*
X339922Y744520D01*
X337383Y743250D02*
X334843D01*
X336113D01*
Y750867D01*
X337383Y749598D01*
X331035D02*
X329765Y750867D01*
X327226D01*
X325956Y749598D01*
Y748328D01*
X327226Y747059D01*
X325956Y745789D01*
Y744520D01*
X327226Y743250D01*
X329765D01*
X331035Y744520D01*
Y745789D01*
X329765Y747059D01*
X331035Y748328D01*
Y749598D01*
X329765Y747059D02*
X327226D01*
X1129172Y740270D02*
Y745348D01*
X1130441Y746618D01*
X1132980D01*
X1134250Y745348D01*
Y740270D01*
X1132980Y739000D01*
X1130441D01*
X1131711Y741539D02*
X1129172Y739000D01*
X1130441D02*
X1129172Y740270D01*
X1126633Y739000D02*
X1124093D01*
X1125363D01*
Y746618D01*
X1126633Y745348D01*
X1120285Y740270D02*
X1119015Y739000D01*
X1116476D01*
X1115206Y740270D01*
Y745348D01*
X1116476Y746618D01*
X1119015D01*
X1120285Y745348D01*
Y744078D01*
X1119015Y742809D01*
X1115206D01*
X930172Y743020D02*
Y748098D01*
X931441Y749368D01*
X933980D01*
X935250Y748098D01*
Y743020D01*
X933980Y741750D01*
X931441D01*
X932711Y744289D02*
X930172Y741750D01*
X931441D02*
X930172Y743020D01*
X922554Y741750D02*
X927633D01*
X922554Y746828D01*
Y748098D01*
X923824Y749368D01*
X926363D01*
X927633Y748098D01*
X920015D02*
X918745Y749368D01*
X916206D01*
X914937Y748098D01*
Y743020D01*
X916206Y741750D01*
X918745D01*
X920015Y743020D01*
Y748098D01*
X12980Y735422D02*
X7902D01*
X6633Y736691D01*
Y739230D01*
X7902Y740500D01*
X12980D01*
X14250Y739230D01*
Y736691D01*
X11711Y737961D02*
X14250Y735422D01*
Y736691D02*
X12980Y735422D01*
X14250Y727804D02*
Y732883D01*
X9172Y727804D01*
X7902D01*
X6633Y729074D01*
Y731613D01*
X7902Y732883D01*
X14250Y725265D02*
Y722726D01*
Y723995D01*
X6633D01*
X7902Y725265D01*
X14730Y775422D02*
X9652D01*
X8382Y776691D01*
Y779230D01*
X9652Y780500D01*
X14730D01*
X16000Y779230D01*
Y776691D01*
X13461Y777961D02*
X16000Y775422D01*
Y776691D02*
X14730Y775422D01*
X16000Y767804D02*
Y772883D01*
X10922Y767804D01*
X9652D01*
X8382Y769074D01*
Y771613D01*
X9652Y772883D01*
X16000Y760187D02*
Y765265D01*
X10922Y760187D01*
X9652D01*
X8382Y761456D01*
Y763995D01*
X9652Y765265D01*
X1286470Y137310D02*
Y144928D01*
X1282661D01*
X1281392Y143658D01*
Y141119D01*
X1282661Y139849D01*
X1286470D01*
X1283931D02*
X1281392Y137310D01*
X1273774Y144928D02*
X1278852D01*
Y141119D01*
X1276313Y142388D01*
X1275044D01*
X1273774Y141119D01*
Y138580D01*
X1275044Y137310D01*
X1277583D01*
X1278852Y138580D01*
X1200428Y137342D02*
Y144960D01*
X1196619D01*
X1195350Y143690D01*
Y141151D01*
X1196619Y139881D01*
X1200428D01*
X1197889D02*
X1195350Y137342D01*
X1187732Y144960D02*
X1190271Y143690D01*
X1192811Y141151D01*
Y138612D01*
X1191541Y137342D01*
X1189002D01*
X1187732Y138612D01*
Y139881D01*
X1189002Y141151D01*
X1192811D01*
X1011468Y114418D02*
Y122036D01*
X1007659D01*
X1006390Y120766D01*
Y118227D01*
X1007659Y116957D01*
X1011468D01*
X1008929D02*
X1006390Y114418D01*
X1003850D02*
X1001311D01*
X1002581D01*
Y122036D01*
X1003850Y120766D01*
X993694Y114418D02*
Y122036D01*
X997503Y118227D01*
X992424D01*
X913908Y114196D02*
Y121813D01*
X910099D01*
X908830Y120544D01*
Y118005D01*
X910099Y116735D01*
X913908D01*
X911369D02*
X908830Y114196D01*
X906291D02*
X903751D01*
X905021D01*
Y121813D01*
X906291Y120544D01*
X894864Y121813D02*
X899942D01*
Y118005D01*
X897403Y119274D01*
X896134D01*
X894864Y118005D01*
Y115466D01*
X896134Y114196D01*
X898673D01*
X899942Y115466D01*
X815364Y114418D02*
Y122036D01*
X811555D01*
X810286Y120766D01*
Y118227D01*
X811555Y116957D01*
X815364D01*
X812825D02*
X810286Y114418D01*
X807747D02*
X805207D01*
X806477D01*
Y122036D01*
X807747Y120766D01*
X796320Y122036D02*
X798859Y120766D01*
X801398Y118227D01*
Y115688D01*
X800129Y114418D01*
X797590D01*
X796320Y115688D01*
Y116957D01*
X797590Y118227D01*
X801398D01*
X1046250Y307500D02*
X1038633D01*
Y303691D01*
X1039902Y302422D01*
X1042441D01*
X1043711Y303691D01*
Y307500D01*
Y304961D02*
X1046250Y302422D01*
Y294804D02*
Y299883D01*
X1041172Y294804D01*
X1039902D01*
X1038633Y296074D01*
Y298613D01*
X1039902Y299883D01*
X1044980Y292265D02*
X1046250Y290995D01*
Y288456D01*
X1044980Y287187D01*
X1039902D01*
X1038633Y288456D01*
Y290995D01*
X1039902Y292265D01*
X1041172D01*
X1042441Y290995D01*
Y287187D01*
X948250Y307250D02*
X940632D01*
Y303441D01*
X941902Y302172D01*
X944441D01*
X945711Y303441D01*
Y307250D01*
Y304711D02*
X948250Y302172D01*
X941902Y299632D02*
X940632Y298363D01*
Y295824D01*
X941902Y294554D01*
X943172D01*
X944441Y295824D01*
Y297093D01*
Y295824D01*
X945711Y294554D01*
X946980D01*
X948250Y295824D01*
Y298363D01*
X946980Y299632D01*
X941902Y292015D02*
X940632Y290745D01*
Y288206D01*
X941902Y286937D01*
X946980D01*
X948250Y288206D01*
Y290745D01*
X946980Y292015D01*
X941902D01*
X849750Y302000D02*
X842132D01*
Y298191D01*
X843402Y296922D01*
X845941D01*
X847211Y298191D01*
Y302000D01*
Y299461D02*
X849750Y296922D01*
X843402Y294382D02*
X842132Y293113D01*
Y290574D01*
X843402Y289304D01*
X844672D01*
X845941Y290574D01*
Y291843D01*
Y290574D01*
X847211Y289304D01*
X848480D01*
X849750Y290574D01*
Y293113D01*
X848480Y294382D01*
X849750Y286765D02*
Y284226D01*
Y285495D01*
X842132D01*
X843402Y286765D01*
X828074Y775118D02*
Y782736D01*
X824265D01*
X822996Y781466D01*
Y778927D01*
X824265Y777657D01*
X828074D01*
X825535D02*
X822996Y775118D01*
X820456Y781466D02*
X819187Y782736D01*
X816648D01*
X815378Y781466D01*
Y780196D01*
X816648Y778927D01*
X817917D01*
X816648D01*
X815378Y777657D01*
Y776388D01*
X816648Y775118D01*
X819187D01*
X820456Y776388D01*
X812839Y782736D02*
X807761D01*
Y781466D01*
X812839Y776388D01*
Y775118D01*
X768981Y756598D02*
Y764216D01*
X765172D01*
X763903Y762946D01*
Y760407D01*
X765172Y759137D01*
X768981D01*
X766442D02*
X763903Y756598D01*
X761364Y762946D02*
X760094Y764216D01*
X757555D01*
X756285Y762946D01*
Y761676D01*
X757555Y760407D01*
X758824D01*
X757555D01*
X756285Y759137D01*
Y757868D01*
X757555Y756598D01*
X760094D01*
X761364Y757868D01*
X753746Y762946D02*
X752476Y764216D01*
X749937D01*
X748668Y762946D01*
Y761676D01*
X749937Y760407D01*
X748668Y759137D01*
Y757868D01*
X749937Y756598D01*
X752476D01*
X753746Y757868D01*
Y759137D01*
X752476Y760407D01*
X753746Y761676D01*
Y762946D01*
X752476Y760407D02*
X749937D01*
X743933Y756546D02*
Y764164D01*
X740124D01*
X738855Y762894D01*
Y760355D01*
X740124Y759085D01*
X743933D01*
X741394D02*
X738855Y756546D01*
X732507D02*
Y764164D01*
X736316Y760355D01*
X731237D01*
X728698Y756546D02*
X726159D01*
X727428D01*
Y764164D01*
X728698Y762894D01*
X867250Y722750D02*
Y730368D01*
X863441D01*
X862172Y729098D01*
Y726559D01*
X863441Y725289D01*
X867250D01*
X864711D02*
X862172Y722750D01*
X855824D02*
Y730368D01*
X859632Y726559D01*
X854554D01*
X846937Y722750D02*
X852015D01*
X846937Y727828D01*
Y729098D01*
X848206Y730368D01*
X850745D01*
X852015Y729098D01*
X710852Y833110D02*
Y840728D01*
X707043D01*
X705774Y839458D01*
Y836919D01*
X707043Y835649D01*
X710852D01*
X708313D02*
X705774Y833110D01*
X699426D02*
Y840728D01*
X703234Y836919D01*
X698156D01*
X690539Y840728D02*
X695617D01*
Y836919D01*
X693078Y838188D01*
X691808D01*
X690539Y836919D01*
Y834380D01*
X691808Y833110D01*
X694347D01*
X695617Y834380D01*
X604416Y775098D02*
Y782716D01*
X600607D01*
X599338Y781446D01*
Y778907D01*
X600607Y777637D01*
X604416D01*
X601877D02*
X599338Y775098D01*
X592990D02*
Y782716D01*
X596799Y778907D01*
X591720D01*
X589181Y782716D02*
X584103D01*
Y781446D01*
X589181Y776368D01*
Y775098D01*
X545129Y756598D02*
Y764216D01*
X541320D01*
X540051Y762946D01*
Y760407D01*
X541320Y759137D01*
X545129D01*
X542590D02*
X540051Y756598D01*
X533703D02*
Y764216D01*
X537512Y760407D01*
X532433D01*
X529894Y757868D02*
X528624Y756598D01*
X526085D01*
X524816Y757868D01*
Y762946D01*
X526085Y764216D01*
X528624D01*
X529894Y762946D01*
Y761676D01*
X528624Y760407D01*
X524816D01*
X519924Y756598D02*
Y764216D01*
X516115D01*
X514846Y762946D01*
Y760407D01*
X516115Y759137D01*
X519924D01*
X517385D02*
X514846Y756598D01*
X507228Y764216D02*
X512307D01*
Y760407D01*
X509767Y761676D01*
X508498D01*
X507228Y760407D01*
Y757868D01*
X508498Y756598D01*
X511037D01*
X512307Y757868D01*
X504689Y762946D02*
X503419Y764216D01*
X500880D01*
X499611Y762946D01*
Y757868D01*
X500880Y756598D01*
X503419D01*
X504689Y757868D01*
Y762946D01*
X641000Y721500D02*
Y729118D01*
X637191D01*
X635922Y727848D01*
Y725309D01*
X637191Y724039D01*
X641000D01*
X638461D02*
X635922Y721500D01*
X628304Y729118D02*
X633382D01*
Y725309D01*
X630843Y726578D01*
X629574D01*
X628304Y725309D01*
Y722770D01*
X629574Y721500D01*
X632113D01*
X633382Y722770D01*
X620687Y721500D02*
X625765D01*
X620687Y726578D01*
Y727848D01*
X621956Y729118D01*
X624495D01*
X625765Y727848D01*
X486824Y833142D02*
Y840760D01*
X483015D01*
X481746Y839490D01*
Y836951D01*
X483015Y835681D01*
X486824D01*
X484285D02*
X481746Y833142D01*
X474128Y840760D02*
X479207D01*
Y836951D01*
X476667Y838220D01*
X475398D01*
X474128Y836951D01*
Y834412D01*
X475398Y833142D01*
X477937D01*
X479207Y834412D01*
X471589Y839490D02*
X470319Y840760D01*
X467780D01*
X466511Y839490D01*
Y838220D01*
X467780Y836951D01*
X469050D01*
X467780D01*
X466511Y835681D01*
Y834412D01*
X467780Y833142D01*
X470319D01*
X471589Y834412D01*
X1165500Y790750D02*
X1157883D01*
Y786941D01*
X1159152Y785672D01*
X1161691D01*
X1162961Y786941D01*
Y790750D01*
Y788211D02*
X1165500Y785672D01*
X1157883Y783132D02*
Y778054D01*
X1159152D01*
X1164230Y783132D01*
X1165500D01*
Y770437D02*
Y775515D01*
X1160422Y770437D01*
X1159152D01*
X1157883Y771706D01*
Y774245D01*
X1159152Y775515D01*
X323750Y833000D02*
Y840618D01*
X319941D01*
X318672Y839348D01*
Y836809D01*
X319941Y835539D01*
X323750D01*
X321211D02*
X318672Y833000D01*
X316133Y840618D02*
X311054D01*
Y839348D01*
X316133Y834270D01*
Y833000D01*
X308515Y834270D02*
X307245Y833000D01*
X304706D01*
X303437Y834270D01*
Y839348D01*
X304706Y840618D01*
X307245D01*
X308515Y839348D01*
Y838078D01*
X307245Y836809D01*
X303437D01*
X295072Y833048D02*
Y840666D01*
X291263D01*
X289994Y839396D01*
Y836857D01*
X291263Y835587D01*
X295072D01*
X292533D02*
X289994Y833048D01*
X287454Y839396D02*
X286185Y840666D01*
X283646D01*
X282376Y839396D01*
Y838126D01*
X283646Y836857D01*
X282376Y835587D01*
Y834318D01*
X283646Y833048D01*
X286185D01*
X287454Y834318D01*
Y835587D01*
X286185Y836857D01*
X287454Y838126D01*
Y839396D01*
X286185Y836857D02*
X283646D01*
X279837Y833048D02*
X277298D01*
X278567D01*
Y840666D01*
X279837Y839396D01*
X275000Y747250D02*
Y754867D01*
X271191D01*
X269922Y753598D01*
Y751059D01*
X271191Y749789D01*
X275000D01*
X272461D02*
X269922Y747250D01*
X267383Y753598D02*
X266113Y754867D01*
X263574D01*
X262304Y753598D01*
Y752328D01*
X263574Y751059D01*
X262304Y749789D01*
Y748520D01*
X263574Y747250D01*
X266113D01*
X267383Y748520D01*
Y749789D01*
X266113Y751059D01*
X267383Y752328D01*
Y753598D01*
X266113Y751059D02*
X263574D01*
X254687Y747250D02*
X259765D01*
X254687Y752328D01*
Y753598D01*
X255956Y754867D01*
X258495D01*
X259765Y753598D01*
X245750Y833500D02*
Y841117D01*
X241941D01*
X240672Y839848D01*
Y837309D01*
X241941Y836039D01*
X245750D01*
X243211D02*
X240672Y833500D01*
X238132Y839848D02*
X236863Y841117D01*
X234324D01*
X233054Y839848D01*
Y838578D01*
X234324Y837309D01*
X233054Y836039D01*
Y834770D01*
X234324Y833500D01*
X236863D01*
X238132Y834770D01*
Y836039D01*
X236863Y837309D01*
X238132Y838578D01*
Y839848D01*
X236863Y837309D02*
X234324D01*
X230515Y839848D02*
X229245Y841117D01*
X226706D01*
X225437Y839848D01*
Y838578D01*
X226706Y837309D01*
X227976D01*
X226706D01*
X225437Y836039D01*
Y834770D01*
X226706Y833500D01*
X229245D01*
X230515Y834770D01*
X377134Y798530D02*
Y806148D01*
X373325D01*
X372056Y804878D01*
Y802339D01*
X373325Y801069D01*
X377134D01*
X374595D02*
X372056Y798530D01*
X369516Y804878D02*
X368247Y806148D01*
X365708D01*
X364438Y804878D01*
Y803608D01*
X365708Y802339D01*
X364438Y801069D01*
Y799800D01*
X365708Y798530D01*
X368247D01*
X369516Y799800D01*
Y801069D01*
X368247Y802339D01*
X369516Y803608D01*
Y804878D01*
X368247Y802339D02*
X365708D01*
X358090Y798530D02*
Y806148D01*
X361899Y802339D01*
X356821D01*
X1283750Y796000D02*
Y803617D01*
X1279941D01*
X1278672Y802348D01*
Y799809D01*
X1279941Y798539D01*
X1283750D01*
X1281211D02*
X1278672Y796000D01*
X1276133Y802348D02*
X1274863Y803617D01*
X1272324D01*
X1271054Y802348D01*
Y801078D01*
X1272324Y799809D01*
X1271054Y798539D01*
Y797270D01*
X1272324Y796000D01*
X1274863D01*
X1276133Y797270D01*
Y798539D01*
X1274863Y799809D01*
X1276133Y801078D01*
Y802348D01*
X1274863Y799809D02*
X1272324D01*
X1263437Y803617D02*
X1268515D01*
Y799809D01*
X1265976Y801078D01*
X1264706D01*
X1263437Y799809D01*
Y797270D01*
X1264706Y796000D01*
X1267245D01*
X1268515Y797270D01*
X1194500Y705750D02*
Y713367D01*
X1190691D01*
X1189422Y712098D01*
Y709559D01*
X1190691Y708289D01*
X1194500D01*
X1191961D02*
X1189422Y705750D01*
X1186882Y712098D02*
X1185613Y713367D01*
X1183074D01*
X1181804Y712098D01*
Y710828D01*
X1183074Y709559D01*
X1181804Y708289D01*
Y707020D01*
X1183074Y705750D01*
X1185613D01*
X1186882Y707020D01*
Y708289D01*
X1185613Y709559D01*
X1186882Y710828D01*
Y712098D01*
X1185613Y709559D02*
X1183074D01*
X1174187Y713367D02*
X1176726Y712098D01*
X1179265Y709559D01*
Y707020D01*
X1177995Y705750D01*
X1175456D01*
X1174187Y707020D01*
Y708289D01*
X1175456Y709559D01*
X1179265D01*
X1166750Y707000D02*
Y714617D01*
X1162941D01*
X1161672Y713348D01*
Y710809D01*
X1162941Y709539D01*
X1166750D01*
X1164211D02*
X1161672Y707000D01*
X1159133Y713348D02*
X1157863Y714617D01*
X1155324D01*
X1154054Y713348D01*
Y712078D01*
X1155324Y710809D01*
X1154054Y709539D01*
Y708270D01*
X1155324Y707000D01*
X1157863D01*
X1159133Y708270D01*
Y709539D01*
X1157863Y710809D01*
X1159133Y712078D01*
Y713348D01*
X1157863Y710809D02*
X1155324D01*
X1151515Y708270D02*
X1150245Y707000D01*
X1147706D01*
X1146437Y708270D01*
Y713348D01*
X1147706Y714617D01*
X1150245D01*
X1151515Y713348D01*
Y712078D01*
X1150245Y710809D01*
X1146437D01*
X1289500Y719750D02*
Y727367D01*
X1285691D01*
X1284422Y726098D01*
Y723559D01*
X1285691Y722289D01*
X1289500D01*
X1286961D02*
X1284422Y719750D01*
X1281882Y721020D02*
X1280613Y719750D01*
X1278074D01*
X1276804Y721020D01*
Y726098D01*
X1278074Y727367D01*
X1280613D01*
X1281882Y726098D01*
Y724828D01*
X1280613Y723559D01*
X1276804D01*
X1274265Y719750D02*
X1271726D01*
X1272995D01*
Y727367D01*
X1274265Y726098D01*
X1131222Y833000D02*
Y840618D01*
X1127413D01*
X1126144Y839348D01*
Y836809D01*
X1127413Y835539D01*
X1131222D01*
X1128683D02*
X1126144Y833000D01*
X1123605Y834270D02*
X1122335Y833000D01*
X1119796D01*
X1118526Y834270D01*
Y839348D01*
X1119796Y840618D01*
X1122335D01*
X1123605Y839348D01*
Y838078D01*
X1122335Y836809D01*
X1118526D01*
X1115987Y839348D02*
X1114717Y840618D01*
X1112178D01*
X1110909Y839348D01*
Y838078D01*
X1112178Y836809D01*
X1113448D01*
X1112178D01*
X1110909Y835539D01*
Y834270D01*
X1112178Y833000D01*
X1114717D01*
X1115987Y834270D01*
X1062250Y775250D02*
Y782868D01*
X1058441D01*
X1057172Y781598D01*
Y779059D01*
X1058441Y777789D01*
X1062250D01*
X1059711D02*
X1057172Y775250D01*
X1054632Y776520D02*
X1053363Y775250D01*
X1050824D01*
X1049554Y776520D01*
Y781598D01*
X1050824Y782868D01*
X1053363D01*
X1054632Y781598D01*
Y780328D01*
X1053363Y779059D01*
X1049554D01*
X1041937Y782868D02*
X1047015D01*
Y779059D01*
X1044476Y780328D01*
X1043206D01*
X1041937Y779059D01*
Y776520D01*
X1043206Y775250D01*
X1045745D01*
X1047015Y776520D01*
X994284Y756670D02*
Y764287D01*
X990475D01*
X989206Y763018D01*
Y760479D01*
X990475Y759209D01*
X994284D01*
X991745D02*
X989206Y756670D01*
X986666Y757940D02*
X985397Y756670D01*
X982858D01*
X981588Y757940D01*
Y763018D01*
X982858Y764287D01*
X985397D01*
X986666Y763018D01*
Y761748D01*
X985397Y760479D01*
X981588D01*
X973971Y764287D02*
X976510Y763018D01*
X979049Y760479D01*
Y757940D01*
X977779Y756670D01*
X975240D01*
X973971Y757940D01*
Y759209D01*
X975240Y760479D01*
X979049D01*
X971150Y756670D02*
Y764287D01*
X967341D01*
X966072Y763018D01*
Y760479D01*
X967341Y759209D01*
X971150D01*
X968611D02*
X966072Y756670D01*
X963532Y757940D02*
X962263Y756670D01*
X959724D01*
X958454Y757940D01*
Y763018D01*
X959724Y764287D01*
X962263D01*
X963532Y763018D01*
Y761748D01*
X962263Y760479D01*
X958454D01*
X955915Y757940D02*
X954645Y756670D01*
X952106D01*
X950837Y757940D01*
Y763018D01*
X952106Y764287D01*
X954645D01*
X955915Y763018D01*
Y761748D01*
X954645Y760479D01*
X950837D01*
X1098250Y721500D02*
Y729118D01*
X1094441D01*
X1093172Y727848D01*
Y725309D01*
X1094441Y724039D01*
X1098250D01*
X1095711D02*
X1093172Y721500D01*
X1090632D02*
X1088093D01*
X1089363D01*
Y729118D01*
X1090632Y727848D01*
X1084285D02*
X1083015Y729118D01*
X1080476D01*
X1079206Y727848D01*
Y722770D01*
X1080476Y721500D01*
X1083015D01*
X1084285Y722770D01*
Y727848D01*
X1076667Y721500D02*
X1074128D01*
X1075397D01*
Y729118D01*
X1076667Y727848D01*
X934192Y833080D02*
Y840698D01*
X930383D01*
X929114Y839428D01*
Y836889D01*
X930383Y835619D01*
X934192D01*
X931653D02*
X929114Y833080D01*
X926574D02*
X924035D01*
X925305D01*
Y840698D01*
X926574Y839428D01*
X920227D02*
X918957Y840698D01*
X916418D01*
X915148Y839428D01*
Y834350D01*
X916418Y833080D01*
X918957D01*
X920227Y834350D01*
Y839428D01*
X912609D02*
X911339Y840698D01*
X908800D01*
X907531Y839428D01*
Y838158D01*
X908800Y836889D01*
X910070D01*
X908800D01*
X907531Y835619D01*
Y834350D01*
X908800Y833080D01*
X911339D01*
X912609Y834350D01*
X138500Y846000D02*
Y853617D01*
X134691D01*
X133422Y852348D01*
Y849809D01*
X134691Y848539D01*
X138500D01*
X135961D02*
X133422Y846000D01*
X130883D02*
X128343D01*
X129613D01*
Y853617D01*
X130883Y852348D01*
X124535Y846000D02*
X121995D01*
X123265D01*
Y853617D01*
X124535Y852348D01*
X118187Y846000D02*
X115647D01*
X116917D01*
Y853617D01*
X118187Y852348D01*
X49500Y832000D02*
Y839617D01*
X45691D01*
X44422Y838348D01*
Y835809D01*
X45691Y834539D01*
X49500D01*
X46961D02*
X44422Y832000D01*
X41883D02*
X39343D01*
X40613D01*
Y839617D01*
X41883Y838348D01*
X35535Y832000D02*
X32995D01*
X34265D01*
Y839617D01*
X35535Y838348D01*
X24108Y832000D02*
X29187D01*
X24108Y837078D01*
Y838348D01*
X25378Y839617D01*
X27917D01*
X29187Y838348D01*
X24000Y824000D02*
X16382D01*
Y820191D01*
X17652Y818922D01*
X20191D01*
X21461Y820191D01*
Y824000D01*
Y821461D02*
X24000Y818922D01*
Y816383D02*
Y813843D01*
Y815113D01*
X16382D01*
X17652Y816383D01*
X24000Y810034D02*
Y807495D01*
Y808765D01*
X16382D01*
X17652Y810034D01*
Y803687D02*
X16382Y802417D01*
Y799878D01*
X17652Y798608D01*
X18922D01*
X20191Y799878D01*
Y801147D01*
Y799878D01*
X21461Y798608D01*
X22730D01*
X24000Y799878D01*
Y802417D01*
X22730Y803687D01*
X53250Y679750D02*
Y687367D01*
X49441D01*
X48172Y686098D01*
Y683559D01*
X49441Y682289D01*
X53250D01*
X50711D02*
X48172Y679750D01*
X45633D02*
X43093D01*
X44363D01*
Y687367D01*
X45633Y686098D01*
X39285Y679750D02*
X36745D01*
X38015D01*
Y687367D01*
X39285Y686098D01*
X29128Y679750D02*
Y687367D01*
X32937Y683559D01*
X27858D01*
X806250Y775368D02*
Y769020D01*
X804980Y767750D01*
X802441D01*
X801172Y769020D01*
Y775368D01*
X794824Y767750D02*
Y775368D01*
X798633Y771559D01*
X793554D01*
X582500Y777617D02*
Y771270D01*
X581230Y770000D01*
X578691D01*
X577422Y771270D01*
Y777617D01*
X569804D02*
X572343Y776348D01*
X574883Y773809D01*
Y771270D01*
X573613Y770000D01*
X571074D01*
X569804Y771270D01*
Y772539D01*
X571074Y773809D01*
X574883D01*
X1188000Y762117D02*
Y755770D01*
X1186730Y754500D01*
X1184191D01*
X1182922Y755770D01*
Y762117D01*
X1180383Y754500D02*
X1177843D01*
X1179113D01*
Y762117D01*
X1180383Y760848D01*
X1174035Y754500D02*
X1171495D01*
X1172765D01*
Y762117D01*
X1174035Y760848D01*
X1023633Y783500D02*
X1029980D01*
X1031250Y782230D01*
Y779691D01*
X1029980Y778422D01*
X1023633D01*
X1031250Y775882D02*
Y773343D01*
Y774613D01*
X1023633D01*
X1024902Y775882D01*
Y769535D02*
X1023633Y768265D01*
Y765726D01*
X1024902Y764456D01*
X1026172D01*
X1027441Y765726D01*
Y766995D01*
Y765726D01*
X1028711Y764456D01*
X1029980D01*
X1031250Y765726D01*
Y768265D01*
X1029980Y769535D01*
X575750Y115638D02*
X570672D01*
Y114368D01*
X575750Y109290D01*
Y108020D01*
X570672D01*
X568133D02*
X565593D01*
X566863D01*
Y115638D01*
X568133Y114368D01*
X576250Y93387D02*
X571172D01*
Y92118D01*
X576250Y87040D01*
Y85770D01*
X571172D01*
X563554D02*
X568633D01*
X563554Y90848D01*
Y92118D01*
X564824Y93387D01*
X567363D01*
X568633Y92118D01*
D68*
X1227500Y738050D02*
Y744168D01*
X1199500D02*
X1227500D01*
X1199500Y732768D02*
Y744168D01*
Y732768D02*
X1222218D01*
X1227500Y738050D01*
X1029500Y739082D02*
Y745200D01*
X1001500D02*
X1029500D01*
X1001500Y733800D02*
Y745200D01*
Y733800D02*
X1024218D01*
X1029500Y739082D01*
X804500D02*
Y745200D01*
X776500D02*
X804500D01*
X776500Y733800D02*
Y745200D01*
Y733800D02*
X799218D01*
X804500Y739082D01*
X580500Y739082D02*
Y745200D01*
X552500D02*
X580500D01*
X552500Y733800D02*
Y745200D01*
Y733800D02*
X575218D01*
X580500Y739082D01*
M02*
