G04 Layer_Color=8388736*
%FSLAX44Y44*%
%MOMM*%
G71*
G01*
G75*
%ADD62C,0.1524*%
%ADD68C,0.2540*%
D62*
X-66898Y406422D02*
X-64359Y408961D01*
Y414039D01*
X-66898Y416579D01*
X-77054D01*
X-79594Y414039D01*
Y408961D01*
X-77054Y406422D01*
X-74515D01*
X-71976Y408961D01*
Y416579D01*
X-64359Y431814D02*
Y421657D01*
X-74515Y431814D01*
X-77054D01*
X-79594Y429275D01*
Y424196D01*
X-77054Y421657D01*
X-64359Y436892D02*
X-66898D01*
Y439431D01*
X-64359D01*
Y436892D01*
X-77054Y449588D02*
X-79594Y452127D01*
Y457206D01*
X-77054Y459745D01*
X-66898D01*
X-64359Y457206D01*
Y452127D01*
X-66898Y449588D01*
X-77054D01*
Y464823D02*
X-79594Y467362D01*
Y472441D01*
X-77054Y474980D01*
X-66898D01*
X-64359Y472441D01*
Y467362D01*
X-66898Y464823D01*
X-77054D01*
X-64359Y480058D02*
X-74515D01*
Y482597D01*
X-71976Y485136D01*
X-64359D01*
X-71976D01*
X-74515Y487676D01*
X-71976Y490215D01*
X-64359D01*
Y495293D02*
X-74515D01*
Y497832D01*
X-71976Y500372D01*
X-64359D01*
X-71976D01*
X-74515Y502911D01*
X-71976Y505450D01*
X-64359D01*
X590074Y-121891D02*
X595152D01*
X592613D01*
Y-106657D01*
X590074Y-109196D01*
X602770D02*
X605309Y-106657D01*
X610387D01*
X612927Y-109196D01*
Y-111735D01*
X610387Y-114274D01*
X607848D01*
X610387D01*
X612927Y-116813D01*
Y-119352D01*
X610387Y-121891D01*
X605309D01*
X602770Y-119352D01*
X618005Y-109196D02*
X620544Y-106657D01*
X625622D01*
X628162Y-109196D01*
Y-119352D01*
X625622Y-121891D01*
X620544D01*
X618005Y-119352D01*
Y-109196D01*
X633240Y-121891D02*
Y-119352D01*
X635779D01*
Y-121891D01*
X633240D01*
X645936Y-109196D02*
X648475Y-106657D01*
X653553D01*
X656093Y-109196D01*
Y-119352D01*
X653553Y-121891D01*
X648475D01*
X645936Y-119352D01*
Y-109196D01*
X661171D02*
X663710Y-106657D01*
X668789D01*
X671328Y-109196D01*
Y-119352D01*
X668789Y-121891D01*
X663710D01*
X661171Y-119352D01*
Y-109196D01*
X676406Y-121891D02*
Y-111735D01*
X678945D01*
X681485Y-114274D01*
Y-121891D01*
Y-114274D01*
X684024Y-111735D01*
X686563Y-114274D01*
Y-121891D01*
X691641D02*
Y-111735D01*
X694180D01*
X696720Y-114274D01*
Y-121891D01*
Y-114274D01*
X699259Y-111735D01*
X701798Y-114274D01*
Y-121891D01*
X321422Y-55406D02*
X331579D01*
Y-57946D01*
X321422Y-68102D01*
Y-70641D01*
X346814Y-55406D02*
X336657D01*
Y-63024D01*
X341735Y-60485D01*
X344275D01*
X346814Y-63024D01*
Y-68102D01*
X344275Y-70641D01*
X339196D01*
X336657Y-68102D01*
X351892Y-70641D02*
Y-68102D01*
X354431D01*
Y-70641D01*
X351892D01*
X364588Y-57946D02*
X367127Y-55406D01*
X372206D01*
X374745Y-57946D01*
Y-68102D01*
X372206Y-70641D01*
X367127D01*
X364588Y-68102D01*
Y-57946D01*
X379823D02*
X382362Y-55406D01*
X387441D01*
X389980Y-57946D01*
Y-68102D01*
X387441Y-70641D01*
X382362D01*
X379823Y-68102D01*
Y-57946D01*
X395058Y-70641D02*
Y-60485D01*
X397597D01*
X400136Y-63024D01*
Y-70641D01*
Y-63024D01*
X402676Y-60485D01*
X405215Y-63024D01*
Y-70641D01*
X410293D02*
Y-60485D01*
X412832D01*
X415372Y-63024D01*
Y-70641D01*
Y-63024D01*
X417911Y-60485D01*
X420450Y-63024D01*
Y-70641D01*
X981579Y-54657D02*
X971422D01*
Y-62274D01*
X976500Y-59735D01*
X979040D01*
X981579Y-62274D01*
Y-67352D01*
X979040Y-69892D01*
X973961D01*
X971422Y-67352D01*
X996814Y-54657D02*
X986657D01*
Y-62274D01*
X991735Y-59735D01*
X994275D01*
X996814Y-62274D01*
Y-67352D01*
X994275Y-69892D01*
X989196D01*
X986657Y-67352D01*
X1001892Y-69892D02*
Y-67352D01*
X1004431D01*
Y-69892D01*
X1001892D01*
X1014588Y-57196D02*
X1017127Y-54657D01*
X1022206D01*
X1024745Y-57196D01*
Y-67352D01*
X1022206Y-69892D01*
X1017127D01*
X1014588Y-67352D01*
Y-57196D01*
X1029823D02*
X1032362Y-54657D01*
X1037441D01*
X1039980Y-57196D01*
Y-67352D01*
X1037441Y-69892D01*
X1032362D01*
X1029823Y-67352D01*
Y-57196D01*
X1045058Y-69892D02*
Y-59735D01*
X1047597D01*
X1050136Y-62274D01*
Y-69892D01*
Y-62274D01*
X1052676Y-59735D01*
X1055215Y-62274D01*
Y-69892D01*
X1060293D02*
Y-59735D01*
X1062832D01*
X1065372Y-62274D01*
Y-69892D01*
Y-62274D01*
X1067911Y-59735D01*
X1070450Y-62274D01*
Y-69892D01*
X1368566Y-18343D02*
X1353331D01*
X1360949Y-25961D01*
Y-15804D01*
X1368566Y-10725D02*
X1366027D01*
Y-8186D01*
X1368566D01*
Y-10725D01*
X1355870Y1971D02*
X1353331Y4510D01*
Y9588D01*
X1355870Y12127D01*
X1366027D01*
X1368566Y9588D01*
Y4510D01*
X1366027Y1971D01*
X1355870D01*
Y17206D02*
X1353331Y19745D01*
Y24823D01*
X1355870Y27362D01*
X1366027D01*
X1368566Y24823D01*
Y19745D01*
X1366027Y17206D01*
X1355870D01*
X1368566Y32441D02*
X1358409D01*
Y34980D01*
X1360949Y37519D01*
X1368566D01*
X1360949D01*
X1358409Y40058D01*
X1360949Y42597D01*
X1368566D01*
Y47676D02*
X1358409D01*
Y50215D01*
X1360949Y52754D01*
X1368566D01*
X1360949D01*
X1358409Y55293D01*
X1360949Y57832D01*
X1368566D01*
D68*
X-76040Y0D02*
X-2540D01*
X-76040Y920000D02*
X-2540D01*
X-73500Y0D02*
Y402358D01*
Y509514D02*
Y920000D01*
Y0D02*
X-68420Y15240D01*
X-78580D02*
X-73500Y0D01*
X-78580Y904760D02*
X-73500Y920000D01*
X-68420Y904760D01*
X1300000Y-115290D02*
Y37460D01*
X0Y-115290D02*
Y-2540D01*
X705862Y-112750D02*
X1300000D01*
X0D02*
X586010D01*
X1284760Y-107670D02*
X1300000Y-112750D01*
X1284760Y-117830D02*
X1300000Y-112750D01*
X0D02*
X15240Y-117830D01*
X0Y-112750D02*
X15240Y-107670D01*
X750000Y-64040D02*
Y-2540D01*
X0Y-64040D02*
Y-2540D01*
X424514Y-61500D02*
X750000D01*
X0D02*
X317358D01*
X734760Y-56420D02*
X750000Y-61500D01*
X734760Y-66580D02*
X750000Y-61500D01*
X0D02*
X15240Y-66580D01*
X0Y-61500D02*
X15240Y-56420D01*
X1300000Y-63290D02*
Y37460D01*
X750000Y-63290D02*
Y-2540D01*
X1074514Y-60750D02*
X1300000D01*
X750000D02*
X967358D01*
X1284760Y-55670D02*
X1300000Y-60750D01*
X1284760Y-65830D02*
X1300000Y-60750D01*
X750000D02*
X765240Y-65830D01*
X750000Y-60750D02*
X765240Y-55670D01*
X752540Y40000D02*
X1334540D01*
X752540Y0D02*
X1334540D01*
X1332000Y-25400D02*
Y0D01*
Y40000D02*
Y65400D01*
X1326920Y-15240D02*
X1332000Y0D01*
X1337080Y-15240D01*
X1332000Y40000D02*
X1337080Y55240D01*
X1326920D02*
X1332000Y40000D01*
M02*
