M48
;Layer_Color=9474304
;FILE_FORMAT=4:4
METRIC,LZ
;TYPE=PLATED
T1F00S00C0.3000
T2F00S00C0.9500
T3F00S00C1.0000
T4F00S00C1.2000
T5F00S00C1.5000
T6F00S00C2.0000
T7F00S00C2.3000
;TYPE=NON_PLATED
T8F00S00C3.5000
%
T01
X00023Y0003575
X00032Y0002725
X00047Y00024
X00058Y0002725
X000655Y0003375
X0006425Y0006925
X00051Y0007525
X00033Y000735
X0002325Y00065
X0001975Y00051
X000925Y0010325
X001225
X001375Y0007325
Y0001325
X001075
X001675
X001975
X002275
X002575
X002875
X00287Y0003675
X0027225Y0004275
X0026725Y00057
X002715Y0007125
X00287Y000775
X002425Y0004325
X001825Y0010325
X003025
X003325
X003625
X003925
X004225
X004525
X004825
X005125
X005425
X005275Y0007325
X004975
X004675
X004375
X004075
X003775
X003475
X003175
X0030275Y0007125
X0030675Y00057
X0030275Y00043
X003325Y0004325
X003625
X003925
X004225
X004525
X004825
X005125
X005425
X005725
X006025
X006325
X006625
X006925
X006775Y0001325
X006475
X006175
X005875
X005575
X005275
X004975
X004675
X004375
X004075
X003775
X003475
X003175
X005575Y0007325
X005875
X006175
X006475
X006775
X006625Y0010325
X006325
X006025
X007225
X007525
X007825
X0076825Y00053
X00797676
X00827103
X00856529
X00885956
X00915382
X00944809
X009475Y0007325
X009625Y0010325
X00974235Y00053
X01003662
X010075Y0007325
X01033088Y00053
X01062515
X010675Y0007325
X01091941Y00053
X008725Y0010325
X007375Y0007325
X007075
X007225Y0004325
X007075Y0001325
X007375
X010975Y0007325
X01121367Y00053
X01150794
X0118022
X01209647
X01239073
X012685
X012325Y0010325
X012025
X011125
X01124Y0013725
X011125Y0016325
X0112125Y001775
X0110475Y0020575
X011125Y0022325
X01104Y002545
X01112Y00269
X01145Y00272
X011425Y0028325
X011725
X012025
X012325
X012625
X012475Y0031325
X012175
X011875
X011575
X011275
X0111925Y0029825
X0110475Y00314
X011125Y0034325
X01104Y00359
X0110125Y00393
X011125Y0040325
X01128Y00416
X011425Y0040325
X011275Y0037325
X011575
X011875
X012175
X012475
X012775
X012625Y0034325
X012325
X012025
X011725
X011425
X01164Y00253
X011575Y00225111
X01148Y0021225
X011685Y002015
X0116725Y0017675
X011725Y0016325
X0119475Y0016375
X012095Y0017725
X01212Y0013725
X01187058Y00121
X01273062
X0128075Y0016375
X012545Y0017725
X012475Y0019325
X0125575Y00201222
X0123625Y0021225
X01246Y0022525
X0120675Y0025325
X012775Y0031325
X012625Y0040325
X012325
X012025
Y0046325
X011725
X011425
X011125
X01127Y0049832
X011875Y0049325
X012325Y0046325
X012625
X010225
X009925
X009775Y0043325
X010075
X010375
X0105Y0039475
X0104825Y0038125
X01037319Y0034
X01014Y0033975
X0100025Y003415
X0096125Y0033425
X00961Y0035625
Y00368
X00954Y00374
X00954047Y00387269
X009195Y003905
X0090175Y0038675
X008885Y00379
X00884Y004065
X0090375Y004145
X009025Y0034325
X0091725Y0034
X00940319
X00965Y003105
X009775Y0025325
X010075
X0104725Y002615
X01048Y0024475
X01047Y0022575
X0103725Y002035
X0103775Y00176
Y0015316
X010075Y0019325
X009775
X0094375Y00176
Y0015316
X009475Y0013325
X009555Y0013025
X009775Y0013325
X009175Y0019325
X008875
Y0025325
X008425Y0022325
X008125
X007975Y0025325
X007825Y0028325
X007525
X0076025Y0030325
X0076425Y00324
Y00346
X007525Y0034325
X007225
X007075Y0031325
X007375
X007225Y0028325
X007075Y0025325
X007375
X007225Y0022325
X007525
X007375Y0019325
X007075
X007225Y0016325
X007525
X007825
X007675Y0019325
X00759Y0013
X007375Y0013325
X007075
X0085775Y0013
X0084389Y0015316
Y00176
X0086225Y0031075
X0086325Y00324
X0086375Y00346
X008615Y0036325
X00841319Y0034
X0081775Y0033975
X00814526Y00368
X00764
X007375Y0037325
X007075
X007225Y0040325
X0072925Y00475122
X0073Y00498998
X007825Y0046325
X0077425Y00431
X00803Y00515
X008575Y0049325
X009475
X009775
X010075
X010375
X0101Y003965
X0099575Y0040675
X0093475Y00471
X010475Y003055
Y0029175
X0104775Y002795
X006925Y0028325
X00665Y00286783
Y00296131
Y00305478
Y00314826
Y00324174
Y00333522
Y0034287
Y00352217
Y00361565
Y00370913
Y00380261
Y00389609
Y00398957
Y00408304
Y00417652
Y00427
X00643Y00424759
Y00415508
Y00406258
Y00397007
Y00387757
Y00378507
Y00369256
Y00360006
Y00350756
Y00341505
Y00332255
Y00323004
Y00313754
Y00304504
Y00295253
Y00286003
Y00276753
Y00267502
Y00258252
Y00249002
Y00239751
Y00230501
Y0022125
Y00212
X0064Y00203
X00639Y00194
Y00182
X00615Y00185
X00589Y00186
Y00197
X00595Y00204
X00603Y00207
X00611Y00214
X00617Y00221348
Y00230696
Y00239937
Y00249178
Y00258419
Y0026766
Y00276901
Y00286143
Y00295384
Y00304625
Y00313866
Y00323107
Y00332348
Y00341589
Y0035083
Y00360071
Y00369312
Y00378553
Y00387794
Y00397035
Y00406277
Y00415518
Y00424759
Y00434
X005875Y0043325
X005575
X0053125Y004445
X004975Y0043325
X004675
X004375
X004075
X003775
X003475
X003175
X0030625Y004305
X003225Y00414
X003325Y0040325
X003625
X003925
X004225
X004525
X004825
X005125
X005425
X005725
X006025
X005875Y0037325
X005575
X005275
X004975
X004675
X004375
X004075
X003775
X003475
X003175
X00306Y00398
X003025Y0034325
X003325
X00339Y00321972
X003175Y0031325
X0032325Y003063
X00354722Y0030625
X003775Y0031325
X004075
X004375
X004675
X004975
X005275
X005575
X005875
X005725Y0028325
X005425
X005125
X004825
X004525
X004225
X003925
X003625
X003325
X00339Y00290528
X003325Y0022325
X003025
X003175Y0019325
X003475
X003775
X004075
X004375
X004675
X004975
X005275
X005575
X005425Y0016325
X005125
X004825
X004525
X004225
X003925
X003625
X003325
X003025
X003175Y0013325
X003475
X003775
X004075
X004375
X004675
X004975
X005275
X005575
X00581Y0012925
Y0014975
X005725Y0016325
X00593Y00164
X00603
X00611Y00159
X00588Y00175
X006025Y0022325
X005725
X005425
X005125
X004825
X004525
X004225
X003925
X003625
X003775Y0025325
X004075
X004375
X004675
X004975
X005275
X005575
X005875
X006025Y0028325
Y0034325
X005725
X005425
X005125
X004825
X004525
X004225
X003925
X003625
Y0046325
X003325
X003025
X003175Y0049325
X003475
X003775
X004075
X004375
X004675
X004975
X0053025Y00491124
X00571Y00483
X005815Y00464
X0058825
X006175Y0049325
X00641Y0047075
X0065Y00471
X00658874
X00664Y0050625
X00695Y00491124
X0069325Y00478
X006925Y0040325
X006775Y0037325
X006925Y0034325
X006775Y0031325
X00665Y00277435
Y00268087
Y00258739
Y00249392
Y00240044
Y00230696
Y00221348
Y00212
X00669Y00204
X006925Y0022325
X006775Y0025325
X00681Y0016725
X006925Y0016325
X006865Y0014125
X004825Y0046325
X004525
X004225
X003925
X002725
X002425
X002375Y00438
X002575Y0043325
X002875
X00290278Y0041425
X002875Y0037325
Y0031325
X002575
X002275
X001975
X0017425Y003165
X00174Y0030575
X0014Y003065
X0014075Y0031475
X001405Y00345
X001225Y0034325
X0009325Y00339812
Y0033025
Y00320687
Y00311
Y00301562
Y00292
Y00282438
Y00272875
X0009325Y00263313
X0008265
X0007205
X0006145
X0005085
X0004025
X0004025Y0025125
X0002955
X0001885
X000105Y002515
Y00261479
Y00271458
Y00281438
Y00291417
Y00301396
Y00311375
Y00321354
Y00331333
Y0034125
Y00351292
Y00361271
Y0037125
X0001875Y00371
X000295
X0004025
X0004025Y00358937
X00051135
X0006145
X0007205
X0008265
X0009325Y00358937
X0009325Y00349375
X001075Y0037325
X00103622Y0039775
X00079622
X00064872Y0040975
Y0042325
X0004975Y0041425
X0001975
X0003475Y0044425
X0004975Y0047425
X0001975
X000925Y0046325
X001225
X001585Y00461625
Y004705
X00167375
Y00479375
X0017625
X00185125
Y004705
X0017625
Y00461625
X00167375
Y0045275
X001585
Y00443875
X00167375
Y00435
X001585
X0017625
Y00443875
Y0045275
X00185125
Y00461625
X00194
X00202875
Y0045275
Y00443875
Y00435
X00194
Y00443875
Y0045275
X00185125Y00443875
Y00435
X001375Y0043325
X00120858Y0042225
Y0040875
X00104622Y0043475
X00079122
X0003475Y0038425
X001375Y0037325
X0015Y0035625
X001635
X00173Y00345
X001675Y0037325
X001075Y0031325
X001225Y0028325
X001075Y0025325
X000925Y0022325
X000815Y0020575
X00056
X0004175Y0019425
Y0018075
X000565Y0016875
X000805
X000925Y0016325
X00097736Y0017975
Y0019325
X001075Y0019325
X001225Y0016325
X001525
X001825
X001675Y0013325
X001375
X001075
X000175Y0013825
Y0016825
Y0019825
Y0022825
X001225Y0022325
X001975Y0025325
X002425Y0022325
X002725
X002575Y0019325
X002275
X002575Y0049325
X002875
X002275Y0055325
X001975
X001675
X001375
X001075
X0006675Y00554
X000635Y0056475
X000565Y005735
X000445Y00579
X000295Y005765
X00019Y00568
X0001375Y0055225
X0002125Y005365
X0006175Y0053725
X000925Y0052325
X001225
X001525
X001825
Y0058325
X001525
X001225
X000925
X00089Y00612
X001075Y0061325
X001375
X001675
X001975
X002125Y0058325
X002425
X002575Y0061325
X002875
X002725Y0064325
X002755Y006815
X002945Y00667
X00256Y007
X002575Y0073325
X0023625Y0073275
X0025Y0076025
X00264Y007595
X00282Y00759
X0028525Y007363
X0027675Y008105
X00298Y008115
X00264Y0082925
X002575Y0085325
X00257933Y0090725
X0027988
X00235986
X00214038
X00192091
X00170144
X00148197
X0012625
X0008325Y008655
X00063Y008445
X0009275Y00781
X000925Y0076325
X0013475Y007735
X00135Y00736
X00109Y0072225
X001225Y0070325
X00147Y00702
X001375Y0067325
X001075
X000925Y0064325
X00074Y00642
X00044
X00014
X00029Y00672
X00059
X0005975Y007
X00067Y0071775
X0002525Y006995
X00029Y00612
X00059
X001225Y0064325
X001525
X001675Y0067325
X0018625Y00701
X0021525Y0070575
X0020025Y0074175
X00186Y0073725
X0018625Y007735
X002Y0077875
X001915Y0082275
X0015825Y00832
X003325Y0082325
X003475Y0085325
X003775
X004075
X00433Y0085875
X0041775Y008744
X00433Y0089
X00433509Y0090725
X00411562
X00389615
X00367668
X00345721
X00323774
X00301827
X00455457
X00477404
X00499351
X00521298
X00543245
X00565192
X00587139
X00609086
X00631033
X0065298
X00674928
X0067325Y0088275
X006775Y0085325
X0067875Y008345
X006625Y0082325
X0066Y0081025
X006865Y0080975
X006775Y0079325
X0067125Y0074
X006775Y0073325
X0069239Y007485
X006925Y0070325
X006625
X0064625Y0075075
Y00763
X0061725Y007725
X00619Y0073625
X00621Y007275
X005695Y0073575
X00523999Y00729998
X004675Y0073325
X0046839Y007485
X004525Y0076325
X004225
X0042375Y0075325
X004375Y0073325
X0039875Y0073025
Y007236
X003855Y0077
X004075Y0079325
X004375
X004675
X00463Y0081
X004525Y0082325
X004565Y0083425
X004225Y0082325
X003925
X00449Y008744
X004975Y0085325
X005275
X005575
X005425Y0082325
X005725
X006025
X0059325Y008105
X006325Y0082325
X006475Y0085325
X0053475Y0088225
X005275Y0079325
X005355Y007835
X004825Y0070325
X004525
X004675Y0067325
X004975
X004995Y006815
X0047375Y0063275
X0041925Y0063925
X0041Y006675
X0039775Y0066025
X003775Y0067325
X00364163Y0066325
X00342Y0066675
X003185Y00667
X003025Y0070325
X00337Y007105
X0043505Y006675
X004225Y0058325
X003925
X003625
X003475Y0055325
X003175
X003025Y0052325
X003325
X003625
X003925
X004225
X004525
X004825
X004675Y0055325
X004375
X004075
X003775
X004525Y0058325
X005Y00568
X00532Y0057723
Y00555
X00571Y00547004
Y00538876
X00581Y0056575
X0059475
X006175Y0055325
X0062025Y00528
X006325Y0052325
X0064225Y0054075
X00660658Y005575
X0066875Y0055075
X006625Y0052325
X00666002Y00596
X00678
X00626124
X00615Y00598
X0061653Y00632781
X006255Y00637
X0062625Y0062375
X00549027Y00633781
X005425Y0064325
X0056175Y0065475
X0058275Y0068646
X0059725Y0068475
X0072025Y00701
X00713351Y00708963
X007075Y0073325
X00748Y00729
X007905Y00735
X008435Y00731
X0085075Y0073625
X0086975Y0075125
Y00763
X0083625Y007715
X008255Y0082075
X008275Y0085325
X007975
X007675
X0075925Y0088272
X00762716Y0090725
X00784663
X0080661
X00828557
X00850504
X00872451
X00894398
X00916346
X00938293
X0096024
X00982187
X01004134
X01026081
X01048028
X01069975
X01091922
X0108575Y00882
X010675Y0085325
X010375
X010525Y0082325
X010825
X010845Y0080025
X01083Y0076575
X0108425Y007525
X0107725Y00726
X00997799Y00733036
X00974998Y00732999
X00949Y00724
X009625Y0070325
X009925
X0098725Y006755
X010225Y0064325
X009325
X009025
X00900863Y0060575
X00922159
X00943454
X0096475
X009625Y0058325
X009325
X009025
X00889Y00569
X00897Y00561
X009175Y0055325
X009475
X009775
X010075
X009925Y0052325
X009625
X010225
X009925Y0058325
X010825
X010725Y0059925
X00879568Y0060575
X00858273
X00836977
X00815682
X00794386
X00773091
X00751795
X007305
X00707Y00615
X00726Y00639
X0074125Y0064975
X007626
X0078395
X008053
X0082665
X00848
X00848Y00569
X00855Y00561
X00803Y00522
X00731Y00525
X00737Y00554
X0069725Y0057325
Y0058121
X007375Y0079325
X0076Y007825
X007525Y0082325
X007225
X007825
X008725
X009025
X008965Y008005
X009475Y0079325
X00949Y0078325
X009625Y0082325
X009925
X0099425Y00792
X009925Y0076325
X009925Y0075475
X009175Y0073325
X00884Y0073125
X009025Y0070325
X008875Y0085325
X008575
X00897Y0088275
X0094725Y008815
X009475Y0085325
X009775
X00740769Y0090725
X00718822
X00696875
X01113869
X01135816
X01157764
X01179711
X01201658
X01223605
X01245552
X01267499
X0128025Y00882
X012775Y0085325
X012475
X012625Y0082325
X012683Y00809
X0122375Y00812
X0120575Y0081175
X011875Y0085325
X011575
X0114225Y008815
X010975Y0085325
Y0079325
X0114375Y0078325
X011275Y0073325
X0113Y00715
X011425Y0070325
X011725
X012025
X012325
X012625
X012725Y007255
X012775Y0073325
X0128075Y007435
X012805Y0075075
X0128025Y007655
X01219Y00738
X01196308Y00733286
X01171Y00735
X011825Y0075425
X011895Y00757
X011875Y0067325
X011575
X011275
X011125Y0064325
X011425
X011725
X012025
X012325
X012625
X012475Y0061325
X012775
Y0055325
X012475
X012175
X011875
X011575
X011275
X01127Y0058816
X010975Y0061325
X0109775Y0068875
X010975Y0073325
X012175Y0067325
X012475
X012775
X011875Y0061325
X012025Y0052325
X012325
X012625
X011125
T02
X00625Y0013
Y0015
X0065Y0015048
Y0013
T03
X00141Y000405
X00159Y000915
X00829Y00097999
Y00072599
X00928
Y00097999
X01025
Y00072599
X01179Y000686
Y00094
X01268
Y000686
X012764Y00420681
X01251
X0125Y00503001
X012754
X008628Y00456
X008374
X00812
Y004306
X008374
X008628
X00829Y00245401
Y00220001
X00928
Y00245401
X01025
Y00220001
X002025Y00479
X001515Y00497
X001054Y0074322
Y0076862
Y0079402
X0008
Y0076862
Y0074322
X00039Y0085732
Y0088272
X00241
Y0085732
X0047855
Y0088272
X0070255
Y0085732
X00926Y008566
Y00882
X01123
Y008566
X0125Y00592841
X012754
T04
X00769Y00072599
X00793
X00868
X00892
X00965
X00989
X01123
X01147
X01212
X01236
X00989Y00221
X00965
X00892
X00868
X00793
X00769
X0028Y0088272
X00203
X00179
X00155
X00125
X00101
X00077
X00304
X00335
X00359
X0051355
Y0085872
Y0083472
X0059255Y0088272
X0061655
X0073755
Y0085872
Y0083472
X0081655Y0088272
X0084055
X01005Y00882
X01029
X012
X01224
T05
X0021715Y00057
X00287
T06
X00045Y0005
X00092
X00040681Y00506332
Y00553332
T07
X005773Y001029
X006977
T08
X01075Y0013
X00225
X00217815Y006515
X01067815
M30
