M48
;Layer_Color=9474304
;FILE_FORMAT=4:4
METRIC,LZ
;TYPE=PLATED
T1F00S00C0.3000
T2F00S00C1.0000
T3F00S00C1.2000
T4F00S00C1.5000
T5F00S00C2.0000
T6F00S00C2.3000
;TYPE=NON_PLATED
T7F00S00C3.5000
%
T01
X000224Y000222
X00023Y0003575
X00032Y0002725
X00047Y00024
X00058Y0002725
X000655Y0003375
X000732Y000222
X000986
X00124
X001494
X001748
X002002
X002256
X00251
X002764
X0027225Y0004275
X002637Y000476
X0026725Y00057
X002715Y0007125
X00287Y000775
X002891Y000984
X00287Y0003675
X002383Y000476
X001621
X001494Y00073
X00124
X001367Y000984
X001113
X000859
X000605
X000351
X00033Y000735
X000224Y00073
X0002325Y00065
X0001975Y00051
X00051Y0007525
X0006425Y0006925
X001875Y000984
X003145
X003399
X003653
X003907
X004161
X004415
X004669
X004923
X005177
X005431
X005558Y00073
X005812
X006066
X00632
X006574
X006828
X006701Y000984
X006447
X006193
Y000476
X006447
X006701
X006828Y000222
X006574
X00632
X006066
X005812
X005558
X005304
X00505
X004796
X004542
X004288
X004034
X00378
X003526
X003272
X003018
X0030275Y00043
X003145Y000476
X0030675Y00057
X0030275Y0007125
X003272Y00073
X003526
X00378
X004034
X004288
X004542
X004796
X00505
X005304
X005431Y000476
X005685
X005939
X005177
X004923
X004669
X004415
X004161
X003907
X003653
X003399
X006955
X007209
X007336Y00073
X007082
X007209Y000984
X007463
X007717
X008098Y00073
X008479Y000984
X008733
X009114Y00073
X009495Y000984
X009749
X010638Y00073
X010892
X007336Y000222
X007082
X011654Y00073
X011527Y000984
X012035
X012543
X01273062Y00121
X0128075Y0016375
X012545Y0017725
X0125575Y00201222
X0123625Y0021225
X01246Y0022525
X012543Y002508
X01267Y002762
X012416
X012162
X011908
X011654
X01164Y00253
X011654Y002254
X011575Y00225111
X01148Y0021225
X011685Y002015
X0116725Y0017675
X0119475Y0016375
X012095Y0017725
X01212Y0013725
X01187058Y00121
X01124Y0013725
X0112125Y001775
X011146Y002254
X011019Y002508
X01112Y00269
X01145Y00272
X011527Y003016
X011781
X012035
X012289
X012543
X012797
X01267Y00327
X012416
X012162
X011908
X011654
X0114
X011146
X011273Y003524
X011527
X011781
X012035
X012289
X012543
X012797
X01267Y003778
X012416
X012162
X011908
X011654
X0114
X011146
X011273Y004032
X01128Y00416
X011527Y004032
X011781
X012035
X012289
X012543
X012797
X01267Y004286
X012797Y00454
X012543
X012289
X012035
X011781
X011527
X011273
X011019
X011146Y004794
X0114
X011654
X011908
X012162
X012416
X01267
X01127Y0049832
X011019Y004032
Y003524
X011273Y003016
X0120675Y0025325
X010892Y001746
X010638
X0103775Y00176
Y0015316
X01013Y001238
X009749Y001492
X0094375Y0015316
Y00176
X009241Y002
X008987
X009114Y002254
X008987Y002508
X009749
X010003
X01013Y002254
X010384
X010257Y002
X010003
X009749
X009555Y0013025
X009114Y001238
X008987Y001492
X008733
X0084389Y0015316
Y00176
X008225Y002
X007971
X007717
X007463
X007209
X006955
X007082Y002254
X007336
X007463Y002508
X007209
X006955
X007082Y002762
X007336
X00759
X0076025Y0030325
X007463Y003016
X007209
X006955
X007082Y00327
X007336
X0076425Y00324
Y00346
X00764Y00368
X007463Y003524
X007209
X006955
X007082Y003778
X007336
X007209Y004032
X006955
X0072925Y00475122
X0073Y00498998
X007844Y004794
X007971Y00454
X0077425Y00431
X00814526Y00368
X0081775Y0033975
X00841319Y0034
X0086375Y00346
X008615Y0036325
X0086325Y00324
X0086225Y0031075
X0091725Y0034
X00940319
X0096125Y0033425
X00961Y0035625
Y00368
X00954Y00374
X00954047Y00387269
X009622Y004286
X009876
X01013
X010384
X0104825Y0040675
X0104525Y0039475
X01024Y0039724
X0102075Y003855
X010095Y00398
X01014Y0033975
X01037319Y0034
X009749Y003016
X00965Y003105
X008885Y00379
X00884Y004065
X008606Y004794
X008733Y005048
X009495
X009749
X010003
X010257
Y00454
X010003
X009749
X009495
X0093475Y00471
X00803Y00515
X007971Y002508
X008098Y002254
X007971Y001492
X007717
X007463
X007209
X006955
X007082Y001746
X007336
X00759
Y0013
X007336Y001238
X007082
X008098
X0085775Y0013
X006865Y0014125
X00681Y0016725
X00669Y00204
X00665Y00212
Y00221348
Y00230696
Y00240044
Y00249392
Y00258739
Y00268087
Y00277435
Y00286783
Y00296131
Y00305478
Y00314826
Y00324174
Y00333522
Y0034287
Y00352217
Y00361565
Y00370913
Y00380261
Y00389609
Y00398957
Y00408304
Y00417652
Y00427
X00643Y00424759
Y00415508
Y00406258
Y00397007
Y00387757
Y00378507
Y00369256
Y00360006
Y00350756
Y00341505
Y00332255
Y00323004
Y00313754
Y00304504
Y00295253
Y00286003
Y00276753
Y00267502
Y00258252
Y00249002
Y00239751
Y00230501
Y0022125
Y00212
X0064Y00203
X00639Y00194
Y00182
X00615Y00185
X00589Y00186
Y00197
X00595Y00204
X00603Y00207
X00611Y00214
X00617Y00221348
Y00230696
Y00239937
Y00249178
Y00258419
Y0026766
Y00276901
Y00286143
Y00295384
Y00304625
Y00313866
Y00323107
Y00332348
Y00341589
Y0035083
Y00360071
Y00369312
Y00378553
Y00387794
Y00397035
Y00406277
Y00415518
Y00424759
Y00434
X005939Y004032
X005685
X005431
X005177
X004923
X004669
X004415
X004161
X003907
X003653
X003399
X0033825Y004145
X003526Y004286
X00378
X004034
X004288
X004542
X004796
X00505
X005177Y00454
X0053125Y004445
X005685Y00454
X005815Y00464
X0058825
X00571Y00483
X0053025Y00491124
X005177Y005048
X004923
X004669
X004415
X004161
X003907
X003653
X003399
X003145
X003272Y004794
X003526
X00378
X004034
X004288
X004542
X004796
X004923Y00454
X004669
X004415
X004161
X003907
X003653
X003399
X003145
X003185Y0043225
X003018Y004286
X0030125Y004135
X003195Y0039775
X003272Y003778
X003526
X00378
X004034
X004288
X004542
X004796
X00505
X005304
X005558
X005812
X006066
X005939Y003524
X005685
X005431
X005177
X004923
X004669
X004415
X004161
X003907
X003653
X003399
X003145
X003272Y00327
X003526
X0035925Y00322194
X00378Y00327
X00374972Y00306472
X003907Y003016
X004161
X004415
X004669
X004923
X005177
X005431
X005685
X005939
X006066Y00327
X005812
X005558
X005304
X00505
X004796
X004542
X004288
X004034
Y002762
X004288
X004542
X004796
X00505
X005304
X005558
X005812
X006066
X005939Y002508
X005685
X005431
X005177
X004923
X004669
X004415
X004161
X003907
X004034Y002254
X004288
X004542
X004796
X00505
X005304
X005558
X005812
X006066
X005685Y002
X005431
X005177
X004923
X004669
X004415
X004161
X003907
X003653
X003399
X003145
X003272Y002254
X003526
X00378
Y002762
X0035925Y0029075
X003435Y00306522
X003018Y00327
Y003778
Y004794
Y002254
Y001746
X003272
X003526
X00378
X004034
X004288
X004542
X004796
X00505
X005304
X005558
X00588Y00175
X00593Y00164
X00603
X00611Y00159
X00581Y0014975
X005685Y001492
X005431
X005177
X004923
X004669
X004415
X004161
X003907
X003653
X003399
X003145
X003272Y001238
X003526
X00378
X004034
X004288
X004542
X004796
X00505
X005304
X005558
X00581Y0012925
X006828Y002254
Y002762
Y00327
Y003778
X0069325Y00478
X00695Y00491124
X00664Y0050625
X00658874Y00471
X0065
X00641Y0047075
X006193Y005048
X003018Y001238
X00251Y001746
X002256
X002383Y002
X00251Y002254
X002764
X002256
X002129Y002508
X001748Y002762
X00174Y0030575
X0017425Y003165
X00173Y00345
X001635Y0035625
X0015
X001367Y003524
X001405Y00345
X0014075Y0031475
X0014Y003065
X001113Y003016
X0009325Y00301562
Y00311
Y00320687
Y0033025
Y00339812
Y00349375
X0009325Y00358937
X0008265Y00358937
X0007205
X0006145
X00051135
X0004025
X0004025Y00371
X000295
X0001875
X000105Y0037125
Y00361271
Y00351292
Y0034125
Y00331333
Y00321354
Y00311375
Y00301396
Y00291417
Y00281438
Y00271458
Y00261479
Y002515
X0001885Y0025125
X0002955
X0004025
X0004025Y00263313
X0005085
X0006145
X0007205
X0008265
X0009325
X0009325Y00272875
Y00282438
Y00292
X00124Y002762
X001113Y002508
X000859
X000605
X000732Y002254
X000986
X00124
X001113Y002
X00097736Y0019325
Y0017975
X000805Y0016875
X000565
X000605Y001492
X000859
X001113
X001367
X001621
X001748Y001238
X001494
X00124
X000986
X000732
X000478
X000224
X000351Y001492
X000224Y001746
X0004175Y0018075
Y0019425
X000351Y002
X00056Y0020575
X000815
X000478Y002254
X000224
X00124Y001746
Y00327
X001113Y003524
X00124Y003778
X001494
X001748
X0017625Y00435
X00167375
Y00443875
Y0045275
Y00461625
Y004705
Y00479375
X0017625
X00185125
Y004705
X0017625
Y00461625
X00185125
X00194
X00202875
Y0045275
Y00443875
Y00435
X00194
Y00443875
Y0045275
X00185125
X0017625
Y00443875
X00185125
Y00435
X001585
Y00443875
Y0045275
Y00461625
Y004705
X001367Y00454
X001113
X000859
X000605
X000351
X000478Y004794
X000732
X000986
X00124
X00120858Y0042225
Y0040875
X00103622Y0039775
X00079622
X000605Y004032
X00064872Y0040975
Y0042325
X000478Y004286
X000224
X000351Y004032
X000478Y003778
X000732
X000986
X00104622Y0043475
X00079122
X000224Y004794
Y003778
X002375Y00438
X002383Y00454
X002637
X002891
X002764Y004794
X00251
X002891Y005048
X001875
X002002Y005302
X001748
X001494
X00124
X000986
X000732
X0006175Y0053725
X0006675Y00554
X000635Y0056475
X000565Y005735
X000445Y00579
X000295Y005765
X000224Y00581
X00019Y00568
X0001375Y0055225
X0002125Y005365
X000859Y005556
X001113
X001367
X001621
X001875
X002129
X002383
X00251Y00581
X002256
X002002
X001748
X001494
X00124
X000986
X000732
X000859Y006064
X001113
X001367
X001621
X001875
X002129
X002383
X002637
X002891
X002764Y006318
Y006826
X002945Y00667
X0028525Y007363
X002764Y007334
X00251
X0025Y0076025
X00264Y007595
X00282Y00759
X0027675Y008105
X00298Y008115
X002764Y00835
X00264Y0082925
X00251Y00835
X002637Y008604
X002256Y008858
X001875Y008096
X0018625Y007735
X002Y0077875
X0020025Y0074175
X00186Y0073725
X0018625Y00701
X0021525Y0070575
X00147Y00702
X001113Y00708
X000859
X0005975Y007
X000478Y006826
X000732
X000986
X001113Y006572
X001367
X001621
X001748Y006318
X001494
X00124
X000986
X000732
X000478
X000224
X000351Y006572
X000605
X000859
X000605Y006064
X000351
X000224Y006826
X0002525Y006995
X000605Y007588
X00063Y008445
X000605Y008604
X0008325Y008655
X001113Y008604
X0015825Y00832
X0013475Y007735
X00135Y00736
X00337Y007105
X00342Y0066675
X003185Y00667
X00364163Y0066325
X0039775Y0066025
X0041Y006675
X0043505
X0041925Y0063925
X0047375Y0063275
X004923Y006572
X004995Y006815
X004796Y006826
X004923Y00708
X004669
X004415
X004542Y007334
X004796
X0046839Y007485
X004415Y007588
X0042375Y0075325
X004288Y007334
X0039875Y0073025
Y007236
X003855Y0077
X004288Y007842
X004542
X00463Y0081
X004415Y008096
X004161
X004288Y00835
X004034
X00378
X003272
X003018
X003399Y008604
X004161
X0041775Y008744
X00433Y0089
X004542Y008858
X00449Y008744
X00433Y0085875
X004565Y0083425
X004923Y008604
X005431
X005685
X005812Y00835
X006066
X00632
X006574
X0067875Y008345
X006865Y0080975
X006701Y008096
X0066Y0081025
X006828Y007842
X0069239Y007485
X006828Y007334
X0067125Y0074
X006701Y00708
X00632Y007334
X00619Y0073625
X00621Y007275
X0064625Y0075075
Y00763
X0061725Y007725
X0059325Y008105
X005558Y00835
X005304
X005177Y008096
X005355Y007835
X00523999Y00729998
X005695Y0073575
X0058275Y0068646
X0059725Y0068475
X0056175Y0065475
X00549027Y00633781
X0061653Y00632781
X006255Y00637
X0062625Y0062375
X00626124Y00596
X00615Y00598
X006193Y005556
X0059475Y0056575
X00581
X00571Y00547004
Y00538876
X00532Y00555
Y0057723
X005Y00568
X004669Y005556
X004415
X004161
X003907
X003653
X003399
X003526Y00581
X00378
X004034
X004288
X004542
Y005302
X004796
X004288
X004034
X00378
X003526
X003272
X003018
X00632
X006574
X006701Y005556
X00666002Y00596
X00678
X006701Y008604
X006447
X0067325Y0088275
X006828Y008858
X005558
X0053475Y0088225
X007209Y008604
X007717
X007971
X007844Y00835
X00759
X007463Y008096
X0076Y007825
X00748Y00729
X007082Y007334
X00713351Y00708963
X0072025Y00701
X006955Y00708
X00726Y00639
X007209Y006064
X00707Y00615
X0069725Y0058121
Y0057325
X00737Y00554
X00731Y00525
X00803Y00522
X007971Y006064
X008225
X008479
X008733
X008987
X009241
X009495
X009749
X009876Y00581
X009622
X009368
X009114
X00886
X00889Y00569
X00897Y00561
X00855
X00848Y00569
X007717Y006064
X007463
X007905Y00735
X008435Y00731
X0085075Y0073625
X0086975Y0075125
Y00763
X0083625Y007715
X008255Y0082075
X008606Y00835
X00886
X009114
X009368
X009622
X009876
X01013
X010384
X010638
X010892
X010765Y008604
X010511
X010638Y008858
X0108575Y00882
X010845Y0080025
X010892Y007842
X01083Y0076575
X0108425Y007525
X010892Y007334
X00997799Y00733036
X00974998Y00732999
X009749Y00708
X010003
X009876Y006826
X010384
X010511Y006064
X010765
X01013Y005302
X009876
X009495Y00708
X00949Y00724
X009368Y007334
X009114
X00884Y0073125
X008987Y00708
X009114Y007842
X009368
X00949Y0078325
X0099425Y00792
X009925Y0075475
X009749Y008604
X009495
X0094725Y008815
X009114Y008858
X00897Y0088275
X008987Y008604
X008733
X008965Y008005
X0075925Y0088272
X011019Y008604
X011527
X011781
X0114225Y008815
X0114Y00835
X0114375Y0078325
X011825Y0075425
X011895Y00757
X01196308Y00733286
X01171Y00735
X01219Y00738
X012289Y00708
X012543
X012797
X012725Y007255
X0128075Y007435
X012805Y0075075
X0128025Y007655
X012797Y008096
X012683Y00809
X01267Y00835
X012416
X012543Y008604
X012797
X0128025Y00882
X0122375Y00812
X0120575Y0081175
X012162Y006826
X012416
X01267
X012797Y006572
X012543
X012289
X012035
X011781
X011527
X011273
X0114Y006826
X011654
X011908
Y006318
X012162
X012416
X01267
X012797Y006064
X01267Y00581
X012797Y005556
X012543
X012289
X012035
X011781
X011527
X011273
X01127Y0058816
X011019Y006064
X011146Y006318
X0114
X011654
X011781Y006064
X011908Y00581
Y005302
X012162
X012416
X01267
X011654
X0114
X012289Y006064
X011146Y006826
X0113Y00715
X011146Y007334
T02
X00141Y000405
X00159Y000915
X00829Y00097999
Y00072599
X00928
Y00097999
X01025
Y00072599
X01179Y000686
Y00094
X01268
Y000686
X012764Y00420681
X01251
X0125Y00503001
X012754
X008628Y00456
X008374
X00812
Y004306
X008374
X008628
X00829Y00245401
Y00220001
X00928
Y00245401
X01025
Y00220001
X0065Y0015048
Y0013
X00625
Y0015
X002025Y00479
X001515Y00497
X001054Y0074322
Y0076862
Y0079402
X0008
Y0076862
Y0074322
X00039Y0085732
Y0088272
X00241
Y0085732
X0047855
Y0088272
X0070255
Y0085732
X00926Y008566
Y00882
X01123
Y008566
X0125Y00592841
X012754
T03
X00769Y00072599
X00793
X00868
X00892
X00965
X00989
X01123
X01147
X01212
X01236
X00989Y00221
X00965
X00892
X00868
X00793
X00769
X0028Y0088272
X00203
X00179
X00155
X00125
X00101
X00077
X00304
X00335
X00359
X0051355
Y0085872
Y0083472
X0059255Y0088272
X0061655
X0073755
Y0085872
Y0083472
X0081655Y0088272
X0084055
X01005Y00882
X01029
X012
X01224
T04
X0021715Y00057
X00287
T05
X00045Y0005
X00092
X00040681Y00506332
Y00553332
T06
X005773Y001029
X006977
T07
X01075Y0013
X00225
X00217815Y006515
X01067815
M30
