M48
;Layer_Color=9474304
;FILE_FORMAT=4:4
METRIC,LZ
;TYPE=PLATED
T1F00S00C0.3000
T2F00S00C0.9000
T3F00S00C1.0000
T4F00S00C1.2000
T5F00S00C1.5000
T6F00S00C2.0000
T7F00S00C2.3000
;TYPE=NON_PLATED
T8F00S00C3.5000
%
T01
X000224Y000222
X000478
X000732
X000986
X00124
X001494
X001748
X002002
X002256
X00251
X002764
X002637Y000476
X002383
X002129
X001875
X001621
X001367
X001113
X000859
X000605
X000351
X000224Y00073
X000478
X000732
X000986
X00124
X001494
X001748
X002002
X002256
X00251
X002764
X0029625Y000665
X002891Y000476
Y000984
X0029075Y001175
X002637Y000984
X001875
X001621
X001367
X001113
X000859
X000605
X000351
X003145
X0031225Y0010925
X0030125Y0011275
X0032625Y001085
X00341Y0011075
X003399Y000984
X003653
X003695Y0011575
X003575Y00113
X003526Y00073
X00337Y000665
X0033075Y00082
X003165Y0008625
X0030225Y0008125
X003025Y0005075
X003165Y0004675
X0033075Y0005075
X003399Y000476
X003653
X00375Y0005125
X003785Y0006525
X00378Y00073
X0038825Y0007375
X0040625Y000755
X004195Y000695
X004215Y000845
Y00096536
Y00108571
Y00120607
X003907Y000984
X0038725Y000275
X00378Y000222
X0037825Y00036
X0040225Y0002425
X0041325Y000275
X0042075Y00034
X00428Y0002325
X00440667
X00453333
X00466
X0047675Y00025
Y0003825
Y000515
Y0006475
Y00078
Y0009125
Y001045
Y0011775
X004923Y000984
X005177
X005431
X005685
X0058025Y0008952
Y0010952
X006115Y001
X00611625Y0007475
X006
X0062325
X00634875
X006465
X00658125
X0066975
X006701Y000476
X006447
X006193
X005939
X005812Y000222
X005558
X005304
X00505
X004923Y000476
X005177
X005431
X005304Y00073
X00505
X005558
X006066Y000222
X00632
X006574
X006828
X0069025Y0008575
X0068725Y0010225
X0067375Y001165
X003526Y000222
X003272
X003018
X007082
X007336
X007209Y000476
X007336Y00073
X007209Y000984
X006955
X007463
X007717
X008098Y00073
X008479Y000984
X008733
X009114Y00073
X009495Y000984
X009749
X010638Y00073
X010892
X011654
X011527Y000984
X012035
X01187058Y00121
X01212Y0013725
X012095Y0017725
X0119475Y0016375
X0116725Y0017675
X011685Y002015
X011654Y002254
X011575Y00225111
X01148Y0021225
X011146Y002254
X011019Y002508
X01112Y00269
X01145Y00272
X011654Y002762
X01164Y00253
X0120675Y0025325
X012162Y002762
X011908
X011781Y003016
X011527
X011273
X011146Y00327
X0114
X011654
X011908
X012162
X012416
X01267
X012543Y003016
X012289
X012035
Y003524
X011781
X011527
X011273
X011019
X011146Y003778
X0114
X011654
X011908
X012162
X012416
X01267
X012543Y003524
X012289
Y004032
X012035
X011781
X011527
X011273
X01128Y00416
X011273Y00454
X011019
X011146Y004794
X0114
X011654
X011908
X012162
X012416
X01267
X012543Y00454
X012289
X012035
X011781
X011527
X01127Y0049832
X011019Y004032
X012543
X012797
X01267Y004286
X012797Y00454
Y003524
Y003016
X01267Y002762
X012416
X01246Y0022525
X0123625Y0021225
X0125575Y00201222
X012545Y0017725
X0128075Y0016375
X01273062Y00121
X01124Y0013725
X0112125Y001775
X010892Y001746
X010638
X0103775Y00176
Y0015316
X01013Y001238
X009749Y001492
X0094375Y0015316
Y00176
X009241Y002
X008987
X009114Y002254
X008987Y002508
X009749
X010003
X01013Y002254
X010384
X010257Y002
X010003
X009749
X009555Y0013025
X009114Y001238
X008987Y001492
X008733
X0084389Y0015316
Y00176
X008225Y002
X007971
X007717
X007463
X007209
X006955
X007082Y001746
X007336
X00759
X007463Y001492
X007209
X007082Y001238
X007336
X00759Y0013
X007717Y001492
X007971
X008098Y001238
X0085775Y0013
X008098Y002254
X007971Y002508
X007844Y002762
X00759
X007336
X007082
X006955Y002508
X007209
X007463
X007336Y002254
X007082
X006955Y003016
X007209
X007463
X0076025Y0030325
X0076425Y00324
Y00346
X00764Y00368
X007463Y003524
X007209
X006955
X007082Y00327
X007336
Y003778
X007082
X006955Y004032
X007209
X0071975Y004595
X0072925Y00475122
X0073Y00498998
X007844Y004794
X007971Y00454
X0077425Y00431
X0070275Y0044875
X00803Y00515
X008733Y005048
X008606Y004794
X0093475Y00471
X009495Y00454
X009749
X010003
X010257
X01013Y004286
X009876
X009622
X00954047Y00387269
X00954Y00374
X00961Y00368
Y0035625
X0096125Y0033425
X00940319Y0034
X0091725
X0086375Y00346
X008615Y0036325
X0086325Y00324
X0086225Y0031075
X00841319Y0034
X0081775Y0033975
X00814526Y00368
X008885Y00379
X00884Y004065
X010095Y00398
X01024Y0039724
X0102075Y003855
X0104525Y0039475
X0104825Y0040675
X010384Y004286
X010257Y005048
X010003
X009749
X009495
X00965Y003105
X009749Y003016
X01014Y0033975
X01037319Y0034
X006828Y00327
X006655Y00324174
Y00333522
Y0034287
Y00352217
Y00361565
Y00370913
Y00380261
Y00389609
Y00398957
Y00408304
Y00417652
Y00427
X00642126Y00424759
Y00415508
Y00406258
Y00397007
Y00387757
Y00378507
Y00369256
Y00360006
Y00350756
Y00341505
Y00332255
Y00323004
Y00313754
Y00304504
Y00295253
Y00286003
Y00276753
Y00267502
Y00258252
Y00249002
Y00239751
Y00230501
Y0022125
Y00212
Y0020275
Y00193499
Y00184249
Y00174998
X0062475Y0016975
X006105Y0017775
X0061625Y001845
X00617Y00193597
Y00202847
Y00212098
Y00221348
Y00230696
Y00239937
Y00249178
Y00258419
Y0026766
Y00276901
Y00286143
Y00295384
Y00304625
Y00313866
Y00323107
Y00332348
Y00341589
Y0035083
Y00360071
Y00369312
Y00378553
Y00387794
Y00397035
Y00406277
Y00415518
Y00424759
Y00434
X005939Y004032
X005685
X005431
X005177
X004923
X004669
X004415
X004161
X003907
X003653
X003399
X0033825Y004145
X003526Y004286
X00378
X004034
X004288
X004542
X004796
X00505
X004923Y00454
X004669
X004415
X004161
X003907
X003653
X003399
X003145
X003185Y0043225
X003018Y004286
X0030125Y004135
X003195Y0039775
X003272Y003778
X003018
X003145Y003524
X003399
X003653
X003907
X004161
X004415
X004669
X004923
X005177
X005431
X005685
X005939
X005812Y00327
X005558
X005304
X00505
X004796
X004542
X004288
X004034
X00378
X0035925Y00322194
X003526Y00327
X003272
X003018
X003435Y00306522
X00374972Y00306472
X003907Y003016
X004161
X004415
X004669
X004923
X005177
X005431
X005685
X005939
X005812Y002762
X005558
X005304
X00505
X004796
X004542
X004288
X004034
X00378
X0035925Y0029075
X003907Y002508
X004161
X004415
X004669
X004923
X005177
X005431
X005685
X005939
X005812Y002254
X005558
X005304
X00505
X004796
X004542
X004288
X004034
X00378
X003526
X003272
X003018
X00301362Y002095
X0030925Y00204
X0032Y00197
X00334Y001965
X0034625Y0019625
X0035875Y00196
X003653Y002
X0037275Y0019625
X0038575Y001965
X00398Y00195515
X0040925Y00189515
X004145Y0017925
X0041275Y00169
X004215Y0016875
Y00156714
Y00144679
Y00132643
X004034Y001238
X0039525Y001415
X004025Y0014925
X00409Y001595
X0042825Y00177
X0044Y0018425
X0045425Y00184
X004655Y0017825
X0047675Y0017075
Y001575
Y0014425
Y00131
X004923Y001492
X005177
X005431
X005685
X0058825Y00145
X005885Y00155
X005915Y0016625
X0060275Y001705
X005812Y001746
X005558
X005304
X00505
X004923Y002
X004669
X004415
X004161
X0038625Y001325
X003785Y00125
X00505Y001238
X005304
X005558
X0058125Y00124
X005875Y0013525
X005955Y0012825
X0060575Y00128
X0061225Y00121
X0061325Y00151
X006385Y00147609
X00638Y0015625
X006425Y001375
X0067675Y00127
X0068975Y0013025
X00694Y001415
X0069375Y0015225
Y00164
X0068325Y0016825
X006725Y00168
X006655Y00174999
Y00184249
Y001935
Y0020275
Y00212
Y00221348
Y00230696
Y00240044
Y00249392
Y00258739
Y00268087
Y00277435
Y00286783
Y00296131
Y00305478
Y00314826
X006828Y002762
Y002254
X006066
X005939Y002
X005685
X005431
X005177
X006066Y002762
Y00327
Y003778
X005812
X005558
X005304
X00505
X004796
X004542
X004288
X004034
X00378
X003526
Y004794
X003272
X003018
X003145Y005048
X003399
X003653
X003907
X004161
X004415
X004669
X004923
X005177
X0053025Y00491124
X0053125Y004445
X005177Y00454
X005685
X005815Y00464
X0058825
X00571Y00483
X006193Y005048
X00664Y0050625
X00658874Y00471
X0065
X00641Y0047075
X0069325Y00478
X00695Y00491124
X006828Y003778
X004796Y004794
X004542
X004288
X004034
X00378
X002764
X00251
X002383Y00454
X002375Y00438
X00202875Y00435
Y00443875
Y0045275
Y00461625
X00194
X00185125
Y004705
Y00479375
X0017625
X00167375
Y004705
X001585
Y00461625
X00167375
Y0045275
X001585
Y00443875
X00167375
Y00435
X001585
X0017625
Y00443875
Y0045275
Y00461625
Y004705
X00185125Y0045275
X00194
Y00443875
X00185125
Y00435
X00194
X001367Y00454
X001113
X000859
X000605
X000365Y00452
X00019Y0046175
X000224Y004794
X000478
X000732
X000986
X00124
X00120858Y0042225
Y0040875
X00103622Y0039775
X00079622
X000605Y004032
X00064872Y0040975
Y0042325
X000478Y004286
X000224
X0001925Y00407
X000351Y004032
X0004Y0041075
X0004025Y00371
X000295
X0001875
X000105Y0037125
Y00361271
Y00351292
Y0034125
Y00331333
Y00321354
Y00311375
Y00301396
Y00291417
Y00281438
Y00271458
Y00261479
Y002515
X0001885Y0025125
X0002955
X0004025
X0004025Y00263313
X0005085
X0006145
X0007205
X0008265
X0009325
X0009325Y00272875
Y00282438
Y00292
Y00301562
Y00311
Y00320687
Y0033025
Y00339812
Y00349375
X0009325Y00358937
X0008265Y00358937
X0007205
X0006145
X00051135
X0004025
X000478Y003778
X000224
X000732
X000986
X00124
X001494
X0015Y0035625
X001635
X00173Y00345
X0017425Y003165
X00174Y0030575
X001748Y002762
X00124
X001113Y002508
X000859
X000605
X000478Y002254
X000224
X000351Y002
X0004175Y0019425
Y0018075
X000224Y001746
X000351Y001492
X000605
X000565Y0016875
X000805
X000859Y001492
X001113
X001367
X001621
X001494Y001238
X00124
X000986
X000732
X000478
X000224
X00056Y0020575
X000815
X000732Y002254
X000986
X00124
X001113Y002
X00097736Y0019325
Y0017975
X00124Y001746
X001748Y001238
X002256Y001746
X002565Y0017425
Y00186162
Y0019575
X0025675Y0020725
X002585Y0021825
X00251Y002254
X0026925Y0022375
X002825
X0029375Y00218
X002383Y002
X002256Y002254
X002129Y002508
X0014Y003065
X0014075Y0031475
X00124Y00327
X001405Y00345
X001367Y003524
X001113
Y003016
X001748Y003778
X00104622Y0043475
X00079122
X001875Y005048
X002891
Y00454
X002637
X0025675Y0016
X00264882Y0015025
X00268259Y0013975
X002745Y0013125
X0028225Y00124
X002383Y005556
X002129
X001875
X001621
X001367
X001113
X000859
X0006675Y00554
X000635Y0056475
X000565Y005735
X000445Y00579
X000295Y005765
X000224Y00581
X00019Y00568
X0001375Y0055225
X00018Y005365
X0006175Y0053725
X000732Y005302
X000986
X00124
X001494
X001748
X002002
Y00581
X001748
X001494
X00124
X000986
X000732
X000605Y006064
X000351
X000224Y006318
X000478
X000732
X000986
X00124
X001494
X001748
X001621Y006064
X001367
X001113
X000859
Y006572
X000605
X000351
X000224Y006826
X0002525Y006995
X0005975Y007
X000478Y006826
X000732
X000986
X000859Y00708
X001113
X00147Y00702
X0018625Y00701
X0021525Y0070575
X0020025Y0074175
X00186Y0073725
X0018625Y007735
X002Y0077875
X001875Y008096
X0015825Y00832
X00157277Y00904
X00135811
X00178743
X00200209
X00221674
X0024314
X00264606
X00286072
X002637Y008604
X00264Y0082925
X002764Y00835
X0027675Y008105
X00298Y008115
X00282Y00759
X00264Y007595
X0025Y0076025
X00251Y007334
X002764
X0028525Y007363
X002764Y006826
X002945Y00667
X002764Y006318
X002637Y006064
X002383
X002129
X001875
X002256Y00581
X00251
X002891Y006064
X001621Y006572
X001367
X001113
X00135Y00736
X0013475Y007735
X000605Y007588
X00063Y008445
X000605Y008604
X0008325Y008655
X001113Y008604
X002256Y008858
X00251Y00835
X003018
X003272
X003399Y008604
X00350469Y00904
X00329004
X00307538
X00371935
X00393401
X00414867
X00436333
X00433Y0089
X004542Y008858
X00449Y008744
X0041775
X004161Y008604
X00433Y0085875
X004288Y00835
X004034
X00378
X004161Y008096
X004415
X00463Y0081
X004565Y0083425
X004542Y007842
X004288
X0042375Y0075325
X004415Y007588
X0046839Y007485
X004796Y007334
X004542
X004288
X0039875Y0073025
Y007236
X004415Y00708
X004669
X004923
X004995Y006815
X004796Y006826
X004665Y006775
X0043505Y006675
X0041
X0039775Y0066025
X00397Y0063525
X0037275Y00636
X0034325Y0063501
X00342Y0066675
X003185Y00667
X00364163Y0066325
X00337Y007105
X003855Y0077
X005355Y007835
X005177Y008096
X005304Y00835
X005558
X00578Y00836
X005805Y00861706
X005685Y008604
X005431
X0053475Y0088225
X005558Y008858
X00565128Y00904
X00543662
X00522196
X0050073
X00479264
X00457799
X00586593
X00608059
X00629525
X00650991
X00672457
X00693923
X006828Y008858
X0067325Y0088275
X006701Y008604
X006447
X00628527Y008685
X00628495Y008455
X00628Y00829909
X006066Y00835
X00604299Y008566
X0059325Y008105
X0061725Y007725
X00619Y0073625
X00621Y007275
X00632Y007334
X0064625Y0075075
Y00763
X0067125Y0074
X006828Y007334
X0069239Y007485
X006828Y007842
X006865Y0080975
X006701Y008096
X0066Y0081025
X006574Y00835
X0067875Y008345
X006701Y00708
X00668Y00651224
X0063575Y00646539
X006255Y00637
X0061653Y00632781
X0062625Y0062375
X00626124Y00596
X00615Y00598
X006193Y005556
X006447
X00657057Y0054
X006574Y005302
X00632
X00571Y00538876
Y00547004
X00581Y0056575
X0059475
X00532Y00555
Y0057723
X005Y00568
X004669Y005556
X004415
X004161
X003907
X003653
X003399
X003272Y005302
X003018
X003526
X00378
X004034
X004288
X004542
X004796
X004542Y00581
X004288
X004034
X00378
X003526
X0041925Y0063925
X0047375Y0063275
X004923Y006572
X0056175Y0065475
X00549027Y00633781
X0058275Y0068646
X0059725Y0068475
X005695Y0073575
X00523999Y00729998
X00666002Y00596
X00678
X0069725Y0058121
Y0057325
X00707Y00615
X007209Y006064
X007463
X007717
X007971
X008225
X008479
X008733
X008987
X009241
X009495
X009749
X009622Y00581
X009368
X009114
X00886
X00889Y00569
X00897Y00561
X00855
X00848Y00569
X0085425Y00648844
X00828937Y00649
X00807862
X00783194Y00649231
X00745306Y00649
X00726Y00639
X0070075Y0065175
X006955Y00708
X00713351Y00708963
X0072025Y00701
X007082Y007334
X00748Y00729
X007905Y00735
X008435Y00731
X0085075Y0073625
X0086975Y0075125
Y00763
X0083625Y007715
X008255Y0082075
X00805414Y0082675
X007844Y00835
X00759
X007463Y008096
X0076Y007825
X007717Y008604
X007971
X008055Y0086425
X00801252Y00904
X00779786
X0075832
X00736854
X00715388
X007209Y008604
X0075925Y0088272
X00822718Y00904
X00844183
X00865649
X00887115
X00908581
X009114Y008858
X00897Y0088275
X008987Y008604
X008733
X00855451Y0086975
X008606Y00835
X008505Y00829
X00886Y00835
X009114
X009368
X009622
X009876
X0098825Y00821
X00994949Y00846
X00994056Y008635
X009749Y008604
X009495
X0094725Y008815
X00951512Y00904
X00930047
X00972978
X00994444
X0101591
X01037376
X01058841
X01080307
X0108575Y00882
X010638Y008858
X010511Y008604
X01039336Y008635
X01016124Y00862
X0101725Y0083425
X010175Y0081525
X01040306Y00829
X010638Y00835
X010892
X010765Y008604
X010845Y0080025
X010892Y007842
X01083Y0076575
X0108425Y007525
X010892Y007334
X00997799Y00733036
X00974998Y00732999
X009749Y00708
X009495
X00949Y00724
X009368Y007334
X009114
X00884Y0073125
X008987Y00708
X00894Y0064475
X0092725
X009876Y006826
X010003Y00708
X009925Y0075475
X0099425Y00792
X00949Y0078325
X009114Y007842
X008965Y008005
X010384Y006826
X010511Y006064
X010765
X009876Y00581
Y005302
X01013
X00803Y00522
X00731Y00525
X00737Y00554
X011273Y005556
X011527
X011781
X012035
X012289
X012543
X012797
X01267Y005302
X012416
X012162
X011908
X011654
X0114
X01127Y0058816
X011019Y006064
X011146Y006318
X0114
X011654
X011908
X012162
X012416
X01267
X012543Y006572
X012289
X012035
X011781
X011527
X011273
X011146Y006826
X0114
X011654
X011908
X012162
X012416
X01267
X012543Y00708
X012289
X01219Y00738
X01196308Y00733286
X01171Y00735
X011825Y0075425
X011895Y00757
X0120575Y0081175
X0122375Y00812
X0124875Y0081425
X012683Y00809
X012797Y008096
X01267Y00835
X012416
X0123475Y008285
X01234Y0084975
X0123425Y008665
X012543Y008604
X012797
X0128025Y00882
X012735Y00904
X01252034
X01230568
X01209102
X01187636
X01166171
X01144705
X01123239
X01101773
X011019Y008604
X0110975Y0083
X0114025Y008325
X0115025Y008145
X01167Y00818878
X011705Y0083875
X01189Y0084025
X01189835Y0086325
X011781Y008604
X011527
X0114225Y008815
X0121125Y0086175
Y00837
X0114375Y0078325
X01104Y0080219
X011146Y007334
X0113Y00715
X012725Y007255
X012797Y00708
X0128075Y007435
X012805Y0075075
X0128025Y007655
X012797Y006572
Y006064
X01267Y00581
X012289Y006064
X011781
X011908Y00581
T02
X00625Y0008952
Y0010952
X0065Y0011
Y0008952
T03
X00829Y00072599
Y00097999
X00928
Y00072599
X01025
Y00097999
X01179Y00094
Y000686
X01268
Y00094
X012764Y00420681
X01251
X0125Y00503001
X012754
X008628Y00456
X008374
X00812
Y004306
X008374
X008628
X00829Y00245401
Y00220001
X00928
Y00245401
X01025
Y00220001
X0044725Y00159
X0039625Y00177
X002025Y00479
X001515Y00497
X001054Y0074322
Y0076862
Y0079402
X0008
Y0076862
Y0074322
X00039Y0085732
Y0088272
X00241
Y0085732
X0047855
Y0088272
X0070255
Y0085732
X00926Y008566
Y00882
X01123
Y008566
X0125Y00592841
X012754
T04
X00769Y00072599
X00793
X00868
X00892
X00965
X00989
X01123
X01147
X01212
X01236
X00989Y00221
X00965
X00892
X00868
X00793
X00769
X0028Y0088272
X00203
X00179
X00155
X00125
X00101
X00077
X00304
X00335
X00359
X0051355
Y0085872
Y0083472
X0059255Y0088272
X0061655
X0073755
Y0085872
Y0083472
X0081655Y0088272
X0084055
X01005Y00882
X01029
X012
X01224
T05
X003165Y000665
Y0013635
T06
X0040025Y0005025
X0044725
X00040681Y00506332
Y00553332
T07
X005773Y0006242
X006977
T08
X01075Y0013
X00225
X00217815Y006515
X01067815
M30
