M48
;Layer_Color=9474304
;FILE_FORMAT=4:4
METRIC,LZ
;TYPE=PLATED
T1F00S00C0.3000
T2F00S00C0.9000
T3F00S00C1.0000
;TYPE=NON_PLATED
T4F00S00C5.0000
%
T01
X00012Y000958
Y001212
X00056Y00124
X00072282Y00119
X00082Y00118
X00072Y0009
X00101Y00092
X0012Y00083
X0009Y00075
X00039Y0009
X00114Y00125
X00131718Y0012
X0010175Y0014125
X00135Y00045
X001214Y00012
X00096
X001468
X001722
X001976
X00223
X002484
X002738
X002992
X003246
X0035
X003754
X004008
X004262
X004516
X00477
X005024
X005278
X00513Y0006
X00528Y00076
X00531Y00099
X00518Y00094
X00491Y00105
X00475Y00113
X00442Y0012
X00433Y00085
X00451Y00059
X00478Y00061
X00398Y00062
X00395Y00079
X00379Y00089
X00402Y0011
X00353Y00114
X00319Y00094
X00299Y00062
X0035Y0006
X00244Y00081
X00255Y00095
X00268Y00124
X00232Y00125
X00208Y00124
X001976Y00095
X001722
X00164Y00082
X00144Y0012
X00527Y00132
X00569Y00134
X00594Y00132
X00579Y00102
X00578Y00083
X00565Y00084
X00579Y0006
X006Y00054
X00596Y0004
X00604Y00012
X005786
X005532
X0055Y00108
X0066Y00107
X00688Y000958
Y001212
Y001466
Y00172
Y001974
Y002228
Y002482
Y002736
Y00299
Y003244
Y003498
Y003752
Y004006
Y00426
Y004514
Y004768
Y005022
Y005276
X00632Y00512
X00593Y00513
X00567Y00512
X00559Y00507
X0055Y00487
Y00462
X00558Y00452
X00567Y00461
X0057Y0043
X00563Y00393
X00597Y0041
X00622Y00369
X00644Y0039
X00572Y00333
X00575Y00302
X00583Y00253
X00611Y00251
Y0028
X00606Y00204
X00627Y00201
Y00164
X0061Y00146
X00576Y00147
X0058Y00157
X0054Y00159
X00549Y00145
X00561Y0021
X00544Y00529
X00495Y00515
X00475Y00493
X00448Y00501
X00435
X00438Y00483
X00444001Y00455
X00430999Y00440999
X00425Y00427
X00409Y00411
X00397Y00439
X00394Y00454
X00403Y00474
X00386Y00484
X00397Y005
X00412
X0038Y00513
X00395Y00528
X00462Y00526
X00467Y00405
X00449999Y00400999
X00443Y00394
X00446Y00386
X00443Y0037
X00459
X00477Y00351
X00467Y00326
X0044Y00317
X00431Y00345
X0041Y00357
X004Y00369
X00385Y00353
X00384Y00324
X0036Y00327
X0034Y00312
X00342Y00297
X00379Y00257
X00407Y00259
X00431999Y0026
X00421Y00273
X00402Y00204
X00407Y00163
Y00152
X00479Y00145
X00494Y00175
X00473Y00202
X00456Y00189
X00474Y00234
X0052Y00268
X00524Y00313
X00527Y00354
X00517Y00388
X00518Y00419
X00499Y00404
X00488
X00387Y00392
X00365Y00394
X00364Y00404
X00367999Y00379999
X00374999Y00374999
X00331Y00377
X00301Y00394
X00295Y00404
X00279Y00418
X00258Y00428
X00254Y00456
X00267032Y00451032
X00282Y00481
X00278Y00498
X00256
X0023
X00215Y00525
X0018
X00158Y00533
X00147Y00483
X00187Y00495
X00186Y00432
X0018Y00415
X00195Y00392
X00184Y00365
X0017Y00328
X00168Y00316
X00149Y00318999
X00149Y00309
X00155Y00265
X0017Y00279
X00194Y00283
X00192Y00299
X00208Y00306
X00224Y00323
X00227Y00335
X00227999Y00356001
X00242Y00298
X00282Y00323
X00287Y0038
X0033Y00427
X00325Y00462
X00339Y00483
X00359Y00438
X00145Y00409999
X0017Y00248
X00183Y00259
X0018Y00223
X00181Y00207
X00199
Y00228
X00153Y00206
X00162Y00188
X00143
X00152Y00154
X00171Y00172
X00189Y00163
X00233Y00175
X00277Y00176
X00294Y0018975
X00279Y00211
X00276Y00246
X00289Y00259
X00336Y00211
X00324Y0017
X00142Y00159
X00118Y00215
X00123Y00235
X00102Y0024
X00137Y00259
X00138Y00286
X00127Y00291
X00117238Y00309238
X001045Y00302499
X00083Y00293
X00071
X00086Y00332
X00104Y00357
X00096Y00378
X00137Y00376
X00134Y00335
X00055Y00353
X00012Y003498
Y003244
Y00299
Y002736
Y002482
Y002228
Y001974
Y00172
Y001466
X00039Y00146
X00076Y00187
X00086Y00189
X00102Y00418
X00122Y00427
X0006Y00445
X00012Y004514
Y00426
Y004006
Y003752
Y004768
Y005022
Y005276
X00058Y00519
X00125Y0052
X00091Y00478
X00076Y00544
X00107Y00551
X00108Y00596
X00089Y00624
X00059Y00613
X0004Y00592
X00027Y00579
X00012Y005784
Y006038
Y00553
X00053Y00579
X00133Y00622
X001214Y00688
X00096
X001468
X001722
X001976
X00223
X002484
X002738
X002992
X003246
X0035
X003754
X004008
X004262
X00414Y00647
X00439
X00466
X00489
X00517
X00538Y00552
X00496Y0054
X00479Y00552
X00419Y0054
X00388Y00647
X00363
X00337
X00312
Y00627
X00287Y00622
Y00647
X00261
X00236
X0021
X00185
X00157Y00596
X00159Y00575
X00256Y00577
X00267Y00573
X00267004Y00563
X00281Y00556
X00289Y00582
X00252Y00597
X00261Y00622
X00544Y00571
X00579Y00558
X00604Y00557
X00594Y00543
X00592Y00602
X00616Y00614
X00626Y00583
X00652Y00561
X00688Y00553
Y005784
Y006038
X00593Y00641
X00579Y00647
X00604Y00688
T02
X001722Y0004
X001976
X00223
X002484
X002738
X002992
X003246
X0035
X003754
X004008
X004262
X004516
X00477
X005024
X005278
X00627Y0013275
X0066Y00172
Y001974
Y002228
Y002482
Y002736
Y00299
Y003244
Y003498
Y003752
Y004006
Y00426
Y004514
Y004768
Y005022
Y005276
X00627Y0035
X006016
Y003246
X00627
Y002992
X006016
X00627Y0024925
X005078Y002576
X004824
X00457
Y00283
X004824
X005078
X002007Y00459
X00188
X001753
X001217Y00457
X00109
X000963
X00077Y0049275
X0004Y005022
Y004768
Y004514
Y00426
Y004006
Y003752
Y003498
Y003244
Y00299
Y002736
Y002482
Y002228
Y001974
Y00172
Y005276
X00077Y0060925
X001722Y0066
X001976
X00223
X002484
X002738
X002992
X003246
X0035
X003754
X004008
X004262
X004516
X00477
X005024
X005278
T03
X00124Y00501999
Y00672001
T04
X0004Y0004
X0066
X0004Y0066
X0066
M30
