G04 Layer_Color=8421504*
%FSLAX44Y44*%
%MOMM*%
G71*
G01*
G75*
%ADD12R,1.4000X1.1000*%
%ADD13R,1.4000X1.5000*%
%ADD14R,0.6000X0.5000*%
%ADD15R,0.5500X1.5000*%
%ADD16R,1.5000X0.5500*%
%ADD17R,7.5000X3.0000*%
%ADD18R,1.5000X1.4000*%
%ADD19R,3.5000X1.6000*%
%ADD20R,1.8001X2.4001*%
%ADD21R,0.5000X0.6000*%
%ADD22R,1.6002X0.5588*%
%ADD23R,1.3208X0.5588*%
%ADD24R,0.8000X0.9000*%
%ADD25R,0.6000X1.4500*%
%ADD26R,1.1000X1.4000*%
%ADD27R,1.7780X0.4318*%
%ADD28R,1.4500X0.6000*%
%ADD29O,2.5000X0.7000*%
%ADD30R,2.2860X1.7780*%
G04:AMPARAMS|DCode=31|XSize=5.0099mm|YSize=1.51mm|CornerRadius=0.1888mm|HoleSize=0mm|Usage=FLASHONLY|Rotation=180.000|XOffset=0mm|YOffset=0mm|HoleType=Round|Shape=RoundedRectangle|*
%AMROUNDEDRECTD31*
21,1,5.0099,1.1325,0,0,180.0*
21,1,4.6324,1.5100,0,0,180.0*
1,1,0.3775,-2.3162,0.5663*
1,1,0.3775,2.3162,0.5663*
1,1,0.3775,2.3162,-0.5663*
1,1,0.3775,-2.3162,-0.5663*
%
%ADD31ROUNDEDRECTD31*%
%ADD32R,1.7780X0.4064*%
%ADD33R,0.7899X1.0899*%
%ADD34R,1.0201X1.7899*%
%ADD35R,3.6000X1.1500*%
%ADD37R,0.5000X0.7000*%
%ADD70R,1.9050X1.2700*%
%ADD71R,3.0480X1.2700*%
D12*
X608000Y422500D02*
D03*
Y437500D02*
D03*
X347000Y633500D02*
D03*
Y618500D02*
D03*
X604000Y383500D02*
D03*
Y398500D02*
D03*
X582000Y383500D02*
D03*
Y398500D02*
D03*
X535000Y323500D02*
D03*
Y338500D02*
D03*
X528000Y371500D02*
D03*
Y386500D02*
D03*
X466000Y136500D02*
D03*
Y151500D02*
D03*
X215000Y358500D02*
D03*
Y343500D02*
D03*
X69000Y472500D02*
D03*
Y457500D02*
D03*
X147000Y471500D02*
D03*
Y456500D02*
D03*
X65000Y243500D02*
D03*
Y258500D02*
D03*
X84000Y243500D02*
D03*
Y258500D02*
D03*
D13*
X559000Y227000D02*
D03*
X539000D02*
D03*
X88000Y278000D02*
D03*
X68000D02*
D03*
X113000Y348000D02*
D03*
X133000D02*
D03*
X169000Y350000D02*
D03*
X189000D02*
D03*
X490000Y227000D02*
D03*
X510000D02*
D03*
X606000Y527000D02*
D03*
X626000D02*
D03*
X561000Y408000D02*
D03*
X541000D02*
D03*
X316000Y362000D02*
D03*
X296000D02*
D03*
Y334000D02*
D03*
X316000D02*
D03*
X457000Y340000D02*
D03*
X477000D02*
D03*
X457000Y313000D02*
D03*
X477000D02*
D03*
X360000Y182000D02*
D03*
X380000D02*
D03*
Y210000D02*
D03*
X360000D02*
D03*
X360000Y238000D02*
D03*
X340000D02*
D03*
X293000D02*
D03*
X313000D02*
D03*
X232000Y223000D02*
D03*
X212000D02*
D03*
X200000Y140000D02*
D03*
X220000D02*
D03*
X267000D02*
D03*
X247000D02*
D03*
X406000Y183000D02*
D03*
X426000D02*
D03*
X512000Y136000D02*
D03*
X492000D02*
D03*
X584000Y40000D02*
D03*
X564000D02*
D03*
X512000Y79000D02*
D03*
X492000D02*
D03*
X191000Y323000D02*
D03*
X211000D02*
D03*
X195000Y379000D02*
D03*
X215000D02*
D03*
X112000Y106000D02*
D03*
X132000D02*
D03*
X115000Y202000D02*
D03*
X135000D02*
D03*
X115000Y174000D02*
D03*
X135000D02*
D03*
X88000D02*
D03*
X68000D02*
D03*
X88000Y202000D02*
D03*
X68000D02*
D03*
X89000Y348000D02*
D03*
X69000D02*
D03*
D14*
X426000Y198000D02*
D03*
X416000D02*
D03*
X326000Y393000D02*
D03*
X316000D02*
D03*
X449000Y378000D02*
D03*
X459000D02*
D03*
X449000Y362000D02*
D03*
X459000D02*
D03*
X484000Y209000D02*
D03*
X474000D02*
D03*
X491000Y154000D02*
D03*
X481000D02*
D03*
X492000Y60000D02*
D03*
X502000D02*
D03*
X151000Y328000D02*
D03*
X161000D02*
D03*
X134000Y426000D02*
D03*
X144000D02*
D03*
X72000Y110000D02*
D03*
X82000D02*
D03*
D15*
X360000Y425000D02*
D03*
X368000D02*
D03*
X376000D02*
D03*
X384000D02*
D03*
X392000D02*
D03*
X400000D02*
D03*
X408000D02*
D03*
X416000D02*
D03*
Y339000D02*
D03*
X408000D02*
D03*
X400000D02*
D03*
X392000D02*
D03*
X384000D02*
D03*
X376000D02*
D03*
X368000D02*
D03*
X360000D02*
D03*
D16*
X431000Y410000D02*
D03*
Y402000D02*
D03*
Y394000D02*
D03*
Y386000D02*
D03*
Y378000D02*
D03*
Y370000D02*
D03*
Y362000D02*
D03*
Y354000D02*
D03*
X345000D02*
D03*
Y362000D02*
D03*
Y370000D02*
D03*
Y378000D02*
D03*
Y386000D02*
D03*
Y394000D02*
D03*
Y402000D02*
D03*
Y410000D02*
D03*
D17*
X398000Y574000D02*
D03*
Y624000D02*
D03*
D18*
X597000Y252000D02*
D03*
Y272000D02*
D03*
X632000Y446000D02*
D03*
Y426000D02*
D03*
Y381000D02*
D03*
Y401000D02*
D03*
X508000Y455000D02*
D03*
Y435000D02*
D03*
X511000Y343000D02*
D03*
Y323000D02*
D03*
X560000D02*
D03*
Y343000D02*
D03*
X505000Y371000D02*
D03*
Y391000D02*
D03*
X297000Y156000D02*
D03*
Y136000D02*
D03*
X324600Y156000D02*
D03*
Y136000D02*
D03*
X426000D02*
D03*
Y156000D02*
D03*
X594000Y213000D02*
D03*
Y193000D02*
D03*
Y167000D02*
D03*
Y147000D02*
D03*
X660000Y119000D02*
D03*
Y139000D02*
D03*
X552000Y73000D02*
D03*
Y93000D02*
D03*
X463000Y75000D02*
D03*
Y95000D02*
D03*
X171000Y160000D02*
D03*
Y140000D02*
D03*
X209000Y278000D02*
D03*
Y258000D02*
D03*
X215000Y407000D02*
D03*
Y427000D02*
D03*
X104000Y78000D02*
D03*
Y58000D02*
D03*
X134000Y78000D02*
D03*
Y58000D02*
D03*
X39000Y123000D02*
D03*
Y103000D02*
D03*
X40000Y579000D02*
D03*
Y559000D02*
D03*
X546000Y257000D02*
D03*
Y277000D02*
D03*
D19*
X459000Y610000D02*
D03*
X515000D02*
D03*
X403000Y514000D02*
D03*
X347000D02*
D03*
D20*
X452751Y559000D02*
D03*
X493249D02*
D03*
D21*
X535000Y519000D02*
D03*
Y529000D02*
D03*
X193000Y182000D02*
D03*
Y172000D02*
D03*
X560000Y144000D02*
D03*
Y134000D02*
D03*
X152000Y145000D02*
D03*
Y135000D02*
D03*
X188000Y407000D02*
D03*
Y397000D02*
D03*
D22*
X535000Y505700D02*
D03*
Y493000D02*
D03*
Y480300D02*
D03*
Y467600D02*
D03*
Y454900D02*
D03*
Y442200D02*
D03*
Y429500D02*
D03*
X585800D02*
D03*
Y442200D02*
D03*
Y454900D02*
D03*
Y467600D02*
D03*
Y480300D02*
D03*
Y493000D02*
D03*
Y505700D02*
D03*
D23*
X631700Y502398D02*
D03*
Y493000D02*
D03*
Y483602D02*
D03*
X606300D02*
D03*
Y493000D02*
D03*
Y502398D02*
D03*
D24*
X619000Y468000D02*
D03*
X605000D02*
D03*
X296000Y312000D02*
D03*
X282000D02*
D03*
X316000Y312000D02*
D03*
X330000D02*
D03*
X226000Y160000D02*
D03*
X240000D02*
D03*
X199000D02*
D03*
X213000D02*
D03*
X254000D02*
D03*
X268000D02*
D03*
D25*
X435500Y239750D02*
D03*
X416500D02*
D03*
X426000Y216250D02*
D03*
X607500Y92750D02*
D03*
X588500D02*
D03*
X598000Y69250D02*
D03*
X123500Y258750D02*
D03*
X104500D02*
D03*
X114000Y235250D02*
D03*
D26*
X254500Y223000D02*
D03*
X269500D02*
D03*
X481500Y189000D02*
D03*
X466500D02*
D03*
X481500Y171000D02*
D03*
X466500D02*
D03*
X201500Y495000D02*
D03*
X216500D02*
D03*
X174500Y495000D02*
D03*
X159500D02*
D03*
D27*
X212553Y177250D02*
D03*
Y183750D02*
D03*
Y190250D02*
D03*
Y196750D02*
D03*
X253447D02*
D03*
Y190250D02*
D03*
Y183750D02*
D03*
Y177250D02*
D03*
D28*
X360250Y155500D02*
D03*
Y136500D02*
D03*
X383750Y146000D02*
D03*
X304250Y200500D02*
D03*
Y181500D02*
D03*
X327750Y191000D02*
D03*
D29*
X560500Y162950D02*
D03*
Y175650D02*
D03*
Y188350D02*
D03*
Y201050D02*
D03*
X511500Y162950D02*
D03*
Y175650D02*
D03*
Y188350D02*
D03*
Y201050D02*
D03*
X163500Y371950D02*
D03*
Y384650D02*
D03*
Y397350D02*
D03*
Y410050D02*
D03*
X114500Y371950D02*
D03*
Y384650D02*
D03*
Y397350D02*
D03*
Y410050D02*
D03*
D30*
X426200Y66230D02*
D03*
Y109770D02*
D03*
X375000Y66230D02*
D03*
Y109770D02*
D03*
X324600Y66230D02*
D03*
Y109770D02*
D03*
X274000Y66230D02*
D03*
Y109770D02*
D03*
X223000Y66230D02*
D03*
Y109770D02*
D03*
X172200Y66230D02*
D03*
Y109770D02*
D03*
X75000Y429770D02*
D03*
Y386230D02*
D03*
D31*
X258500Y279000D02*
D03*
X353501D02*
D03*
D32*
X131718Y128250D02*
D03*
Y134750D02*
D03*
Y141250D02*
D03*
Y147750D02*
D03*
X72282D02*
D03*
Y141250D02*
D03*
Y134750D02*
D03*
Y128250D02*
D03*
X70282Y321750D02*
D03*
Y315250D02*
D03*
Y308750D02*
D03*
Y302250D02*
D03*
X129718D02*
D03*
Y308750D02*
D03*
Y315250D02*
D03*
Y321750D02*
D03*
D33*
X552000Y387901D02*
D03*
D34*
Y371000D02*
D03*
D35*
X311500Y547000D02*
D03*
Y564000D02*
D03*
Y581000D02*
D03*
Y598000D02*
D03*
Y615000D02*
D03*
D37*
X569000Y261500D02*
D03*
Y272500D02*
D03*
D70*
X234936Y606908D02*
D03*
X175246D02*
D03*
X234936Y624180D02*
D03*
X175246D02*
D03*
X234936Y589636D02*
D03*
X175246D02*
D03*
X234936Y572364D02*
D03*
X175246D02*
D03*
X234936Y555092D02*
D03*
X175246D02*
D03*
Y537820D02*
D03*
X234936D02*
D03*
D71*
X205091Y606908D02*
D03*
Y624180D02*
D03*
Y589636D02*
D03*
Y572364D02*
D03*
Y555092D02*
D03*
Y537820D02*
D03*
M02*
