G04 Layer_Color=65535*
%FSLAX44Y44*%
%MOMM*%
G71*
G01*
G75*
%ADD41C,0.2032*%
%ADD61C,0.0000*%
%ADD62C,0.1524*%
%ADD63C,0.1500*%
%ADD64C,0.2500*%
%ADD65C,0.2000*%
%ADD66C,0.2540*%
%ADD67C,0.1270*%
%ADD68C,0.0500*%
%ADD69C,0.1999*%
G36*
X284529Y76698D02*
X263500D01*
Y79730D01*
X284529D01*
Y76698D01*
D02*
G37*
G36*
X233529D02*
X212500D01*
Y79730D01*
X233529D01*
Y76698D01*
D02*
G37*
G36*
X182729D02*
X161700D01*
Y79730D01*
X182729D01*
Y76698D01*
D02*
G37*
G36*
X335130D02*
X314100D01*
Y79730D01*
X335130D01*
Y76698D01*
D02*
G37*
G36*
X85500Y416270D02*
X64471D01*
Y419302D01*
X85500D01*
Y416270D01*
D02*
G37*
G36*
X436730Y76698D02*
X415700D01*
Y79730D01*
X436730D01*
Y76698D01*
D02*
G37*
G36*
X385530D02*
X364500D01*
Y79730D01*
X385530D01*
Y76698D01*
D02*
G37*
D41*
X629110Y278260D02*
X627925Y280630D01*
X625555Y283000D01*
X623185D01*
X622000Y281815D01*
Y279445D01*
X623185Y278260D01*
X624370D01*
X625555Y279445D01*
Y283000D01*
X584740Y301110D02*
X580000D01*
Y297555D01*
X582370Y298740D01*
X583555D01*
X584740Y297555D01*
Y295185D01*
X583555Y294000D01*
X581185D01*
X580000Y295185D01*
X631000Y367260D02*
Y372000D01*
X635740Y367260D01*
X636925D01*
X638110Y368445D01*
Y370815D01*
X636925Y372000D01*
X596520Y370320D02*
Y367950D01*
Y369135D01*
X603630D01*
X602445Y370320D01*
X528740Y285110D02*
X526370Y283925D01*
X524000Y281555D01*
Y279185D01*
X525185Y278000D01*
X527555D01*
X528740Y279185D01*
Y280370D01*
X527555Y281555D01*
X524000D01*
X528740Y260110D02*
X524000D01*
Y256555D01*
X526370Y257740D01*
X527555D01*
X528740Y256555D01*
Y254185D01*
X527555Y253000D01*
X525185D01*
X524000Y254185D01*
X436340Y277920D02*
X431600D01*
X436340Y282660D01*
Y283845D01*
X435155Y285030D01*
X432785D01*
X431600Y283845D01*
X436680Y252520D02*
X439050D01*
X437865D01*
Y259630D01*
X436680Y258445D01*
D61*
X345540Y419500D02*
G03*
X345540Y419500I-2540J0D01*
G01*
D62*
X367462Y406130D02*
G03*
X367462Y406130I-3592J0D01*
G01*
X557352Y511288D02*
G03*
X563448Y511288I3048J0D01*
G01*
X615952Y508494D02*
G03*
X622048Y508494I3048J0D01*
G01*
X236048Y170998D02*
G03*
X229952Y170998I-3048J0D01*
G01*
X105048Y122506D02*
G03*
X98952Y122506I-3048J0D01*
G01*
X96952Y327494D02*
G03*
X103048Y327494I3048J0D01*
G01*
X355960Y350250D02*
X419750D01*
Y413750D01*
X361330D02*
X419750D01*
X355960Y408380D02*
X361330Y413750D01*
X355960Y350250D02*
Y408380D01*
X544652Y423912D02*
X576148D01*
X563448Y511288D02*
X576148D01*
X557352D02*
X563448D01*
X544652D02*
X557352D01*
X613412Y508494D02*
X615952D01*
X622048D01*
X624588D01*
X216998Y170998D02*
X249002D01*
X216998Y203002D02*
X249002D01*
X79521Y153494D02*
X124479D01*
X79521Y122506D02*
X124479D01*
X77521Y296506D02*
X122479D01*
X77521Y327494D02*
X122479D01*
D63*
X520000Y640000D02*
G03*
X517000Y643000I-3000J0D01*
G01*
Y577000D02*
G03*
X520000Y580000I0J3000D01*
G01*
X408000Y544000D02*
G03*
X405000Y547000I-3000J0D01*
G01*
Y481000D02*
G03*
X408000Y484000I0J3000D01*
G01*
X469500Y643000D02*
X517000D01*
X520000Y619800D02*
Y639900D01*
X454000Y619800D02*
Y627500D01*
X469500Y643000D01*
X454000Y592500D02*
X469500Y577000D01*
X454000Y592500D02*
Y600200D01*
X520000Y580100D02*
Y600200D01*
X469500Y577000D02*
X517000D01*
X357500Y547000D02*
X405000D01*
X408000Y523800D02*
Y543900D01*
X342000Y523800D02*
Y531500D01*
X357500Y547000D01*
X342000Y496500D02*
X357500Y481000D01*
X342000Y496500D02*
Y504200D01*
X408000Y484100D02*
Y504200D01*
X357500Y481000D02*
X405000D01*
D64*
X435750Y214500D02*
G03*
X435750Y214500I-1250J0D01*
G01*
X386750Y154500D02*
G03*
X386750Y154500I-1250J0D01*
G01*
X512750Y210050D02*
G03*
X512750Y210050I-1250J0D01*
G01*
X607750Y67500D02*
G03*
X607750Y67500I-1250J0D01*
G01*
X160950Y445500D02*
G03*
X160950Y445500I-1250J0D01*
G01*
X81950Y443500D02*
G03*
X81950Y443500I-1250J0D01*
G01*
X115750Y419050D02*
G03*
X115750Y419050I-1250J0D01*
G01*
X123750Y233500D02*
G03*
X123750Y233500I-1250J0D01*
G01*
X313000Y534010D02*
G03*
X313000Y534010I-1250J0D01*
G01*
X330750Y199500D02*
G03*
X330750Y199500I-1250J0D01*
G01*
D65*
X207800Y444000D02*
G03*
X168200Y444000I-19800J15000D01*
G01*
X128800Y442000D02*
G03*
X89200Y442000I-19800J15000D01*
G01*
X159500Y647300D02*
X540500D01*
X178550Y672700D02*
X540500D01*
X159500D02*
X178550D01*
X159500Y647300D02*
Y672700D01*
X540500Y647300D02*
Y672700D01*
X549000Y220500D02*
Y233500D01*
X78000Y271500D02*
Y284500D01*
X123000Y341500D02*
Y354500D01*
X179000Y343500D02*
Y356500D01*
X588900Y286500D02*
X639700D01*
X588900Y362700D02*
X639700D01*
Y286500D02*
Y362700D01*
X588900Y286500D02*
Y362700D01*
Y286500D02*
Y335183D01*
X361500Y591000D02*
Y607000D01*
X434500Y591000D02*
Y607000D01*
X590500Y262000D02*
X603500D01*
X500000Y220500D02*
Y233500D01*
X616000Y520500D02*
Y533500D01*
X625500Y436000D02*
X638500D01*
X625500Y391000D02*
X638500D01*
X501500Y445000D02*
X514500D01*
X551000Y401500D02*
Y414500D01*
X504500Y333000D02*
X517500D01*
X553500D02*
X566500D01*
X498500Y381000D02*
X511500D01*
X306000Y355500D02*
Y368500D01*
Y327500D02*
Y340500D01*
X467000Y333500D02*
Y346500D01*
Y306500D02*
Y319500D01*
X520500Y244900D02*
Y295700D01*
X444300Y244900D02*
Y295700D01*
X520500D01*
X444300Y244900D02*
X520500D01*
X471817D02*
X520500D01*
X441000Y221000D02*
Y229000D01*
X433000Y221000D02*
X441000D01*
X411000D02*
Y229000D01*
Y221000D02*
X419000D01*
X370000Y175500D02*
Y188500D01*
Y203500D02*
Y216500D01*
X350000Y231500D02*
Y244500D01*
X303000Y231500D02*
Y244500D01*
X222000Y216500D02*
Y229500D01*
X210000Y133500D02*
Y146500D01*
X257000Y133500D02*
Y146500D01*
X290500Y146000D02*
X303500D01*
X318100D02*
X331100D01*
X371000Y161000D02*
X379000D01*
Y153000D02*
Y161000D01*
X371000Y131000D02*
X379000D01*
Y139000D01*
X419500Y146000D02*
X432500D01*
X416000Y176500D02*
Y189500D01*
X528000Y157000D02*
X544000D01*
X528000Y207000D02*
X544000D01*
Y157000D02*
Y207000D01*
X528000Y157000D02*
Y207000D01*
X502000Y129500D02*
Y142500D01*
X587500Y203000D02*
X600500D01*
X587500Y157000D02*
X600500D01*
X653500Y129000D02*
X666500D01*
X613000Y74000D02*
Y82000D01*
X605000Y74000D02*
X613000D01*
X583000D02*
Y82000D01*
Y74000D02*
X591000D01*
X545500Y83000D02*
X558500D01*
X574000Y33500D02*
Y46500D01*
X502000Y72500D02*
Y85500D01*
X456500Y85000D02*
X469500D01*
X159500Y27300D02*
X540500D01*
X178550Y52700D02*
X540500D01*
X159500D02*
X178550D01*
X159500Y27300D02*
Y52700D01*
X540500Y27300D02*
Y52700D01*
X164500Y150000D02*
X177500D01*
X202500Y268000D02*
X215500D01*
X201000Y316500D02*
Y329500D01*
X205000Y372500D02*
Y385500D01*
X208500Y417000D02*
X221500D01*
X168200Y444000D02*
X207800D01*
X89200Y442000D02*
X128800D01*
X131000Y366000D02*
X147000D01*
X131000Y416000D02*
X147000D01*
Y366000D02*
Y416000D01*
X131000Y366000D02*
Y416000D01*
X97500Y68000D02*
X110500D01*
X127500D02*
X140500D01*
X122000Y99500D02*
Y112500D01*
X32500Y113000D02*
X45500D01*
X125000Y195500D02*
Y208500D01*
Y167500D02*
Y180500D01*
X78000Y167500D02*
Y180500D01*
Y195500D02*
Y208500D01*
X129000Y240000D02*
Y248000D01*
X121000Y240000D02*
X129000D01*
X99000D02*
Y248000D01*
Y240000D02*
X107000D01*
X79000Y341500D02*
Y354500D01*
X33500Y569000D02*
X46500D01*
X27300Y159300D02*
Y540300D01*
X52700Y159300D02*
Y521250D01*
Y540300D01*
X27300D02*
X52700D01*
X27300Y159300D02*
X52700D01*
X249500Y531500D02*
X274000D01*
Y630500D01*
X249500D02*
X274000D01*
X91000Y524500D02*
Y577500D01*
X63000Y524500D02*
Y577500D01*
Y524500D02*
X91000D01*
X63000Y577500D02*
X91000D01*
X647300Y159300D02*
Y540300D01*
X672700Y159300D02*
Y521250D01*
Y540300D01*
X647300D02*
X672700D01*
X647300Y159300D02*
X672700D01*
X539500Y267000D02*
X552500D01*
X315000Y206000D02*
X323000D01*
Y198000D02*
Y206000D01*
X315000Y176000D02*
X323000D01*
Y184000D01*
X641000Y164500D02*
Y217500D01*
X613000Y164500D02*
Y217500D01*
Y164500D02*
X641000D01*
X613000Y217500D02*
X641000D01*
D66*
X410160Y63000D02*
Y113000D01*
X442240Y63000D02*
Y113000D01*
X358960Y63000D02*
Y113000D01*
X391040Y63000D02*
Y113000D01*
X308560Y63000D02*
Y113000D01*
X340640Y63000D02*
Y113000D01*
X257960Y63000D02*
Y113000D01*
X290040Y63000D02*
Y113000D01*
X206960Y63000D02*
Y113000D01*
X239040Y63000D02*
Y113000D01*
X156160Y63000D02*
Y113000D01*
X188240Y63000D02*
Y113000D01*
X0Y80000D02*
X80000D01*
X91040Y383000D02*
Y433000D01*
X58960Y383000D02*
Y433000D01*
X620000Y620000D02*
X700000D01*
X620000D02*
Y700000D01*
Y0D02*
Y80000D01*
X700000D01*
X80000Y0D02*
Y80000D01*
X0D02*
X80000D01*
X0Y620000D02*
X80000D01*
Y700000D01*
X337000Y432110D02*
Y426185D01*
X338185Y425000D01*
X340555D01*
X341740Y426185D01*
Y432110D01*
X348849D02*
X344110D01*
Y428555D01*
X346480Y429740D01*
X347665D01*
X348849Y428555D01*
Y426185D01*
X347665Y425000D01*
X345295D01*
X344110Y426185D01*
X614890Y383000D02*
X622000D01*
Y387740D01*
Y390110D02*
Y392480D01*
Y391295D01*
X614890D01*
X616075Y390110D01*
Y396034D02*
X614890Y397219D01*
Y399589D01*
X616075Y400774D01*
X620815D01*
X622000Y399589D01*
Y397219D01*
X620815Y396034D01*
X616075D01*
X569000Y59110D02*
Y52000D01*
X573740D01*
X576110Y53185D02*
X577295Y52000D01*
X579665D01*
X580849Y53185D01*
Y57925D01*
X579665Y59110D01*
X577295D01*
X576110Y57925D01*
Y56740D01*
X577295Y55555D01*
X580849D01*
X135000Y249110D02*
Y242000D01*
X138555D01*
X139740Y243185D01*
Y247925D01*
X138555Y249110D01*
X135000D01*
X146849D02*
X142110D01*
Y245555D01*
X144480Y246740D01*
X145665D01*
X146849Y245555D01*
Y243185D01*
X145665Y242000D01*
X143295D01*
X142110Y243185D01*
X35000Y604110D02*
Y597000D01*
X39740D01*
X46849Y604110D02*
X42110D01*
Y600555D01*
X44480Y601740D01*
X45665D01*
X46849Y600555D01*
Y598185D01*
X45665Y597000D01*
X43295D01*
X42110Y598185D01*
X625890Y461000D02*
X633000D01*
Y465740D01*
X625890Y472850D02*
X627075Y470480D01*
X629445Y468110D01*
X631815D01*
X633000Y469295D01*
Y471665D01*
X631815Y472850D01*
X630630D01*
X629445Y471665D01*
Y468110D01*
X636000Y118110D02*
Y111000D01*
X640740D01*
X643110Y118110D02*
X647850D01*
Y116925D01*
X643110Y112185D01*
Y111000D01*
X234000Y264110D02*
Y262925D01*
X236370Y260555D01*
X238740Y262925D01*
Y264110D01*
X236370Y260555D02*
Y257000D01*
X241110D02*
X243480D01*
X242295D01*
Y264110D01*
X241110Y262925D01*
X567000Y543110D02*
Y537185D01*
X568185Y536000D01*
X570555D01*
X571740Y537185D01*
Y543110D01*
X574110Y536000D02*
X576480D01*
X575295D01*
Y543110D01*
X574110Y541925D01*
X584774Y543110D02*
X580034D01*
Y539555D01*
X582404Y540740D01*
X583589D01*
X584774Y539555D01*
Y537185D01*
X583589Y536000D01*
X581219D01*
X580034Y537185D01*
X551000Y524110D02*
Y518185D01*
X552185Y517000D01*
X554555D01*
X555740Y518185D01*
Y524110D01*
X558110Y517000D02*
X560480D01*
X559295D01*
Y524110D01*
X558110Y522925D01*
X567589Y517000D02*
Y524110D01*
X564034Y520555D01*
X568774D01*
X253000Y211110D02*
Y205185D01*
X254185Y204000D01*
X256555D01*
X257740Y205185D01*
Y211110D01*
X260110Y204000D02*
X262480D01*
X261295D01*
Y211110D01*
X260110Y209925D01*
X266034Y204000D02*
X268404D01*
X267219D01*
Y211110D01*
X266034Y209925D01*
X528000Y153110D02*
Y147185D01*
X529185Y146000D01*
X531555D01*
X532740Y147185D01*
Y153110D01*
X535110Y146000D02*
X537480D01*
X536295D01*
Y153110D01*
X535110Y151925D01*
X541035D02*
X542219Y153110D01*
X544589D01*
X545774Y151925D01*
Y147185D01*
X544589Y146000D01*
X542219D01*
X541035Y147185D01*
Y151925D01*
X183000Y479110D02*
Y473185D01*
X184185Y472000D01*
X186555D01*
X187740Y473185D01*
Y479110D01*
X190110Y477925D02*
X191295Y479110D01*
X193664D01*
X194849Y477925D01*
Y476740D01*
X193664Y475555D01*
X194849Y474370D01*
Y473185D01*
X193664Y472000D01*
X191295D01*
X190110Y473185D01*
Y474370D01*
X191295Y475555D01*
X190110Y476740D01*
Y477925D01*
X191295Y475555D02*
X193664D01*
X104000Y477110D02*
Y471185D01*
X105185Y470000D01*
X107555D01*
X108740Y471185D01*
Y477110D01*
X111110D02*
X115850D01*
Y475925D01*
X111110Y471185D01*
Y470000D01*
X94000Y338110D02*
Y332185D01*
X95185Y331000D01*
X97555D01*
X98740Y332185D01*
Y338110D01*
X105850Y331000D02*
X101110D01*
X105850Y335740D01*
Y336925D01*
X104664Y338110D01*
X102295D01*
X101110Y336925D01*
X100000Y430110D02*
Y424185D01*
X101185Y423000D01*
X103555D01*
X104740Y424185D01*
Y430110D01*
X107110Y423000D02*
X109480D01*
X108295D01*
Y430110D01*
X107110Y428925D01*
X571110Y390000D02*
Y385260D01*
Y387630D01*
X564000D01*
X571110Y382890D02*
Y378150D01*
X569925D01*
X565185Y382890D01*
X564000D01*
Y378150D01*
Y375781D02*
Y373411D01*
Y374596D01*
X571110D01*
X569925Y375781D01*
X571110Y365116D02*
Y369856D01*
X567555D01*
X568740Y367486D01*
Y366301D01*
X567555Y365116D01*
X565185D01*
X564000Y366301D01*
Y368671D01*
X565185Y369856D01*
X243890Y65000D02*
Y69740D01*
Y67370D01*
X251000D01*
X243890Y72110D02*
Y76849D01*
X245075D01*
X249815Y72110D01*
X251000D01*
Y76849D01*
Y79219D02*
Y81589D01*
Y80404D01*
X243890D01*
X245075Y79219D01*
Y85144D02*
X243890Y86329D01*
Y88699D01*
X245075Y89884D01*
X246260D01*
X247445Y88699D01*
Y87514D01*
Y88699D01*
X248630Y89884D01*
X249815D01*
X251000Y88699D01*
Y86329D01*
X249815Y85144D01*
X193890Y67000D02*
Y71740D01*
Y69370D01*
X201000D01*
X193890Y74110D02*
Y78850D01*
X195075D01*
X199815Y74110D01*
X201000D01*
Y78850D01*
Y81219D02*
Y83589D01*
Y82404D01*
X193890D01*
X195075Y81219D01*
X201000Y87144D02*
Y89514D01*
Y88329D01*
X193890D01*
X195075Y87144D01*
X614483Y272347D02*
X619223D01*
X616853D01*
Y265237D01*
X621593Y272347D02*
X626333D01*
Y271162D01*
X621593Y266422D01*
Y265237D01*
X626333D01*
X628703Y266422D02*
X629888Y265237D01*
X632258D01*
X633442Y266422D01*
Y271162D01*
X632258Y272347D01*
X629888D01*
X628703Y271162D01*
Y269977D01*
X629888Y268792D01*
X633442D01*
X99000Y652109D02*
X103740D01*
X101370D01*
Y644999D01*
X106110Y652109D02*
X110850D01*
Y650924D01*
X106110Y646184D01*
Y644999D01*
X110850D01*
X113219Y652109D02*
X117959D01*
Y650924D01*
X113219Y646184D01*
Y644999D01*
X66000Y409110D02*
X70740D01*
X68370D01*
Y402000D01*
X73110Y409110D02*
X77849D01*
Y407925D01*
X73110Y403185D01*
Y402000D01*
X77849D01*
X84959Y409110D02*
X80219D01*
Y405555D01*
X82589Y406740D01*
X83774D01*
X84959Y405555D01*
Y403185D01*
X83774Y402000D01*
X81404D01*
X80219Y403185D01*
X345890Y68000D02*
Y72740D01*
Y70370D01*
X353000D01*
X345890Y75110D02*
Y79850D01*
X347075D01*
X351815Y75110D01*
X353000D01*
Y79850D01*
Y85774D02*
X345890D01*
X349445Y82219D01*
Y86959D01*
X445890Y66000D02*
Y70740D01*
Y68370D01*
X453000D01*
X445890Y73110D02*
Y77849D01*
X447075D01*
X451815Y73110D01*
X453000D01*
Y77849D01*
X447075Y80219D02*
X445890Y81404D01*
Y83774D01*
X447075Y84959D01*
X448260D01*
X449445Y83774D01*
Y82589D01*
Y83774D01*
X450630Y84959D01*
X451815D01*
X453000Y83774D01*
Y81404D01*
X451815Y80219D01*
X293890Y69000D02*
Y73740D01*
Y71370D01*
X301000D01*
X293890Y76110D02*
Y80850D01*
X295075D01*
X299815Y76110D01*
X301000D01*
Y80850D01*
Y87959D02*
Y83219D01*
X296260Y87959D01*
X295075D01*
X293890Y86774D01*
Y84404D01*
X295075Y83219D01*
X394890Y87000D02*
Y91740D01*
Y89370D01*
X402000D01*
X394890Y94110D02*
Y98849D01*
X396075D01*
X400815Y94110D01*
X402000D01*
Y98849D01*
Y101219D02*
Y103589D01*
Y102404D01*
X394890D01*
X396075Y101219D01*
X491000Y379000D02*
X483890D01*
Y382555D01*
X485075Y383740D01*
X487445D01*
X488630Y382555D01*
Y379000D01*
Y381370D02*
X491000Y383740D01*
Y386110D02*
Y388480D01*
Y387295D01*
X483890D01*
X485075Y386110D01*
Y392034D02*
X483890Y393219D01*
Y395589D01*
X485075Y396774D01*
X489815D01*
X491000Y395589D01*
Y393219D01*
X489815Y392034D01*
X485075D01*
Y399144D02*
X483890Y400329D01*
Y402699D01*
X485075Y403884D01*
X486260D01*
X487445Y402699D01*
Y401514D01*
Y402699D01*
X488630Y403884D01*
X489815D01*
X491000Y402699D01*
Y400329D01*
X489815Y399144D01*
X583000Y235000D02*
Y242110D01*
X586555D01*
X587740Y240925D01*
Y238555D01*
X586555Y237370D01*
X583000D01*
X585370D02*
X587740Y235000D01*
X590110D02*
X592480D01*
X591295D01*
Y242110D01*
X590110Y240925D01*
X596034D02*
X597219Y242110D01*
X599589D01*
X600774Y240925D01*
Y236185D01*
X599589Y235000D01*
X597219D01*
X596034Y236185D01*
Y240925D01*
X603144Y235000D02*
X605514D01*
X604329D01*
Y242110D01*
X603144Y240925D01*
X496000Y354000D02*
Y361110D01*
X499555D01*
X500740Y359925D01*
Y357555D01*
X499555Y356370D01*
X496000D01*
X498370D02*
X500740Y354000D01*
X503110Y355185D02*
X504295Y354000D01*
X506665D01*
X507850Y355185D01*
Y359925D01*
X506665Y361110D01*
X504295D01*
X503110Y359925D01*
Y358740D01*
X504295Y357555D01*
X507850D01*
X510219Y355185D02*
X511404Y354000D01*
X513774D01*
X514959Y355185D01*
Y359925D01*
X513774Y361110D01*
X511404D01*
X510219Y359925D01*
Y358740D01*
X511404Y357555D01*
X514959D01*
X557000Y302000D02*
Y309110D01*
X560555D01*
X561740Y307925D01*
Y305555D01*
X560555Y304370D01*
X557000D01*
X559370D02*
X561740Y302000D01*
X564110Y303185D02*
X565295Y302000D01*
X567664D01*
X568849Y303185D01*
Y307925D01*
X567664Y309110D01*
X565295D01*
X564110Y307925D01*
Y306740D01*
X565295Y305555D01*
X568849D01*
X571219Y307925D02*
X572404Y309110D01*
X574774D01*
X575959Y307925D01*
Y306740D01*
X574774Y305555D01*
X575959Y304370D01*
Y303185D01*
X574774Y302000D01*
X572404D01*
X571219Y303185D01*
Y304370D01*
X572404Y305555D01*
X571219Y306740D01*
Y307925D01*
X572404Y305555D02*
X574774D01*
X512000Y407000D02*
Y414110D01*
X515555D01*
X516740Y412925D01*
Y410555D01*
X515555Y409370D01*
X512000D01*
X514370D02*
X516740Y407000D01*
X519110Y408185D02*
X520295Y407000D01*
X522664D01*
X523849Y408185D01*
Y412925D01*
X522664Y414110D01*
X520295D01*
X519110Y412925D01*
Y411740D01*
X520295Y410555D01*
X523849D01*
X526219Y414110D02*
X530959D01*
Y412925D01*
X526219Y408185D01*
Y407000D01*
X496000Y413000D02*
X488890D01*
Y416555D01*
X490075Y417740D01*
X492445D01*
X493630Y416555D01*
Y413000D01*
Y415370D02*
X496000Y417740D01*
X494815Y420110D02*
X496000Y421295D01*
Y423665D01*
X494815Y424850D01*
X490075D01*
X488890Y423665D01*
Y421295D01*
X490075Y420110D01*
X491260D01*
X492445Y421295D01*
Y424850D01*
X488890Y431959D02*
X490075Y429589D01*
X492445Y427219D01*
X494815D01*
X496000Y428404D01*
Y430774D01*
X494815Y431959D01*
X493630D01*
X492445Y430774D01*
Y427219D01*
X19000Y123000D02*
X26110D01*
Y119445D01*
X24925Y118260D01*
X22555D01*
X21370Y119445D01*
Y123000D01*
Y120630D02*
X19000Y118260D01*
X20185Y115890D02*
X19000Y114705D01*
Y112336D01*
X20185Y111151D01*
X24925D01*
X26110Y112336D01*
Y114705D01*
X24925Y115890D01*
X23740D01*
X22555Y114705D01*
Y111151D01*
X24925Y108781D02*
X26110Y107596D01*
Y105226D01*
X24925Y104041D01*
X23740D01*
X22555Y105226D01*
Y106411D01*
Y105226D01*
X21370Y104041D01*
X20185D01*
X19000Y105226D01*
Y107596D01*
X20185Y108781D01*
X61000Y215000D02*
Y222110D01*
X64555D01*
X65740Y220925D01*
Y218555D01*
X64555Y217370D01*
X61000D01*
X63370D02*
X65740Y215000D01*
X68110Y216185D02*
X69295Y215000D01*
X71665D01*
X72849Y216185D01*
Y220925D01*
X71665Y222110D01*
X69295D01*
X68110Y220925D01*
Y219740D01*
X69295Y218555D01*
X72849D01*
X79959Y215000D02*
X75219D01*
X79959Y219740D01*
Y220925D01*
X78774Y222110D01*
X76404D01*
X75219Y220925D01*
X75000Y157000D02*
Y164110D01*
X78555D01*
X79740Y162925D01*
Y160555D01*
X78555Y159370D01*
X75000D01*
X77370D02*
X79740Y157000D01*
X82110Y162925D02*
X83295Y164110D01*
X85665D01*
X86849Y162925D01*
Y161740D01*
X85665Y160555D01*
X86849Y159370D01*
Y158185D01*
X85665Y157000D01*
X83295D01*
X82110Y158185D01*
Y159370D01*
X83295Y160555D01*
X82110Y161740D01*
Y162925D01*
X83295Y160555D02*
X85665D01*
X89219Y158185D02*
X90404Y157000D01*
X92774D01*
X93959Y158185D01*
Y162925D01*
X92774Y164110D01*
X90404D01*
X89219Y162925D01*
Y161740D01*
X90404Y160555D01*
X93959D01*
X94000Y60000D02*
X86890D01*
Y63555D01*
X88075Y64740D01*
X90445D01*
X91630Y63555D01*
Y60000D01*
Y62370D02*
X94000Y64740D01*
X88075Y67110D02*
X86890Y68295D01*
Y70665D01*
X88075Y71849D01*
X89260D01*
X90445Y70665D01*
X91630Y71849D01*
X92815D01*
X94000Y70665D01*
Y68295D01*
X92815Y67110D01*
X91630D01*
X90445Y68295D01*
X89260Y67110D01*
X88075D01*
X90445Y68295D02*
Y70665D01*
X86890Y74219D02*
Y78959D01*
X88075D01*
X92815Y74219D01*
X94000D01*
X175000Y179000D02*
X167890D01*
Y182555D01*
X169075Y183740D01*
X171445D01*
X172630Y182555D01*
Y179000D01*
Y181370D02*
X175000Y183740D01*
X169075Y186110D02*
X167890Y187295D01*
Y189664D01*
X169075Y190849D01*
X170260D01*
X171445Y189664D01*
X172630Y190849D01*
X173815D01*
X175000Y189664D01*
Y187295D01*
X173815Y186110D01*
X172630D01*
X171445Y187295D01*
X170260Y186110D01*
X169075D01*
X171445Y187295D02*
Y189664D01*
X167890Y197959D02*
X169075Y195589D01*
X171445Y193219D01*
X173815D01*
X175000Y194404D01*
Y196774D01*
X173815Y197959D01*
X172630D01*
X171445Y196774D01*
Y193219D01*
X181000Y122000D02*
Y129110D01*
X184555D01*
X185740Y127925D01*
Y125555D01*
X184555Y124370D01*
X181000D01*
X183370D02*
X185740Y122000D01*
X188110Y127925D02*
X189295Y129110D01*
X191665D01*
X192850Y127925D01*
Y126740D01*
X191665Y125555D01*
X192850Y124370D01*
Y123185D01*
X191665Y122000D01*
X189295D01*
X188110Y123185D01*
Y124370D01*
X189295Y125555D01*
X188110Y126740D01*
Y127925D01*
X189295Y125555D02*
X191665D01*
X199959Y129110D02*
X195219D01*
Y125555D01*
X197589Y126740D01*
X198774D01*
X199959Y125555D01*
Y123185D01*
X198774Y122000D01*
X196404D01*
X195219Y123185D01*
X122000Y59000D02*
X114890D01*
Y62555D01*
X116075Y63740D01*
X118445D01*
X119630Y62555D01*
Y59000D01*
Y61370D02*
X122000Y63740D01*
X116075Y66110D02*
X114890Y67295D01*
Y69665D01*
X116075Y70849D01*
X117260D01*
X118445Y69665D01*
X119630Y70849D01*
X120815D01*
X122000Y69665D01*
Y67295D01*
X120815Y66110D01*
X119630D01*
X118445Y67295D01*
X117260Y66110D01*
X116075D01*
X118445Y67295D02*
Y69665D01*
X122000Y76774D02*
X114890D01*
X118445Y73219D01*
Y77959D01*
X125000Y212000D02*
Y219110D01*
X128555D01*
X129740Y217925D01*
Y215555D01*
X128555Y214370D01*
X125000D01*
X127370D02*
X129740Y212000D01*
X132110Y217925D02*
X133295Y219110D01*
X135665D01*
X136849Y217925D01*
Y216740D01*
X135665Y215555D01*
X136849Y214370D01*
Y213185D01*
X135665Y212000D01*
X133295D01*
X132110Y213185D01*
Y214370D01*
X133295Y215555D01*
X132110Y216740D01*
Y217925D01*
X133295Y215555D02*
X135665D01*
X139219Y217925D02*
X140404Y219110D01*
X142774D01*
X143959Y217925D01*
Y216740D01*
X142774Y215555D01*
X141589D01*
X142774D01*
X143959Y214370D01*
Y213185D01*
X142774Y212000D01*
X140404D01*
X139219Y213185D01*
X284000Y133000D02*
X276890D01*
Y136555D01*
X278075Y137740D01*
X280445D01*
X281630Y136555D01*
Y133000D01*
Y135370D02*
X284000Y137740D01*
X278075Y140110D02*
X276890Y141295D01*
Y143665D01*
X278075Y144850D01*
X279260D01*
X280445Y143665D01*
X281630Y144850D01*
X282815D01*
X284000Y143665D01*
Y141295D01*
X282815Y140110D01*
X281630D01*
X280445Y141295D01*
X279260Y140110D01*
X278075D01*
X280445Y141295D02*
Y143665D01*
X284000Y147219D02*
Y149589D01*
Y148404D01*
X276890D01*
X278075Y147219D01*
X109000Y185000D02*
Y192110D01*
X112555D01*
X113740Y190925D01*
Y188555D01*
X112555Y187370D01*
X109000D01*
X111370D02*
X113740Y185000D01*
X116110Y190925D02*
X117295Y192110D01*
X119665D01*
X120850Y190925D01*
Y189740D01*
X119665Y188555D01*
X120850Y187370D01*
Y186185D01*
X119665Y185000D01*
X117295D01*
X116110Y186185D01*
Y187370D01*
X117295Y188555D01*
X116110Y189740D01*
Y190925D01*
X117295Y188555D02*
X119665D01*
X123219Y190925D02*
X124404Y192110D01*
X126774D01*
X127959Y190925D01*
Y186185D01*
X126774Y185000D01*
X124404D01*
X123219Y186185D01*
Y190925D01*
X197000Y259000D02*
X189890D01*
Y262555D01*
X191075Y263740D01*
X193445D01*
X194630Y262555D01*
Y259000D01*
Y261370D02*
X197000Y263740D01*
X189890Y266110D02*
Y270849D01*
X191075D01*
X195815Y266110D01*
X197000D01*
X195815Y273219D02*
X197000Y274404D01*
Y276774D01*
X195815Y277959D01*
X191075D01*
X189890Y276774D01*
Y274404D01*
X191075Y273219D01*
X192260D01*
X193445Y274404D01*
Y277959D01*
X113000Y88000D02*
Y95110D01*
X116555D01*
X117740Y93925D01*
Y91555D01*
X116555Y90370D01*
X113000D01*
X115370D02*
X117740Y88000D01*
X120110Y95110D02*
X124850D01*
Y93925D01*
X120110Y89185D01*
Y88000D01*
X127219Y93925D02*
X128404Y95110D01*
X130774D01*
X131959Y93925D01*
Y92740D01*
X130774Y91555D01*
X131959Y90370D01*
Y89185D01*
X130774Y88000D01*
X128404D01*
X127219Y89185D01*
Y90370D01*
X128404Y91555D01*
X127219Y92740D01*
Y93925D01*
X128404Y91555D02*
X130774D01*
X490000Y209000D02*
Y216110D01*
X493555D01*
X494740Y214925D01*
Y212555D01*
X493555Y211370D01*
X490000D01*
X492370D02*
X494740Y209000D01*
X497110Y216110D02*
X501850D01*
Y214925D01*
X497110Y210185D01*
Y209000D01*
X504219D02*
X506589D01*
X505404D01*
Y216110D01*
X504219Y214925D01*
X585000Y224000D02*
Y231110D01*
X588555D01*
X589740Y229925D01*
Y227555D01*
X588555Y226370D01*
X585000D01*
X587370D02*
X589740Y224000D01*
X592110Y231110D02*
X596850D01*
Y229925D01*
X592110Y225185D01*
Y224000D01*
X599219Y229925D02*
X600404Y231110D01*
X602774D01*
X603959Y229925D01*
Y225185D01*
X602774Y224000D01*
X600404D01*
X599219Y225185D01*
Y229925D01*
X492000Y118000D02*
Y125110D01*
X495555D01*
X496740Y123925D01*
Y121555D01*
X495555Y120370D01*
X492000D01*
X494370D02*
X496740Y118000D01*
X503849Y125110D02*
X501480Y123925D01*
X499110Y121555D01*
Y119185D01*
X500295Y118000D01*
X502665D01*
X503849Y119185D01*
Y120370D01*
X502665Y121555D01*
X499110D01*
X506219Y119185D02*
X507404Y118000D01*
X509774D01*
X510959Y119185D01*
Y123925D01*
X509774Y125110D01*
X507404D01*
X506219Y123925D01*
Y122740D01*
X507404Y121555D01*
X510959D01*
X530000Y239000D02*
Y246110D01*
X533555D01*
X534740Y244925D01*
Y242555D01*
X533555Y241370D01*
X530000D01*
X532370D02*
X534740Y239000D01*
X541850Y246110D02*
X539480Y244925D01*
X537110Y242555D01*
Y240185D01*
X538295Y239000D01*
X540665D01*
X541850Y240185D01*
Y241370D01*
X540665Y242555D01*
X537110D01*
X544219Y244925D02*
X545404Y246110D01*
X547774D01*
X548959Y244925D01*
Y243740D01*
X547774Y242555D01*
X548959Y241370D01*
Y240185D01*
X547774Y239000D01*
X545404D01*
X544219Y240185D01*
Y241370D01*
X545404Y242555D01*
X544219Y243740D01*
Y244925D01*
X545404Y242555D02*
X547774D01*
X606000Y151000D02*
Y158110D01*
X609555D01*
X610740Y156925D01*
Y154555D01*
X609555Y153370D01*
X606000D01*
X608370D02*
X610740Y151000D01*
X617850Y158110D02*
X615480Y156925D01*
X613110Y154555D01*
Y152185D01*
X614295Y151000D01*
X616665D01*
X617850Y152185D01*
Y153370D01*
X616665Y154555D01*
X613110D01*
X620219Y158110D02*
X624959D01*
Y156925D01*
X620219Y152185D01*
Y151000D01*
X264000Y331000D02*
Y338110D01*
X267555D01*
X268740Y336925D01*
Y334555D01*
X267555Y333370D01*
X264000D01*
X266370D02*
X268740Y331000D01*
X275849Y338110D02*
X271110D01*
Y334555D01*
X273480Y335740D01*
X274665D01*
X275849Y334555D01*
Y332185D01*
X274665Y331000D01*
X272295D01*
X271110Y332185D01*
X282959Y338110D02*
X278219D01*
Y334555D01*
X280589Y335740D01*
X281774D01*
X282959Y334555D01*
Y332185D01*
X281774Y331000D01*
X279404D01*
X278219Y332185D01*
X299000Y376000D02*
Y383110D01*
X302555D01*
X303740Y381925D01*
Y379555D01*
X302555Y378370D01*
X299000D01*
X301370D02*
X303740Y376000D01*
X310849Y383110D02*
X306110D01*
Y379555D01*
X308480Y380740D01*
X309665D01*
X310849Y379555D01*
Y377185D01*
X309665Y376000D01*
X307295D01*
X306110Y377185D01*
X316774Y376000D02*
Y383110D01*
X313219Y379555D01*
X317959D01*
X183000Y333000D02*
Y340110D01*
X186555D01*
X187740Y338925D01*
Y336555D01*
X186555Y335370D01*
X183000D01*
X185370D02*
X187740Y333000D01*
X190110Y338925D02*
X191295Y340110D01*
X193664D01*
X194849Y338925D01*
Y337740D01*
X193664Y336555D01*
X192480D01*
X193664D01*
X194849Y335370D01*
Y334185D01*
X193664Y333000D01*
X191295D01*
X190110Y334185D01*
X197219Y338925D02*
X198404Y340110D01*
X200774D01*
X201959Y338925D01*
Y337740D01*
X200774Y336555D01*
X199589D01*
X200774D01*
X201959Y335370D01*
Y334185D01*
X200774Y333000D01*
X198404D01*
X197219Y334185D01*
X115000Y331000D02*
Y338110D01*
X118555D01*
X119740Y336925D01*
Y334555D01*
X118555Y333370D01*
X115000D01*
X117370D02*
X119740Y331000D01*
X126849D02*
X122110D01*
X126849Y335740D01*
Y336925D01*
X125665Y338110D01*
X123295D01*
X122110Y336925D01*
X129219Y332185D02*
X130404Y331000D01*
X132774D01*
X133959Y332185D01*
Y336925D01*
X132774Y338110D01*
X130404D01*
X129219Y336925D01*
Y335740D01*
X130404Y334555D01*
X133959D01*
X131000Y432000D02*
Y439110D01*
X134555D01*
X135740Y437925D01*
Y435555D01*
X134555Y434370D01*
X131000D01*
X133370D02*
X135740Y432000D01*
X142850D02*
X138110D01*
X142850Y436740D01*
Y437925D01*
X141664Y439110D01*
X139295D01*
X138110Y437925D01*
X148774Y432000D02*
Y439110D01*
X145219Y435555D01*
X149959D01*
X176000Y319000D02*
X168890D01*
Y322555D01*
X170075Y323740D01*
X172445D01*
X173630Y322555D01*
Y319000D01*
Y321370D02*
X176000Y323740D01*
Y330849D02*
Y326110D01*
X171260Y330849D01*
X170075D01*
X168890Y329664D01*
Y327295D01*
X170075Y326110D01*
Y333219D02*
X168890Y334404D01*
Y336774D01*
X170075Y337959D01*
X171260D01*
X172445Y336774D01*
Y335589D01*
Y336774D01*
X173630Y337959D01*
X174815D01*
X176000Y336774D01*
Y334404D01*
X174815Y333219D01*
X229000Y376000D02*
Y383110D01*
X232555D01*
X233740Y381925D01*
Y379555D01*
X232555Y378370D01*
X229000D01*
X231370D02*
X233740Y376000D01*
X240849D02*
X236110D01*
X240849Y380740D01*
Y381925D01*
X239664Y383110D01*
X237295D01*
X236110Y381925D01*
X247959Y376000D02*
X243219D01*
X247959Y380740D01*
Y381925D01*
X246774Y383110D01*
X244404D01*
X243219Y381925D01*
X58000Y360000D02*
Y367110D01*
X61555D01*
X62740Y365925D01*
Y363555D01*
X61555Y362370D01*
X58000D01*
X60370D02*
X62740Y360000D01*
X69850D02*
X65110D01*
X69850Y364740D01*
Y365925D01*
X68665Y367110D01*
X66295D01*
X65110Y365925D01*
X72219Y360000D02*
X74589D01*
X73404D01*
Y367110D01*
X72219Y365925D01*
X228000Y403000D02*
Y410110D01*
X231555D01*
X232740Y408925D01*
Y406555D01*
X231555Y405370D01*
X228000D01*
X230370D02*
X232740Y403000D01*
X239849D02*
X235110D01*
X239849Y407740D01*
Y408925D01*
X238664Y410110D01*
X236295D01*
X235110Y408925D01*
X242219D02*
X243404Y410110D01*
X245774D01*
X246959Y408925D01*
Y404185D01*
X245774Y403000D01*
X243404D01*
X242219Y404185D01*
Y408925D01*
X342000Y139000D02*
X334890D01*
Y142555D01*
X336075Y143740D01*
X338445D01*
X339630Y142555D01*
Y139000D01*
Y141370D02*
X342000Y143740D01*
Y146110D02*
Y148480D01*
Y147295D01*
X334890D01*
X336075Y146110D01*
X342000Y155589D02*
X334890D01*
X338445Y152034D01*
Y156774D01*
X376000Y222000D02*
Y229110D01*
X379555D01*
X380740Y227925D01*
Y225555D01*
X379555Y224370D01*
X376000D01*
X378370D02*
X380740Y222000D01*
X383110D02*
X385480D01*
X384295D01*
Y229110D01*
X383110Y227925D01*
X389035D02*
X390219Y229110D01*
X392589D01*
X393774Y227925D01*
Y226740D01*
X392589Y225555D01*
X391404D01*
X392589D01*
X393774Y224370D01*
Y223185D01*
X392589Y222000D01*
X390219D01*
X389035Y223185D01*
X347000Y181000D02*
X339890D01*
Y184555D01*
X341075Y185740D01*
X343445D01*
X344630Y184555D01*
Y181000D01*
Y183370D02*
X347000Y185740D01*
Y188110D02*
Y190480D01*
Y189295D01*
X339890D01*
X341075Y188110D01*
X347000Y198774D02*
Y194034D01*
X342260Y198774D01*
X341075D01*
X339890Y197589D01*
Y195219D01*
X341075Y194034D01*
X390000Y165000D02*
Y172110D01*
X393555D01*
X394740Y170925D01*
Y168555D01*
X393555Y167370D01*
X390000D01*
X392370D02*
X394740Y165000D01*
X397110D02*
X399480D01*
X398295D01*
Y172110D01*
X397110Y170925D01*
X403034D02*
X404219Y172110D01*
X406589D01*
X407774Y170925D01*
Y166185D01*
X406589Y165000D01*
X404219D01*
X403034Y166185D01*
Y170925D01*
X400000Y135000D02*
Y142110D01*
X403555D01*
X404740Y140925D01*
Y138555D01*
X403555Y137370D01*
X400000D01*
X402370D02*
X404740Y135000D01*
X407110Y136185D02*
X408295Y135000D01*
X410664D01*
X411850Y136185D01*
Y140925D01*
X410664Y142110D01*
X408295D01*
X407110Y140925D01*
Y139740D01*
X408295Y138555D01*
X411850D01*
X291000Y167000D02*
Y174110D01*
X294555D01*
X295740Y172925D01*
Y170555D01*
X294555Y169370D01*
X291000D01*
X293370D02*
X295740Y167000D01*
X298110Y172925D02*
X299295Y174110D01*
X301665D01*
X302850Y172925D01*
Y171740D01*
X301665Y170555D01*
X302850Y169370D01*
Y168185D01*
X301665Y167000D01*
X299295D01*
X298110Y168185D01*
Y169370D01*
X299295Y170555D01*
X298110Y171740D01*
Y172925D01*
X299295Y170555D02*
X301665D01*
X331000Y218000D02*
Y225110D01*
X334555D01*
X335740Y223925D01*
Y221555D01*
X334555Y220370D01*
X331000D01*
X333370D02*
X335740Y218000D01*
X338110Y225110D02*
X342850D01*
Y223925D01*
X338110Y219185D01*
Y218000D01*
X529000Y83000D02*
Y90110D01*
X532555D01*
X533740Y88925D01*
Y86555D01*
X532555Y85370D01*
X529000D01*
X531370D02*
X533740Y83000D01*
X540849Y90110D02*
X538480Y88925D01*
X536110Y86555D01*
Y84185D01*
X537295Y83000D01*
X539665D01*
X540849Y84185D01*
Y85370D01*
X539665Y86555D01*
X536110D01*
X278000Y220000D02*
Y227110D01*
X281555D01*
X282740Y225925D01*
Y223555D01*
X281555Y222370D01*
X278000D01*
X280370D02*
X282740Y220000D01*
X289849Y227110D02*
X285110D01*
Y223555D01*
X287480Y224740D01*
X288664D01*
X289849Y223555D01*
Y221185D01*
X288664Y220000D01*
X286295D01*
X285110Y221185D01*
X496000Y93000D02*
Y100110D01*
X499555D01*
X500740Y98925D01*
Y96555D01*
X499555Y95370D01*
X496000D01*
X498370D02*
X500740Y93000D01*
X506665D02*
Y100110D01*
X503110Y96555D01*
X507850D01*
X458000Y105000D02*
Y112110D01*
X461555D01*
X462740Y110925D01*
Y108555D01*
X461555Y107370D01*
X458000D01*
X460370D02*
X462740Y105000D01*
X465110Y110925D02*
X466295Y112110D01*
X468665D01*
X469850Y110925D01*
Y109740D01*
X468665Y108555D01*
X467480D01*
X468665D01*
X469850Y107370D01*
Y106185D01*
X468665Y105000D01*
X466295D01*
X465110Y106185D01*
X535666Y297190D02*
Y304300D01*
X539221D01*
X540406Y303115D01*
Y300745D01*
X539221Y299560D01*
X535666D01*
X538036D02*
X540406Y297190D01*
X547515D02*
X542776D01*
X547515Y301930D01*
Y303115D01*
X546331Y304300D01*
X543961D01*
X542776Y303115D01*
X487000Y306000D02*
Y313110D01*
X490555D01*
X491740Y311925D01*
Y309555D01*
X490555Y308370D01*
X487000D01*
X489370D02*
X491740Y306000D01*
X494110D02*
X496480D01*
X495295D01*
Y313110D01*
X494110Y311925D01*
X354740Y121185D02*
Y125925D01*
X353555Y127110D01*
X351185D01*
X350000Y125925D01*
Y121185D01*
X351185Y120000D01*
X353555D01*
X352370Y122370D02*
X354740Y120000D01*
X353555D02*
X354740Y121185D01*
X360665Y120000D02*
Y127110D01*
X357110Y123555D01*
X361850D01*
X401740Y240185D02*
Y244925D01*
X400555Y246110D01*
X398185D01*
X397000Y244925D01*
Y240185D01*
X398185Y239000D01*
X400555D01*
X399370Y241370D02*
X401740Y239000D01*
X400555D02*
X401740Y240185D01*
X404110Y244925D02*
X405295Y246110D01*
X407664D01*
X408849Y244925D01*
Y243740D01*
X407664Y242555D01*
X406480D01*
X407664D01*
X408849Y241370D01*
Y240185D01*
X407664Y239000D01*
X405295D01*
X404110Y240185D01*
X298879Y220234D02*
Y224974D01*
X297694Y226159D01*
X295324D01*
X294139Y224974D01*
Y220234D01*
X295324Y219049D01*
X297694D01*
X296509Y221419D02*
X298879Y219049D01*
X297694D02*
X298879Y220234D01*
X305989Y219049D02*
X301249D01*
X305989Y223789D01*
Y224974D01*
X304804Y226159D01*
X302434D01*
X301249Y224974D01*
X594740Y107185D02*
Y111925D01*
X593555Y113110D01*
X591185D01*
X590000Y111925D01*
Y107185D01*
X591185Y106000D01*
X593555D01*
X592370Y108370D02*
X594740Y106000D01*
X593555D02*
X594740Y107185D01*
X597110Y106000D02*
X599480D01*
X598295D01*
Y113110D01*
X597110Y111925D01*
X57000Y513000D02*
Y520110D01*
X60555D01*
X61740Y518925D01*
Y516555D01*
X60555Y515370D01*
X57000D01*
X64110Y513000D02*
X66480D01*
X65295D01*
Y520110D01*
X64110Y518925D01*
X139000Y659000D02*
Y666110D01*
X142555D01*
X143740Y664925D01*
Y662555D01*
X142555Y661370D01*
X139000D01*
X150850Y659000D02*
X146110D01*
X150850Y663740D01*
Y664925D01*
X149664Y666110D01*
X147295D01*
X146110Y664925D01*
X648716Y548894D02*
Y556004D01*
X652271D01*
X653456Y554819D01*
Y552449D01*
X652271Y551264D01*
X648716D01*
X655826Y554819D02*
X657011Y556004D01*
X659380D01*
X660565Y554819D01*
Y553634D01*
X659380Y552449D01*
X658196D01*
X659380D01*
X660565Y551264D01*
Y550079D01*
X659380Y548894D01*
X657011D01*
X655826Y550079D01*
X142000Y35000D02*
Y42110D01*
X145555D01*
X146740Y40925D01*
Y38555D01*
X145555Y37370D01*
X142000D01*
X152664Y35000D02*
Y42110D01*
X149110Y38555D01*
X153849D01*
X572000Y351000D02*
Y358110D01*
X575555D01*
X576740Y356925D01*
Y354555D01*
X575555Y353370D01*
X572000D01*
X583849Y358110D02*
X581480Y356925D01*
X579110Y354555D01*
Y352185D01*
X580295Y351000D01*
X582664D01*
X583849Y352185D01*
Y353370D01*
X582664Y354555D01*
X579110D01*
X431000Y298000D02*
Y305110D01*
X434555D01*
X435740Y303925D01*
Y301555D01*
X434555Y300370D01*
X431000D01*
X442850Y305110D02*
X438110D01*
Y301555D01*
X440480Y302740D01*
X441665D01*
X442850Y301555D01*
Y299185D01*
X441665Y298000D01*
X439295D01*
X438110Y299185D01*
X344000Y606110D02*
Y599000D01*
X348740D01*
X354664D02*
Y606110D01*
X351110Y602555D01*
X355849D01*
X487000Y344110D02*
Y337000D01*
X491740D01*
X494110Y342925D02*
X495295Y344110D01*
X497664D01*
X498849Y342925D01*
Y341740D01*
X497664Y340555D01*
X496480D01*
X497664D01*
X498849Y339370D01*
Y338185D01*
X497664Y337000D01*
X495295D01*
X494110Y338185D01*
X100000Y280110D02*
Y273000D01*
X104740D01*
X111849D02*
X107110D01*
X111849Y277740D01*
Y278925D01*
X110665Y280110D01*
X108295D01*
X107110Y278925D01*
X604000Y545110D02*
Y538000D01*
X608740D01*
X611110D02*
X613480D01*
X612295D01*
Y545110D01*
X611110Y543925D01*
X446000Y539110D02*
Y532000D01*
X449555D01*
X450740Y533185D01*
Y537925D01*
X449555Y539110D01*
X446000D01*
X456665Y532000D02*
Y539110D01*
X453110Y535555D01*
X457850D01*
X71000Y589110D02*
Y582000D01*
X74555D01*
X75740Y583185D01*
Y587925D01*
X74555Y589110D01*
X71000D01*
X82850Y582000D02*
X78110D01*
X82850Y586740D01*
Y587925D01*
X81665Y589110D01*
X79295D01*
X78110Y587925D01*
X566876Y291522D02*
Y284412D01*
X570431D01*
X571616Y285597D01*
Y290337D01*
X570431Y291522D01*
X566876D01*
X573986Y284412D02*
X576356D01*
X575171D01*
Y291522D01*
X573986Y290337D01*
X526740Y354925D02*
X525555Y356110D01*
X523185D01*
X522000Y354925D01*
Y350185D01*
X523185Y349000D01*
X525555D01*
X526740Y350185D01*
X533849Y356110D02*
X529110D01*
Y352555D01*
X531480Y353740D01*
X532664D01*
X533849Y352555D01*
Y350185D01*
X532664Y349000D01*
X530295D01*
X529110Y350185D01*
X536219D02*
X537404Y349000D01*
X539774D01*
X540959Y350185D01*
Y354925D01*
X539774Y356110D01*
X537404D01*
X536219Y354925D01*
Y353740D01*
X537404Y352555D01*
X540959D01*
X638075Y462740D02*
X636890Y461555D01*
Y459185D01*
X638075Y458000D01*
X642815D01*
X644000Y459185D01*
Y461555D01*
X642815Y462740D01*
X636890Y469850D02*
Y465110D01*
X640445D01*
X639260Y467480D01*
Y468665D01*
X640445Y469850D01*
X642815D01*
X644000Y468665D01*
Y466295D01*
X642815Y465110D01*
X636890Y472219D02*
Y476959D01*
X638075D01*
X642815Y472219D01*
X644000D01*
X521075Y520740D02*
X519890Y519555D01*
Y517185D01*
X521075Y516000D01*
X525815D01*
X527000Y517185D01*
Y519555D01*
X525815Y520740D01*
X519890Y527850D02*
Y523110D01*
X523445D01*
X522260Y525480D01*
Y526665D01*
X523445Y527850D01*
X525815D01*
X527000Y526665D01*
Y524295D01*
X525815Y523110D01*
X519890Y534959D02*
X521075Y532589D01*
X523445Y530219D01*
X525815D01*
X527000Y531404D01*
Y533774D01*
X525815Y534959D01*
X524630D01*
X523445Y533774D01*
Y530219D01*
X183075Y151740D02*
X181890Y150555D01*
Y148185D01*
X183075Y147000D01*
X187815D01*
X189000Y148185D01*
Y150555D01*
X187815Y151740D01*
X181890Y158849D02*
Y154110D01*
X185445D01*
X184260Y156480D01*
Y157665D01*
X185445Y158849D01*
X187815D01*
X189000Y157665D01*
Y155295D01*
X187815Y154110D01*
X183075Y161219D02*
X181890Y162404D01*
Y164774D01*
X183075Y165959D01*
X187815D01*
X189000Y164774D01*
Y162404D01*
X187815Y161219D01*
X183075D01*
X257740Y240925D02*
X256555Y242110D01*
X254185D01*
X253000Y240925D01*
Y236185D01*
X254185Y235000D01*
X256555D01*
X257740Y236185D01*
X263664Y235000D02*
Y242110D01*
X260110Y238555D01*
X264849D01*
X267219Y236185D02*
X268404Y235000D01*
X270774D01*
X271959Y236185D01*
Y240925D01*
X270774Y242110D01*
X268404D01*
X267219Y240925D01*
Y239740D01*
X268404Y238555D01*
X271959D01*
X231075Y136740D02*
X229890Y135555D01*
Y133185D01*
X231075Y132000D01*
X235815D01*
X237000Y133185D01*
Y135555D01*
X235815Y136740D01*
X237000Y142664D02*
X229890D01*
X233445Y139110D01*
Y143849D01*
X231075Y146219D02*
X229890Y147404D01*
Y149774D01*
X231075Y150959D01*
X232260D01*
X233445Y149774D01*
X234630Y150959D01*
X235815D01*
X237000Y149774D01*
Y147404D01*
X235815Y146219D01*
X234630D01*
X233445Y147404D01*
X232260Y146219D01*
X231075D01*
X233445Y147404D02*
Y149774D01*
X272740Y176925D02*
X271555Y178110D01*
X269185D01*
X268000Y176925D01*
Y172185D01*
X269185Y171000D01*
X271555D01*
X272740Y172185D01*
X278664Y171000D02*
Y178110D01*
X275110Y174555D01*
X279849D01*
X282219Y178110D02*
X286959D01*
Y176925D01*
X282219Y172185D01*
Y171000D01*
X75740Y103925D02*
X74555Y105110D01*
X72185D01*
X71000Y103925D01*
Y99185D01*
X72185Y98000D01*
X74555D01*
X75740Y99185D01*
X81665Y98000D02*
Y105110D01*
X78110Y101555D01*
X82850D01*
X89959Y105110D02*
X87589Y103925D01*
X85219Y101555D01*
Y99185D01*
X86404Y98000D01*
X88774D01*
X89959Y99185D01*
Y100370D01*
X88774Y101555D01*
X85219D01*
X181075Y188740D02*
X179890Y187555D01*
Y185185D01*
X181075Y184000D01*
X185815D01*
X187000Y185185D01*
Y187555D01*
X185815Y188740D01*
X187000Y194664D02*
X179890D01*
X183445Y191110D01*
Y195849D01*
X179890Y202959D02*
Y198219D01*
X183445D01*
X182260Y200589D01*
Y201774D01*
X183445Y202959D01*
X185815D01*
X187000Y201774D01*
Y199404D01*
X185815Y198219D01*
X445075Y196740D02*
X443890Y195555D01*
Y193185D01*
X445075Y192000D01*
X449815D01*
X451000Y193185D01*
Y195555D01*
X449815Y196740D01*
X451000Y202665D02*
X443890D01*
X447445Y199110D01*
Y203850D01*
X445075Y206219D02*
X443890Y207404D01*
Y209774D01*
X445075Y210959D01*
X446260D01*
X447445Y209774D01*
Y208589D01*
Y209774D01*
X448630Y210959D01*
X449815D01*
X451000Y209774D01*
Y207404D01*
X449815Y206219D01*
X446075Y169740D02*
X444890Y168555D01*
Y166185D01*
X446075Y165000D01*
X450815D01*
X452000Y166185D01*
Y168555D01*
X450815Y169740D01*
X452000Y175665D02*
X444890D01*
X448445Y172110D01*
Y176849D01*
X452000Y183959D02*
Y179219D01*
X447260Y183959D01*
X446075D01*
X444890Y182774D01*
Y180404D01*
X446075Y179219D01*
X463740Y220925D02*
X462555Y222110D01*
X460185D01*
X459000Y220925D01*
Y216185D01*
X460185Y215000D01*
X462555D01*
X463740Y216185D01*
X469664Y215000D02*
Y222110D01*
X466110Y218555D01*
X470849D01*
X473219Y215000D02*
X475589D01*
X474404D01*
Y222110D01*
X473219Y220925D01*
X504740Y153925D02*
X503555Y155110D01*
X501185D01*
X500000Y153925D01*
Y149185D01*
X501185Y148000D01*
X503555D01*
X504740Y149185D01*
X507110Y153925D02*
X508295Y155110D01*
X510664D01*
X511850Y153925D01*
Y152740D01*
X510664Y151555D01*
X509480D01*
X510664D01*
X511850Y150370D01*
Y149185D01*
X510664Y148000D01*
X508295D01*
X507110Y149185D01*
X514219D02*
X515404Y148000D01*
X517774D01*
X518959Y149185D01*
Y153925D01*
X517774Y155110D01*
X515404D01*
X514219Y153925D01*
Y152740D01*
X515404Y151555D01*
X518959D01*
X446075Y143740D02*
X444890Y142555D01*
Y140185D01*
X446075Y139000D01*
X450815D01*
X452000Y140185D01*
Y142555D01*
X450815Y143740D01*
X446075Y146110D02*
X444890Y147295D01*
Y149664D01*
X446075Y150850D01*
X447260D01*
X448445Y149664D01*
Y148480D01*
Y149664D01*
X449630Y150850D01*
X450815D01*
X452000Y149664D01*
Y147295D01*
X450815Y146110D01*
X446075Y153219D02*
X444890Y154404D01*
Y156774D01*
X446075Y157959D01*
X447260D01*
X448445Y156774D01*
X449630Y157959D01*
X450815D01*
X452000Y156774D01*
Y154404D01*
X450815Y153219D01*
X449630D01*
X448445Y154404D01*
X447260Y153219D01*
X446075D01*
X448445Y154404D02*
Y156774D01*
X537740Y134925D02*
X536555Y136110D01*
X534185D01*
X533000Y134925D01*
Y130185D01*
X534185Y129000D01*
X536555D01*
X537740Y130185D01*
X540110Y134925D02*
X541295Y136110D01*
X543665D01*
X544850Y134925D01*
Y133740D01*
X543665Y132555D01*
X542480D01*
X543665D01*
X544850Y131370D01*
Y130185D01*
X543665Y129000D01*
X541295D01*
X540110Y130185D01*
X547219Y136110D02*
X551959D01*
Y134925D01*
X547219Y130185D01*
Y129000D01*
X65740Y233925D02*
X64555Y235110D01*
X62185D01*
X61000Y233925D01*
Y229185D01*
X62185Y228000D01*
X64555D01*
X65740Y229185D01*
X68110Y233925D02*
X69295Y235110D01*
X71665D01*
X72849Y233925D01*
Y232740D01*
X71665Y231555D01*
X70480D01*
X71665D01*
X72849Y230370D01*
Y229185D01*
X71665Y228000D01*
X69295D01*
X68110Y229185D01*
X75219Y228000D02*
X77589D01*
X76404D01*
Y235110D01*
X75219Y233925D01*
X86740Y230925D02*
X85555Y232110D01*
X83185D01*
X82000Y230925D01*
Y226185D01*
X83185Y225000D01*
X85555D01*
X86740Y226185D01*
X89110Y230925D02*
X90295Y232110D01*
X92664D01*
X93849Y230925D01*
Y229740D01*
X92664Y228555D01*
X91480D01*
X92664D01*
X93849Y227370D01*
Y226185D01*
X92664Y225000D01*
X90295D01*
X89110Y226185D01*
X96219Y230925D02*
X97404Y232110D01*
X99774D01*
X100959Y230925D01*
Y226185D01*
X99774Y225000D01*
X97404D01*
X96219Y226185D01*
Y230925D01*
X159740Y513925D02*
X158555Y515110D01*
X156185D01*
X155000Y513925D01*
Y509185D01*
X156185Y508000D01*
X158555D01*
X159740Y509185D01*
X166849Y508000D02*
X162110D01*
X166849Y512740D01*
Y513925D01*
X165665Y515110D01*
X163295D01*
X162110Y513925D01*
X169219Y509185D02*
X170404Y508000D01*
X172774D01*
X173959Y509185D01*
Y513925D01*
X172774Y515110D01*
X170404D01*
X169219Y513925D01*
Y512740D01*
X170404Y511555D01*
X173959D01*
X204740Y511925D02*
X203555Y513110D01*
X201185D01*
X200000Y511925D01*
Y507185D01*
X201185Y506000D01*
X203555D01*
X204740Y507185D01*
X211849Y506000D02*
X207110D01*
X211849Y510740D01*
Y511925D01*
X210665Y513110D01*
X208295D01*
X207110Y511925D01*
X214219D02*
X215404Y513110D01*
X217774D01*
X218959Y511925D01*
Y510740D01*
X217774Y509555D01*
X218959Y508370D01*
Y507185D01*
X217774Y506000D01*
X215404D01*
X214219Y507185D01*
Y508370D01*
X215404Y509555D01*
X214219Y510740D01*
Y511925D01*
X215404Y509555D02*
X217774D01*
X58075Y489740D02*
X56890Y488555D01*
Y486185D01*
X58075Y485000D01*
X62815D01*
X64000Y486185D01*
Y488555D01*
X62815Y489740D01*
X64000Y496850D02*
Y492110D01*
X59260Y496850D01*
X58075D01*
X56890Y495664D01*
Y493295D01*
X58075Y492110D01*
X56890Y499219D02*
Y503959D01*
X58075D01*
X62815Y499219D01*
X64000D01*
X125740Y489925D02*
X124555Y491110D01*
X122185D01*
X121000Y489925D01*
Y485185D01*
X122185Y484000D01*
X124555D01*
X125740Y485185D01*
X132850Y484000D02*
X128110D01*
X132850Y488740D01*
Y489925D01*
X131665Y491110D01*
X129295D01*
X128110Y489925D01*
X139959Y491110D02*
X137589Y489925D01*
X135219Y487555D01*
Y485185D01*
X136404Y484000D01*
X138774D01*
X139959Y485185D01*
Y486370D01*
X138774Y487555D01*
X135219D01*
X316740Y639925D02*
X315555Y641110D01*
X313185D01*
X312000Y639925D01*
Y635185D01*
X313185Y634000D01*
X315555D01*
X316740Y635185D01*
X323849Y634000D02*
X319110D01*
X323849Y638740D01*
Y639925D01*
X322665Y641110D01*
X320295D01*
X319110Y639925D01*
X330959Y641110D02*
X326219D01*
Y637555D01*
X328589Y638740D01*
X329774D01*
X330959Y637555D01*
Y635185D01*
X329774Y634000D01*
X327404D01*
X326219Y635185D01*
X530740Y629925D02*
X529555Y631110D01*
X527185D01*
X526000Y629925D01*
Y625185D01*
X527185Y624000D01*
X529555D01*
X530740Y625185D01*
X537850Y624000D02*
X533110D01*
X537850Y628740D01*
Y629925D01*
X536665Y631110D01*
X534295D01*
X533110Y629925D01*
X543774Y624000D02*
Y631110D01*
X540219Y627555D01*
X544959D01*
X319740Y496925D02*
X318555Y498110D01*
X316185D01*
X315000Y496925D01*
Y492185D01*
X316185Y491000D01*
X318555D01*
X319740Y492185D01*
X326850Y491000D02*
X322110D01*
X326850Y495740D01*
Y496925D01*
X325665Y498110D01*
X323295D01*
X322110Y496925D01*
X329219D02*
X330404Y498110D01*
X332774D01*
X333959Y496925D01*
Y495740D01*
X332774Y494555D01*
X331589D01*
X332774D01*
X333959Y493370D01*
Y492185D01*
X332774Y491000D01*
X330404D01*
X329219Y492185D01*
X470740Y365925D02*
X469555Y367110D01*
X467185D01*
X466000Y365925D01*
Y361185D01*
X467185Y360000D01*
X469555D01*
X470740Y361185D01*
X477850Y360000D02*
X473110D01*
X477850Y364740D01*
Y365925D01*
X476665Y367110D01*
X474295D01*
X473110Y365925D01*
X484959Y360000D02*
X480219D01*
X484959Y364740D01*
Y365925D01*
X483774Y367110D01*
X481404D01*
X480219Y365925D01*
X456740Y392925D02*
X455555Y394110D01*
X453185D01*
X452000Y392925D01*
Y388185D01*
X453185Y387000D01*
X455555D01*
X456740Y388185D01*
X463849Y387000D02*
X459110D01*
X463849Y391740D01*
Y392925D01*
X462665Y394110D01*
X460295D01*
X459110Y392925D01*
X466219Y387000D02*
X468589D01*
X467404D01*
Y394110D01*
X466219Y392925D01*
X352740Y312925D02*
X351555Y314110D01*
X349185D01*
X348000Y312925D01*
Y308185D01*
X349185Y307000D01*
X351555D01*
X352740Y308185D01*
X359850Y307000D02*
X355110D01*
X359850Y311740D01*
Y312925D01*
X358665Y314110D01*
X356295D01*
X355110Y312925D01*
X362219D02*
X363404Y314110D01*
X365774D01*
X366959Y312925D01*
Y308185D01*
X365774Y307000D01*
X363404D01*
X362219Y308185D01*
Y312925D01*
X258740Y313925D02*
X257555Y315110D01*
X255185D01*
X254000Y313925D01*
Y309185D01*
X255185Y308000D01*
X257555D01*
X258740Y309185D01*
X261110Y308000D02*
X263480D01*
X262295D01*
Y315110D01*
X261110Y313925D01*
X267034Y309185D02*
X268219Y308000D01*
X270589D01*
X271774Y309185D01*
Y313925D01*
X270589Y315110D01*
X268219D01*
X267034Y313925D01*
Y312740D01*
X268219Y311555D01*
X271774D01*
X316740Y406925D02*
X315555Y408110D01*
X313185D01*
X312000Y406925D01*
Y402185D01*
X313185Y401000D01*
X315555D01*
X316740Y402185D01*
X319110Y401000D02*
X321480D01*
X320295D01*
Y408110D01*
X319110Y406925D01*
X325034D02*
X326219Y408110D01*
X328589D01*
X329774Y406925D01*
Y405740D01*
X328589Y404555D01*
X329774Y403370D01*
Y402185D01*
X328589Y401000D01*
X326219D01*
X325034Y402185D01*
Y403370D01*
X326219Y404555D01*
X325034Y405740D01*
Y406925D01*
X326219Y404555D02*
X328589D01*
X231740Y348925D02*
X230555Y350110D01*
X228185D01*
X227000Y348925D01*
Y344185D01*
X228185Y343000D01*
X230555D01*
X231740Y344185D01*
X234110Y343000D02*
X236480D01*
X235295D01*
Y350110D01*
X234110Y348925D01*
X243589Y343000D02*
Y350110D01*
X240034Y346555D01*
X244774D01*
X151075Y340740D02*
X149890Y339555D01*
Y337185D01*
X151075Y336000D01*
X155815D01*
X157000Y337185D01*
Y339555D01*
X155815Y340740D01*
X157000Y343110D02*
Y345480D01*
Y344295D01*
X149890D01*
X151075Y343110D01*
Y349034D02*
X149890Y350219D01*
Y352589D01*
X151075Y353774D01*
X152260D01*
X153445Y352589D01*
Y351404D01*
Y352589D01*
X154630Y353774D01*
X155815D01*
X157000Y352589D01*
Y350219D01*
X155815Y349034D01*
X190740Y418925D02*
X189555Y420110D01*
X187185D01*
X186000Y418925D01*
Y414185D01*
X187185Y413000D01*
X189555D01*
X190740Y414185D01*
X193110Y413000D02*
X195480D01*
X194295D01*
Y420110D01*
X193110Y418925D01*
X203774Y413000D02*
X199035D01*
X203774Y417740D01*
Y418925D01*
X202589Y420110D01*
X200219D01*
X199035Y418925D01*
X404740Y215925D02*
X403555Y217110D01*
X401185D01*
X400000Y215925D01*
Y211185D01*
X401185Y210000D01*
X403555D01*
X404740Y211185D01*
X407110Y210000D02*
X409480D01*
X408295D01*
Y217110D01*
X407110Y215925D01*
X413034Y210000D02*
X415404D01*
X414219D01*
Y217110D01*
X413034Y215925D01*
X471740Y62925D02*
X470555Y64110D01*
X468185D01*
X467000Y62925D01*
Y58185D01*
X468185Y57000D01*
X470555D01*
X471740Y58185D01*
X474110Y57000D02*
X476480D01*
X475295D01*
Y64110D01*
X474110Y62925D01*
X480034D02*
X481219Y64110D01*
X483589D01*
X484774Y62925D01*
Y58185D01*
X483589Y57000D01*
X481219D01*
X480034Y58185D01*
Y62925D01*
X606688Y458077D02*
X605503Y459262D01*
X603133D01*
X601948Y458077D01*
Y453337D01*
X603133Y452152D01*
X605503D01*
X606688Y453337D01*
X609058Y459262D02*
X613797D01*
Y458077D01*
X609058Y453337D01*
Y452152D01*
X521740Y400925D02*
X520555Y402110D01*
X518185D01*
X517000Y400925D01*
Y396185D01*
X518185Y395000D01*
X520555D01*
X521740Y396185D01*
X528849Y402110D02*
X526480Y400925D01*
X524110Y398555D01*
Y396185D01*
X525295Y395000D01*
X527665D01*
X528849Y396185D01*
Y397370D01*
X527665Y398555D01*
X524110D01*
X600740Y412925D02*
X599555Y414110D01*
X597185D01*
X596000Y412925D01*
Y408185D01*
X597185Y407000D01*
X599555D01*
X600740Y408185D01*
X607850Y414110D02*
X603110D01*
Y410555D01*
X605480Y411740D01*
X606665D01*
X607850Y410555D01*
Y408185D01*
X606665Y407000D01*
X604295D01*
X603110Y408185D01*
X579740Y414925D02*
X578555Y416110D01*
X576185D01*
X575000Y414925D01*
Y410185D01*
X576185Y409000D01*
X578555D01*
X579740Y410185D01*
X585664Y409000D02*
Y416110D01*
X582110Y412555D01*
X586850D01*
X149075Y165740D02*
X147890Y164555D01*
Y162185D01*
X149075Y161000D01*
X153815D01*
X155000Y162185D01*
Y164555D01*
X153815Y165740D01*
X155000Y171665D02*
X147890D01*
X151445Y168110D01*
Y172850D01*
X149075Y175219D02*
X147890Y176404D01*
Y178774D01*
X149075Y179959D01*
X153815D01*
X155000Y178774D01*
Y176404D01*
X153815Y175219D01*
X149075D01*
X101000Y164110D02*
Y158185D01*
X102185Y157000D01*
X104555D01*
X105740Y158185D01*
Y164110D01*
X108110Y157000D02*
X110480D01*
X109295D01*
Y164110D01*
X108110Y162925D01*
X118774Y157000D02*
X114034D01*
X118774Y161740D01*
Y162925D01*
X117589Y164110D01*
X115219D01*
X114034Y162925D01*
X213000Y234000D02*
Y241110D01*
X216555D01*
X217740Y239925D01*
Y237555D01*
X216555Y236370D01*
X213000D01*
X215370D02*
X217740Y234000D01*
X220110Y239925D02*
X221295Y241110D01*
X223665D01*
X224849Y239925D01*
Y238740D01*
X223665Y237555D01*
X224849Y236370D01*
Y235185D01*
X223665Y234000D01*
X221295D01*
X220110Y235185D01*
Y236370D01*
X221295Y237555D01*
X220110Y238740D01*
Y239925D01*
X221295Y237555D02*
X223665D01*
X231959Y234000D02*
X227219D01*
X231959Y238740D01*
Y239925D01*
X230774Y241110D01*
X228404D01*
X227219Y239925D01*
X222000Y443191D02*
X223904D01*
X225809Y445096D01*
Y454618D01*
X235331Y447000D02*
X239139D01*
X241044Y448904D01*
Y452713D01*
X239139Y454618D01*
X235331D01*
X233426Y452713D01*
Y448904D01*
X235331Y447000D01*
X246757Y454618D02*
X250566D01*
X252470Y452713D01*
Y447000D01*
X246757D01*
X244853Y448904D01*
X246757Y450809D01*
X252470D01*
X258183Y447000D02*
X261992D01*
X263897Y448904D01*
Y452713D01*
X261992Y454618D01*
X258183D01*
X256279Y452713D01*
Y448904D01*
X258183Y447000D01*
X271514Y443191D02*
X273418D01*
X275323Y445096D01*
Y454618D01*
X269610D01*
X267705Y452713D01*
Y448904D01*
X269610Y447000D01*
X275323D01*
X279132Y454618D02*
Y448904D01*
X281036Y447000D01*
X286749D01*
Y454618D01*
X290558Y447000D02*
X294367D01*
X292462D01*
Y454618D01*
X290558D01*
X300080Y447000D02*
Y454618D01*
X301984D01*
X303889Y452713D01*
Y447000D01*
Y452713D01*
X305793Y454618D01*
X307697Y452713D01*
Y447000D01*
X313410Y454618D02*
X317219D01*
X319124Y452713D01*
Y447000D01*
X313410D01*
X311506Y448904D01*
X313410Y450809D01*
X319124D01*
X322933Y454618D02*
Y447000D01*
Y450809D01*
X324837Y452713D01*
X326741Y454618D01*
X328646D01*
X336263D02*
X340072D01*
X341976Y452713D01*
Y447000D01*
X336263D01*
X334359Y448904D01*
X336263Y450809D01*
X341976D01*
X351498Y447000D02*
X347690D01*
X345785Y448904D01*
Y452713D01*
X347690Y454618D01*
X351498D01*
X353403Y452713D01*
Y450809D01*
X345785D01*
X357211Y447000D02*
X362924D01*
X364829Y448904D01*
X362924Y450809D01*
X359116D01*
X357211Y452713D01*
X359116Y454618D01*
X364829D01*
X368638Y456522D02*
X370542Y458426D01*
X374351D01*
X376255Y456522D01*
Y454618D01*
X374351Y452713D01*
X372447D01*
X374351D01*
X376255Y450809D01*
Y448904D01*
X374351Y447000D01*
X370542D01*
X368638Y448904D01*
X380064Y447000D02*
X383873D01*
X381968D01*
Y458426D01*
X380064Y456522D01*
X395299Y450809D02*
Y452713D01*
X393395D01*
Y450809D01*
X395299D01*
X397203Y452713D01*
Y456522D01*
X395299Y458426D01*
X391490D01*
X389586Y456522D01*
Y448904D01*
X391490Y447000D01*
X397203D01*
X404821Y443191D02*
X406725D01*
X408630Y445096D01*
Y454618D01*
X402917D01*
X401012Y452713D01*
Y448904D01*
X402917Y447000D01*
X408630D01*
X412439D02*
Y454618D01*
X414343D01*
X416247Y452713D01*
Y447000D01*
Y452713D01*
X418152Y454618D01*
X420056Y452713D01*
Y447000D01*
X425769Y454618D02*
X429578D01*
X431482Y452713D01*
Y447000D01*
X425769D01*
X423865Y448904D01*
X425769Y450809D01*
X431482D01*
X435291Y447000D02*
X439100D01*
X437196D01*
Y454618D01*
X435291D01*
X444813Y447000D02*
X448622D01*
X446717D01*
Y458426D01*
X444813D01*
X454335Y447000D02*
Y448904D01*
X456240D01*
Y447000D01*
X454335D01*
X471474Y454618D02*
X465761D01*
X463857Y452713D01*
Y448904D01*
X465761Y447000D01*
X471474D01*
X477188D02*
X480997D01*
X482901Y448904D01*
Y452713D01*
X480997Y454618D01*
X477188D01*
X475283Y452713D01*
Y448904D01*
X477188Y447000D01*
X486710D02*
Y454618D01*
X488614D01*
X490518Y452713D01*
Y447000D01*
Y452713D01*
X492423Y454618D01*
X494327Y452713D01*
Y447000D01*
X225000Y476696D02*
Y464000D01*
X231348D01*
X233464Y466116D01*
Y468232D01*
X231348Y470348D01*
X225000D01*
X231348D01*
X233464Y472464D01*
Y474580D01*
X231348Y476696D01*
X225000D01*
X237696Y472464D02*
Y464000D01*
Y468232D01*
X239812Y470348D01*
X241928Y472464D01*
X244044D01*
X252508D02*
X256740D01*
X258856Y470348D01*
Y464000D01*
X252508D01*
X250392Y466116D01*
X252508Y468232D01*
X258856D01*
X263088Y464000D02*
Y476696D01*
Y468232D02*
X269436Y472464D01*
X263088Y468232D02*
X269436Y464000D01*
X282132D02*
X277899D01*
X275784Y466116D01*
Y470348D01*
X277899Y472464D01*
X282132D01*
X284247Y470348D01*
Y468232D01*
X275784D01*
X290595Y474580D02*
Y472464D01*
X288479D01*
X292711D01*
X290595D01*
Y466116D01*
X292711Y464000D01*
X305407D02*
X301175D01*
X299059Y466116D01*
Y470348D01*
X301175Y472464D01*
X305407D01*
X307523Y470348D01*
Y468232D01*
X299059D01*
X311755Y464000D02*
X318103D01*
X320219Y466116D01*
X318103Y468232D01*
X313871D01*
X311755Y470348D01*
X313871Y472464D01*
X320219D01*
X326567Y474580D02*
Y472464D01*
X324451D01*
X328683D01*
X326567D01*
Y466116D01*
X328683Y464000D01*
X335031Y476696D02*
Y464000D01*
X341379D01*
X343495Y466116D01*
Y468232D01*
Y470348D01*
X341379Y472464D01*
X335031D01*
X354075Y464000D02*
X349843D01*
X347727Y466116D01*
Y470348D01*
X349843Y472464D01*
X354075D01*
X356191Y470348D01*
Y468232D01*
X347727D01*
X360423Y464000D02*
Y472464D01*
X366771D01*
X368887Y470348D01*
Y464000D01*
X381583Y472464D02*
X375235D01*
X373119Y470348D01*
Y466116D01*
X375235Y464000D01*
X381583D01*
X385815Y476696D02*
Y464000D01*
Y470348D01*
X387930Y472464D01*
X392163D01*
X394278Y470348D01*
Y464000D01*
X411206D02*
X415438D01*
X413322D01*
Y476696D01*
X411206Y474580D01*
X421786Y464000D02*
Y466116D01*
X423902D01*
Y464000D01*
X421786D01*
X432366Y474580D02*
X434482Y476696D01*
X438714D01*
X440830Y474580D01*
Y466116D01*
X438714Y464000D01*
X434482D01*
X432366Y466116D01*
Y474580D01*
D67*
X247999Y254499D02*
Y266300D01*
Y254499D02*
X364001D01*
Y266300D01*
Y291700D02*
Y303501D01*
X247999D02*
X364001D01*
X247999Y291700D02*
Y303501D01*
X260000Y527110D02*
Y521185D01*
X261185Y520000D01*
X263555D01*
X264740Y521185D01*
Y527110D01*
X271849D02*
X269480Y525925D01*
X267110Y523555D01*
Y521185D01*
X268295Y520000D01*
X270665D01*
X271849Y521185D01*
Y522370D01*
X270665Y523555D01*
X267110D01*
D68*
X543501Y360200D02*
Y395201D01*
Y360200D02*
X560499D01*
Y395201D01*
X543501D02*
X560499D01*
D69*
X124000Y515001D02*
Y534501D01*
X98999D02*
X124000D01*
X98999D02*
Y639499D01*
X124000D01*
Y658999D01*
Y639499D02*
X149001D01*
X124000Y534501D02*
X149001D01*
Y639499D01*
M02*
