G04 Layer_Color=8388736*
%FSLAX44Y44*%
%MOMM*%
G71*
G01*
G75*
%ADD72R,1.5372X1.2372*%
%ADD73R,1.5372X1.6372*%
%ADD74R,0.7372X0.6372*%
%ADD75R,0.6872X1.6372*%
%ADD76R,1.6372X0.6872*%
%ADD77R,7.6372X3.1372*%
%ADD78R,1.6372X1.5372*%
%ADD79R,3.6372X1.7372*%
%ADD80R,1.9373X2.5372*%
%ADD81R,0.6372X0.7372*%
%ADD82R,1.7374X0.6960*%
%ADD83R,1.4580X0.6960*%
%ADD84R,0.9372X1.0372*%
%ADD85R,0.7372X1.5872*%
%ADD86R,1.2372X1.5372*%
%ADD87R,1.9152X0.5690*%
%ADD88R,1.5872X0.7372*%
%ADD89O,2.6372X0.8372*%
%ADD90R,2.4232X1.9152*%
G04:AMPARAMS|DCode=91|XSize=5.1471mm|YSize=1.6472mm|CornerRadius=0.2573mm|HoleSize=0mm|Usage=FLASHONLY|Rotation=180.000|XOffset=0mm|YOffset=0mm|HoleType=Round|Shape=RoundedRectangle|*
%AMROUNDEDRECTD91*
21,1,5.1471,1.1325,0,0,180.0*
21,1,4.6324,1.6472,0,0,180.0*
1,1,0.5147,-2.3162,0.5663*
1,1,0.5147,2.3162,0.5663*
1,1,0.5147,2.3162,-0.5663*
1,1,0.5147,-2.3162,-0.5663*
%
%ADD91ROUNDEDRECTD91*%
%ADD92R,1.9152X0.5436*%
%ADD93R,0.9271X1.2271*%
%ADD94R,1.1572X1.9271*%
%ADD95R,3.7372X1.2872*%
%ADD96R,8.2372X10.2872*%
%ADD97R,0.6372X0.8372*%
%ADD98C,1.6372*%
%ADD99R,1.6372X1.6372*%
%ADD100R,1.6372X1.6372*%
%ADD101O,1.1372X2.1372*%
%ADD102O,1.1372X2.1372*%
%ADD103R,1.7371X1.7371*%
%ADD104C,1.7371*%
%ADD105C,1.6612*%
D72*
X608000Y422500D02*
D03*
Y437500D02*
D03*
X347000Y633500D02*
D03*
Y618500D02*
D03*
X604000Y383500D02*
D03*
Y398500D02*
D03*
X582000Y383500D02*
D03*
Y398500D02*
D03*
X535000Y323500D02*
D03*
Y338500D02*
D03*
X528000Y371500D02*
D03*
Y386500D02*
D03*
X466000Y136500D02*
D03*
Y151500D02*
D03*
X215000Y358500D02*
D03*
Y343500D02*
D03*
X69000Y472500D02*
D03*
Y457500D02*
D03*
X147000Y471500D02*
D03*
Y456500D02*
D03*
X65000Y243500D02*
D03*
Y258500D02*
D03*
X84000Y243500D02*
D03*
Y258500D02*
D03*
D73*
X559000Y227000D02*
D03*
X539000D02*
D03*
X88000Y278000D02*
D03*
X68000D02*
D03*
X113000Y348000D02*
D03*
X133000D02*
D03*
X169000Y350000D02*
D03*
X189000D02*
D03*
X490000Y227000D02*
D03*
X510000D02*
D03*
X606000Y527000D02*
D03*
X626000D02*
D03*
X561000Y408000D02*
D03*
X541000D02*
D03*
X316000Y362000D02*
D03*
X296000D02*
D03*
Y334000D02*
D03*
X316000D02*
D03*
X457000Y340000D02*
D03*
X477000D02*
D03*
X457000Y313000D02*
D03*
X477000D02*
D03*
X360000Y182000D02*
D03*
X380000D02*
D03*
Y210000D02*
D03*
X360000D02*
D03*
X360000Y238000D02*
D03*
X340000D02*
D03*
X293000D02*
D03*
X313000D02*
D03*
X232000Y223000D02*
D03*
X212000D02*
D03*
X200000Y140000D02*
D03*
X220000D02*
D03*
X267000D02*
D03*
X247000D02*
D03*
X406000Y183000D02*
D03*
X426000D02*
D03*
X512000Y136000D02*
D03*
X492000D02*
D03*
X584000Y40000D02*
D03*
X564000D02*
D03*
X512000Y79000D02*
D03*
X492000D02*
D03*
X191000Y323000D02*
D03*
X211000D02*
D03*
X195000Y379000D02*
D03*
X215000D02*
D03*
X112000Y106000D02*
D03*
X132000D02*
D03*
X115000Y202000D02*
D03*
X135000D02*
D03*
X115000Y174000D02*
D03*
X135000D02*
D03*
X88000D02*
D03*
X68000D02*
D03*
X88000Y202000D02*
D03*
X68000D02*
D03*
X89000Y348000D02*
D03*
X69000D02*
D03*
D74*
X426000Y198000D02*
D03*
X416000D02*
D03*
X326000Y393000D02*
D03*
X316000D02*
D03*
X449000Y378000D02*
D03*
X459000D02*
D03*
X449000Y362000D02*
D03*
X459000D02*
D03*
X484000Y209000D02*
D03*
X474000D02*
D03*
X491000Y154000D02*
D03*
X481000D02*
D03*
X492000Y60000D02*
D03*
X502000D02*
D03*
X151000Y328000D02*
D03*
X161000D02*
D03*
X134000Y426000D02*
D03*
X144000D02*
D03*
X72000Y110000D02*
D03*
X82000D02*
D03*
D75*
X360000Y425000D02*
D03*
X368000D02*
D03*
X376000D02*
D03*
X384000D02*
D03*
X392000D02*
D03*
X400000D02*
D03*
X408000D02*
D03*
X416000D02*
D03*
Y339000D02*
D03*
X408000D02*
D03*
X400000D02*
D03*
X392000D02*
D03*
X384000D02*
D03*
X376000D02*
D03*
X368000D02*
D03*
X360000D02*
D03*
D76*
X431000Y410000D02*
D03*
Y402000D02*
D03*
Y394000D02*
D03*
Y386000D02*
D03*
Y378000D02*
D03*
Y370000D02*
D03*
Y362000D02*
D03*
Y354000D02*
D03*
X345000D02*
D03*
Y362000D02*
D03*
Y370000D02*
D03*
Y378000D02*
D03*
Y386000D02*
D03*
Y394000D02*
D03*
Y402000D02*
D03*
Y410000D02*
D03*
D77*
X398000Y574000D02*
D03*
Y624000D02*
D03*
D78*
X597000Y252000D02*
D03*
Y272000D02*
D03*
X632000Y446000D02*
D03*
Y426000D02*
D03*
Y381000D02*
D03*
Y401000D02*
D03*
X508000Y455000D02*
D03*
Y435000D02*
D03*
X511000Y343000D02*
D03*
Y323000D02*
D03*
X560000D02*
D03*
Y343000D02*
D03*
X505000Y371000D02*
D03*
Y391000D02*
D03*
X297000Y156000D02*
D03*
Y136000D02*
D03*
X324600Y156000D02*
D03*
Y136000D02*
D03*
X426000D02*
D03*
Y156000D02*
D03*
X594000Y213000D02*
D03*
Y193000D02*
D03*
Y167000D02*
D03*
Y147000D02*
D03*
X660000Y119000D02*
D03*
Y139000D02*
D03*
X552000Y73000D02*
D03*
Y93000D02*
D03*
X463000Y75000D02*
D03*
Y95000D02*
D03*
X171000Y160000D02*
D03*
Y140000D02*
D03*
X209000Y278000D02*
D03*
Y258000D02*
D03*
X215000Y407000D02*
D03*
Y427000D02*
D03*
X104000Y78000D02*
D03*
Y58000D02*
D03*
X134000Y78000D02*
D03*
Y58000D02*
D03*
X39000Y123000D02*
D03*
Y103000D02*
D03*
X40000Y579000D02*
D03*
Y559000D02*
D03*
X546000Y257000D02*
D03*
Y277000D02*
D03*
D79*
X459000Y610000D02*
D03*
X515000D02*
D03*
X403000Y514000D02*
D03*
X347000D02*
D03*
D80*
X452751Y559000D02*
D03*
X493249D02*
D03*
D81*
X535000Y519000D02*
D03*
Y529000D02*
D03*
X193000Y182000D02*
D03*
Y172000D02*
D03*
X560000Y144000D02*
D03*
Y134000D02*
D03*
X152000Y145000D02*
D03*
Y135000D02*
D03*
X188000Y407000D02*
D03*
Y397000D02*
D03*
D82*
X535000Y505700D02*
D03*
Y493000D02*
D03*
Y480300D02*
D03*
Y467600D02*
D03*
Y454900D02*
D03*
Y442200D02*
D03*
Y429500D02*
D03*
X585800D02*
D03*
Y442200D02*
D03*
Y454900D02*
D03*
Y467600D02*
D03*
Y480300D02*
D03*
Y493000D02*
D03*
Y505700D02*
D03*
D83*
X631700Y502398D02*
D03*
Y493000D02*
D03*
Y483602D02*
D03*
X606300D02*
D03*
Y493000D02*
D03*
Y502398D02*
D03*
D84*
X619000Y468000D02*
D03*
X605000D02*
D03*
X296000Y312000D02*
D03*
X282000D02*
D03*
X316000Y312000D02*
D03*
X330000D02*
D03*
X226000Y160000D02*
D03*
X240000D02*
D03*
X199000D02*
D03*
X213000D02*
D03*
X254000D02*
D03*
X268000D02*
D03*
D85*
X435500Y239750D02*
D03*
X416500D02*
D03*
X426000Y216250D02*
D03*
X607500Y92750D02*
D03*
X588500D02*
D03*
X598000Y69250D02*
D03*
X123500Y258750D02*
D03*
X104500D02*
D03*
X114000Y235250D02*
D03*
D86*
X254500Y223000D02*
D03*
X269500D02*
D03*
X481500Y189000D02*
D03*
X466500D02*
D03*
X481500Y171000D02*
D03*
X466500D02*
D03*
X201500Y495000D02*
D03*
X216500D02*
D03*
X174500Y495000D02*
D03*
X159500D02*
D03*
D87*
X212553Y177250D02*
D03*
Y183750D02*
D03*
Y190250D02*
D03*
Y196750D02*
D03*
X253447D02*
D03*
Y190250D02*
D03*
Y183750D02*
D03*
Y177250D02*
D03*
D88*
X360250Y155500D02*
D03*
Y136500D02*
D03*
X383750Y146000D02*
D03*
X304250Y200500D02*
D03*
Y181500D02*
D03*
X327750Y191000D02*
D03*
D89*
X560500Y162950D02*
D03*
Y175650D02*
D03*
Y188350D02*
D03*
Y201050D02*
D03*
X511500Y162950D02*
D03*
Y175650D02*
D03*
Y188350D02*
D03*
Y201050D02*
D03*
X163500Y371950D02*
D03*
Y384650D02*
D03*
Y397350D02*
D03*
Y410050D02*
D03*
X114500Y371950D02*
D03*
Y384650D02*
D03*
Y397350D02*
D03*
Y410050D02*
D03*
D90*
X426200Y66230D02*
D03*
Y109770D02*
D03*
X375000Y66230D02*
D03*
Y109770D02*
D03*
X324600Y66230D02*
D03*
Y109770D02*
D03*
X274000Y66230D02*
D03*
Y109770D02*
D03*
X223000Y66230D02*
D03*
Y109770D02*
D03*
X172200Y66230D02*
D03*
Y109770D02*
D03*
X75000Y429770D02*
D03*
Y386230D02*
D03*
D91*
X258500Y279000D02*
D03*
X353501D02*
D03*
D92*
X131718Y128250D02*
D03*
Y134750D02*
D03*
Y141250D02*
D03*
Y147750D02*
D03*
X72282D02*
D03*
Y141250D02*
D03*
Y134750D02*
D03*
Y128250D02*
D03*
X70282Y321750D02*
D03*
Y315250D02*
D03*
Y308750D02*
D03*
Y302250D02*
D03*
X129718D02*
D03*
Y308750D02*
D03*
Y315250D02*
D03*
Y321750D02*
D03*
D93*
X552000Y387901D02*
D03*
D94*
Y371000D02*
D03*
D95*
X311500Y547000D02*
D03*
Y564000D02*
D03*
Y581000D02*
D03*
Y598000D02*
D03*
Y615000D02*
D03*
D96*
X205000Y581000D02*
D03*
D97*
X569000Y261500D02*
D03*
Y272500D02*
D03*
D98*
X527800Y660000D02*
D03*
X502400D02*
D03*
X477000D02*
D03*
X451600D02*
D03*
X426200D02*
D03*
X400800D02*
D03*
X375400D02*
D03*
X350000D02*
D03*
X324600D02*
D03*
X299200D02*
D03*
X273800D02*
D03*
X248400D02*
D03*
X223000D02*
D03*
X197600D02*
D03*
X627000Y350000D02*
D03*
X601600Y324600D02*
D03*
X627000D02*
D03*
X601600Y299200D02*
D03*
X627000D02*
D03*
X457000Y283000D02*
D03*
X482400Y257600D02*
D03*
Y283000D02*
D03*
X507800Y257600D02*
D03*
Y283000D02*
D03*
X527800Y40000D02*
D03*
X502400D02*
D03*
X477000D02*
D03*
X451600D02*
D03*
X426200D02*
D03*
X400800D02*
D03*
X375400D02*
D03*
X350000D02*
D03*
X324600D02*
D03*
X299200D02*
D03*
X273800D02*
D03*
X248400D02*
D03*
X223000D02*
D03*
X197600D02*
D03*
X40000Y172000D02*
D03*
Y197400D02*
D03*
Y222800D02*
D03*
Y248200D02*
D03*
Y273600D02*
D03*
Y299000D02*
D03*
Y324400D02*
D03*
Y349800D02*
D03*
Y375200D02*
D03*
Y400600D02*
D03*
Y426000D02*
D03*
Y451400D02*
D03*
Y476800D02*
D03*
Y502200D02*
D03*
X77000Y609250D02*
D03*
X660000Y172000D02*
D03*
Y197400D02*
D03*
Y222800D02*
D03*
Y248200D02*
D03*
Y273600D02*
D03*
Y299000D02*
D03*
Y324400D02*
D03*
Y349800D02*
D03*
Y375200D02*
D03*
Y400600D02*
D03*
Y426000D02*
D03*
Y451400D02*
D03*
Y476800D02*
D03*
Y502200D02*
D03*
X627000Y249250D02*
D03*
D99*
X172200Y660000D02*
D03*
X457000Y257600D02*
D03*
X172200Y40000D02*
D03*
D100*
X601600Y350000D02*
D03*
X40000Y527600D02*
D03*
X77000Y492750D02*
D03*
X660000Y527600D02*
D03*
X627000Y132750D02*
D03*
D101*
X200700Y459000D02*
D03*
X175300D02*
D03*
X121700Y457000D02*
D03*
X96300D02*
D03*
D102*
X188000Y459000D02*
D03*
X109000Y457000D02*
D03*
D103*
X124000Y672001D02*
D03*
D104*
Y501999D02*
D03*
D105*
X660000Y40000D02*
D03*
Y660000D02*
D03*
X40000D02*
D03*
Y40000D02*
D03*
M02*
